<svg width="14" height="14" viewBox="0 0 14 14" fill="none" xmlns="http://www.w3.org/2000/svg">
<g id="Black">
<path id="Vector" d="M6.5698 0.0338621C6.06064 0.192634 5.64455 0.548501 5.42555 1.01934L5.2832 1.32593V5.55802V9.79557L5.44197 9.93245C5.56242 10.031 5.6336 10.0584 5.74309 10.031C5.81974 10.0091 6.25773 9.71345 6.71762 9.37401L7.54433 8.74987L10.112 8.73345L12.6743 8.71702L12.9809 8.57468C13.3532 8.39948 13.6379 8.12574 13.8404 7.74249L13.9883 7.4578V4.36449V1.27118L13.835 0.959117C13.6598 0.60325 13.3477 0.296657 12.9809 0.126935C12.7345 0.0119629 12.6688 0.0119629 9.71786 0.0010128C8.06444 -0.00446224 6.64645 0.0119629 6.5698 0.0338621ZM12.7017 0.931743C12.8659 1.01934 12.9809 1.13431 13.0685 1.29856L13.1944 1.53398V4.34259C13.1944 6.19858 13.1725 7.20048 13.1342 7.3045C13.063 7.49612 12.8878 7.68774 12.6743 7.80272C12.5319 7.88484 12.1925 7.90127 9.87663 7.92316L7.24321 7.95054L6.72857 8.33926C6.44388 8.5473 6.18108 8.7444 6.14276 8.7663C6.08801 8.79915 6.07706 8.11479 6.08801 5.1474C6.10444 1.86795 6.11538 1.47376 6.19751 1.32593C6.30701 1.12336 6.49863 0.937218 6.6793 0.866044C6.76142 0.833195 7.9002 0.811295 9.64121 0.811295L12.4662 0.80582L12.7017 0.931743Z" fill="black"/>
<path id="Vector_2" d="M9.16477 2.05367C9.01147 2.10842 8.81985 2.20697 8.73225 2.27267C8.07527 2.79278 7.9384 3.87133 8.53516 3.87133C8.77058 3.87133 8.9184 3.71803 8.97315 3.41692C9.08265 2.81468 9.70678 2.58473 10.1229 2.99535C10.32 3.19245 10.3747 3.42239 10.2926 3.66876C10.2105 3.93155 10.0353 4.0739 9.71773 4.14507C9.30712 4.23815 9.25237 4.30932 9.25237 4.78564C9.25237 5.25648 9.35092 5.4043 9.65751 5.4043C9.86008 5.4043 10.0736 5.2072 10.0736 5.02106C10.0736 4.96631 10.1612 4.88966 10.2926 4.82943C10.5554 4.70899 10.9222 4.32575 11.0481 4.04653C11.0974 3.92608 11.1357 3.68518 11.1357 3.46071C11.1357 3.1377 11.1138 3.03367 10.977 2.7873C10.6101 2.11389 9.84913 1.8073 9.16477 2.05367Z" fill="black"/>
<path id="Vector_3" d="M9.54261 5.94148C9.38384 5.96338 9.25244 6.14953 9.25244 6.34662C9.25244 6.70249 9.73971 6.85579 9.9587 6.57657C10.101 6.3959 10.101 6.28092 9.96418 6.10573C9.8492 5.95243 9.73423 5.90863 9.54261 5.94148Z" fill="black"/>
<path id="Vector_4" d="M2.28828 6.61986C1.17688 6.76221 0.350169 7.81338 0.454192 8.95216C0.497991 9.39015 0.727936 9.90479 1.02905 10.2333L1.25352 10.4742L0.96883 10.6932C0.623913 10.956 0.31732 11.394 0.153073 11.8374C0.0600002 12.1002 0.0326258 12.3247 0.0107263 12.9433C-0.0111732 13.7153 -0.0111732 13.7208 0.125699 13.8577L0.268046 14H2.5894C4.88337 14 4.91622 14 5.06404 13.8796L5.21186 13.7646L5.19544 12.905L5.17354 12.0455L4.94359 11.5801C4.7684 11.2297 4.62605 11.0326 4.37968 10.8027C4.19354 10.6329 4.01834 10.4961 3.98549 10.4961C3.95264 10.4961 4.04024 10.3702 4.18259 10.2223C4.32493 10.069 4.5056 9.80624 4.58773 9.63105C4.71912 9.3573 4.73555 9.25328 4.73555 8.74411C4.73555 8.21853 4.71912 8.14188 4.57678 7.84076C4.37421 7.42467 3.91979 6.97025 3.54202 6.80053C3.18068 6.63629 2.70437 6.56511 2.28828 6.61986ZM3.31755 7.62176C4.29208 8.22948 4.07856 9.71317 2.96716 10.0362C2.12951 10.2826 1.259 9.60915 1.259 8.72221C1.259 8.43752 1.46704 7.99953 1.70246 7.77506C1.98716 7.50679 2.2171 7.42467 2.66057 7.44109C2.98359 7.45752 3.09308 7.48489 3.31755 7.62176ZM3.3504 11.0874C3.99096 11.3666 4.37968 12.0071 4.37968 12.7682V13.1788H2.59487H0.804584L0.831958 12.7244C0.875757 11.8593 1.33565 11.2461 2.13498 10.9833C2.37587 10.9012 3.07118 10.9614 3.3504 11.0874Z" fill="black"/>
</g>
</svg>
