<svg width="22" height="24" viewBox="0 0 22 24" fill="none" xmlns="http://www.w3.org/2000/svg">
<g id="Group 1000003797">
<path id="Vector" d="M14.8644 12.1095C14.6637 11.9088 14.4255 11.7495 14.1633 11.6409C13.901 11.5322 13.62 11.4763 13.3362 11.4763C13.0523 11.4763 12.7713 11.5322 12.509 11.6409C12.2468 11.7495 12.0086 11.9088 11.8079 12.1095L11.3915 12.5259L10.9751 12.1095C10.5698 11.7042 10.0201 11.4765 9.44687 11.4765C8.87367 11.4765 8.32396 11.7042 7.91865 12.1095C7.51334 12.5148 7.28564 13.0645 7.28564 13.6377C7.28564 14.2109 7.51334 14.7606 7.91865 15.1659L8.33508 15.5824L11.3915 18.6388L14.4479 15.5824L14.8644 15.1659C15.0651 14.9653 15.2244 14.727 15.333 14.4648C15.4417 14.2026 15.4976 13.9216 15.4976 13.6377C15.4976 13.3539 15.4417 13.0728 15.333 12.8106C15.2244 12.5484 15.0651 12.3102 14.8644 12.1095Z" fill="#EF2B7B"/>
<path id="Vector 42" d="M5.83401 8.95457C4.41224 0.176311 16.0707 -3.33503 16.0707 8.95457M3.22323 23H18.6422C19.8441 23 20.7746 21.9474 20.627 20.7545L19.1313 8.66078C19.0074 7.65878 18.156 6.90627 17.1464 6.90627H4.50531C3.48236 6.90627 2.62429 7.67818 2.51645 8.69543L1.23437 20.7892C1.10914 21.9705 2.03523 23 3.22323 23Z" stroke="black" stroke-linecap="round"/>
</g>
</svg>
