<svg width="20" height="20" viewBox="0 0 20 20" fill="none" xmlns="http://www.w3.org/2000/svg">
<g id="Group 1000003796">
<g id="Black">
<path id="Vector" d="M0.0475595 2.91597C0.255319 1.98314 0.993742 1.29398 1.93992 1.15369C2.12015 1.12907 2.46058 1.11923 3.36921 1.11923L0.0475595 2.91597ZM0.0475595 2.91597C0.00250313 3.1178 0 3.39838 0 10.3983C0 17.4056 0.00250313 17.6788 0.0475595 17.8806V2.91597ZM3.36921 1.61923C2.45151 1.61923 2.14985 1.63005 2.01027 1.64873C1.27089 1.75956 0.698256 2.29436 0.535602 3.02467L0.535547 3.02491L0.535226 3.02634C0.527394 3.06124 0.513237 3.12432 0.506873 4.11107C0.500629 5.07938 0.5 6.89733 0.5 10.3983C0.5 13.9029 0.500629 15.7209 0.506873 16.6883C0.513225 17.6723 0.527341 17.7351 0.535187 17.7701C0.535309 17.7706 0.535429 17.7711 0.535548 17.7717L0.535725 17.7725C0.577915 17.9629 0.701053 18.2493 0.793324 18.3862C0.825858 18.433 0.911127 18.5306 1.0258 18.6428C1.13942 18.7539 1.24274 18.8411 1.29679 18.8778C1.43091 18.9664 1.71558 19.0846 1.922 19.1299L1.81477 19.6183L1.91905 19.1293C1.91996 19.1295 1.92088 19.1297 1.9218 19.1299C1.96176 19.1385 2.02461 19.1521 3.08021 19.1583C4.12934 19.1644 6.12173 19.165 10 19.165C13.8783 19.165 15.8707 19.1644 16.9198 19.1583C17.9754 19.1521 18.0382 19.1385 18.0782 19.1299L18.0788 19.1297C18.2837 19.0846 18.5769 18.9617 18.7101 18.8741C18.7588 18.8416 18.8596 18.7566 18.9739 18.6443C19.0883 18.5318 19.1744 18.4329 19.2071 18.3856C19.2954 18.2557 19.4197 17.9688 19.4649 17.7699C19.4649 17.7699 19.4649 17.7698 19.4649 17.7698C19.4732 17.733 19.4869 17.6722 19.4931 16.7104C19.4994 15.751 19.5 13.9337 19.5 10.3983C19.5 6.89733 19.4994 5.07938 19.4931 4.11107C19.4868 3.12432 19.4726 3.06124 19.4648 3.02635L19.4645 3.02491L19.4643 3.02439C19.3019 2.29301 18.7327 1.76192 17.9892 1.64865C17.8493 1.63002 17.5473 1.61923 16.6308 1.61923H15.4393H14.9659L14.94 1.14653L14.9276 0.918758C14.9276 0.918606 14.9276 0.918453 14.9276 0.918301C14.9204 0.793163 14.9047 0.734066 14.8919 0.702164C14.8819 0.677189 14.8661 0.648897 14.8184 0.601995L15.169 0.245474L14.8184 0.601994C14.6891 0.47484 14.4859 0.468876 14.3496 0.58671L14.3496 0.586744C14.2994 0.630165 14.2774 0.664776 14.2631 0.700838C14.2464 0.743073 14.2297 0.815247 14.2297 0.946939V1.11923V1.61923H13.7297H10H6.27034H5.77034V1.11923V0.946939C5.77034 0.783957 5.74149 0.705305 5.72039 0.668995L5.72034 0.669022L5.7167 0.662523C5.69341 0.621044 5.63903 0.567575 5.55449 0.531796C5.46969 0.495905 5.39618 0.495348 5.35512 0.506468C5.27973 0.526949 5.25856 0.538385 5.25086 0.54287C5.24324 0.5473 5.22416 0.559223 5.17099 0.612371C5.12255 0.661634 5.08499 0.708544 5.0724 0.918903C5.07238 0.919249 5.07236 0.919594 5.07234 0.919941L5.05996 1.14653L5.03411 1.61923H4.5607H3.36921Z" stroke="black"/>
</g>
<path id="Vector_2" d="M14 8L8.5 14L6 11.2727" stroke="#EF2B7B" stroke-width="2" stroke-linecap="round" stroke-linejoin="round"/>
</g>
</svg>
