<svg width="328" height="71" viewBox="0 0 328 71" fill="none" xmlns="http://www.w3.org/2000/svg">
<path d="M287.242 70.994H40.7748C40.3748 70.994 39.9665 70.981 39.5582 70.9615C39.1082 70.9356 38.6498 70.8902 38.2082 70.8383C37.9248 70.7994 37.6415 70.7539 37.3665 70.7085C37.1165 70.6696 36.8998 70.6242 36.6832 70.5788C36.5582 70.5528 36.4248 70.5269 36.2915 70.4944C36.0665 70.4425 35.8415 70.3841 35.6165 70.3258C35.0498 70.1701 34.4998 69.9884 33.9665 69.7808C33.6998 69.677 33.4332 69.5602 33.1748 69.4499C33.1415 69.4305 33.0998 69.411 33.0582 69.3915C32.9915 69.3656 32.9332 69.3397 32.8665 69.3072C32.6165 69.184 32.3748 69.0542 32.1498 68.9244C31.9998 68.8401 31.8415 68.7493 31.6915 68.652L31.6582 68.6325L31.6332 68.6195C31.5082 68.5352 31.3832 68.4509 31.2415 68.36L31.2082 68.3341C31.0082 68.1978 30.7998 68.0421 30.6082 67.8864C30.4998 67.7956 30.4165 67.7307 30.3415 67.6594C30.0748 67.4323 29.8248 67.1923 29.5915 66.9392C29.5415 66.8744 29.4832 66.8095 29.4165 66.7316C29.3582 66.6668 29.2915 66.5889 29.2248 66.5046C28.7665 65.9207 28.4248 65.3044 28.1915 64.6491C28.1332 64.4805 28.0832 64.3183 28.0498 64.1626C28.0332 64.1107 28.0248 64.0523 28.0082 63.9939C27.9915 63.9225 27.9832 63.8447 27.9665 63.7474C27.9165 63.4684 27.8915 63.1829 27.8915 62.904V62.4044H27.5748C27.4748 62.4044 27.3748 62.4044 27.2665 62.4044C27.1415 62.4044 27.0248 62.3979 26.9082 62.3915C26.7665 62.3915 26.6332 62.385 26.4998 62.372C26.2915 62.359 26.1165 62.346 25.9498 62.3331C24.5415 62.2098 23.1915 61.9244 21.9082 61.4702L21.7748 61.4183C21.5915 61.3535 21.4165 61.2886 21.2582 61.2172H21.2498L21.1582 61.1783C20.9915 61.1069 20.8248 61.0291 20.6582 60.9512L20.5998 60.9253C20.1832 60.7242 19.7832 60.5036 19.3998 60.257C19.3415 60.2246 19.2832 60.1857 19.2332 60.1532C18.5248 59.6861 17.9082 59.1477 17.3998 58.5443C17.2915 58.4146 17.1915 58.2783 17.0915 58.1421C16.9665 57.9669 16.8498 57.7853 16.7498 57.5971C16.6998 57.5193 16.6582 57.435 16.6165 57.3571C16.4498 57.0262 16.3248 56.6889 16.2332 56.345V56.3321C16.2165 56.2607 16.1998 56.1829 16.1832 56.092C16.1582 55.9623 16.1332 55.8325 16.1165 55.7028C16.0998 55.5276 16.0915 55.346 16.0915 55.1643V50.0716L15.8498 50.0132H15.8415L15.5248 49.9353C15.3582 49.8964 15.1915 49.851 15.0248 49.8056C14.8248 49.7472 14.6165 49.6888 14.4248 49.6304C14.3165 49.6045 14.1998 49.5655 14.0832 49.5331C13.7665 49.4358 13.4582 49.332 13.1582 49.2282C12.1915 48.8973 11.2748 48.5081 10.3915 48.0604C9.90818 47.8139 9.44151 47.5479 8.99985 47.2624C8.93318 47.2235 8.85818 47.1716 8.79151 47.1262C8.54151 46.9575 8.29985 46.7824 8.06651 46.6007C7.92484 46.4839 7.77485 46.3607 7.63318 46.2309C7.57485 46.1855 7.52484 46.1336 7.46651 46.0882C7.25818 45.8871 7.05818 45.6795 6.87485 45.4719C6.73318 45.3097 6.59985 45.1475 6.49151 44.9918C6.28318 44.7128 6.10818 44.4209 5.94985 44.1225C5.91651 44.0446 5.87485 43.9668 5.84151 43.8824C5.72484 43.6359 5.63318 43.3829 5.56651 43.1234C5.54151 43.0261 5.51651 42.9417 5.49985 42.8509C5.47484 42.7536 5.45818 42.6433 5.44151 42.533V42.5265C5.40818 42.3189 5.35818 42.1113 5.29985 41.9037C5.25818 41.7415 5.19985 41.5793 5.13318 41.4171C5.04984 41.203 4.94985 40.9825 4.84151 40.7684C4.80818 40.697 4.76651 40.6257 4.72485 40.5543V40.5478C4.70818 40.5154 4.69151 40.4829 4.67485 40.457L4.61651 40.3662L4.59151 40.3143V40.3078L4.41651 40.1002V40.0353C4.39151 39.9899 4.36651 39.9509 4.34151 39.9055C4.18318 39.672 4.00818 39.4319 3.82485 39.1984C3.74151 39.0881 3.65818 38.9778 3.56651 38.8675L3.50818 38.8026C3.45818 38.7378 3.39985 38.6664 3.32485 38.5886C3.06651 38.2836 2.77484 37.9787 2.46651 37.6673L2.40818 37.6349L2.30818 37.5116C2.24985 37.4532 2.19985 37.4013 2.14151 37.3494L2.05818 37.2716C1.97485 37.1872 1.89151 37.1094 1.79985 37.0315C1.69985 36.9407 1.59985 36.8434 1.49985 36.7526C1.29985 36.5839 1.10818 36.4152 0.916512 36.253L0.00817871 35.494L0.908179 34.7414C1.09985 34.5792 1.29151 34.417 1.48318 34.2419C1.59985 34.1446 1.69151 34.0537 1.78318 33.9694L1.79151 33.9629C1.88318 33.8851 1.96651 33.8007 2.04985 33.7229L2.13318 33.645C2.19985 33.5802 2.27485 33.5088 2.34151 33.4439L2.44151 33.3401C2.75818 33.0222 3.04985 32.7108 3.31651 32.4059C3.39985 32.3086 3.46651 32.2243 3.52485 32.1529L3.54985 32.1269V32.1204C3.63318 32.0231 3.71651 31.9193 3.81651 31.7961C3.99985 31.556 4.17485 31.3225 4.32485 31.0889L4.40818 30.9657V30.8489L4.59985 30.6478L4.67485 30.518C4.68318 30.4986 4.69985 30.4726 4.71651 30.4467V30.4402C4.75818 30.3688 4.79151 30.2974 4.83318 30.2261C4.94151 30.0055 5.04151 29.7914 5.12485 29.5773C5.19151 29.4151 5.24151 29.2529 5.29151 29.0908C5.34984 28.8831 5.39985 28.6755 5.43318 28.4679C5.44984 28.3512 5.46651 28.2409 5.49151 28.1371C5.50818 28.0527 5.53318 27.9619 5.55818 27.8711C5.62485 27.6116 5.71651 27.3586 5.83318 27.112C5.86651 27.0342 5.89985 26.9499 5.94985 26.8655C6.09985 26.5671 6.27485 26.2816 6.48318 26.0027C6.59985 25.8405 6.72484 25.6783 6.86651 25.5226C7.04984 25.3085 7.24984 25.1074 7.46651 24.9063C7.51651 24.8609 7.56651 24.809 7.62485 24.7635C7.76651 24.6338 7.90818 24.5105 8.06651 24.3937C8.27485 24.2251 8.51651 24.0434 8.77485 23.8683C8.84984 23.8228 8.91651 23.7774 8.98318 23.732C9.43318 23.4401 9.89985 23.1741 10.3832 22.9276C11.2665 22.4864 12.1832 22.0971 13.1498 21.7663C13.4498 21.6625 13.7582 21.5587 14.0748 21.4614C14.1915 21.4289 14.3082 21.39 14.4165 21.3576C14.5998 21.3057 14.7998 21.2473 15.0165 21.1889C15.1832 21.1435 15.3498 21.0981 15.5165 21.0591C15.6248 21.0267 15.7332 21.0007 15.8415 20.9748L16.0165 20.9359L16.0832 20.9164V15.8237C16.0832 15.642 16.0915 15.4604 16.1082 15.2917C16.1248 15.1554 16.1498 15.0257 16.1748 14.8959C16.1915 14.8116 16.2082 14.7338 16.2248 14.6559V14.6429C16.3165 14.2991 16.4415 13.9617 16.6082 13.6374V13.6309C16.6498 13.54 16.6915 13.4622 16.7332 13.3908C16.8415 13.2092 16.9582 13.021 17.0832 12.8459C17.1832 12.7096 17.2832 12.5669 17.3915 12.4436C17.8998 11.8338 18.5165 11.3018 19.2248 10.8347C19.2748 10.8023 19.3248 10.7634 19.3832 10.7309C19.7665 10.4844 20.1665 10.2638 20.5915 10.0627L20.6498 10.0303C20.8165 9.95241 20.9832 9.87456 21.1582 9.8032L21.2332 9.77076C21.4082 9.6994 21.5748 9.63452 21.7498 9.56964L21.8832 9.52423C23.1748 9.06361 24.5248 8.77167 25.9415 8.6549C26.1165 8.63543 26.3082 8.62246 26.4915 8.60948C26.6165 8.603 26.7498 8.59651 26.8998 8.59002C27.0248 8.59002 27.1498 8.58353 27.2665 8.58353C27.3582 8.58353 27.4582 8.58353 27.5582 8.58353H27.8832V8.08399C27.8832 7.79854 27.9082 7.51957 27.9498 7.24061C27.9665 7.16924 27.9832 7.08491 27.9998 6.98759L28.0165 6.93569V6.90974C28.0248 6.88379 28.0332 6.85784 28.0415 6.83189C28.0748 6.67619 28.1248 6.514 28.1832 6.34532C28.4165 5.69008 28.7582 5.06727 29.2165 4.48988C29.2665 4.425 29.3332 4.34715 29.4082 4.25632C29.4665 4.19145 29.5248 4.12008 29.5915 4.04872C29.8248 3.79571 30.0748 3.55567 30.3332 3.3286C30.4082 3.26373 30.4915 3.19885 30.5998 3.11451C30.7915 2.95881 30.9915 2.80311 31.1998 2.66038L31.2332 2.63443C31.3665 2.5436 31.4915 2.45926 31.6248 2.38141L31.6832 2.34249C31.8332 2.25166 31.9832 2.16084 32.1498 2.06352C32.3665 1.94026 32.6082 1.81051 32.8582 1.68724C32.9165 1.66129 32.9832 1.63534 33.0415 1.60291C33.0832 1.58344 33.1248 1.56398 33.1665 1.54452C33.4332 1.42774 33.6998 1.31097 33.9582 1.20716C34.4915 1.00605 35.0415 0.824397 35.5998 0.668696C35.8165 0.610306 36.0415 0.551919 36.2832 0.500019C36.4082 0.467581 36.5415 0.44163 36.6832 0.409193C36.8998 0.363779 37.1332 0.318367 37.3582 0.279441C37.6415 0.234029 37.9248 0.188615 38.1998 0.156177C38.6415 0.104277 39.0915 0.0588638 39.5498 0.0329135C39.9498 0.00696318 40.3665 -0.00601196 40.7665 -0.00601196H287.242C287.65 -0.00601196 288.058 0.00696318 288.458 0.0329135C288.917 0.0588638 289.367 0.0977896 289.808 0.156177C290.092 0.188615 290.367 0.234029 290.65 0.279441C290.883 0.318367 291.117 0.363779 291.333 0.409193C291.475 0.44163 291.608 0.467581 291.725 0.500019C291.967 0.551919 292.192 0.610306 292.408 0.668696C292.967 0.824397 293.517 1.00605 294.05 1.21365C294.308 1.31097 294.575 1.42774 294.842 1.54452C294.883 1.56398 294.925 1.58344 294.967 1.60291C295.025 1.63534 295.092 1.66129 295.15 1.69373C295.4 1.81051 295.642 1.94026 295.867 2.07001C296.033 2.16084 296.183 2.25166 296.325 2.34249L296.383 2.38141C296.517 2.46575 296.65 2.55009 296.775 2.64092L296.8 2.66038C297.017 2.80959 297.225 2.95881 297.417 3.11451V3.121C297.5 3.18587 297.583 3.25724 297.675 3.33509C297.942 3.56215 298.192 3.80219 298.417 4.05521C298.483 4.13306 298.55 4.20442 298.6 4.26281C298.667 4.34066 298.733 4.41851 298.792 4.48988C299.25 5.07376 299.592 5.69008 299.825 6.35181C299.883 6.514 299.933 6.67619 299.967 6.83838L299.992 6.94218C300 6.96164 300 6.9811 300.008 7.00057V7.00705C300.017 7.06544 300.033 7.15627 300.05 7.24709C300.1 7.52606 300.125 7.81151 300.125 8.09048V8.59002H300.442C300.542 8.59002 300.642 8.59002 300.742 8.59002C300.858 8.59002 300.975 8.59651 301.108 8.603C301.25 8.60949 301.383 8.61597 301.517 8.62246C301.7 8.62895 301.883 8.64192 302.067 8.66138C303.475 8.78465 304.825 9.0701 306.117 9.53072L306.167 9.54369L306.25 9.57613C306.425 9.64101 306.6 9.71237 306.767 9.77725L306.842 9.80969C307.008 9.88105 307.183 9.9589 307.358 10.0432L307.417 10.0692C307.833 10.2703 308.233 10.4909 308.617 10.7309C308.675 10.7698 308.725 10.8023 308.783 10.8412C309.492 11.3083 310.1 11.8468 310.608 12.4501C310.725 12.5864 310.825 12.7226 310.925 12.8588C311.05 13.034 311.167 13.2157 311.267 13.3973C311.317 13.4817 311.358 13.566 311.4 13.6438C311.558 13.9682 311.692 14.3056 311.775 14.6494C311.8 14.7338 311.817 14.8181 311.833 14.9024C311.858 15.0322 311.883 15.1619 311.892 15.2917C311.917 15.4733 311.925 15.655 311.925 15.8302V20.9229L311.967 20.9359L312.167 20.9813C312.275 21.0072 312.383 21.0332 312.492 21.0656C312.683 21.111 312.833 21.15 312.983 21.1954C313.2 21.2538 313.4 21.3057 313.592 21.3641C313.7 21.3965 313.817 21.4354 313.925 21.4679C314.233 21.5652 314.55 21.6625 314.858 21.7728C315.817 22.1036 316.742 22.4929 317.625 22.934C318.108 23.1806 318.567 23.4466 319.017 23.732C319.083 23.7839 319.158 23.8293 319.225 23.8747C319.483 24.0434 319.725 24.2251 319.95 24.4002C320.1 24.517 320.25 24.6468 320.392 24.77C320.442 24.8154 320.5 24.8673 320.55 24.9128C320.758 25.1139 320.958 25.315 321.142 25.5291C321.275 25.6848 321.408 25.8405 321.525 26.0092C321.733 26.2881 321.908 26.5801 322.067 26.8785C322.108 26.9563 322.142 27.0407 322.175 27.1185C322.292 27.3651 322.383 27.6181 322.45 27.8776C322.467 27.9489 322.492 28.0398 322.517 28.1501C322.542 28.2603 322.558 28.3641 322.575 28.4679C322.608 28.682 322.65 28.8896 322.717 29.0972C322.758 29.2594 322.817 29.4216 322.875 29.5773V29.5838C322.958 29.7979 323.058 30.012 323.175 30.2326C323.217 30.3169 323.25 30.3818 323.283 30.4402L323.292 30.4531C323.308 30.4791 323.317 30.4986 323.333 30.5245L323.342 30.544C323.358 30.5699 323.375 30.5959 323.383 30.6218L323.4 30.6413L323.425 30.6867L323.6 30.8943V30.9657C323.625 31.0111 323.65 31.05 323.683 31.0954C323.833 31.3225 324.008 31.5625 324.192 31.8026C324.275 31.9128 324.367 32.0231 324.458 32.1334L324.475 32.1594C324.55 32.2437 324.617 32.328 324.692 32.4124C324.917 32.6719 325.167 32.9444 325.433 33.2104L325.525 33.2428L325.725 33.5023C325.775 33.5542 325.825 33.5996 325.875 33.6515L325.958 33.7294C326.05 33.8137 326.133 33.8916 326.217 33.9694L326.225 33.9759C326.325 34.0667 326.425 34.1575 326.525 34.2549C326.717 34.417 326.917 34.5922 327.1 34.7544L328 35.507L327.1 36.2595C326.917 36.4152 326.717 36.5839 326.525 36.7591C326.425 36.8434 326.325 36.9342 326.225 37.0315C326.133 37.1094 326.05 37.1937 325.967 37.2716L325.875 37.3559C325.825 37.4078 325.775 37.4532 325.717 37.5051L325.708 37.5181L325.617 37.6349L325.55 37.6738C325.233 37.9852 324.958 38.2901 324.7 38.5886C324.625 38.6729 324.558 38.7572 324.483 38.8416L324.458 38.874C324.375 38.9713 324.292 39.0816 324.192 39.2049C324.008 39.4384 323.842 39.6785 323.683 39.912L323.608 40.0353V40.1002L323.433 40.3143L323.392 40.3791L323.358 40.4375L323.35 40.457C323.333 40.4894 323.317 40.5219 323.3 40.5543L323.292 40.5673C323.25 40.6386 323.208 40.7165 323.175 40.7684C323.067 40.989 322.967 41.2095 322.883 41.4236V41.4301C322.825 41.5858 322.767 41.748 322.717 41.9102C322.658 42.1113 322.617 42.3254 322.583 42.533C322.567 42.6433 322.542 42.7536 322.525 42.8574C322.5 42.9547 322.475 43.052 322.458 43.1234C322.383 43.3829 322.292 43.6359 322.183 43.8824C322.142 43.9732 322.108 44.0511 322.067 44.1289C321.917 44.4274 321.733 44.7193 321.533 44.9983C321.408 45.1605 321.283 45.3227 321.15 45.4719C320.967 45.686 320.767 45.8871 320.55 46.0817C320.5 46.1336 320.442 46.1855 320.392 46.2309C320.25 46.3607 320.108 46.4839 319.95 46.6007C319.725 46.7824 319.483 46.9575 319.233 47.1262L319.217 47.1392C319.15 47.1846 319.083 47.2235 319.017 47.2689C318.575 47.5544 318.108 47.8204 317.625 48.0604C316.75 48.5081 315.825 48.8973 314.858 49.2282C314.55 49.332 314.242 49.4358 313.933 49.5331C313.817 49.5655 313.708 49.6045 313.592 49.6369C313.392 49.6953 313.192 49.7537 312.983 49.8056C312.808 49.8575 312.642 49.8964 312.492 49.9353C312.383 49.9678 312.275 49.9937 312.175 50.0132L311.925 50.0716V55.1643C311.925 55.3395 311.917 55.5211 311.9 55.7028C311.883 55.8325 311.858 55.9623 311.833 56.092V56.0985C311.817 56.1829 311.8 56.2672 311.783 56.345C311.692 56.6889 311.567 57.0262 311.4 57.3571C311.367 57.4285 311.325 57.5063 311.267 57.5971C311.167 57.7788 311.058 57.9604 310.925 58.1421C310.833 58.2719 310.733 58.4081 310.617 58.5508C310.1 59.1542 309.492 59.6861 308.783 60.1532C308.733 60.1922 308.675 60.2246 308.625 60.257C308.242 60.5036 307.842 60.7242 307.425 60.9253L307.375 60.9512L307.358 60.9577C307.192 61.0356 307.017 61.1134 306.85 61.1848L306.758 61.2237C306.6 61.2886 306.433 61.3535 306.258 61.4183L306.2 61.4378L306.108 61.4702C304.825 61.9308 303.475 62.2163 302.067 62.3396C301.9 62.3525 301.733 62.3655 301.525 62.3785C301.383 62.385 301.25 62.3915 301.108 62.3979C300.992 62.4044 300.875 62.4044 300.742 62.4044C300.642 62.4044 300.542 62.4044 300.442 62.4044H300.125V62.904C300.125 63.1894 300.1 63.4684 300.05 63.7474C300.042 63.8382 300.025 63.916 300.008 63.9874V63.9939C300 64.0328 299.992 64.0717 299.983 64.1107L299.967 64.1626C299.933 64.3183 299.883 64.4805 299.825 64.6491C299.6 65.3044 299.25 65.9207 298.792 66.4981C298.742 66.5695 298.675 66.6473 298.608 66.7316L298.6 66.7381C298.542 66.803 298.483 66.8679 298.425 66.9392C298.192 67.1923 297.942 67.4323 297.675 67.6659C297.583 67.7372 297.5 67.8086 297.417 67.8735L297.408 67.8799C297.217 68.0357 297.008 68.1914 296.8 68.3341L296.775 68.36C296.65 68.4444 296.517 68.5287 296.383 68.613L296.333 68.6455C296.183 68.7363 296.025 68.8336 295.858 68.9244C295.633 69.0542 295.4 69.1775 295.15 69.3007C295.083 69.3267 295.025 69.3591 294.958 69.3915C294.917 69.411 294.875 69.4305 294.833 69.4435C294.583 69.5602 294.317 69.6705 294.042 69.7743C293.517 69.9819 292.967 70.1636 292.4 70.3193C292.175 70.3841 291.95 70.4361 291.725 70.4944C291.6 70.5204 291.467 70.5463 291.325 70.5788C291.117 70.6242 290.9 70.6631 290.65 70.7085C290.383 70.7539 290.1 70.7929 289.808 70.8318C289.358 70.8902 288.908 70.9291 288.458 70.9551C288.05 70.981 287.642 70.994 287.242 70.994ZM33.4332 66.8938L33.4748 66.9198C33.5915 66.9911 33.7082 67.0625 33.8332 67.1339C34.0082 67.2312 34.1915 67.3285 34.3915 67.4258C34.4332 67.4453 34.4832 67.4712 34.5248 67.4907L34.5498 67.4972L34.6165 67.5296L34.6248 67.5361C34.8248 67.6269 35.0332 67.7178 35.2498 67.8021C35.6748 67.9643 36.1165 68.107 36.5665 68.2303C36.7415 68.2822 36.9332 68.3276 37.1165 68.373C37.2165 68.399 37.3165 68.4184 37.4248 68.4444C37.5998 68.4768 37.7832 68.5092 37.9832 68.5482C38.1998 68.5871 38.4332 68.6195 38.6665 68.6455C39.0332 68.6909 39.3998 68.7298 39.7748 68.7493C40.1082 68.7687 40.4498 68.7817 40.7748 68.7817H287.242C287.567 68.7817 287.908 68.7687 288.25 68.7493C288.617 68.7298 288.992 68.6974 289.35 68.6455C289.592 68.6195 289.825 68.5806 290.042 68.5482C290.233 68.5092 290.417 68.4768 290.592 68.4444C290.7 68.4184 290.8 68.399 290.9 68.373C291.092 68.3276 291.275 68.2822 291.458 68.2303C291.908 68.107 292.342 67.9643 292.767 67.8021C292.983 67.7178 293.192 67.6269 293.392 67.5361L293.4 67.5296L293.458 67.5037L293.5 67.4842C293.542 67.4712 293.583 67.4518 293.617 67.4323L293.633 67.4258C293.825 67.3285 294.008 67.2312 294.183 67.1339C294.317 67.0625 294.442 66.9911 294.55 66.9198L294.583 66.8938C294.683 66.8354 294.783 66.7706 294.867 66.7057L294.908 66.6797C295.067 66.5695 295.217 66.4592 295.358 66.3489C295.425 66.284 295.492 66.2321 295.55 66.1867C295.742 66.018 295.925 65.8428 296.092 65.6547C296.133 65.6093 296.183 65.5574 296.225 65.5055C296.275 65.4536 296.317 65.4017 296.35 65.3498L296.358 65.3433C296.675 64.9476 296.917 64.5194 297.075 64.0717C297.108 63.9615 297.142 63.8512 297.167 63.7539L297.175 63.7084C297.183 63.689 297.192 63.663 297.192 63.6371C297.208 63.5852 297.217 63.5268 297.225 63.4749V63.4684C297.258 63.2803 297.267 63.0921 297.267 62.904V60.1922H300.442C300.525 60.1922 300.6 60.1922 300.675 60.1922H300.692C300.792 60.1922 300.883 60.1857 300.975 60.1792C301.092 60.1792 301.208 60.1727 301.308 60.1662C301.475 60.1597 301.617 60.1468 301.742 60.1338C302.85 60.043 303.917 59.8159 304.933 59.4526L304.95 59.4461L305 59.4331L305.033 59.4202C305.167 59.3683 305.3 59.3164 305.425 59.2645L305.483 59.2385C305.617 59.1801 305.742 59.1282 305.867 59.0633L305.917 59.0439C306.233 58.8947 306.533 58.726 306.817 58.5508L306.933 58.473C307.433 58.1421 307.858 57.7658 308.217 57.3376C308.3 57.2468 308.367 57.156 308.425 57.0717H308.433C308.517 56.9484 308.592 56.8316 308.658 56.7148C308.692 56.65 308.717 56.6045 308.742 56.5591V56.5526C308.85 56.345 308.925 56.131 308.983 55.9104C309 55.8585 309.008 55.8066 309.025 55.7482C309.033 55.6703 309.05 55.586 309.058 55.5081C309.075 55.3914 309.083 55.2746 309.083 55.1643V48.3329L310.192 48.1383C310.2 48.1383 310.267 48.1253 310.383 48.0993C310.583 48.0604 310.792 48.015 311.008 47.9696L311.067 47.9501L311.333 47.8917L311.608 47.8204C311.733 47.7879 311.883 47.749 312.042 47.7036C312.225 47.6582 312.408 47.6063 312.583 47.5544C312.683 47.5219 312.783 47.4895 312.883 47.4636C313.15 47.3792 313.425 47.2884 313.7 47.1911C314.517 46.9121 315.308 46.5812 316.067 46.1985C316.458 46.0039 316.833 45.7833 317.2 45.5562C317.25 45.5173 317.308 45.4784 317.358 45.4459L317.367 45.4394C317.558 45.3097 317.742 45.1799 317.917 45.0437C318.025 44.9529 318.133 44.862 318.242 44.7712C318.283 44.7323 318.317 44.6999 318.35 44.6674L318.367 44.6544C318.517 44.5182 318.658 44.369 318.783 44.2198L318.792 44.2133C318.883 44.1095 318.967 43.9992 319.05 43.8889C319.192 43.7008 319.308 43.5061 319.408 43.305C319.433 43.2531 319.458 43.2012 319.483 43.1493C319.558 42.9871 319.617 42.8249 319.658 42.6563C319.675 42.6044 319.692 42.546 319.708 42.4876C319.717 42.4097 319.733 42.3384 319.75 42.2605C319.792 41.9751 319.85 41.6896 319.933 41.4107C320 41.1966 320.075 40.9825 320.15 40.7749C320.258 40.4959 320.392 40.2169 320.533 39.938C320.567 39.8666 320.617 39.7693 320.675 39.672C320.692 39.6331 320.717 39.6006 320.742 39.5617L320.75 39.5293V39.5163L320.983 39.153C321.033 39.0686 321.092 38.9778 321.15 38.8935V38.887C321.333 38.6145 321.542 38.3291 321.758 38.0501C321.867 37.9138 321.958 37.7906 322.05 37.6803L322.075 37.6479C322.167 37.5441 322.25 37.4403 322.333 37.3429C322.65 36.9796 323 36.6098 323.383 36.2206H323.392L323.55 36.0649L323.675 35.9416L323.767 35.8573C323.858 35.7665 323.958 35.6821 324.05 35.5913L324.158 35.494L324.05 35.3967C323.958 35.3123 323.858 35.228 323.767 35.1372L323.683 35.0528H323.675L323.55 34.9296L323.475 34.8842L323.375 34.7609C323 34.3846 322.65 34.0148 322.342 33.6515C322.25 33.5542 322.167 33.4504 322.083 33.3466L322.058 33.3206C321.958 33.1909 321.85 33.0676 321.758 32.9444C321.542 32.6654 321.333 32.38 321.158 32.1075C321.092 32.0102 321.033 31.9258 320.983 31.8415L320.758 31.4782V31.4652L320.725 31.4133C320.708 31.3809 320.692 31.3484 320.675 31.3225C320.633 31.2446 320.583 31.1603 320.533 31.0565C320.392 30.7775 320.267 30.4986 320.158 30.2261C320.075 30.0185 320 29.7979 319.933 29.5773C319.858 29.2984 319.792 29.0129 319.75 28.7274C319.733 28.6561 319.725 28.5782 319.708 28.5069C319.7 28.455 319.683 28.4031 319.667 28.3317C319.617 28.163 319.558 27.9944 319.483 27.8322C319.467 27.7867 319.442 27.7348 319.417 27.6829C319.317 27.4818 319.192 27.2872 319.058 27.0991C318.975 26.9888 318.883 26.8785 318.792 26.7682C318.658 26.619 318.517 26.4698 318.367 26.327L318.358 26.3206C318.317 26.2881 318.283 26.2557 318.25 26.2232C318.142 26.1259 318.033 26.0351 317.917 25.9443C317.75 25.808 317.567 25.6718 317.367 25.542C317.308 25.5031 317.25 25.4642 317.2 25.4318C316.833 25.1982 316.458 24.9841 316.067 24.783C315.317 24.4067 314.525 24.0759 313.7 23.7904C313.425 23.6931 313.15 23.6023 312.883 23.5244C312.783 23.492 312.683 23.4595 312.583 23.4336C312.417 23.3817 312.242 23.3298 312.042 23.2779C311.917 23.2454 311.775 23.2065 311.608 23.1611C311.508 23.1352 311.417 23.1157 311.333 23.0962H311.325L311.142 23.0508L311.067 23.0314L311.033 23.0249H311.017C310.8 22.973 310.583 22.9276 310.383 22.8886C310.275 22.8627 310.208 22.8497 310.2 22.8497L309.083 22.6551V15.8302C309.083 15.7134 309.075 15.6031 309.058 15.4863C309.05 15.4085 309.042 15.3241 309.025 15.2463C309.017 15.1879 309 15.136 308.983 15.0841C308.933 14.8635 308.85 14.6494 308.742 14.4418C308.717 14.3899 308.692 14.338 308.658 14.2796C308.592 14.1628 308.517 14.0396 308.433 13.9228V13.9163C308.367 13.832 308.3 13.7476 308.225 13.6568C307.867 13.2286 307.433 12.8524 306.933 12.5215C306.9 12.4955 306.858 12.4761 306.825 12.4501L306.817 12.4436C306.533 12.262 306.233 12.0998 305.917 11.9506L305.908 11.9441L305.867 11.9246C305.742 11.8662 305.617 11.8079 305.492 11.756L305.425 11.7235C305.3 11.6781 305.167 11.6262 305.033 11.5743L304.933 11.5354C303.917 11.1786 302.858 10.9515 301.75 10.8607C301.608 10.8477 301.458 10.8347 301.308 10.8282C301.208 10.8217 301.1 10.8153 300.975 10.8088C300.875 10.8088 300.783 10.8023 300.692 10.8023C300.6 10.8023 300.533 10.8023 300.45 10.8023H297.275V8.08399C297.275 7.89585 297.258 7.70771 297.225 7.52606V7.51957C297.217 7.47416 297.208 7.42226 297.192 7.35738C297.192 7.31846 297.183 7.27953 297.167 7.24709L297.158 7.20168C297.133 7.11086 297.108 7.01354 297.075 6.92272C296.917 6.46859 296.675 6.04041 296.358 5.64466L296.35 5.63818C296.317 5.58628 296.275 5.53438 296.233 5.48896C296.183 5.43706 296.142 5.38516 296.1 5.33975C295.933 5.15161 295.75 4.97644 295.55 4.80777C295.492 4.74938 295.425 4.69748 295.358 4.64558C295.217 4.53529 295.075 4.425 294.917 4.31471L294.867 4.28227C294.783 4.2174 294.683 4.15901 294.592 4.09413L294.542 4.06818C294.442 4.00331 294.325 3.93194 294.192 3.85409C294.008 3.75678 293.825 3.65947 293.633 3.56864L293.625 3.56215C293.575 3.5362 293.533 3.51674 293.492 3.49728L293.458 3.4843C293.442 3.47133 293.425 3.46484 293.408 3.45835L293.392 3.45186C293.192 3.36104 292.983 3.27021 292.775 3.19236C292.35 3.02368 291.908 2.88096 291.458 2.75769C291.283 2.70579 291.1 2.66038 290.908 2.61497C290.817 2.59551 290.708 2.56955 290.592 2.55009C290.417 2.51117 290.225 2.47224 290.042 2.4398C289.817 2.40088 289.583 2.36844 289.358 2.34249C288.992 2.29708 288.617 2.25815 288.25 2.23869C287.917 2.21922 287.575 2.21274 287.25 2.21274H40.7748C40.4415 2.21274 40.1082 2.21922 39.7665 2.23869C39.3998 2.25815 39.0248 2.29708 38.6665 2.34249C38.4415 2.36844 38.2082 2.40088 37.9832 2.4398C37.7915 2.47224 37.6082 2.51117 37.4332 2.55009C37.3165 2.56955 37.2165 2.59551 37.1165 2.61497C36.9165 2.66038 36.7332 2.70579 36.5665 2.75769C36.1165 2.88096 35.6748 3.02368 35.2498 3.19236C35.0415 3.27021 34.8332 3.36104 34.6248 3.45186L34.6165 3.45835L34.5415 3.49079L34.5332 3.49728L34.3915 3.56215C34.1915 3.65947 34.0082 3.75678 33.8415 3.85409C33.7082 3.93194 33.5832 4.00331 33.4748 4.07467L33.4332 4.09413C33.3415 4.15252 33.2498 4.2174 33.1498 4.28227L33.1248 4.29525H33.1332L33.1165 4.30822C32.9582 4.41202 32.8082 4.5288 32.6582 4.64558C32.5832 4.71045 32.5248 4.75587 32.4748 4.80128L32.4665 4.80777C32.2748 4.97644 32.0915 5.15161 31.9248 5.33326C31.8748 5.38516 31.8332 5.43057 31.7998 5.47599L31.7832 5.49545C31.7415 5.54086 31.6915 5.59925 31.6582 5.64466C31.3415 6.04041 31.1082 6.46859 30.9498 6.91623C30.9248 6.99408 30.8998 7.07193 30.8748 7.14329V7.14978L30.8498 7.26007C30.8415 7.29251 30.8332 7.32495 30.8248 7.35738C30.8165 7.4028 30.7998 7.4547 30.7915 7.51957C30.7582 7.70771 30.7498 7.89585 30.7498 8.0775V10.7958H27.5748C27.4915 10.7958 27.4082 10.7958 27.3332 10.7958C27.2415 10.7958 27.1498 10.8023 27.0498 10.8023C26.9248 10.8088 26.8165 10.8153 26.7165 10.8217C26.5665 10.8282 26.4165 10.8412 26.2748 10.8542C25.1665 10.945 24.1082 11.1721 23.0915 11.5289L22.9915 11.5678C22.8582 11.6197 22.7248 11.6716 22.5998 11.7235L22.5332 11.7495C22.4082 11.8014 22.2832 11.8598 22.1582 11.9181L22.0915 11.9441C21.7832 12.0933 21.4915 12.262 21.2082 12.4372C21.1665 12.4631 21.1248 12.4891 21.0915 12.515C20.5915 12.8459 20.1582 13.2221 19.7998 13.6438C19.7248 13.7347 19.6582 13.8255 19.5915 13.9163C19.5082 14.0331 19.4332 14.1499 19.3665 14.2731C19.3332 14.3185 19.3082 14.3705 19.2748 14.4353C19.1748 14.6429 19.0915 14.8505 19.0332 15.0711C19.0248 15.1295 19.0082 15.1814 18.9998 15.2268V15.2398C18.9832 15.3176 18.9748 15.3955 18.9665 15.4733V15.4798C18.9498 15.5901 18.9415 15.7069 18.9415 15.8172V22.6551L17.8165 22.8432C17.8082 22.8432 17.7498 22.8562 17.6415 22.8757C17.4332 22.9146 17.2248 22.9665 17.0082 23.0119L16.9832 23.0184L16.9498 23.0249L16.8582 23.0508L16.6998 23.0833C16.6082 23.1092 16.5165 23.1287 16.4248 23.1546C16.2748 23.1935 16.1248 23.2325 15.9748 23.2714C15.7832 23.3298 15.6082 23.3752 15.4415 23.4271C15.3415 23.4595 15.2415 23.4855 15.1332 23.5179C14.8665 23.6023 14.5915 23.6931 14.3248 23.7839C13.4998 24.0694 12.7165 24.4002 11.9582 24.7765C11.5665 24.9776 11.1915 25.1917 10.8248 25.4253C10.7748 25.4577 10.7165 25.4966 10.6582 25.5356C10.4582 25.6718 10.2748 25.808 10.1082 25.9378C9.99151 26.0286 9.88318 26.1194 9.78318 26.2168C9.74151 26.2492 9.69985 26.2881 9.66651 26.3206C9.50818 26.4633 9.36651 26.6125 9.23318 26.7617C9.14151 26.872 9.04985 26.9823 8.97485 27.0861L8.96651 27.0926C8.83318 27.2807 8.71651 27.4689 8.60818 27.67V27.6765C8.58318 27.7348 8.55818 27.7803 8.54151 27.8257C8.46651 27.9944 8.40818 28.1565 8.35818 28.3252C8.34151 28.3836 8.33318 28.4355 8.31651 28.4939V28.5069C8.30818 28.5717 8.29151 28.6431 8.28318 28.721C8.23318 29.0064 8.17484 29.2854 8.09151 29.5708C8.02485 29.7849 7.95818 29.999 7.87485 30.2131C7.76651 30.4856 7.63318 30.7645 7.49151 31.0435C7.44984 31.1278 7.40818 31.2187 7.35818 31.303C7.34151 31.3355 7.32484 31.3679 7.29985 31.4003L7.28318 31.4263L7.27485 31.4522V31.4587L7.09985 31.7507L7.04985 31.8285L7.04151 31.835C6.99151 31.9193 6.93318 32.0037 6.88318 32.088L6.87485 32.0945C6.69151 32.3735 6.49151 32.6524 6.27485 32.9314C6.16651 33.0741 6.06651 33.1974 5.97485 33.3077L5.95818 33.3271C5.87484 33.4244 5.79151 33.5218 5.69151 33.6385C5.36651 34.0148 4.99985 34.4106 4.59985 34.8063L4.49151 34.9101L4.35818 35.0399L4.25818 35.1307C4.16651 35.215 4.07485 35.3058 3.97485 35.3902L3.87485 35.4875L3.98318 35.5848C4.07485 35.6691 4.16651 35.76 4.25818 35.8443L4.35818 35.9351L4.47485 36.0519L4.55818 36.1363L4.59151 36.1622L4.64151 36.2141C5.01651 36.5904 5.37484 36.9667 5.69151 37.33C5.79151 37.4467 5.87485 37.5441 5.94151 37.6349C5.94985 37.6414 5.96651 37.6543 5.97485 37.6738C6.08318 37.7971 6.17485 37.9203 6.27485 38.0436C6.48318 38.3096 6.68318 38.595 6.87485 38.874C6.93318 38.9583 6.98318 39.0427 7.04151 39.1335L7.09985 39.2243L7.13318 39.2892L7.16651 39.3411L7.28318 39.5422C7.30818 39.5876 7.33318 39.6266 7.35818 39.6655C7.39985 39.7498 7.44151 39.8342 7.49151 39.9185C7.63318 40.1975 7.75818 40.4829 7.86651 40.7554C7.94984 40.9695 8.02485 41.1836 8.08318 41.3977C8.16651 41.6766 8.23318 41.9621 8.27485 42.2475C8.29151 42.3254 8.29985 42.3968 8.31651 42.4616V42.4746C8.32485 42.5265 8.34151 42.5784 8.35818 42.6433C8.39985 42.812 8.46651 42.9742 8.53318 43.1363C8.55818 43.1947 8.58318 43.2401 8.60818 43.2856V43.2985C8.70818 43.4996 8.83318 43.6878 8.96651 43.8759L8.97485 43.8824C9.04985 43.9862 9.13318 44.0965 9.23318 44.2068C9.36651 44.356 9.50818 44.5052 9.65818 44.6479C9.69985 44.6804 9.74151 44.7193 9.78318 44.7582C9.88318 44.8491 9.99151 44.9464 10.1082 45.0307C10.2832 45.167 10.4665 45.3097 10.6582 45.4329C10.7165 45.4719 10.7665 45.5043 10.8248 45.5432C11.1832 45.7768 11.5665 45.9909 11.9582 46.192C12.7165 46.5748 13.4998 46.9056 14.3248 47.1846C14.5915 47.2754 14.8665 47.3662 15.1415 47.4506C15.2415 47.483 15.3415 47.5155 15.4332 47.5414C15.6165 47.5933 15.7915 47.6452 15.9748 47.6971C16.1248 47.736 16.2748 47.775 16.4165 47.8139L16.6998 47.8853L16.9582 47.9436L17.0082 47.9566C17.2248 48.0085 17.4332 48.0539 17.6415 48.0928C17.7498 48.1123 17.8248 48.1253 17.8332 48.1253L18.9415 48.3199V55.1513C18.9415 55.2681 18.9498 55.3784 18.9665 55.4887V55.4952C18.9748 55.573 18.9832 55.6574 18.9998 55.7352V55.7417C19.0082 55.7871 19.0248 55.839 19.0332 55.8974C19.0915 56.118 19.1748 56.3321 19.2748 56.5397C19.2998 56.5916 19.3332 56.65 19.3665 56.7019C19.4332 56.8186 19.5082 56.9354 19.5915 57.0522V57.0587C19.6582 57.1495 19.7248 57.2338 19.7998 57.3247C20.1582 57.7528 20.5832 58.1291 21.0832 58.4535C21.1248 58.4795 21.1665 58.5054 21.1998 58.5314H21.2082C21.4915 58.713 21.7915 58.8817 22.0998 59.0309L22.1498 59.0504C22.2748 59.1087 22.3998 59.1671 22.5332 59.2255L22.5498 59.232L22.5915 59.2515C22.7248 59.3034 22.8582 59.3553 22.9915 59.4072H23.0082L23.0915 59.4396C24.0998 59.7964 25.1665 60.0235 26.2748 60.1208C26.4082 60.1273 26.5415 60.1403 26.7165 60.1532C26.8165 60.1532 26.9248 60.1597 27.0415 60.1662C27.1332 60.1662 27.2248 60.1727 27.3332 60.1727H27.3415C27.4248 60.1727 27.4998 60.1727 27.5748 60.1727H30.7498V62.891C30.7498 63.0791 30.7665 63.2673 30.7915 63.4489C30.8082 63.5138 30.8165 63.5657 30.8248 63.6176C30.8332 63.6695 30.8415 63.6955 30.8498 63.7279C30.8748 63.8382 30.9082 63.942 30.9498 64.0588C31.1082 64.5064 31.3498 64.9346 31.6582 65.3303C31.7082 65.3887 31.7498 65.4406 31.7915 65.486L31.7998 65.4925C31.8415 65.5509 31.8832 65.5963 31.9248 65.6352C32.0915 65.8234 32.2748 65.9986 32.4665 66.1672L32.4748 66.1737C32.5248 66.2191 32.5832 66.2645 32.6582 66.3294C32.8082 66.4462 32.9665 66.563 33.1165 66.6668L33.1332 66.6797L33.1415 66.6927C33.2415 66.7576 33.3332 66.816 33.4332 66.8744V66.8938ZM296.8 2.64741L295.833 3.46484L296.808 2.65389L296.8 2.64741Z" fill="#F3C754"/>
</svg>
