<svg width="21" height="17" viewBox="0 0 21 17" fill="none" xmlns="http://www.w3.org/2000/svg">
<g id="Group 1000003685">
<path id="Vector" d="M4.83337 4.8335H8.66671" stroke="#EE3764" stroke-linecap="round" stroke-linejoin="round"/>
<path id="Vector_2" d="M19.0486 5.79175H16.5546C14.8446 5.79175 13.4584 7.07889 13.4584 8.66675C13.4584 10.2546 14.8446 11.5417 16.5546 11.5417H19.0486C19.1285 11.5417 19.1684 11.5417 19.2021 11.5397C19.719 11.5082 20.1306 11.126 20.1645 10.6461C20.1667 10.6148 20.1667 10.5777 20.1667 10.5036V6.82991C20.1667 6.75583 20.1667 6.71871 20.1645 6.68741C20.1306 6.20751 19.719 5.82525 19.2021 5.7938C19.1684 5.79175 19.1285 5.79175 19.0486 5.79175Z" stroke="#EE3764"/>
<path id="Vector_3" d="M19.1748 5.79167C19.1003 3.99738 18.8601 2.89726 18.0855 2.12275C16.9629 1 15.1557 1 11.5417 1H8.66667C5.05256 1 3.24552 1 2.12275 2.12275C1 3.24552 1 5.05256 1 8.66667C1 12.2807 1 14.0879 2.12275 15.2105C3.24552 16.3333 5.05256 16.3333 8.66667 16.3333H11.5417C15.1557 16.3333 16.9629 16.3333 18.0855 15.2105C18.8601 14.4361 19.1003 13.336 19.1748 11.5417" stroke="#EE3764"/>
<path id="Vector_4" d="M16.325 8.66675H16.334" stroke="#EE3764" stroke-linecap="round" stroke-linejoin="round"/>
</g>
</svg>
