<svg width="66" height="94" viewBox="0 0 66 94" fill="none" xmlns="http://www.w3.org/2000/svg">
<g id="Clip path group">
<mask id="mask0_840_744" style="mask-type:luminance" maskUnits="userSpaceOnUse" x="-20" y="0" width="86" height="94">
<g id="e5b140d316">
<path id="Vector" d="M21.4756 0L65.0766 66.9044L23.6011 93.9336L-19.9999 27.0292L21.4756 0Z" fill="white"/>
</g>
</mask>
<g mask="url(#mask0_840_744)">
<g id="Group">
<path id="Vector_2" d="M5.29014 52.561C3.6921 52.0127 2.17234 51.3019 0.764364 50.402C-0.642505 49.5038 -1.93655 48.4254 -3.10472 47.2093C-3.68736 46.5979 -4.24042 45.9574 -4.76729 45.2903C-5.02447 44.9514 -5.29068 44.6136 -5.52531 44.2721L-5.70793 44.0179C-5.73845 43.9748 -5.76845 43.9362 -5.79949 43.8886L-5.89379 43.7513L-6.26639 43.1945L-6.31354 43.1258L-6.31687 43.1207C-6.31908 43.1173 -6.32573 43.1071 -6.32463 43.1088L-6.34399 43.0754L-6.42594 42.9422L-6.58873 42.6775L-6.75263 42.4112L-6.79305 42.3454L-6.83288 42.2769L-6.90692 42.1409L-7.20811 41.5933C-7.30416 41.4087 -7.39341 41.2197 -7.48607 41.0329L-7.62616 40.751L-7.75212 40.4647C-7.83457 40.2713 -7.92212 40.0811 -8.00176 39.8883C-8.15253 39.497 -8.31292 39.1096 -8.44387 38.7079L-8.54551 38.4106C-8.56412 38.3597 -8.58163 38.3106 -8.59744 38.2603L-8.64315 38.1083L-8.82661 37.5033C-8.88532 37.3017 -8.93553 37.0945 -8.99084 36.8906C-9.01794 36.7895 -9.04615 36.6867 -9.07155 36.5846L-9.21374 35.9648C-9.23744 35.8615 -9.26114 35.7582 -9.28033 35.6544L-9.40218 35.0286C-9.44056 34.821 -9.47213 34.6089 -9.50881 34.4002C-9.52349 34.2958 -9.54378 34.1903 -9.55846 34.086L-9.60021 33.7691C-9.66394 33.3478 -9.70624 32.9222 -9.75024 32.4977L-9.80325 31.8585C-9.82129 31.6449 -9.83091 31.4331 -9.84444 31.219C-9.89014 30.3642 -9.90427 29.5059 -9.88801 28.6496C-9.87115 27.7904 -9.8228 26.935 -9.74407 26.0816C-9.70978 25.7103 -9.66877 25.3418 -9.62044 24.9735C-9.3296 25.0554 -9.03765 25.1389 -8.74688 25.2281L-8.46174 25.3161L-8.17608 25.4087C-7.98637 25.4692 -7.79785 25.5354 -7.60874 25.5987C-7.23001 25.7299 -6.85527 25.8662 -6.4806 26.0098C-6.10764 26.1544 -5.73697 26.303 -5.36918 26.4583C-5.18304 26.5357 -5.00029 26.6154 -4.81814 26.6978C-4.63539 26.7774 -4.45154 26.8587 -4.27168 26.9451C-4.09182 27.0314 -3.90797 27.1127 -3.7304 27.203L-3.192 27.4677C-2.83805 27.6538 -2.48351 27.8371 -2.13645 28.035L-1.87498 28.1797L-1.6164 28.331C-1.44571 28.4331 -1.27103 28.53 -1.10264 28.636L-0.59465 28.9544C-0.425662 29.0575 -0.263559 29.1724 -0.097458 29.2822L0.153651 29.4482C0.23415 29.5048 0.315754 29.563 0.396253 29.6196C0.556658 29.7356 0.720465 29.8494 0.881978 29.9671C1.1965 30.208 1.51782 30.4445 1.82206 30.6994L2.05379 30.8876L2.1677 30.9806L2.28042 31.0792L2.72738 31.4713C2.80329 31.5357 2.87351 31.6063 2.94602 31.6729L3.37649 32.0806C3.45011 32.1489 3.51693 32.2217 3.58714 32.2923L4.00112 32.7156C4.13364 32.8594 4.26054 33.0021 4.39025 33.1454L4.58456 33.358L4.60902 33.3881L4.56343 33.5487C4.53411 33.6599 4.5116 33.7666 4.48627 33.8728L4.32826 34.5525L4.20048 35.2489C4.179 35.3647 4.15752 35.4804 4.13885 35.5968L4.09126 35.9477C4.06124 36.1805 4.02671 36.4138 4.0006 36.649L3.94033 37.3522C3.91592 37.5862 3.91067 37.8199 3.8992 38.0551L3.8854 38.4058C3.87967 38.5234 3.87564 38.64 3.87722 38.7577L3.87721 39.4604C3.87598 39.5776 3.88208 39.6948 3.88537 39.8114L3.89974 40.1606L3.91522 40.5116C3.91851 40.6282 3.93082 40.7438 3.93862 40.8599L3.99383 41.5582C4.04758 42.0199 4.09341 42.4844 4.1669 42.943C4.22966 43.4037 4.31897 43.8568 4.40148 44.3144C4.49811 44.7676 4.58853 45.2224 4.70098 45.6701C4.91798 46.5683 5.17224 47.4567 5.46215 48.3292C5.75146 49.2045 6.07302 50.0661 6.42512 50.915C6.74589 51.6898 7.0938 52.4542 7.46493 53.2059C6.72755 53.0152 6.00052 52.8032 5.29014 52.561ZM32.0705 87.2922L32.1079 87.1006L32.1396 86.9224C32.1583 86.806 32.1787 86.6885 32.1968 86.575C32.2154 86.4586 32.2324 86.3434 32.2494 86.2281C32.2664 86.1128 32.2822 85.9959 32.2975 85.8817C32.3592 85.4223 32.4107 84.9622 32.4532 84.5031C32.5383 83.585 32.5901 82.6643 32.6088 81.741C32.6257 80.8188 32.6106 79.8956 32.5605 78.971C32.546 78.7406 32.5361 78.5096 32.5171 78.2796L32.4579 77.5864C32.4097 77.1258 32.3633 76.6641 32.296 76.2039L32.2501 75.8583C32.2344 75.7449 32.2131 75.6304 32.1962 75.5153C32.1553 75.2851 32.1216 75.055 32.079 74.826L31.9448 74.1404C31.9235 74.0258 31.8976 73.9118 31.8718 73.7978L31.7926 73.4568L31.7151 73.1148C31.6864 73.0002 31.6544 72.8878 31.6251 72.776C31.5644 72.549 31.5082 72.3214 31.4441 72.0967L31.24 71.4227L31.1888 71.2549C31.1714 71.1984 31.1505 71.1442 31.1314 71.0888L31.0172 70.7537C30.871 70.3061 30.6914 69.8707 30.5214 69.4313C30.4296 69.2125 30.3328 68.9969 30.2376 68.7802L30.0946 68.4566L29.9374 68.1374C29.8327 67.9246 29.7307 67.7123 29.6214 67.5L29.2672 66.8561L29.1765 66.6946L29.1317 66.6148L28.913 66.2605L28.7386 65.9743L28.65 65.8309L28.6278 65.7969L28.5996 65.7499L28.5857 65.7323L28.5392 65.6608C28.2796 65.2775 28.0258 64.8879 27.7498 64.5128C27.4852 64.1328 27.1973 63.7654 26.9163 63.3937C26.3355 62.6623 25.7251 61.9526 25.0762 61.2729C23.776 59.9174 22.3139 58.6965 20.7158 57.6758C19.1204 56.6556 17.3888 55.8503 15.6196 55.244C14.99 55.029 14.3568 54.8383 13.724 54.6667C14.2287 54.4298 14.7419 54.202 15.2576 53.9895C16.0466 53.6644 16.8454 53.3692 17.6511 53.1034C18.4586 52.8364 19.2759 52.6067 20.0995 52.4092C20.51 52.3065 20.9247 52.2253 21.3389 52.1395C21.7519 52.0667 22.1678 51.9871 22.5845 51.9312C23.0019 51.8652 23.419 51.8284 23.8356 51.7798L24.4617 51.7329C24.5671 51.7272 24.6708 51.7153 24.7756 51.7125L25.0894 51.6994L25.4026 51.6892C25.5063 51.6846 25.611 51.6818 25.7163 51.6835L26.3408 51.686C26.4456 51.6832 26.5486 51.6888 26.6533 51.6932L26.9639 51.7089C27.1716 51.7189 27.3816 51.7251 27.5869 51.7463L28.2058 51.8035C28.4122 51.8265 28.6179 51.8596 28.8221 51.8865L29.1302 51.928C29.232 51.9465 29.332 51.9662 29.4337 51.9847L30.0435 52.0986L30.658 52.2458C30.7642 52.2711 30.876 52.2976 30.9787 52.3252L31.2662 52.4093C31.4582 52.4659 31.6479 52.5191 31.8422 52.5791L32.4319 52.7813C32.63 52.8436 32.8229 52.9239 33.0164 53.0014L33.308 53.1142C33.4045 53.1507 33.5004 53.19 33.5968 53.2338L34.1696 53.4881C34.2655 53.5274 34.3596 53.5751 34.4526 53.6211L34.7344 53.7598L35.0179 53.8973C35.1109 53.9434 35.2038 53.9967 35.2951 54.0438L35.8495 54.3441C36.2121 54.5585 36.58 54.7623 36.9346 54.994C37.2933 55.2134 37.641 55.457 37.9916 55.6938C38.3353 55.9423 38.6819 56.1841 39.017 56.4455C39.6913 56.9633 40.3484 57.5068 40.9799 58.0816C41.6119 58.6536 42.224 59.2507 42.8167 59.8701C43.4066 60.4889 43.976 61.1284 44.5204 61.789C44.7884 62.1111 45.048 62.4387 45.3007 62.7708C45.1624 62.8634 45.0229 62.9543 44.8823 63.0435C44.6142 63.2158 44.341 63.3841 44.0667 63.5508L43.6531 63.7937L43.2344 64.0326L42.8125 64.2663L42.3883 64.4967C42.1018 64.6447 41.8153 64.7926 41.5255 64.9354C41.3823 65.0094 41.2357 65.0782 41.0891 65.1471C40.9437 65.2177 40.7971 65.2865 40.6511 65.3526C40.5035 65.4197 40.3569 65.4886 40.2098 65.5529L39.7641 65.7465C39.6142 65.8103 39.4638 65.8695 39.3139 65.9333L39.0894 66.0238L38.862 66.1138C38.7105 66.1713 38.5612 66.2323 38.4086 66.2881L37.9496 66.454C37.7981 66.5115 37.6439 66.5612 37.489 66.6136C37.3353 66.6677 37.1804 66.7202 37.0251 66.7681L36.5584 66.9147L36.0896 67.0506L35.8524 67.118L35.6164 67.1797L35.1398 67.3037L34.6628 67.4158C34.5826 67.4341 34.5036 67.4541 34.4223 67.4707L34.1813 67.5212L33.6989 67.6175L33.2115 67.7025L32.9694 67.7439L32.723 67.7785L32.2329 67.8483L32.7306 67.8608L32.9789 67.8662L33.2255 67.8654L33.725 67.8622L34.223 67.8454L34.4714 67.8362C34.556 67.832 34.6383 67.8244 34.7211 67.8213L35.2198 67.7871L35.7175 67.7439L35.9672 67.7217L36.2169 67.6922L36.7148 67.6343L37.2122 67.5646C37.3768 67.5421 37.5427 67.514 37.7068 67.487C37.8727 67.4589 38.0391 67.4353 38.2027 67.4038L38.6975 67.3115C38.8639 67.2806 39.0271 67.2446 39.1913 67.2103L39.4396 67.1599L39.6835 67.1028C39.8483 67.0656 40.0131 67.0285 40.1768 66.9897L40.6663 66.8669C40.8289 66.8264 40.991 66.7814 41.1542 66.738C41.3174 66.6947 41.4784 66.6479 41.641 66.6001C41.8031 66.555 41.9669 66.5089 42.1274 66.4576C42.4499 66.3613 42.7725 66.2577 43.0941 66.1524L43.5744 65.9896L44.0531 65.8206L44.5291 65.6436L45.0063 65.4611C45.3218 65.3354 45.6352 65.2064 45.9497 65.0717C46.2653 64.9387 46.5764 64.7989 46.8888 64.6535C47.045 64.5808 47.2017 64.5053 47.3574 64.4281L47.5935 64.3106L47.7152 64.2483L47.7763 64.2157L47.8443 64.1787L48.9583 63.4599L48.2219 62.3671L48.1138 62.2049L48.01 62.0569C47.9424 61.9604 47.8747 61.864 47.8064 61.7704C47.737 61.675 47.6687 61.5814 47.5987 61.4889C47.5304 61.3953 47.4604 61.3027 47.3904 61.2102C47.1105 60.8401 46.8237 60.4818 46.5306 60.1251C45.9434 59.4173 45.3339 58.7313 44.6995 58.0664C44.065 57.4015 43.4067 56.7594 42.7227 56.1413C42.0422 55.5209 41.3315 54.9324 40.5974 54.3712C40.2338 54.0847 39.8542 53.8183 39.4798 53.5486C39.0945 53.2884 38.7143 53.0248 38.3182 52.7813C37.9283 52.5289 37.5219 52.2994 37.1212 52.0638L36.5046 51.7313C36.4016 51.6773 36.3008 51.6194 36.1955 51.5693L35.8806 51.4134L35.5669 51.2592C35.4621 51.2063 35.3568 51.1562 35.2492 51.1101L34.6062 50.8263C34.5009 50.7762 34.391 50.7339 34.281 50.6917L33.9546 50.5627C33.7365 50.4771 33.5189 50.3887 33.2939 50.3148L32.6273 50.0877C32.3988 50.016 32.1619 49.9499 31.9283 49.8816L31.5786 49.7799C31.4685 49.7523 31.3634 49.7287 31.2533 49.7011L30.5759 49.5392L29.8801 49.4086C29.7644 49.3871 29.6503 49.3645 29.5328 49.3441L29.1836 49.2954C28.9508 49.2654 28.7163 49.2292 28.4829 49.202L27.7814 49.1406C27.548 49.1134 27.3132 49.1064 27.0791 49.0966L26.729 49.08C26.6113 49.0743 26.4937 49.0686 26.3777 49.069L25.6755 49.0662C25.5584 49.065 25.4429 49.07 25.3263 49.0733L24.9759 49.0859L24.6266 49.1003C24.51 49.1036 24.3945 49.1159 24.2784 49.1237L23.5824 49.175C23.1223 49.2276 22.6601 49.2696 22.2016 49.343C21.7414 49.403 21.2889 49.4895 20.833 49.5709C20.3821 49.6636 19.929 49.7529 19.4813 49.8654C18.5865 50.0802 17.701 50.3277 16.8302 50.6165C15.96 50.9025 15.1007 51.2201 14.2552 51.57C13.55 51.86 12.8546 52.1726 12.1698 52.505C12.3898 51.8721 12.6261 51.2455 12.8815 50.6259C13.2079 49.8365 13.5606 49.0614 13.9425 48.3012C14.3221 47.5376 14.7353 46.7958 15.1764 46.0746C15.3914 45.7091 15.6282 45.3585 15.8571 45.0033C16.0984 44.6595 16.3324 44.3083 16.5893 43.9737C16.8344 43.6322 17.1019 43.31 17.361 42.9788L17.7697 42.5016C17.8392 42.4224 17.9049 42.3408 17.9766 42.265L18.4009 41.8043C18.471 41.7296 18.5416 41.652 18.6173 41.5785L19.0594 41.1377C19.1312 41.0619 19.2073 40.9928 19.2852 40.9227L19.5144 40.7128C19.6673 40.5719 19.818 40.4276 19.9787 40.2987L20.4548 39.8987C20.6166 39.7715 20.7835 39.6482 20.9464 39.5227L21.1944 39.3343C21.2762 39.2738 21.3629 39.2173 21.4486 39.1591L21.9568 38.8085L22.4946 38.4773C22.5876 38.4192 22.6822 38.3599 22.7746 38.3046L23.0363 38.1631C23.2135 38.067 23.3823 37.9691 23.5624 37.8736L24.1205 37.5995C24.3034 37.5046 24.4962 37.4249 24.6869 37.3419L24.9714 37.217C25.067 37.1741 25.161 37.1323 25.2593 37.0973L25.8411 36.8708C25.9373 36.8324 26.0367 36.7991 26.1351 36.764L26.4323 36.6624L26.7279 36.5619C26.8262 36.5269 26.9273 36.4998 27.0279 36.4681L27.6295 36.2869C28.0354 36.1847 28.4398 36.069 28.8513 35.9826C29.2594 35.8838 29.6769 35.8105 30.0888 35.7286C30.5062 35.6626 30.9226 35.5875 31.3438 35.5384C32.1817 35.4261 33.0272 35.3477 33.8791 35.3087C34.727 35.2674 35.5802 35.2566 36.4326 35.2779C37.2866 35.2981 38.1398 35.3504 38.9864 35.4335C39.4021 35.4728 39.8178 35.5194 40.2294 35.5783C40.1955 35.7457 40.16 35.9143 40.1244 36.0829C40.0553 36.3969 39.9816 36.7115 39.9034 37.0266L39.7825 37.4955L39.6571 37.965L39.5233 38.4327L39.3821 38.9003C39.2871 39.2118 39.1881 39.5211 39.0818 39.8302C39.0318 39.984 38.9773 40.1383 38.9227 40.2926C38.8699 40.4458 38.8153 40.6001 38.7569 40.7521C38.6995 40.9057 38.6439 41.0583 38.5854 41.2103L38.4055 41.6668C38.3442 41.8182 38.2801 41.969 38.2178 42.1187L38.123 42.3453L38.0255 42.5712C37.9575 42.7197 37.8946 42.8722 37.8254 43.019L37.618 43.4668C37.55 43.6153 37.4753 43.7609 37.4034 43.9072C37.3309 44.0562 37.259 44.2024 37.1814 44.3475L36.9539 44.7866L36.7162 45.2177L36.5957 45.4344L36.4702 45.647L36.2202 46.0741L35.9585 46.4942L35.8262 46.704L35.69 46.9115L35.4137 47.3242L35.1285 47.7306L34.9844 47.9335L34.8343 48.1308L34.5345 48.5297L34.8945 48.186L35.0759 48.0145L35.2529 47.8361L35.6041 47.4788L35.9469 47.1124L36.1178 46.9284L36.2836 46.7403L36.617 46.3632L36.9392 45.9763L37.1017 45.7831L37.2581 45.5843L37.5691 45.1877L37.8729 44.7838C37.9773 44.6503 38.074 44.5122 38.1717 44.3758C38.27 44.2366 38.3716 44.1025 38.4643 43.9622L38.7508 43.5428C38.8463 43.403 38.9379 43.261 39.0295 43.1189L39.1697 42.9064L39.3031 42.6909C39.3936 42.5472 39.4852 42.4051 39.5717 42.259L39.8325 41.8225C39.9191 41.6764 40.0017 41.5281 40.0871 41.3803C40.1737 41.2342 40.2552 41.0842 40.3362 40.9369C40.4177 40.7868 40.5003 40.6385 40.5791 40.4878C40.741 40.186 40.8956 39.8841 41.0481 39.5788L41.2742 39.1188L41.4935 38.656L41.7051 38.1885L41.9127 37.7188C42.0466 37.4037 42.1795 37.087 42.3073 36.7662C42.4362 36.4471 42.5572 36.1235 42.6744 35.7975C42.7341 35.6326 42.791 35.4671 42.848 35.3015L42.9306 35.049L42.9713 34.9182L42.9929 34.8509L43.0134 34.7745L43.2916 33.476L42.0013 33.2215L41.8097 33.1841L41.6332 33.1513C41.5186 33.1315 41.4028 33.11 41.2875 33.093C41.1728 33.0732 41.0576 33.0563 40.9423 33.0393C40.8288 33.0212 40.7135 33.0042 40.5993 32.989C40.1416 32.9262 39.6849 32.8724 39.2293 32.8277C38.3163 32.7393 37.4006 32.6842 36.4869 32.6617C35.5704 32.6386 34.6524 32.6504 33.7363 32.6949C32.8202 32.7394 31.9031 32.8233 30.9902 32.9433C30.5323 32.9993 30.0782 33.0796 29.6224 33.1537C29.1699 33.2402 28.7141 33.3216 28.2641 33.4306C27.8109 33.5273 27.3636 33.6516 26.9147 33.7696L26.2476 33.9693C26.1363 34.0031 26.0228 34.0334 25.9148 34.0723L25.5831 34.1843L25.2525 34.2979C25.1417 34.3362 25.0327 34.3733 24.9235 34.4178L24.2716 34.6706C24.1619 34.7106 24.055 34.7585 23.947 34.8046L23.6251 34.9466C23.4118 35.0395 23.1957 35.1318 22.9868 35.2389L22.3551 35.5488C22.1439 35.6598 21.9321 35.7809 21.7197 35.8975L21.4008 36.0738C21.3033 36.1325 21.2121 36.1895 21.1174 36.2488L20.5257 36.6126L19.9455 37.0125C19.8479 37.0785 19.7504 37.1445 19.6551 37.2139L19.3741 37.4261C19.1868 37.57 18.9989 37.7093 18.8138 37.8566L18.2752 38.3094C18.0929 38.4573 17.9229 38.6166 17.7501 38.7752L17.493 39.013C17.4061 39.0915 17.3191 39.17 17.2382 39.2542L16.742 39.7496C16.659 39.8304 16.5792 39.9163 16.5012 40.0011L16.2637 40.2576L16.0273 40.5159C15.9465 40.6001 15.8746 40.6905 15.7988 40.7787L15.345 41.3095C15.0574 41.6714 14.7614 42.0315 14.4917 42.406C14.2102 42.7736 13.9517 43.1578 13.6881 43.5379C13.438 43.9239 13.1794 44.308 12.945 44.7032C12.4666 45.4899 12.0195 46.295 11.6089 47.1151C11.1966 47.9364 10.8168 48.7703 10.4678 49.6181C10.1766 50.324 9.909 51.0364 9.66099 51.7602C9.36885 51.1558 9.09201 50.5413 8.83551 49.9209C8.50816 49.1286 8.20907 48.3275 7.94102 47.5183C7.67017 46.7085 7.43828 45.8879 7.23967 45.0626C7.13305 44.6498 7.05178 44.2351 6.9632 43.8202C6.88814 43.4039 6.80688 42.9891 6.74987 42.5707C6.68103 42.1527 6.64317 41.7339 6.59348 41.3156L6.54371 40.6889C6.53524 40.5829 6.52507 40.4781 6.52222 40.3733L6.49611 39.7457C6.49156 39.642 6.48591 39.5367 6.48868 39.4331L6.48734 38.8063C6.48619 38.7004 6.49177 38.5975 6.49624 38.4928L6.50907 38.1815C6.51801 37.9721 6.52244 37.7632 6.54373 37.5579L6.59695 36.9368C6.61994 36.7304 6.65136 36.5257 6.67717 36.3199L6.71697 36.0128C6.73549 35.9111 6.75401 35.8094 6.77253 35.7076L6.88364 35.0973L7.02803 34.4821C7.05335 34.376 7.07816 34.2653 7.10459 34.1608L7.18868 33.8734C7.2453 33.6814 7.29572 33.491 7.35575 33.2968L7.55506 32.7065C7.61849 32.5101 7.69597 32.3166 7.77064 32.1225L7.8846 31.8326C7.91998 31.7344 7.95816 31.6368 8.00137 31.5432L8.25118 30.9709C8.29217 30.8739 8.33819 30.7809 8.38311 30.6862L8.52176 30.4044L8.6576 30.122C8.70252 30.0273 8.75526 29.9372 8.80298 29.8431L9.09877 29.2893C9.31146 28.9277 9.51521 28.5599 9.74358 28.2075C9.96189 27.8471 10.2037 27.5005 10.436 27.1504C10.6828 26.8078 10.9235 26.4595 11.1832 26.1255C11.6965 25.4517 12.2366 24.7968 12.8069 24.1659C13.3755 23.536 13.9698 22.9234 14.5841 22.334C15.1984 21.7446 15.8362 21.1764 16.4917 20.6353C16.8137 20.3672 17.1414 20.1077 17.4717 19.856C17.5566 19.9825 17.6408 20.1118 17.7234 20.2421C17.8941 20.5041 18.0591 20.7722 18.2241 21.0402C18.3857 21.3105 18.5456 21.5819 18.7021 21.8556L18.9349 22.2685L19.1619 22.6876L19.3828 23.1083C19.4562 23.247 19.5274 23.3897 19.5991 23.5295C19.672 23.671 19.7397 23.8159 19.8098 23.9569C19.8792 24.1006 19.9487 24.2444 20.0153 24.3875C20.1514 24.6745 20.2807 24.9658 20.41 25.2572C20.5331 25.5502 20.6607 25.8426 20.7759 26.1383C20.8983 26.4341 21.0101 26.7321 21.123 27.0317C21.1794 27.1815 21.2296 27.3329 21.2844 27.4839C21.3363 27.6342 21.391 27.7851 21.4396 27.9377L21.5897 28.3948L21.729 28.8541L21.7993 29.0846L21.9913 29.7809C22.0663 30.0931 22.1532 30.4048 22.2175 30.7192L22.3218 31.1916L22.4137 31.6672L22.4585 31.907L22.4977 32.1456L22.5754 32.6257L22.5783 32.1392L22.5814 31.8948L22.5755 31.6515L22.5654 31.1637L22.5406 30.6758C22.5288 30.3491 22.4973 30.0255 22.4737 29.6992L22.4241 29.2105L22.398 28.9658L22.3684 28.7233L22.307 28.235L22.2322 27.7483C22.208 27.5847 22.1804 27.4234 22.1528 27.2621C22.1241 27.099 22.0982 26.9366 22.0661 26.7757C22.0035 26.453 21.9399 26.1285 21.8684 25.8068C21.8014 25.4846 21.7208 25.1639 21.6448 24.8427C21.5642 24.522 21.4819 24.2024 21.3924 23.8827C21.3495 23.724 21.3039 23.5648 21.2566 23.4066C21.2092 23.2484 21.1653 23.088 21.1134 22.9304C21.0633 22.7716 21.0176 22.6124 20.9658 22.4547L20.8102 21.9817L20.6485 21.5104L20.4805 21.0407C20.3661 20.7275 20.2471 20.4149 20.1248 20.1045C20.0008 19.7951 19.8739 19.4852 19.7409 19.1769C19.6095 18.8675 19.4731 18.5615 19.3293 18.2553C19.2577 18.1008 19.1844 17.9475 19.1083 17.7935L18.9913 17.562L18.9312 17.4437L18.8986 17.3825L18.8616 17.3145L18.1395 16.1954L17.0518 16.9285L16.8924 17.0372L16.745 17.1381C16.6496 17.2075 16.5532 17.2752 16.4596 17.3435C16.3631 17.4112 16.2706 17.4812 16.1787 17.5484C16.0862 17.6184 15.9925 17.6867 15.9028 17.7572C15.5345 18.0361 15.1761 18.3229 14.8228 18.6137C14.1185 19.1988 13.4358 19.806 12.7754 20.4399C12.1139 21.0722 11.4763 21.73 10.8633 22.4106C10.2475 23.0906 9.66344 23.8008 9.10564 24.5327C8.82196 24.8969 8.55899 25.2742 8.29039 25.6504C8.03185 26.0346 7.76999 26.4136 7.52934 26.8104C7.27863 27.1991 7.05195 27.6061 6.81802 28.0058L6.49005 28.6218C6.43604 28.7248 6.37811 28.8256 6.32802 28.9309L6.17383 29.2447L6.02075 29.5601C5.97066 29.6654 5.91946 29.7691 5.87439 29.8784L5.59403 30.5191C5.54505 30.6262 5.50279 30.7361 5.46054 30.846L5.33436 31.173C5.33207 31.1769 5.32977 31.1809 5.32859 31.1865L5.05527 30.8824C4.98122 30.8022 4.91056 30.7198 4.83421 30.6435L4.60745 30.4109L4.37899 30.1793C4.30264 30.103 4.22858 30.0229 4.14993 29.9505L3.67763 29.5047L3.56055 29.3919L3.43777 29.2854L3.19563 29.07C2.87543 28.7794 2.53755 28.5101 2.20367 28.2358C2.0367 28.1023 1.86461 27.9721 1.69312 27.8391C1.60708 27.774 1.52274 27.7078 1.4367 27.6427L1.17569 27.4541C0.999619 27.329 0.827537 27.1988 0.649167 27.0775L0.11687 26.7144C-0.0632003 26.5943 -0.244457 26.4797 -0.42401 26.3641L-0.697003 26.1906L-0.971177 26.0228C-1.33709 25.796 -1.71107 25.5865 -2.08386 25.3715L-2.64716 25.0649C-2.8364 24.9604 -3.02801 24.8672 -3.21955 24.7666C-3.40828 24.6667 -3.59989 24.5735 -3.79262 24.4785C-3.98534 24.3836 -4.17695 24.2904 -4.37086 24.2011C-4.75919 24.018 -5.151 23.8444 -5.5451 23.6747C-5.93809 23.5067 -6.33508 23.3438 -6.73384 23.1893C-6.93463 23.1117 -7.13372 23.033 -7.33569 22.9611L-7.63635 22.8493L-7.94101 22.7425C-8.34666 22.5997 -8.75408 22.4654 -9.1689 22.3383C-9.37546 22.2742 -9.58261 22.2129 -9.79316 22.1538C-9.89814 22.1229 -10.0048 22.0931 -10.1121 22.066L-10.2761 22.0227L-10.3598 22.0021L-10.453 21.978L-11.7997 21.6852L-12.057 23.0233L-12.0933 23.2167L-12.125 23.3948C-12.1454 23.5123 -12.1658 23.6298 -12.1828 23.7451C-12.2014 23.8614 -12.2184 23.9767 -12.2354 24.0919C-12.2523 24.2072 -12.2693 24.3225 -12.2835 24.4383C-12.344 24.8995 -12.3956 25.3595 -12.4381 25.8186C-12.5209 26.7401 -12.5728 27.6609 -12.5886 28.5848C-12.6073 29.5081 -12.5893 30.4318 -12.5393 31.3564C-12.5237 31.5886 -12.5137 31.8195 -12.4947 32.0495L-12.4355 32.7428C-12.3863 33.205 -12.3398 33.6667 -12.2726 34.1269L-12.2249 34.4715C-12.2081 34.5865 -12.1868 34.7011 -12.1688 34.8178C-12.129 35.0463 -12.0954 35.2764 -12.0527 35.5055L-11.9174 36.1928C-11.8961 36.3073 -11.8702 36.4213 -11.8427 36.5342L-11.7641 36.878L-11.6848 37.2189C-11.6573 37.3319 -11.627 37.4454 -11.5966 37.5589C-11.5342 37.7848 -11.478 38.0123 -11.4128 38.2388L-11.2087 38.9127L-11.1575 39.0805C-11.1384 39.1359 -11.1181 39.193 -11.099 39.2483L-10.9842 39.5807C-10.838 40.0282 -10.6573 40.4654 -10.4862 40.9064C-10.3955 41.1236 -10.2976 41.3408 -10.2024 41.5575L-10.0594 41.8811L-9.90221 42.2003C-9.79574 42.412 -9.69437 42.6271 -9.5845 42.8366L-9.23964 43.4624L-9.15341 43.6171L-9.10974 43.6952L-9.06267 43.7712L-8.87608 44.0761L-8.59365 44.5318L-8.57096 44.5703C-8.5621 44.5839 -8.57318 44.5669 -8.54879 44.6043L-8.5349 44.6219L-8.48945 44.6917L-8.02255 45.3858C-7.99092 45.4306 -7.95316 45.4811 -7.92042 45.5277L-7.71342 45.8193C-7.43932 46.2101 -7.15368 46.5741 -6.87092 46.9447C-6.29179 47.6772 -5.67865 48.3875 -5.02801 49.0661C-3.72614 50.4205 -2.26127 51.642 -0.662502 52.6599C0.937374 53.6795 2.6696 54.482 4.44049 55.0873C5.32482 55.3882 6.21752 55.6425 7.10943 55.8658C7.99963 56.0902 8.88681 56.2802 9.75884 56.4656C10.6275 56.6531 11.4798 56.8343 12.3172 57.0447C13.1518 57.2544 13.9727 57.4877 14.7734 57.7607C16.372 58.3062 17.8935 59.0158 19.3032 59.9146C20.7123 60.8089 22.0075 61.889 23.1785 63.1057C23.7617 63.7144 24.317 64.3582 24.8456 65.0242C25.1027 65.3631 25.3667 65.6975 25.6097 66.0481C25.8646 66.3909 26.0985 66.7498 26.3392 67.1042L26.4101 67.2131L26.4987 67.3565L26.6737 67.6399L26.8498 67.925L26.8936 67.9958L27.0013 68.1946L27.2937 68.7213C27.3886 68.9042 27.479 69.0949 27.5717 69.2817L27.7117 69.5636L27.8377 69.8499C27.9219 70.0422 28.0077 70.2334 28.0902 70.4269C28.2409 70.8182 28.4024 71.2073 28.5323 71.6073L28.6367 71.9052C28.6536 71.9571 28.6711 72.0063 28.6869 72.0566L28.7344 72.2075L28.9178 72.8125C28.9759 73.0169 29.0278 73.223 29.0832 73.4269C29.1103 73.528 29.1385 73.6307 29.1639 73.7329L29.3061 74.3527C29.3309 74.4577 29.3546 74.561 29.3738 74.6648L29.4973 75.2895C29.5368 75.4988 29.5684 75.7109 29.6033 75.9207C29.6208 76.0256 29.64 76.1295 29.6558 76.2355L29.6975 76.5524C29.7613 76.9737 29.8036 77.3993 29.8487 77.8255L29.9034 78.4635C29.9214 78.6771 29.9305 78.8918 29.944 79.1059C29.9925 79.9612 30.0066 80.8196 29.9915 81.6776C29.9746 82.5368 29.9285 83.3956 29.8498 84.249C29.8141 84.6479 29.7699 85.045 29.7174 85.4403C29.3984 85.3598 29.0783 85.2703 28.7583 85.1808C27.9852 84.9577 27.2169 84.7047 26.4579 84.4287C25.6961 84.1522 24.9475 83.8476 24.2087 83.5172L23.9313 83.3927L23.6573 83.2659C23.4752 83.1762 23.2896 83.096 23.1098 83.0023L22.567 82.7308L22.0317 82.4448C21.3239 82.0579 20.6214 81.653 19.9504 81.2034L19.6948 81.038L19.4465 80.8653L18.949 80.5183L18.4651 80.1551C18.3841 80.094 18.3025 80.0357 18.2232 79.9735L17.9864 79.7813C17.3508 79.2819 16.7574 78.7357 16.1793 78.1721L15.7575 77.737C15.6879 77.6636 15.6132 77.5935 15.5487 77.5168L15.3472 77.2895C15.2148 77.1383 15.0772 76.9905 14.9471 76.8354L14.5668 76.3635C14.5057 76.2845 14.4401 76.2062 14.3778 76.1255L14.2008 75.8799L13.8432 75.3907L13.4955 74.8758C13.4379 74.7873 13.3768 74.7011 13.3214 74.6161L13.1557 74.3581C12.7028 73.6743 12.2851 72.9626 11.886 72.2461L11.5971 71.7025C11.5491 71.6102 11.5005 71.5207 11.4553 71.429L11.3202 71.1511L11.0529 70.5959C10.9693 70.4081 10.8901 70.2197 10.8065 70.0319L10.6234 69.606L10.5669 69.4635L10.2347 68.5967L10.1364 68.3046L9.94038 67.7175C9.86976 67.5236 9.81778 67.3248 9.76018 67.1249L9.59069 66.5301L9.54609 66.3799C9.53309 66.3302 9.5218 66.2794 9.51161 66.2303L9.43874 65.9288L9.29469 65.3248L9.2591 65.1735C9.24781 65.1227 9.23821 65.0708 9.22973 65.0206L9.17098 64.7148L9.05458 64.1048C9.0365 64.0027 9.01111 63.9005 8.99753 63.7979L8.95402 63.4894L8.86358 62.8746L8.81895 62.5645C8.80368 62.4629 8.79632 62.3587 8.78445 62.255L8.71997 61.6354C8.70074 61.4274 8.677 61.2199 8.65888 61.0137L8.62146 60.391L8.58293 59.7667C8.57838 59.663 8.56821 59.5582 8.56817 59.454L8.56074 59.1414L8.53551 57.8904L8.47852 59.1416L8.46681 59.4546C8.45952 59.5587 8.46238 59.6635 8.46241 59.7677L8.45607 61.0222C8.45896 61.2312 8.46917 61.4402 8.47597 61.6514L8.49927 62.2784C8.50493 62.3838 8.50497 62.488 8.51343 62.5939L8.54002 62.9062L8.58808 63.534L8.61408 63.8491C8.62144 63.9533 8.63782 64.0565 8.64968 64.1603L8.72873 64.7873L8.76715 65.0991C8.77334 65.1532 8.77843 65.2056 8.78802 65.2575L8.81399 65.4127L8.97316 66.3485C8.98164 66.3988 8.98954 66.4518 8.99913 66.5037L9.03413 66.6578L9.16789 67.2758C9.21359 67.4835 9.25477 67.6917 9.31178 67.8945L9.47431 68.5083L9.55613 68.816L9.65096 69.1177L9.83944 69.7267L9.88686 69.8776L9.94049 70.0268L10.0472 70.3281C10.1211 70.5271 10.1888 70.7277 10.2645 70.9256L10.5021 71.5171L10.6218 71.8123C10.6641 71.9107 10.7082 72.008 10.7511 72.1036L11.0114 72.6852C11.3773 73.4549 11.759 74.2118 12.181 74.9522L12.3363 75.2314C12.3899 75.3249 12.442 75.4121 12.4945 75.5039L12.8137 76.0495L13.1605 76.5966L13.3334 76.8692C13.3932 76.9611 13.4571 77.0479 13.5175 77.1369L13.8887 77.6656C14.0192 77.8399 14.1538 78.0091 14.2849 78.1805L14.4832 78.4366C14.5488 78.5223 14.6217 78.6007 14.6907 78.6842L15.1118 79.178C15.6885 79.8175 16.2868 80.4455 16.9283 81.0209L17.1665 81.2413C17.2462 81.3154 17.3306 81.3816 17.4109 81.4528L17.9032 81.8735L18.4092 82.278L18.6616 82.4795L18.9214 82.6736C19.6063 83.1966 20.3221 83.6777 21.0493 84.1391L21.5982 84.4793L22.1574 84.8056C22.3409 84.9162 22.5313 85.015 22.72 85.1223L23.0028 85.2773L23.2867 85.4267C24.0483 85.8294 24.8243 86.2058 25.6113 86.5507C26.3995 86.8974 27.1985 87.2199 28.0126 87.5134C28.4182 87.6561 28.8267 87.7995 29.242 87.9311C29.4486 87.9952 29.6579 88.0599 29.8696 88.1207C29.974 88.1544 30.0824 88.1831 30.189 88.213L30.353 88.2564L30.4378 88.2786L30.5299 88.301L31.7707 88.6096L32.0705 87.2922Z" fill="white" fill-opacity="0.21"/>
</g>
</g>
</g>
</svg>
