<svg width="99" height="102" viewBox="0 0 99 102" fill="none" xmlns="http://www.w3.org/2000/svg">
<g id="Clip path group">
<mask id="mask0_776_666" style="mask-type:luminance" maskUnits="userSpaceOnUse" x="-43" y="-25" width="142" height="127">
<g id="e5b140d316">
<path id="Vector" d="M98.1628 37.9951L-3.45504 101.785L-42.9999 38.7901L58.618 -25L98.1628 37.9951Z" fill="white"/>
</g>
</mask>
<g mask="url(#mask0_776_666)">
<g id="Group">
<path id="Vector_2" d="M19.6182 12.3393C20.4826 9.95271 21.5891 7.68785 22.9769 5.59574C24.3621 3.50526 26.0151 1.58884 27.8719 -0.134947C28.8052 -0.994592 29.7814 -1.80905 30.7971 -2.58349C31.3127 -2.96119 31.827 -3.35247 32.3459 -3.69623L32.7324 -3.96406C32.7979 -4.00881 32.8567 -4.0529 32.929 -4.09831L33.1376 -4.23645L33.9837 -4.78197L34.088 -4.85104L34.0957 -4.85591C34.1009 -4.85915 34.1164 -4.86888 34.1138 -4.86726L34.1645 -4.89549L34.3667 -5.0152L34.7685 -5.253L35.1728 -5.49241L35.2726 -5.55146L35.3766 -5.60954L35.5827 -5.71729L36.4131 -6.15575C36.6928 -6.29533 36.979 -6.42458 37.262 -6.559L37.6891 -6.76225L38.1223 -6.94417C38.415 -7.06308 38.7028 -7.18975 38.9946 -7.30447C39.5862 -7.52097 40.1722 -7.75201 40.7791 -7.93848L41.2282 -8.08357C41.3051 -8.11024 41.3795 -8.13528 41.4554 -8.15774L41.6848 -8.22253L42.5984 -8.48268C42.9028 -8.56573 43.2153 -8.63586 43.523 -8.71374C43.6755 -8.75187 43.8306 -8.79162 43.9848 -8.82718L44.9195 -9.02495C45.0753 -9.05792 45.231 -9.09088 45.3875 -9.11706L46.3306 -9.28414C46.6435 -9.33649 46.9629 -9.3785 47.2774 -9.42827C47.4345 -9.44766 47.5935 -9.47545 47.7506 -9.49484L48.2278 -9.54945C48.8623 -9.63445 49.5027 -9.68712 50.1415 -9.74238L51.103 -9.80571C51.4243 -9.82736 51.7428 -9.83639 52.0648 -9.85126C53.3499 -9.89808 54.6397 -9.89739 55.9257 -9.85111C57.2159 -9.80385 58.4997 -9.70939 59.7797 -9.56932C60.3366 -9.50834 60.889 -9.43733 61.4411 -9.35532C61.3107 -8.9205 61.1777 -8.48406 61.0363 -8.04955L60.8968 -7.62345L60.7505 -7.19668C60.6547 -6.91325 60.5505 -6.63175 60.4505 -6.34928C60.2437 -5.78369 60.0295 -5.22423 59.8043 -4.66506C59.5774 -4.10848 59.3447 -3.55545 59.102 -3.00692C58.981 -2.72927 58.8567 -2.45678 58.7283 -2.18525C58.604 -1.91276 58.4771 -1.63864 58.3428 -1.37066C58.2085 -1.10268 58.0817 -0.828565 57.9416 -0.564124L57.5302 0.237904C57.2416 0.76486 56.9571 1.29278 56.651 1.80909L56.427 2.19818L56.193 2.58276C56.0354 2.83656 55.8853 3.09649 55.7218 3.34675L55.2306 4.10173C55.0713 4.35295 54.8946 4.59353 54.7254 4.84025L54.4697 5.21323C54.3826 5.33271 54.293 5.45382 54.2059 5.5733C54.0276 5.8113 53.8525 6.05447 53.6716 6.29409C53.3016 6.76042 52.9382 7.23708 52.5475 7.6876L52.2588 8.03091L52.1162 8.19964L51.9652 8.36646L51.3648 9.02789C51.2661 9.14028 51.1583 9.24396 51.0563 9.35118L50.4329 9.98743C50.3284 10.0963 50.2173 10.1948 50.1096 10.2985L49.4631 10.9095C49.2436 11.105 49.0261 11.2919 48.8076 11.4831L48.4832 11.7696L48.4373 11.8056L48.1973 11.733C48.031 11.6861 47.8712 11.6496 47.7124 11.6088L46.6953 11.3541L45.6525 11.1444C45.4791 11.1091 45.3057 11.0739 45.1314 11.0429L44.6055 10.9625C44.2565 10.9114 43.9069 10.8536 43.5543 10.8084L42.4994 10.6999C42.1485 10.6572 41.7977 10.6434 41.4446 10.6201L40.9181 10.5905C40.7416 10.5788 40.5666 10.5698 40.3897 10.5692L39.334 10.5512C39.1581 10.5464 38.9819 10.5526 38.8067 10.5545L38.2816 10.5672L37.754 10.5815C37.5787 10.5835 37.4048 10.599 37.2302 10.6077L36.1798 10.6729C35.4848 10.7418 34.7859 10.7988 34.0951 10.8975C33.4014 10.98 32.7184 11.1026 32.029 11.2149C31.3457 11.3485 30.6602 11.4727 29.9847 11.6302C28.6299 11.9332 27.2888 12.2925 25.9708 12.7057C24.6485 13.118 23.346 13.5791 22.0618 14.0863C20.8897 14.5484 19.7325 15.0515 18.5938 15.5899C18.8991 14.487 19.2361 13.4003 19.6182 12.3393ZM-33.2393 51.6825L-32.9524 51.7437L-32.6855 51.7959C-32.5112 51.8269 -32.3352 51.8605 -32.1651 51.8905C-31.9907 51.9216 -31.818 51.95 -31.6453 51.9784C-31.4726 52.0069 -31.2973 52.0337 -31.1262 52.0595C-30.4376 52.1639 -29.7478 52.2531 -29.0593 52.3287C-27.6822 52.4799 -26.3004 52.5813 -24.9139 52.6328C-23.5289 52.6818 -22.1418 52.6827 -20.7516 52.6311C-20.405 52.6152 -20.0578 52.6061 -19.7119 52.5835L-18.6689 52.5122C-17.9758 52.4517 -17.2811 52.3937 -16.5881 52.3044L-16.0676 52.2442C-15.8969 52.2235 -15.7243 52.1944 -15.5511 52.1721C-15.2042 52.1164 -14.8577 52.0718 -14.5125 52.0135L-13.4792 51.8294C-13.3066 51.8003 -13.1346 51.7644 -12.9627 51.7285L-12.4485 51.6182L-11.9327 51.5105C-11.7598 51.4704 -11.5901 51.4251 -11.4214 51.384C-11.0788 51.2987 -10.7356 51.2201 -10.3963 51.1295L-9.37868 50.84L-9.12534 50.7674C-9.04002 50.7427 -8.95796 50.7128 -8.87427 50.6855L-8.36793 50.5225C-7.69193 50.3142 -7.03316 50.0555 -6.36888 49.8114C-6.03771 49.6792 -5.71143 49.5392 -5.38351 49.4018L-4.89375 49.1951L-4.41017 48.9672C-4.08779 48.8153 -3.76636 48.6675 -3.44464 48.5088L-2.46822 47.9931L-2.22339 47.861L-2.10227 47.7958L-1.56455 47.4762L-1.13017 47.2215L-0.912503 47.0921L-0.860835 47.0597L-0.789458 47.0185L-0.762662 46.998L-0.654157 46.9299C-0.0716173 46.5498 0.519999 46.1785 1.09053 45.7735C1.6682 45.3856 2.22738 44.9626 2.79305 44.5499C3.90653 43.696 4.98825 42.7973 6.02588 41.8398C8.0953 39.9213 9.96668 37.7561 11.5408 35.3814C13.114 33.0108 14.368 30.4301 15.3241 27.7879C15.663 26.8476 15.9657 25.9013 16.2396 24.955C16.5826 25.7193 16.9117 26.4959 17.2178 27.2762C17.686 28.4696 18.1091 29.6771 18.4878 30.8944C18.8682 32.1142 19.1924 33.3477 19.468 34.59C19.6118 35.2093 19.7233 35.8344 19.8416 36.4588C19.9405 37.081 20.0494 37.7078 20.1227 38.3352C20.2113 38.9639 20.2558 39.5914 20.3182 40.2186L20.3727 41.1603C20.3785 41.3187 20.3937 41.4749 20.3953 41.6323L20.4069 42.1041L20.4143 42.5748C20.4185 42.7307 20.4201 42.8881 20.4149 43.0462L20.3951 43.9843C20.3967 44.1417 20.3857 44.2963 20.3763 44.4535L20.3449 44.9198C20.3245 45.2315 20.3099 45.5468 20.2727 45.8547L20.1711 46.7828C20.1313 47.0923 20.0763 47.4006 20.0306 47.7065L19.9604 48.1684C19.93 48.3207 19.8979 48.4705 19.8675 48.6229L19.6808 49.536L19.444 50.4554C19.4033 50.6142 19.3606 50.7815 19.3166 50.9351L19.1829 51.3648C19.093 51.6517 19.0082 51.9355 18.913 52.2257L18.5944 53.1064C18.4957 53.4025 18.3701 53.6902 18.2488 53.9788L18.0718 54.414C18.0146 54.558 17.9531 54.7011 17.8848 54.8448L17.4882 55.6988C17.4267 55.8419 17.3526 55.982 17.2811 56.1205L17.0656 56.5403L16.8518 56.9627C16.7803 57.1012 16.6978 57.2394 16.6246 57.3754L16.1594 58.2005C15.828 58.7398 15.5126 59.2872 15.1554 59.8139C14.8166 60.3471 14.4419 60.8633 14.0772 61.3839C13.6951 61.8939 13.323 62.4084 12.9217 62.9052C12.1267 63.9049 11.2934 64.8782 10.4139 65.8121C9.53852 66.7469 8.62592 67.6511 7.68028 68.5257C6.7356 69.396 5.76046 70.235 4.75422 71.036C4.26353 71.4304 3.76473 71.812 3.25945 72.1832C3.12388 71.973 2.9909 71.7611 2.8605 71.5477C2.60847 71.1404 2.36256 70.7258 2.11924 70.3095L1.76493 69.6819L1.41674 69.047L1.0763 68.4071L0.741028 67.764C0.526127 67.3299 0.311225 66.8957 0.104077 66.4567C-0.00337687 66.2397 -0.103077 66.0177 -0.202776 65.7958C-0.305061 65.5755 -0.404761 65.3536 -0.500254 65.1326C-0.597376 64.909 -0.697076 64.6871 -0.789985 64.4645L-1.06938 63.7899C-1.16133 63.5631 -1.2465 63.3357 -1.33844 63.1089L-1.46877 62.7693L-1.59813 62.4255C-1.68071 62.1965 -1.76845 61.9706 -1.84845 61.7399L-2.08585 61.0462C-2.16843 60.8171 -2.23905 60.5841 -2.31388 60.3502C-2.39129 60.1179 -2.46612 59.8839 -2.53416 59.6493L-2.74248 58.9445L-2.93464 58.2368L-3.02976 57.8788L-3.11647 57.5226L-3.29054 56.8036L-3.44684 56.0841C-3.4723 55.9632 -3.50034 55.844 -3.52321 55.7215L-3.5928 55.3582L-3.72518 54.631L-3.84045 53.8966L-3.89645 53.532L-3.94213 53.1609L-4.03444 52.4229L-4.06595 53.1702L-4.08041 53.543L-4.0855 53.9136L-4.09339 54.664L-4.08093 55.4125L-4.0734 55.786C-4.06927 55.913 -4.05997 56.0368 -4.05746 56.1613L-4.0188 56.9114L-3.96656 57.6601L-3.93963 58.0358L-3.90171 58.4117L-3.82748 59.1611L-3.73547 59.91C-3.70588 60.158 -3.66788 60.4078 -3.6315 60.6551C-3.5935 60.905 -3.56229 61.1555 -3.51913 61.4021L-3.39318 62.1478C-3.35097 62.3986 -3.30102 62.6446 -3.25364 62.8922L-3.18436 63.2664L-3.10474 63.6342C-3.05317 63.8828 -3.00159 64.1313 -2.94743 64.3782L-2.77558 65.1167C-2.71884 65.362 -2.6553 65.6066 -2.59436 65.8529C-2.53341 66.0992 -2.46729 66.3422 -2.39955 66.5878C-2.33602 66.8324 -2.27086 67.0796 -2.19796 67.322C-2.06153 67.809 -1.9141 68.2963 -1.76408 68.7819L-1.53179 69.5077L-1.29013 70.2312L-1.03651 70.9507L-0.774484 71.6722C-0.593772 72.1494 -0.407892 72.6234 -0.213597 73.0993C-0.0218941 73.5768 0.180147 74.0478 0.390601 74.5207C0.495825 74.7572 0.605256 74.9946 0.717272 75.2304L0.887726 75.588L0.978297 75.7725L1.02569 75.8652L1.07957 75.9682L2.13082 77.6601L3.79127 76.5817L4.03766 76.4235L4.26272 76.2714C4.40932 76.1721 4.55592 76.0729 4.69831 75.9727C4.84328 75.8709 4.98568 75.7707 5.12645 75.6679C5.26884 75.5678 5.40961 75.465 5.55038 75.3622C6.11346 74.9511 6.65906 74.5294 7.20238 74.0983C8.28061 73.2342 9.32676 72.3361 10.3418 71.4C11.3568 70.4639 12.3382 69.4913 13.2842 68.4797C14.2334 67.4732 15.1357 66.4206 15.9975 65.3322C16.4372 64.7933 16.847 64.2299 17.2617 63.6743C17.6625 63.1021 18.0681 62.5378 18.444 61.9489C18.8331 61.3697 19.1882 60.765 19.5524 60.169L20.0676 59.2514C20.1514 59.0979 20.241 58.9481 20.3189 58.7911L20.5611 58.3221L20.8008 57.8547C20.8829 57.6987 20.9608 57.5418 21.0329 57.3812L21.4756 56.4227C21.5536 56.2657 21.6199 56.1016 21.6861 55.9376L21.8882 55.4506C22.0224 55.125 22.1608 54.8004 22.2775 54.4643L22.6358 53.4687C22.7492 53.1273 22.8546 52.7731 22.9632 52.424L23.1248 51.9012C23.1691 51.7365 23.2072 51.5793 23.2515 51.4146L23.5121 50.4011L23.726 49.3592C23.7612 49.1859 23.7981 49.0151 23.8317 48.8391L23.9137 48.3158C23.9648 47.9668 24.0252 47.6156 24.0721 47.2656L24.1822 46.2133C24.229 45.8633 24.2455 45.5109 24.2661 45.1594L24.3 44.6339C24.3116 44.4573 24.3232 44.2808 24.3255 44.1065L24.3476 43.0517C24.3525 42.8758 24.3479 42.7022 24.3459 42.527L24.3359 42.0003L24.3232 41.4752C24.3212 41.3 24.3057 41.1261 24.2969 40.9515L24.2376 39.9046C24.1703 39.2122 24.1191 38.5168 24.0205 37.826C23.9421 37.1333 23.8238 36.4513 23.7131 35.7644C23.5854 35.0847 23.4628 34.4018 23.3053 33.7263C23.0054 32.3767 22.6562 31.04 22.2446 29.7246C21.8372 28.4101 21.382 27.1112 20.878 25.8321C20.4604 24.7653 20.0085 23.7127 19.5267 22.6755C20.4718 23.0221 21.407 23.3931 22.3312 23.7925C23.5088 24.303 24.6642 24.8527 25.7964 25.4457C26.9337 26.0355 28.0375 26.6751 29.1098 27.3562C29.6533 27.6885 30.1739 28.0532 30.7017 28.4062C31.212 28.7773 31.7336 29.1378 32.2297 29.5322C32.7364 29.9092 33.2135 30.3192 33.7045 30.7169L34.4109 31.3431C34.5282 31.4496 34.649 31.5502 34.761 31.6599L35.4423 32.3091C35.5528 32.4163 35.6674 32.5244 35.776 32.6399L36.4269 33.3153C36.539 33.4251 36.6407 33.5413 36.7441 33.66L37.0536 34.0096C37.2613 34.243 37.4742 34.4731 37.6638 34.7178L38.2524 35.4432C38.4395 35.6895 38.6204 35.9433 38.8048 36.1912L39.0814 36.5687C39.1702 36.693 39.2529 36.8247 39.3382 36.9549L39.8519 37.7272L40.3356 38.5437C40.4206 38.6848 40.5072 38.8285 40.588 38.9687L40.7938 39.3653C40.9337 39.6341 41.0764 39.8902 41.2154 40.1631L41.6128 41.0085C41.7507 41.2857 41.8655 41.5774 41.9853 41.8659L42.1656 42.2965C42.2277 42.4413 42.2881 42.5834 42.3382 42.7321L42.6636 43.6119C42.7188 43.7572 42.7663 43.9075 42.8164 44.0561L42.9615 44.5053L43.105 44.9518C43.1551 45.1005 43.1932 45.253 43.2381 45.4049L43.495 46.3133C43.6382 46.9257 43.8017 47.5362 43.9209 48.1564C44.0589 48.7721 44.1584 49.4011 44.2709 50.022C44.3594 50.6507 44.4615 51.2781 44.5245 51.912C44.6719 53.1737 44.7682 54.4458 44.805 55.7265C44.8453 57.0013 44.8397 58.2833 44.786 59.5631C44.7339 60.8456 44.6336 62.1259 44.487 63.3955C44.4175 64.0191 44.3369 64.6423 44.2379 65.2591C43.9872 65.204 43.7349 65.1463 43.4826 65.0886C43.0125 64.9766 42.5419 64.8579 42.0705 64.7324L41.3691 64.5389L40.6671 64.3385L39.968 64.1255L39.2691 63.9015C38.8036 63.7508 38.3415 63.5942 37.8798 63.4267C37.6501 63.3476 37.4197 63.2617 37.1893 63.1758C36.9606 63.0926 36.7302 63.0067 36.5033 62.915C36.2739 62.8249 36.0461 62.7374 35.8193 62.6457L35.1381 62.3638C34.9122 62.2679 34.6873 62.1678 34.464 62.0702L34.1262 61.9222L33.7893 61.7699C33.5679 61.664 33.3404 61.5655 33.1216 61.4579L32.4543 61.1349C32.2329 61.029 32.0161 60.913 31.7983 60.8012C31.5762 60.6885 31.3584 60.5768 31.1425 60.4566L30.4887 60.1035L29.8471 59.7355L29.5247 59.5489L29.2084 59.3549L28.5733 58.9685L27.9488 58.5646L27.637 58.3605L27.3288 58.1507L26.7159 57.7251L26.1126 57.2862L25.8115 57.0647L25.5191 56.8341L24.9274 56.3735L25.4345 56.9231L25.6876 57.2001L25.951 57.4705L26.4788 58.0072L27.0204 58.5315L27.2925 58.7929L27.5708 59.0468L28.1289 59.5572L28.7018 60.0511L28.9878 60.3001L29.2825 60.5401L29.8703 61.0175L30.4694 61.4842C30.6673 61.6445 30.8722 61.7931 31.0746 61.9434C31.2812 62.0946 31.48 62.2507 31.6885 62.3936L32.3112 62.8346C32.5187 62.9817 32.7298 63.1229 32.9409 63.2641L33.2566 63.4801L33.5768 63.6861C33.7904 63.8257 34.0015 63.9669 34.2188 64.1006L34.8678 64.5035C35.085 64.6373 35.3058 64.7652 35.5256 64.8973C35.7428 65.0311 35.9662 65.1574 36.1853 65.2827C36.4087 65.409 36.6294 65.537 36.8538 65.659C37.303 65.91 37.7526 66.15 38.2074 66.3868L38.8926 66.7382L39.5822 67.0796L40.279 67.4093L40.9794 67.7332C41.4492 67.9424 41.9217 68.15 42.4003 68.3502C42.8763 68.552 43.3595 68.7421 43.8461 68.9264C44.0924 69.0204 44.3396 69.1101 44.5868 69.1998L44.964 69.3303L45.1594 69.3949L45.2601 69.429L45.3743 69.4618L47.3177 69.9129L47.733 67.9811L47.7942 67.6942L47.848 67.4299C47.8806 67.2582 47.9158 67.0848 47.9443 66.9121C47.9769 66.7403 48.0053 66.5676 48.0338 66.3949C48.0638 66.2248 48.0923 66.0521 48.1181 65.881C48.2241 65.195 48.3165 64.5103 48.3954 63.8269C48.5514 62.4576 48.6577 61.0836 48.7148 59.7116C48.7729 58.3354 48.7785 56.956 48.7351 55.5787C48.6916 54.2014 48.589 52.8216 48.4321 51.4471C48.3596 50.7579 48.2506 50.0736 48.1509 49.3871C48.0325 48.7051 47.9219 48.0182 47.7695 47.3395C47.636 46.6562 47.4607 45.9812 47.2948 45.3038L47.0118 44.2965C46.9639 44.1285 46.9212 43.9572 46.8656 43.794L46.7059 43.2928L46.5436 42.7933C46.4889 42.6259 46.4359 42.4611 46.3719 42.296L46.0088 41.3102C45.9515 41.1445 45.8823 40.9826 45.8157 40.8192L45.6107 40.332C45.4766 40.0092 45.3434 39.6823 45.1879 39.3657L44.7385 38.4089C44.5772 38.0888 44.4006 37.7674 44.2309 37.4454L43.9742 36.9619C43.8885 36.814 43.8052 36.6754 43.7186 36.5317L43.1872 35.6336L42.6012 34.7517C42.5045 34.6035 42.4079 34.4553 42.3061 34.3103L41.9945 33.8828C41.7831 33.5977 41.5785 33.312 41.362 33.0301L40.6956 32.2095C40.4781 31.9319 40.2432 31.6724 40.0092 31.4087L39.6586 31.0165C39.5429 30.8839 39.4272 30.7512 39.3028 30.6276L38.5712 29.8696C38.452 29.7427 38.325 29.6208 38.1996 29.5014L37.8203 29.1381L37.4384 28.7763C37.314 28.6528 37.1799 28.5424 37.0494 28.4263L36.2636 27.7311C35.7273 27.2898 35.1939 26.8359 34.6382 26.4212C34.0932 25.989 33.5227 25.5908 32.9583 25.1852C32.3849 24.7996 31.8144 24.4014 31.2269 24.0392C30.0572 23.3004 28.8592 22.6082 27.6377 21.9704C26.4146 21.3301 25.1715 20.7382 23.9068 20.1924C22.8538 19.7369 21.7905 19.3167 20.7095 18.9257C21.625 18.5023 22.555 18.1021 23.4936 17.7326C24.6922 17.2611 25.9032 16.8322 27.1256 16.4502C28.349 16.064 29.5877 15.7366 30.8326 15.4594C31.4554 15.3097 32.0805 15.1982 32.7059 15.0757C33.3333 14.9736 33.9584 14.8621 34.5884 14.7872C35.2181 14.6944 35.8482 14.6482 36.4779 14.5843L37.4206 14.5255C37.58 14.5155 37.7378 14.5029 37.8952 14.5013L38.8387 14.4781C38.9945 14.4739 39.1529 14.4681 39.3085 14.4749L40.25 14.4889C40.4091 14.4899 40.5637 14.5009 40.7208 14.5103L41.1881 14.5375C41.5024 14.5563 41.8161 14.5683 42.124 14.6055L43.0557 14.7013C43.3652 14.7411 43.6718 14.7935 43.9804 14.8375L44.4406 14.9052C44.5929 14.9356 44.7453 14.966 44.8976 14.9964L45.8117 15.1789L46.7321 15.4115C46.8909 15.4523 47.0565 15.4924 47.2128 15.5347L47.6424 15.6684C47.9294 15.7584 48.2141 15.8389 48.5043 15.9341L49.386 16.2486C49.6795 16.3489 49.9681 16.4702 50.2578 16.5873L50.6904 16.7659C50.837 16.8216 50.9826 16.8814 51.1221 16.9487L51.9755 17.3386C52.1201 17.4026 52.2587 17.4742 52.3998 17.544L52.8196 17.7595L53.2403 17.9708C53.3814 18.0407 53.5154 18.1222 53.6556 18.1963L54.48 18.6548C55.0177 18.9835 55.5651 19.299 56.0886 19.651C56.6244 19.9882 57.1389 20.3603 57.6589 20.7182C58.1673 21.0977 58.6844 21.4682 59.1795 21.8669C60.1786 22.6551 61.1486 23.4832 62.0818 24.356C63.0134 25.2262 63.9186 26.1346 64.7883 27.0725C65.658 28.0104 66.4954 28.9829 67.2914 29.9814C67.6859 30.4721 68.0674 30.9709 68.437 31.4736C68.2449 31.5978 68.0486 31.7211 67.8506 31.8417C67.4527 32.0915 67.0458 32.3325 66.6389 32.5735C66.2287 32.8094 65.8169 33.0427 65.4019 33.2708L64.7756 33.6099L64.1403 33.9404L63.5027 34.2614C63.2924 34.3682 63.0763 34.4714 62.8644 34.5756C62.6499 34.6815 62.4305 34.7795 62.217 34.8812C61.9993 34.9818 61.7816 35.0825 61.5648 35.1789C61.1303 35.3761 60.6893 35.5628 60.2483 35.7496C59.8051 35.927 59.3625 36.1112 58.9153 36.2767C58.4678 36.4532 58.0174 36.6134 57.5644 36.7754C57.3379 36.8563 57.1092 36.9279 56.8811 37.0063C56.6539 37.0804 56.4258 37.1588 56.1954 37.2278L55.5048 37.4416L54.8114 37.6392L54.4633 37.7389L53.4124 38.0096C52.9415 38.1143 52.471 38.2368 51.9971 38.3254L51.2848 38.47L50.5679 38.5959L50.2065 38.6571L49.8471 38.7099L49.124 38.8144L49.8548 38.8311L50.2218 38.842L50.5874 38.8394L51.3204 38.8366L52.054 38.8119C52.5451 38.8025 53.032 38.7634 53.5228 38.7363L54.2582 38.6743L54.6264 38.6413L54.9914 38.6031L55.7265 38.5234L56.4596 38.4233C56.706 38.3911 56.949 38.3538 57.1921 38.3164C57.4377 38.2775 57.6824 38.2427 57.9249 38.1986C58.4113 38.1129 58.9003 38.0256 59.3855 37.9264C59.8712 37.8339 60.3551 37.7211 60.8395 37.6151C61.3233 37.5022 61.8055 37.3868 62.288 37.2604C62.5275 37.2001 62.7679 37.1356 63.0067 37.0686C63.2455 37.0015 63.4876 36.9396 63.7257 36.8657C63.9655 36.7944 64.2059 36.7299 64.4441 36.6561L65.1585 36.4345L65.8707 36.2035L66.5806 35.9632C67.0539 35.7993 67.5266 35.6286 67.9961 35.4527C68.4639 35.2743 68.9327 35.0917 69.3992 34.8997C69.8674 34.7102 70.3306 34.5131 70.7942 34.3049C71.0281 34.2013 71.2604 34.0951 71.4936 33.9847L71.8444 33.8149L72.0237 33.7276L72.1164 33.6802L72.2194 33.6263L73.919 32.5702L72.8455 30.9175L72.6863 30.6753L72.5384 30.4512C72.4366 30.3062 72.3374 30.1596 72.2372 30.0172C72.138 29.8706 72.0352 29.7299 71.9366 29.5901C71.8339 29.4493 71.7337 29.3069 71.6299 29.1703C71.2205 28.6098 70.7987 28.0642 70.3709 27.5261C69.51 26.453 68.6152 25.412 67.6798 24.4038C66.7469 23.3939 65.775 22.4194 64.7682 21.4811C63.7624 20.5386 62.7105 19.6432 61.6253 18.7865C61.0854 18.3511 60.5253 17.9464 59.967 17.5333C59.3965 17.1351 58.8338 16.7321 58.2439 16.3604C57.6663 15.9739 57.0607 15.623 56.4664 15.2614L55.5493 14.753C55.3959 14.6692 55.246 14.5796 55.0891 14.5017L54.6217 14.262L54.1518 14.024C53.9948 13.9461 53.8404 13.8665 53.6773 13.796L52.722 13.3585C52.5624 13.2822 52.3984 13.2159 52.2343 13.1496L51.7463 12.9517C51.7405 12.9482 51.7347 12.9446 51.7263 12.9427L52.1901 12.5399C52.3124 12.4307 52.438 12.3267 52.5545 12.2139L52.9098 11.8792L53.2635 11.5419C53.38 11.4292 53.5024 11.32 53.613 11.2037L54.2949 10.5056L54.4672 10.3326L54.6304 10.1508L54.9602 9.79259C55.4048 9.319 55.818 8.81832 56.2386 8.32376C56.4435 8.07633 56.6434 7.82115 56.8476 7.56693C56.9476 7.43934 57.0492 7.31433 57.1492 7.18674L57.4391 6.79947C57.6316 6.53816 57.8315 6.28298 58.0182 6.01812L58.5773 5.22777C58.7624 4.96033 58.9391 4.69097 59.1173 4.42419L59.3849 4.01853L59.6441 3.61094C59.9941 3.06705 60.3183 2.51061 60.6509 1.95608L61.1258 1.11771C61.2876 0.836099 61.4325 0.550633 61.5884 0.26547C61.7434 -0.0154888 61.8883 -0.300952 62.0359 -0.588041C62.1834 -0.875126 62.3283 -1.16059 62.4674 -1.4496C62.7524 -2.02828 63.0232 -2.61243 63.2882 -3.20013C63.5505 -3.7862 63.8054 -4.3784 64.0477 -4.97348C64.1694 -5.27313 64.2926 -5.57019 64.4058 -5.87176L64.5815 -6.32057L64.7497 -6.77551C64.9745 -7.38122 65.1867 -7.98983 65.3882 -8.60973C65.4898 -8.91839 65.5871 -9.22802 65.6812 -9.5428C65.7304 -9.69971 65.7779 -9.85921 65.8213 -10.0197L65.8906 -10.2649L65.9237 -10.3901L65.9622 -10.5295L66.4365 -12.5451L64.4329 -12.9657L64.1434 -13.0253L63.8766 -13.0775C63.7006 -13.1111 63.5246 -13.1447 63.3519 -13.1731C63.1776 -13.2041 63.0049 -13.2326 62.8321 -13.261C62.6594 -13.2894 62.4867 -13.3179 62.313 -13.3421C61.6219 -13.4449 60.932 -13.534 60.2435 -13.6096C58.8613 -13.7576 57.4795 -13.859 56.092 -13.9063C54.7054 -13.9579 53.3174 -13.9545 51.9271 -13.903C51.578 -13.8855 51.2307 -13.8764 50.8848 -13.8537L49.8419 -13.7825C49.1462 -13.7203 48.4515 -13.6624 47.7584 -13.573L47.2396 -13.5103C47.0663 -13.4879 46.8937 -13.4588 46.7179 -13.4349C46.3737 -13.3808 46.0271 -13.3362 45.6819 -13.278L44.646 -13.0923C44.4734 -13.0631 44.3015 -13.0272 44.1311 -12.9888L43.6127 -12.8794L43.0985 -12.7691C42.9282 -12.7306 42.7569 -12.6879 42.5856 -12.6452C42.2447 -12.5573 41.9015 -12.4787 41.5596 -12.3865L40.542 -12.097L40.2886 -12.0244C40.2049 -11.9971 40.1187 -11.9682 40.035 -11.9408L39.5328 -11.7769C38.8568 -11.5686 38.1955 -11.3083 37.5286 -11.0626C37.2 -10.9319 36.8712 -10.7903 36.5433 -10.6529L36.0535 -10.4463L35.5699 -10.2184C35.2492 -10.0638 34.9235 -9.91704 34.606 -9.75734L33.657 -9.25527L33.4225 -9.12968L33.304 -9.06608L33.1887 -8.9973L32.7259 -8.72479L32.0342 -8.31215L31.9757 -8.27905C31.955 -8.26608 31.9809 -8.2823 31.924 -8.24662L31.8972 -8.22619L31.7913 -8.1597L30.7367 -7.47604C30.6685 -7.42967 30.5917 -7.37423 30.521 -7.32623L30.0776 -7.02272C29.4835 -6.62094 28.9295 -6.20113 28.3654 -5.78583C27.2503 -4.93456 26.1676 -4.03163 25.1316 -3.07155C23.0638 -1.15043 21.1915 1.01893 19.6215 3.39465C18.049 5.77197 16.7993 8.35366 15.8448 10.9985C15.3702 12.3192 14.9654 13.6538 14.6072 14.9879C14.2474 16.3195 13.9393 17.6473 13.6386 18.9526C13.3346 20.2527 13.0406 21.5285 12.7033 22.7811C12.3669 24.0295 11.9955 25.2566 11.5649 26.4525C10.7047 28.84 9.59985 31.1075 8.21365 33.2022C6.83424 35.2962 5.17868 37.2143 3.32099 38.9422C2.39181 39.8029 1.41049 40.6206 0.396437 41.3976C-0.119184 41.7753 -0.628314 42.1633 -1.16111 42.5194C-1.68255 42.8935 -2.22767 43.2357 -2.76628 43.5882L-2.93162 43.692L-3.1493 43.8215L-3.57947 44.0771L-4.01223 44.3344L-4.11977 44.3983L-4.42114 44.555L-5.2199 44.9808C-5.49704 45.1188 -5.78585 45.2497 -6.06882 45.3841L-6.49586 45.5873L-6.92909 45.7692C-7.22018 45.8908 -7.50964 46.0148 -7.80234 46.1338C-8.39393 46.3503 -8.98259 46.5829 -9.58685 46.7678L-10.037 46.9171C-10.1155 46.9411 -10.1898 46.9662 -10.2657 46.9886L-10.4936 47.056L-11.4071 47.3162C-11.7157 47.3983 -12.0266 47.471 -12.3343 47.5489C-12.4868 47.587 -12.642 47.6267 -12.7961 47.6623L-13.7308 47.8601C-13.8892 47.8947 -14.0449 47.9276 -14.2014 47.9538L-15.1429 48.1235C-15.4584 48.1774 -15.7777 48.2194 -16.0939 48.2666C-16.2519 48.2902 -16.4084 48.3164 -16.5681 48.3374L-17.0452 48.392C-17.6797 48.477 -18.3201 48.5297 -18.9615 48.5866L-19.9214 48.6525C-20.2427 48.6741 -20.5654 48.6822 -20.8874 48.6971C-22.1735 48.7481 -23.4633 48.7474 -24.7519 48.7027C-26.042 48.6555 -27.331 48.5643 -28.6111 48.4242C-29.2093 48.3604 -29.8048 48.284 -30.3973 48.1949C-30.2682 47.7177 -30.1256 47.2393 -29.983 46.7608C-29.628 45.6051 -29.2284 44.4575 -28.7944 43.3243C-28.3595 42.1869 -27.8829 41.0702 -27.3677 39.9689L-27.1735 39.5553L-26.9761 39.1468C-26.8367 38.8756 -26.7114 38.5989 -26.5661 38.3312L-26.1445 37.5227L-25.7012 36.7258C-25.1018 35.6725 -24.4757 34.6275 -23.7831 33.631L-23.5281 33.2512L-23.2624 32.8827L-22.7284 32.1441L-22.1705 31.4265C-22.0766 31.3064 -21.987 31.1853 -21.8915 31.0677L-21.5967 30.717C-20.8303 29.7749 -19.9946 28.8973 -19.1333 28.0433L-18.4688 27.4209C-18.3568 27.3182 -18.2497 27.2077 -18.1328 27.1128L-17.7861 26.8159C-17.5557 26.6208 -17.33 26.4179 -17.0937 26.2264L-16.3751 25.6672C-16.255 25.5774 -16.1356 25.4808 -16.0129 25.3894L-15.6393 25.1297L-14.8954 24.6051L-14.1129 24.0959C-13.9786 24.0116 -13.8475 23.9221 -13.7183 23.841L-13.3266 23.5987C-12.2877 22.9357 -11.2081 22.3264 -10.1215 21.7452L-9.29751 21.3251C-9.15765 21.2554 -9.02199 21.1846 -8.88309 21.119L-8.46217 20.9232L-7.6213 20.5358C-7.33701 20.415 -7.05205 20.3009 -6.76776 20.1801L-6.12323 19.916L-5.90773 19.8347L-4.59723 19.3578L-4.15584 19.2176L-3.26884 18.9381C-2.97578 18.8369 -2.67587 18.7639 -2.37404 18.6825L-1.47629 18.4431L-1.24944 18.3799C-1.17446 18.3616 -1.09786 18.346 -1.02385 18.3319L-0.569119 18.2301L0.34196 18.0292L0.570133 17.9796C0.646734 17.9639 0.724952 17.9508 0.800591 17.9393L1.2615 17.8589L2.18075 17.6996C2.3346 17.6751 2.48877 17.6395 2.64328 17.6218L3.1078 17.5643L4.03359 17.4441L4.50068 17.385C4.65358 17.3646 4.81038 17.3562 4.96652 17.3411L5.89885 17.26C6.21179 17.2364 6.52407 17.2061 6.83442 17.1841L7.77071 17.1438L8.70959 17.1018C8.86543 17.0977 9.02319 17.0851 9.17969 17.0877L9.64948 17.0845L11.5293 17.0785L9.65118 16.961L9.18133 16.9354C9.02513 16.9218 8.86767 16.9234 8.71117 16.9208L6.82671 16.8792C6.51275 16.8782 6.1985 16.8882 5.88099 16.893L4.93851 16.912C4.78009 16.9179 4.6236 16.9153 4.46421 16.9253L3.99447 16.9572L3.05013 17.0134L2.57618 17.0444C2.41939 17.0528 2.26391 17.0748 2.10777 17.09L1.16384 17.1927L0.694457 17.2425C0.612994 17.2504 0.53411 17.2567 0.455892 17.2698L0.222189 17.3048L-1.18776 17.52C-1.2634 17.5315 -1.34324 17.542 -1.42146 17.5551L-1.65384 17.6037L-2.58564 17.7889C-2.89882 17.8522 -3.21267 17.9088 -3.51871 17.9892L-4.44493 18.2177L-4.90933 18.3328L-5.36496 18.4675L-6.28464 18.7351L-6.51246 18.8025L-6.73799 18.8793L-7.19326 19.0318C-7.49408 19.1378 -7.79718 19.2344 -8.09636 19.343L-8.991 19.6849L-9.4375 19.8572C-9.58644 19.9183 -9.73375 19.9819 -9.87848 20.044L-10.7588 20.4201C-11.9244 20.9501 -13.0711 21.5043 -14.1941 22.1192L-14.6176 22.3454C-14.7593 22.4236 -14.8918 22.4995 -15.031 22.5761L-15.8587 23.0417L-16.6894 23.5487L-17.1034 23.8014C-17.2429 23.889 -17.3749 23.9827 -17.5102 24.0712L-18.3139 24.6154C-18.579 24.807 -18.8366 25.0047 -19.0975 25.1973L-19.4872 25.4887C-19.6176 25.585 -19.7374 25.6926 -19.8646 25.7941L-20.6171 26.4141C-21.5925 27.2641 -22.551 28.1468 -23.4319 29.0959L-23.7691 29.448C-23.8823 29.5659 -23.9839 29.6909 -24.093 29.8098L-24.7375 30.5385L-25.3582 31.2883L-25.6672 31.6623L-25.9655 32.0477C-26.7686 33.0633 -27.5095 34.1262 -28.2213 35.2069L-28.7464 36.0227L-29.2508 36.8544C-29.4216 37.1273 -29.575 37.4108 -29.7409 37.6915L-29.981 38.1123L-30.2126 38.535C-30.837 39.6689 -31.4222 40.825 -31.9605 41.9984C-32.5014 43.1735 -33.0064 44.3657 -33.4679 45.581C-33.6928 46.1867 -33.9185 46.7967 -34.1268 47.4172C-34.2284 47.7259 -34.3309 48.0387 -34.4276 48.3552C-34.481 48.5111 -34.5269 48.6732 -34.5744 48.8327L-34.6438 49.0779L-34.6794 49.2047L-34.7154 49.3425L-35.2106 51.1985L-33.2393 51.6825Z" fill="white" fill-opacity="0.21"/>
</g>
</g>
</g>
</svg>
