<svg width="86" height="83" viewBox="0 0 86 83" fill="none" xmlns="http://www.w3.org/2000/svg">
<g id="Clip path group">
<mask id="mask0_840_749" style="mask-type:luminance" maskUnits="userSpaceOnUse" x="0" y="-44" width="142" height="127">
<g id="e5b140d316">
<path id="Vector" d="M0 18.9951L101.618 82.7852L141.163 19.7901L39.5449 -44L0 18.9951Z" fill="white"/>
</g>
</mask>
<g mask="url(#mask0_840_749)">
<g id="Group">
<path id="Vector_2" d="M78.5447 -6.66068C77.6803 -9.04729 76.5738 -11.3122 75.1859 -13.4043C73.8007 -15.4947 72.1477 -17.4112 70.291 -19.1349C69.3576 -19.9946 68.3815 -20.809 67.3658 -21.5835C66.8502 -21.9612 66.3359 -22.3525 65.817 -22.6962L65.4304 -22.9641C65.3649 -23.0088 65.3061 -23.0529 65.2338 -23.0983L65.0252 -23.2365L64.1791 -23.782L64.0748 -23.851L64.0671 -23.8559C64.0619 -23.8592 64.0464 -23.8689 64.049 -23.8673L63.9983 -23.8955L63.7961 -24.0152L63.3944 -24.253L62.99 -24.4924L62.8902 -24.5515L62.7862 -24.6095L62.5802 -24.7173L61.7498 -25.1558C61.47 -25.2953 61.1838 -25.4246 60.9008 -25.559L60.4738 -25.7622L60.0406 -25.9442C59.7478 -26.0631 59.46 -26.1898 59.1683 -26.3045C58.5767 -26.521 57.9906 -26.752 57.3838 -26.9385L56.9346 -27.0836C56.8577 -27.1102 56.7834 -27.1353 56.7074 -27.1577L56.478 -27.2225L55.5645 -27.4827C55.26 -27.5657 54.9475 -27.6359 54.6399 -27.7137C54.4873 -27.7519 54.3322 -27.7916 54.178 -27.8272L53.2434 -28.025C53.0876 -28.0579 52.9318 -28.0909 52.7754 -28.1171L51.8322 -28.2841C51.5193 -28.3365 51.1999 -28.3785 50.8854 -28.4283C50.7283 -28.4477 50.5693 -28.4755 50.4122 -28.4948L49.9351 -28.5495C49.3006 -28.6345 48.6601 -28.6871 48.0213 -28.7424L47.0599 -28.8057C46.7385 -28.8274 46.4201 -28.8364 46.0981 -28.8513C44.8129 -28.8981 43.5231 -28.8974 42.2371 -28.8511C40.9469 -28.8039 39.6631 -28.7094 38.3831 -28.5693C37.8262 -28.5083 37.2738 -28.4373 36.7217 -28.3553C36.8521 -27.9205 36.9851 -27.4841 37.1266 -27.0495L37.266 -26.6234L37.4123 -26.1967C37.5081 -25.9133 37.6123 -25.6317 37.7123 -25.3493C37.9191 -24.7837 38.1333 -24.2242 38.3586 -23.6651C38.5854 -23.1085 38.8181 -22.5555 39.0608 -22.0069C39.1818 -21.7293 39.3061 -21.4568 39.4346 -21.1852C39.5588 -20.9128 39.6857 -20.6386 39.82 -20.3707C39.9543 -20.1027 40.0812 -19.8286 40.2213 -19.5641L40.6326 -18.7621C40.9213 -18.2351 41.2057 -17.7072 41.5119 -17.1909L41.7358 -16.8018L41.9698 -16.4172C42.1274 -16.1634 42.2776 -15.9035 42.441 -15.6532L42.9323 -14.8983C43.0915 -14.647 43.2682 -14.4065 43.4375 -14.1597L43.6932 -13.7868C43.7802 -13.6673 43.8699 -13.5462 43.9569 -13.4267C44.1353 -13.1887 44.3104 -12.9455 44.4913 -12.7059C44.8612 -12.2396 45.2247 -11.7629 45.6153 -11.3124L45.904 -10.9691L46.0466 -10.8004L46.1976 -10.6335L46.798 -9.97211C46.8967 -9.85972 47.0045 -9.75604 47.1065 -9.64882L47.7299 -9.01257C47.8345 -8.90372 47.9455 -8.80521 48.0533 -8.70153L48.6997 -8.09045C48.9192 -7.89505 49.1368 -7.70806 49.3553 -7.51686L49.6797 -7.2304L49.7255 -7.19441L49.9656 -7.26702C50.1318 -7.31389 50.2916 -7.35044 50.4505 -7.39119L51.4675 -7.64591L52.5104 -7.85564C52.6837 -7.89086 52.8571 -7.92608 53.0315 -7.9571L53.5574 -8.03755C53.9063 -8.08859 54.256 -8.14643 54.6085 -8.19165L55.6634 -8.30014C56.0143 -8.34278 56.3652 -8.35664 56.7183 -8.37987L57.2447 -8.40955C57.4213 -8.42116 57.5962 -8.4302 57.7731 -8.43082L58.8288 -8.44878C59.0047 -8.45361 59.1809 -8.44744 59.3562 -8.44548L59.8812 -8.4328L60.4089 -8.41851C60.5841 -8.41654 60.758 -8.40101 60.9326 -8.39225L61.983 -8.32713C62.678 -8.25819 63.377 -8.2012 64.0677 -8.10251C64.7614 -8.01998 65.4444 -7.89739 66.1338 -7.78513C66.8171 -7.65154 67.5026 -7.52732 68.1781 -7.36982C69.5329 -7.06677 70.874 -6.70749 72.1921 -6.29426C73.5144 -5.88199 74.8168 -5.42094 76.101 -4.91369C77.2732 -4.4516 78.4304 -3.94847 79.5691 -3.41015C79.2637 -4.51299 78.9267 -5.59973 78.5447 -6.66068ZM131.402 32.6825L131.115 32.7437L130.848 32.7959C130.674 32.8269 130.498 32.8605 130.328 32.8905C130.154 32.9216 129.981 32.95 129.808 32.9784C129.635 33.0069 129.46 33.0337 129.289 33.0595C128.6 33.1639 127.911 33.2531 127.222 33.3287C125.845 33.4799 124.463 33.5813 123.077 33.6328C121.692 33.6818 120.305 33.6827 118.914 33.6311C118.568 33.6152 118.221 33.6061 117.875 33.5835L116.832 33.5122C116.139 33.4517 115.444 33.3937 114.751 33.3044L114.23 33.2442C114.06 33.2235 113.887 33.1944 113.714 33.1721C113.367 33.1164 113.021 33.0718 112.675 33.0135L111.642 32.8294C111.469 32.8003 111.297 32.7644 111.126 32.7285L110.611 32.6182L110.096 32.5105C109.923 32.4704 109.753 32.4251 109.584 32.384C109.242 32.2987 108.898 32.2201 108.559 32.1295L107.542 31.84L107.288 31.7674C107.203 31.7427 107.121 31.7128 107.037 31.6855L106.531 31.5225C105.855 31.3142 105.196 31.0555 104.532 30.8114C104.201 30.6792 103.874 30.5392 103.546 30.4018L103.057 30.1951L102.573 29.9672C102.251 29.8153 101.929 29.6675 101.607 29.5088L100.631 28.9931L100.386 28.861L100.265 28.7958L99.7274 28.4762L99.293 28.2215L99.0753 28.0921L99.0237 28.0597L98.9523 28.0185L98.9255 27.998L98.817 27.9299C98.2345 27.5498 97.6428 27.1785 97.0723 26.7735C96.4946 26.3856 95.9355 25.9626 95.3698 25.5499C94.2563 24.696 93.1746 23.7973 92.137 22.8398C90.0675 20.9213 88.1962 18.7561 86.622 16.3814C85.0488 14.0108 83.7949 11.4301 82.8388 8.78787C82.4999 7.8476 82.1971 6.90125 81.9232 5.95497C81.5803 6.7193 81.2512 7.49594 80.9451 8.27618C80.4768 9.46965 80.0538 10.6771 79.675 11.8944C79.2946 13.1142 78.9705 14.3477 78.6948 15.59C78.551 16.2093 78.4395 16.8344 78.3212 17.4588C78.2224 18.081 78.1135 18.7078 78.0401 19.3352C77.9516 19.9639 77.907 20.5914 77.8447 21.2186L77.7901 22.1603C77.7843 22.3187 77.7691 22.4749 77.7675 22.6323L77.7559 23.1041L77.7485 23.5748C77.7443 23.7307 77.7427 23.8881 77.7479 24.0462L77.7677 24.9843C77.7661 25.1417 77.7771 25.2963 77.7865 25.4535L77.8179 25.9198C77.8383 26.2315 77.8529 26.5468 77.8901 26.8547L77.9918 27.7828C78.0316 28.0923 78.0866 28.4006 78.1322 28.7065L78.2024 29.1684C78.2329 29.3207 78.2649 29.4705 78.2953 29.6229L78.482 30.536L78.7188 31.4554C78.7596 31.6142 78.8022 31.7815 78.8462 31.9351L78.9799 32.3648C79.0699 32.6517 79.1547 32.9355 79.2498 33.2257L79.5685 34.1064C79.6672 34.4025 79.7927 34.6902 79.914 34.9788L80.091 35.414C80.1483 35.558 80.2097 35.7011 80.278 35.8448L80.6747 36.6988C80.7361 36.8419 80.8102 36.982 80.8817 37.1205L81.0972 37.5403L81.3111 37.9627C81.3826 38.1012 81.4651 38.2394 81.5382 38.3754L82.0035 39.2005C82.3348 39.7398 82.6503 40.2872 83.0075 40.8139C83.3463 41.3471 83.721 41.8633 84.0856 42.3839C84.4678 42.8939 84.8399 43.4084 85.2411 43.9052C86.0362 44.9049 86.8694 45.8782 87.749 46.8121C88.6243 47.7469 89.5369 48.6511 90.4826 49.5257C91.4272 50.396 92.4024 51.235 93.4086 52.036C93.8993 52.4304 94.3981 52.812 94.9034 53.1832C95.039 52.973 95.1719 52.7611 95.3023 52.5477C95.5544 52.1404 95.8003 51.7258 96.0436 51.3095L96.3979 50.6819L96.7461 50.047L97.0865 49.4071L97.4218 48.764C97.6367 48.3299 97.8516 47.8957 98.0588 47.4567C98.1662 47.2397 98.2659 47.0177 98.3656 46.7958C98.4679 46.5755 98.5676 46.3536 98.6631 46.1326C98.7602 45.909 98.8599 45.6871 98.9528 45.4645L99.2322 44.7899C99.3242 44.5631 99.4093 44.3357 99.5013 44.1089L99.6316 43.7693L99.761 43.4255C99.8436 43.1965 99.9313 42.9706 100.011 42.7399L100.249 42.0462C100.331 41.8171 100.402 41.5841 100.477 41.3502C100.554 41.1179 100.629 40.8839 100.697 40.6493L100.905 39.9445L101.097 39.2368L101.193 38.8788L101.279 38.5226L101.453 37.8036L101.61 37.0841C101.635 36.9632 101.663 36.844 101.686 36.7215L101.756 36.3582L101.888 35.631L102.003 34.8966L102.059 34.532L102.105 34.1609L102.197 33.4229L102.229 34.1702L102.243 34.543L102.248 34.9136L102.256 35.664L102.244 36.4125L102.236 36.786C102.232 36.913 102.223 37.0368 102.22 37.1613L102.182 37.9114L102.129 38.6601L102.102 39.0358L102.065 39.4117L101.99 40.1611L101.898 40.91C101.869 41.158 101.831 41.4078 101.794 41.6551C101.756 41.905 101.725 42.1555 101.682 42.4021L101.556 43.1478C101.514 43.3986 101.464 43.6446 101.416 43.8922L101.347 44.2664L101.268 44.6342C101.216 44.8828 101.164 45.1313 101.11 45.3782L100.938 46.1167C100.882 46.362 100.818 46.6066 100.757 46.8529C100.696 47.0992 100.63 47.3422 100.562 47.5878C100.499 47.8324 100.434 48.0796 100.361 48.322C100.224 48.809 100.077 49.2963 99.9269 49.7819L99.6946 50.5077L99.453 51.2312L99.1994 51.9507L98.9373 52.6722C98.7566 53.1494 98.5707 53.6234 98.3764 54.0993C98.1847 54.5768 97.9827 55.0478 97.7722 55.5207C97.667 55.7572 97.5576 55.9946 97.4456 56.2304L97.2751 56.588L97.1845 56.7725L97.1372 56.8652L97.0833 56.9682L96.032 58.6601L94.3716 57.5817L94.1252 57.4235L93.9001 57.2714C93.7535 57.1721 93.6069 57.0729 93.4645 56.9727C93.3196 56.8709 93.1772 56.7707 93.0364 56.6679C92.894 56.5678 92.7532 56.465 92.6125 56.3622C92.0494 55.9511 91.5038 55.5294 90.9605 55.0983C89.8822 54.2342 88.8361 53.3361 87.8211 52.4C86.806 51.4639 85.8247 50.4913 84.8787 49.4797C83.9294 48.4732 83.0271 47.4206 82.1653 46.3322C81.7257 45.7933 81.3158 45.2299 80.9011 44.6743C80.5004 44.1021 80.0947 43.5378 79.7189 42.9489C79.3297 42.3697 78.9746 41.765 78.6104 41.169L78.0952 40.2514C78.0115 40.0979 77.9219 39.9481 77.8439 39.7911L77.6017 39.3221L77.3621 38.8547C77.2799 38.6987 77.202 38.5418 77.1299 38.3812L76.6872 37.4227C76.6093 37.2657 76.543 37.1016 76.4767 36.9376L76.2746 36.4506C76.1404 36.125 76.002 35.8004 75.8853 35.4643L75.5271 34.4687C75.4136 34.1273 75.3083 33.7731 75.1997 33.424L75.0381 32.9012C74.9938 32.7365 74.9556 32.5793 74.9113 32.4146L74.6508 31.4011L74.4368 30.3592C74.4016 30.1859 74.3648 30.0151 74.3312 29.8391L74.2491 29.3158C74.198 28.9668 74.1376 28.6156 74.0908 28.2656L73.9807 27.2133C73.9338 26.8633 73.9174 26.5109 73.8967 26.1594L73.8629 25.6339C73.8512 25.4573 73.8396 25.2808 73.8374 25.1065L73.8152 24.0517C73.8104 23.8758 73.8149 23.7022 73.8169 23.527L73.827 23.0003L73.8397 22.4752C73.8416 22.3 73.8572 22.1261 73.8659 21.9515L73.9252 20.9046C73.9925 20.2122 74.0437 19.5168 74.1424 18.826C74.2207 18.1333 74.3391 17.4513 74.4497 16.7644C74.5775 16.0847 74.7001 15.4018 74.8576 14.7263C75.1574 13.3767 75.5066 12.04 75.9182 10.7246C76.3257 9.41005 76.7809 8.11116 77.2849 6.83208C77.7025 5.76526 78.1543 4.71273 78.6362 3.67546C77.691 4.02215 76.7559 4.39311 75.8317 4.79254C74.654 5.30303 73.4987 5.85268 72.3665 6.4457C71.2291 7.03548 70.1253 7.67512 69.0531 8.3562C68.5095 8.68849 67.9889 9.05315 67.4612 9.40616C66.9509 9.77731 66.4293 10.1378 65.9332 10.5322C65.4264 10.9092 64.9493 11.3192 64.4584 11.7169L63.7519 12.3431C63.6347 12.4496 63.5139 12.5502 63.4018 12.6599L62.7205 13.3091C62.6101 13.4163 62.4954 13.5244 62.3869 13.6399L61.736 14.3153C61.6239 14.4251 61.5221 14.5413 61.4187 14.66L61.1093 15.0096C60.9015 15.243 60.6887 15.4731 60.499 15.7178L59.9104 16.4432C59.7234 16.6895 59.5425 16.9433 59.358 17.1912L59.0815 17.5687C58.9926 17.693 58.9099 17.8247 58.8246 17.9549L58.3109 18.7272L57.8272 19.5437C57.7422 19.6848 57.6556 19.8285 57.5748 19.9687L57.3691 20.3653C57.2292 20.6341 57.0864 20.8902 56.9475 21.1631L56.5501 22.0085C56.4121 22.2857 56.2974 22.5774 56.1775 22.8659L55.9972 23.2965C55.9352 23.4413 55.8747 23.5834 55.8247 23.7321L55.4993 24.6119C55.444 24.7572 55.3965 24.9075 55.3464 25.0561L55.2013 25.5053L55.0579 25.9518C55.0078 26.1005 54.9696 26.253 54.9247 26.4049L54.6678 27.3133C54.5247 27.9257 54.3612 28.5362 54.2419 29.1564C54.1039 29.7721 54.0044 30.4011 53.892 31.022C53.8034 31.6507 53.7013 32.2781 53.6383 32.912C53.491 34.1737 53.3947 35.4458 53.3579 36.7265C53.3175 38.0013 53.3231 39.2833 53.3768 40.5631C53.4289 41.8456 53.5292 43.1259 53.6758 44.3955C53.7454 45.0191 53.826 45.6423 53.925 46.2591C54.1757 46.204 54.428 46.1463 54.6803 46.0886C55.1503 45.9766 55.621 45.8579 56.0923 45.7324L56.7937 45.5389L57.4957 45.3385L58.1949 45.1255L58.8937 44.9015C59.3593 44.7508 59.8213 44.5942 60.283 44.4267C60.5128 44.3476 60.7431 44.2617 60.9735 44.1758C61.2023 44.0926 61.4327 44.0067 61.6595 43.915C61.8889 43.8249 62.1167 43.7374 62.3436 43.6457L63.0247 43.3638C63.2506 43.2679 63.4755 43.1678 63.6988 43.0702L64.0367 42.9222L64.3735 42.7699C64.5949 42.664 64.8224 42.5655 65.0412 42.4579L65.7085 42.1349C65.9299 42.029 66.1468 41.913 66.3646 41.8012C66.5866 41.6885 66.8044 41.5768 67.0203 41.4566L67.6742 41.1035L68.3157 40.7355L68.6381 40.5489L68.9544 40.3549L69.5896 39.9685L70.2141 39.5646L70.5258 39.3605L70.8341 39.1507L71.447 38.7251L72.0502 38.2862L72.3513 38.0647L72.6438 37.8341L73.2354 37.3735L72.7283 37.9231L72.4752 38.2001L72.2118 38.4705L71.6841 39.0072L71.1424 39.5315L70.8703 39.7929L70.5921 40.0468L70.034 40.5572L69.461 41.0511L69.175 41.3001L68.8803 41.5401L68.2925 42.0175L67.6934 42.4842C67.4956 42.6445 67.2906 42.7931 67.0882 42.9434C66.8816 43.0946 66.6828 43.2507 66.4743 43.3936L65.8517 43.8346C65.6441 43.9817 65.433 44.1229 65.2219 44.2641L64.9063 44.4801L64.5861 44.6861C64.3724 44.8257 64.1613 44.9669 63.9441 45.1006L63.295 45.5035C63.0778 45.6373 62.857 45.7652 62.6372 45.8973C62.42 46.0311 62.1967 46.1574 61.9775 46.2827C61.7542 46.409 61.5334 46.537 61.3091 46.659C60.8598 46.91 60.4102 47.15 59.9555 47.3868L59.2703 47.7382L58.5806 48.0796L57.8838 48.4093L57.1835 48.7332C56.7136 48.9424 56.2411 49.15 55.7625 49.3502C55.2865 49.552 54.8034 49.7421 54.3167 49.9264C54.0705 50.0204 53.8233 50.1101 53.5761 50.1998L53.1988 50.3303L53.0034 50.3949L52.9028 50.429L52.7886 50.4618L50.8451 50.9129L50.4299 48.9811L50.3687 48.6942L50.3149 48.4299C50.2822 48.2582 50.247 48.0848 50.2186 47.9121C50.1859 47.7403 50.1575 47.5676 50.1291 47.3949C50.099 47.2248 50.0706 47.0521 50.0447 46.881C49.9387 46.195 49.8463 45.5103 49.7675 44.8269C49.6114 43.4576 49.5052 42.0836 49.4481 40.7116C49.39 39.3354 49.3843 37.956 49.4277 36.5787C49.4712 35.2014 49.5738 33.8216 49.7308 32.4471C49.8033 31.7579 49.9123 31.0736 50.0119 30.3871C50.1303 29.7051 50.241 29.0182 50.3933 28.3395C50.5269 27.6562 50.7022 26.9812 50.8681 26.3038L51.151 25.2965C51.1989 25.1285 51.2416 24.9572 51.2972 24.794L51.457 24.2928L51.6193 23.7933C51.6739 23.6259 51.727 23.4611 51.791 23.296L52.1541 22.3102C52.2113 22.1445 52.2805 21.9826 52.3471 21.8192L52.5521 21.332C52.6863 21.0092 52.8195 20.6823 52.975 20.3657L53.4244 19.4089C53.5857 19.0888 53.7622 18.7674 53.9319 18.4454L54.1887 17.9619C54.2743 17.814 54.3577 17.6754 54.4443 17.5317L54.9757 16.6336L55.5617 15.7517C55.6583 15.6035 55.755 15.4553 55.8568 15.3103L56.1683 14.8828C56.3797 14.5977 56.5843 14.312 56.8009 14.0301L57.4672 13.2095C57.6847 12.9319 57.9197 12.6724 58.1536 12.4087L58.5043 12.0165C58.6199 11.8839 58.7356 11.7512 58.86 11.6276L59.5916 10.8696C59.7109 10.7427 59.8378 10.6208 59.9632 10.5014L60.3425 10.1381L60.7245 9.77635C60.8489 9.65276 60.9829 9.54244 61.1135 9.4263L61.8993 8.73107C62.4356 8.28981 62.969 7.83593 63.5246 7.42122C64.0697 6.98903 64.6402 6.59084 65.2045 6.1852C65.7779 5.79962 66.3484 5.40143 66.936 5.03917C68.1056 4.30039 69.3036 3.60824 70.5252 2.97045C71.7483 2.33008 72.9914 1.73824 74.256 1.19236C75.3091 0.736923 76.3724 0.316749 77.4534 -0.0742938C76.5379 -0.497724 75.6078 -0.897901 74.6693 -1.26738C73.4706 -1.7389 72.2596 -2.16776 71.0372 -2.54976C69.8138 -2.93597 68.5751 -3.26336 67.3302 -3.54065C66.7074 -3.69029 66.0823 -3.80178 65.4569 -3.92426C64.8295 -4.02638 64.2044 -4.13786 63.5744 -4.21283C62.9447 -4.30557 62.3147 -4.35175 61.6849 -4.41572L60.7422 -4.47449C60.5828 -4.4845 60.4251 -4.4971 60.2676 -4.4987L59.3242 -4.5219C59.1683 -4.52609 59.0099 -4.5319 58.8544 -4.52509L57.9128 -4.51111C57.7537 -4.51013 57.5992 -4.49911 57.442 -4.48972L56.9747 -4.46251C56.6604 -4.44373 56.3468 -4.43174 56.0389 -4.39452L55.1072 -4.29871C54.7976 -4.2589 54.491 -4.20648 54.1825 -4.16247L53.7222 -4.09483C53.5699 -4.06442 53.4175 -4.034 53.2652 -4.00358L52.3511 -3.82109L51.4308 -3.58849C51.2719 -3.54773 51.1063 -3.50765 50.95 -3.46527L50.5204 -3.33161C50.2334 -3.24165 49.9487 -3.16105 49.6585 -3.06592L48.7768 -2.75144C48.4834 -2.65113 48.1947 -2.52981 47.9051 -2.41269L47.4724 -2.23409C47.3259 -2.17844 47.1802 -2.11859 47.0408 -2.05129L46.1874 -1.66141C46.0427 -1.59736 45.9042 -1.52585 45.7631 -1.45596L45.3433 -1.24048L44.9225 -1.02921C44.7814 -0.959323 44.6474 -0.877782 44.5073 -0.803694L43.6828 -0.345217C43.1451 -0.0164771 42.5977 0.298985 42.0742 0.651032C41.5384 0.988181 41.0239 1.36029 40.504 1.71817C39.9956 2.09773 39.4785 2.46822 38.9833 2.86688C37.9843 3.65513 37.0143 4.48321 36.081 5.35599C35.1494 6.22618 34.2442 7.13458 33.3746 8.07246C32.5049 9.01035 31.6675 9.9829 30.8714 10.9814C30.4769 11.4721 30.0954 11.9709 29.7258 12.4736C29.9179 12.5978 30.1143 12.7211 30.3123 12.8417C30.7101 13.0915 31.117 13.3325 31.524 13.5735C31.9341 13.8094 32.3459 14.0427 32.7609 14.2708L33.3872 14.6099L34.0226 14.9404L34.6602 15.2614C34.8705 15.3682 35.0866 15.4714 35.2985 15.5756C35.513 15.6815 35.7323 15.7795 35.9458 15.8812C36.1635 15.9818 36.3813 16.0825 36.598 16.1789C37.0325 16.3761 37.4735 16.5628 37.9145 16.7496C38.3578 16.927 38.8004 17.1112 39.2475 17.2767C39.695 17.4532 40.1454 17.6134 40.5984 17.7754C40.8249 17.8563 41.0537 17.9279 41.2818 18.0063C41.5089 18.0804 41.7371 18.1588 41.9675 18.2278L42.658 18.4416L43.3515 18.6392L43.6995 18.7389L44.7505 19.0096C45.2213 19.1143 45.6919 19.2368 46.1657 19.3254L46.8781 19.47L47.595 19.5959L47.9563 19.6571L48.3158 19.7099L49.0388 19.8144L48.3081 19.8311L47.9411 19.842L47.5754 19.8394L46.8424 19.8366L46.1088 19.8119C45.6177 19.8025 45.1308 19.7634 44.6401 19.7363L43.9046 19.6743L43.5364 19.6413L43.1714 19.6031L42.4363 19.5234L41.7032 19.4233C41.4569 19.3911 41.2138 19.3538 40.9707 19.3164C40.7251 19.2775 40.4804 19.2427 40.238 19.1986C39.7515 19.1129 39.2625 19.0256 38.7774 18.9264C38.2916 18.8339 37.8078 18.7211 37.3233 18.6151C36.8395 18.5022 36.3573 18.3868 35.8748 18.2604C35.6354 18.2001 35.3949 18.1356 35.1561 18.0686C34.9173 18.0015 34.6753 17.9396 34.4371 17.8657C34.1973 17.7944 33.9569 17.7299 33.7188 17.6561L33.0043 17.4345L32.2921 17.2035L31.5823 16.9632C31.1089 16.7993 30.6362 16.6286 30.1667 16.4527C29.6989 16.2743 29.2301 16.0917 28.7636 15.8997C28.2955 15.7102 27.8322 15.5131 27.3686 15.3049C27.1347 15.2013 26.9025 15.0951 26.6692 14.9847L26.3184 14.8149L26.1392 14.7276L26.0465 14.6802L25.9434 14.6263L24.2438 13.5702L25.3173 11.9175L25.4765 11.6753L25.6244 11.4512C25.7262 11.3062 25.8255 11.1596 25.9256 11.0172C26.0249 10.8706 26.1276 10.7299 26.2262 10.5901C26.329 10.4493 26.4292 10.3069 26.5329 10.1703C26.9424 9.60984 27.3641 9.06424 27.792 8.52609C28.6529 7.45303 29.5476 6.41204 30.4831 5.4038C31.4159 4.39393 32.3879 3.41939 33.3946 2.48112C34.4004 1.53865 35.4524 0.643153 36.5376 -0.213481C37.0774 -0.648914 37.6376 -1.05359 38.1958 -1.46668C38.7663 -1.86487 39.3291 -2.26793 39.9189 -2.63957C40.4965 -3.0261 41.1021 -3.37702 41.6965 -3.73863L42.6135 -4.24704C42.7669 -4.3308 42.9168 -4.42039 43.0738 -4.49833L43.5411 -4.73797L44.0111 -4.97598C44.1681 -5.05392 44.3224 -5.13348 44.4855 -5.20397L45.4409 -5.64149C45.6004 -5.7178 45.7645 -5.78409 45.9285 -5.85037L46.4165 -6.04826C46.4223 -6.05181 46.4282 -6.05535 46.4366 -6.05727L45.9728 -6.46009C45.8504 -6.5693 45.7249 -6.67333 45.6084 -6.78608L45.253 -7.12078L44.8993 -7.45807C44.7828 -7.57082 44.6605 -7.68002 44.5498 -7.79632L43.868 -8.49444L43.6957 -8.66744L43.5324 -8.84916L43.2027 -9.20741C42.7581 -9.681 42.3449 -10.1817 41.9242 -10.6762C41.7194 -10.9237 41.5194 -11.1789 41.3153 -11.4331C41.2153 -11.5607 41.1137 -11.6857 41.0137 -11.8133L40.7238 -12.2005C40.5313 -12.4618 40.3313 -12.717 40.1446 -12.9819L39.5855 -13.7722C39.4004 -14.0397 39.2238 -14.309 39.0455 -14.5758L38.7779 -14.9815L38.5188 -15.3891C38.1687 -15.9329 37.8445 -16.4894 37.512 -17.0439L37.037 -17.8823C36.8753 -18.1639 36.7303 -18.4494 36.5744 -18.7345C36.4194 -19.0155 36.2745 -19.301 36.127 -19.588C35.9795 -19.8751 35.8345 -20.1606 35.6954 -20.4496C35.4104 -21.0283 35.1396 -21.6124 34.8747 -22.2001C34.6123 -22.7862 34.3574 -23.3784 34.1151 -23.9735C33.9935 -24.2731 33.8702 -24.5702 33.757 -24.8718L33.5814 -25.3206L33.4132 -25.7755C33.1883 -26.3812 32.9761 -26.9898 32.7746 -27.6097C32.6731 -27.9184 32.5757 -28.228 32.4816 -28.5428C32.4324 -28.6997 32.3849 -28.8592 32.3416 -29.0197L32.2722 -29.2649L32.2391 -29.3901L32.2006 -29.5295L31.7264 -31.5451L33.7299 -31.9657L34.0194 -32.0253L34.2863 -32.0775C34.4622 -32.1111 34.6382 -32.1447 34.8109 -32.1731C34.9853 -32.2041 35.158 -32.2326 35.3307 -32.261C35.5034 -32.2894 35.6761 -32.3179 35.8498 -32.3421C36.541 -32.4449 37.2308 -32.534 37.9193 -32.6096C39.3015 -32.7576 40.6833 -32.859 42.0709 -32.9063C43.4574 -32.9579 44.8455 -32.9545 46.2357 -32.903C46.5849 -32.8855 46.9321 -32.8764 47.278 -32.8537L48.3209 -32.7825C49.0166 -32.7203 49.7114 -32.6624 50.4044 -32.573L50.9232 -32.5103C51.0965 -32.4879 51.2691 -32.4588 51.4449 -32.4349C51.7892 -32.3808 52.1357 -32.3362 52.4809 -32.278L53.5168 -32.0923C53.6894 -32.0631 53.8614 -32.0272 54.0317 -31.9888L54.5501 -31.8794L55.0643 -31.7691C55.2346 -31.7306 55.4059 -31.6879 55.5772 -31.6452C55.9181 -31.5573 56.2614 -31.4787 56.6033 -31.3865L57.6209 -31.097L57.8742 -31.0244C57.9579 -30.9971 58.0442 -30.9682 58.1279 -30.9408L58.63 -30.7769C59.306 -30.5686 59.9674 -30.3083 60.6342 -30.0626C60.9628 -29.9319 61.2917 -29.7903 61.6196 -29.6529L62.1093 -29.4463L62.5929 -29.2184C62.9137 -29.0638 63.2393 -28.917 63.5568 -28.7573L64.5058 -28.2553L64.7403 -28.1297L64.8588 -28.0661L64.9741 -27.9973L65.4369 -27.7248L66.1287 -27.3121L66.1871 -27.2791C66.2078 -27.2661 66.182 -27.2823 66.2388 -27.2466L66.2656 -27.2262L66.3715 -27.1597L67.4262 -26.476C67.4943 -26.4297 67.5712 -26.3742 67.6419 -26.3262L68.0852 -26.0227C68.6794 -25.6209 69.2334 -25.2011 69.7974 -24.7858C70.9125 -23.9346 71.9952 -23.0316 73.0312 -22.0715C75.099 -20.1504 76.9714 -17.9811 78.5413 -15.6054C80.1138 -13.228 81.3636 -10.6463 82.318 -8.00154C82.7927 -6.68076 83.1974 -5.34622 83.5556 -4.01209C83.9155 -2.68054 84.2236 -1.35266 84.5243 -0.0474181C84.8282 1.25265 85.1222 2.52846 85.4596 3.78106C85.796 5.02946 86.1673 6.2566 86.5979 7.45248C87.4581 9.84005 88.563 12.1075 89.9492 14.2022C91.3286 16.2962 92.9842 18.2143 94.8419 19.9422C95.771 20.8029 96.7524 21.6206 97.7664 22.3976C98.282 22.7753 98.7912 23.1633 99.324 23.5194C99.8454 23.8935 100.391 24.2357 100.929 24.5882L101.094 24.692L101.312 24.8215L101.742 25.0771L102.175 25.3344L102.283 25.3983L102.584 25.555L103.383 25.9808C103.66 26.1188 103.949 26.2497 104.232 26.3841L104.659 26.5873L105.092 26.7692C105.383 26.8908 105.672 27.0148 105.965 27.1338C106.557 27.3503 107.145 27.5829 107.75 27.7678L108.2 27.9171C108.278 27.9411 108.353 27.9662 108.429 27.9886L108.656 28.056L109.57 28.3162C109.879 28.3983 110.189 28.471 110.497 28.5489C110.65 28.587 110.805 28.6267 110.959 28.6623L111.894 28.8601C112.052 28.8947 112.208 28.9276 112.364 28.9538L113.306 29.1235C113.621 29.1774 113.941 29.2194 114.257 29.2666C114.415 29.2902 114.571 29.3164 114.731 29.3374L115.208 29.392C115.843 29.477 116.483 29.5297 117.124 29.5866L118.084 29.6525C118.406 29.6741 118.728 29.6822 119.05 29.6971C120.336 29.7481 121.626 29.7474 122.915 29.7027C124.205 29.6555 125.494 29.5643 126.774 29.4242C127.372 29.3604 127.968 29.284 128.56 29.1949C128.431 28.7177 128.288 28.2393 128.146 27.7608C127.791 26.6051 127.391 25.4575 126.957 24.3243C126.522 23.1869 126.046 22.0702 125.531 20.9689L125.336 20.5553L125.139 20.1468C125 19.8756 124.874 19.5989 124.729 19.3312L124.307 18.5227L123.864 17.7258C123.265 16.6725 122.639 15.6275 121.946 14.631L121.691 14.2512L121.425 13.8827L120.891 13.1441L120.333 12.4265C120.239 12.3064 120.15 12.1853 120.054 12.0677L119.76 11.717C118.993 10.7749 118.157 9.89733 117.296 9.04334L116.632 8.42091C116.52 8.31818 116.413 8.20772 116.296 8.11275L115.949 7.8159C115.718 7.6208 115.493 7.41794 115.257 7.22639L114.538 6.66723C114.418 6.57743 114.298 6.48084 114.176 6.38942L113.802 6.12969L113.058 5.60507L112.276 5.0959C112.141 5.01156 112.01 4.92206 111.881 4.84098L111.489 4.59868C110.451 3.93574 109.371 3.32639 108.284 2.74517L107.46 2.32515C107.32 2.25536 107.185 2.1846 107.046 2.11901L106.625 1.92321L105.784 1.53582C105.5 1.41498 105.215 1.30093 104.931 1.18009L104.286 0.915952L104.071 0.834692L102.76 0.357782L102.319 0.21755L101.432 -0.0619371C101.139 -0.163075 100.839 -0.236093 100.537 -0.317521L99.6391 -0.556941L99.4123 -0.620114C99.3373 -0.638363 99.2607 -0.654039 99.1867 -0.668087L98.732 -0.769867L97.8209 -0.970831L97.5927 -1.02043C97.5161 -1.0361 97.4379 -1.04919 97.3623 -1.06066L96.9013 -1.1411L95.9821 -1.30038C95.8282 -1.32493 95.6741 -1.36048 95.5196 -1.37824L95.055 -1.43574L94.1293 -1.55591L93.6622 -1.61503C93.5093 -1.63537 93.3525 -1.64377 93.1963 -1.65895L92.264 -1.74C91.951 -1.76358 91.6388 -1.79394 91.3284 -1.81589L90.3921 -1.85621L89.4533 -1.89816C89.2974 -1.90235 89.1397 -1.91494 88.9832 -1.91234L88.5134 -1.91553L86.6335 -1.9215L88.5117 -2.03905L88.9815 -2.06464C89.1377 -2.07823 89.2952 -2.07663 89.4517 -2.07922L91.3361 -2.12078C91.6501 -2.12177 91.9643 -2.11178 92.2818 -2.10695L93.2243 -2.08796C93.3827 -2.08215 93.5392 -2.08475 93.6986 -2.07474L94.1684 -2.04277L95.1127 -1.98658L95.5867 -1.95558C95.7435 -1.94719 95.8989 -1.92522 96.0551 -1.91004L96.999 -1.8073L97.4684 -1.75755C97.5498 -1.74963 97.6287 -1.74333 97.7069 -1.73024L97.9407 -1.69518L99.3506 -1.47997C99.4262 -1.46851 99.5061 -1.458 99.5843 -1.44492L99.8167 -1.39628L100.748 -1.21112C101.062 -1.14777 101.376 -1.09122 101.682 -1.01075L102.608 -0.782266L103.072 -0.667219L103.528 -0.532459L104.447 -0.264871L104.675 -0.197491L104.901 -0.120738L105.356 0.0318025C105.657 0.137801 105.96 0.23443 106.259 0.343009L107.154 0.684923L107.6 0.857169C107.749 0.918254 107.897 0.98191 108.041 1.04396L108.922 1.42011C110.087 1.95009 111.234 2.50427 112.357 3.1192L112.78 3.3454C112.922 3.42361 113.055 3.49952 113.194 3.5761L114.022 4.04172L114.852 4.54872L115.266 4.80142C115.406 4.88899 115.538 4.98269 115.673 5.07123L116.477 5.61537C116.742 5.80698 116.999 6.00472 117.26 6.19729L117.65 6.48874C117.78 6.58502 117.9 6.6926 118.027 6.79406L118.78 7.41408C119.755 8.2641 120.714 9.14675 121.595 10.0959L121.932 10.448C122.045 10.5659 122.147 10.6909 122.256 10.8098L122.9 11.5385L123.521 12.2883L123.83 12.6623L124.128 13.0477C124.931 14.0633 125.672 15.1262 126.384 16.2069L126.909 17.0227L127.414 17.8544C127.584 18.1273 127.738 18.4108 127.904 18.6915L128.144 19.1123L128.375 19.535C129 20.6689 129.585 21.825 130.123 22.9984C130.664 24.1735 131.169 25.3657 131.631 26.581C131.856 27.1867 132.081 27.7967 132.29 28.4172C132.391 28.7259 132.494 29.0387 132.59 29.3552C132.644 29.5111 132.69 29.6732 132.737 29.8327L132.807 30.0779L132.842 30.2047L132.878 30.3425L133.373 32.1985L131.402 32.6825Z" fill="white" fill-opacity="0.21"/>
</g>
</g>
</g>
</svg>
