<svg width="50" height="50" viewBox="0 0 50 50" fill="none" xmlns="http://www.w3.org/2000/svg">
<g id="Group 1000003748">
<g id="Group 1000003887">
<g id="Ellipse 1396" filter="url(#filter0_b_1321_5214)">
<circle cx="25" cy="25" r="25" fill="#F5DCE5"/>
</g>
</g>
<g id="Group 1000003889">
<g id="Group 1000003886">
<g id="Group 1000003888">
<g id="Group 1000003905">
<g id="Group 1000003906">
<path id="Vector" d="M23.8197 15.0627C19.9966 15.5858 16.8978 18.1748 15.7442 21.8235C15.4356 22.8028 15.3954 22.843 15.0064 22.843C14.7783 22.843 14.4564 22.9369 14.2954 23.0577C14.0137 23.2589 14.0003 23.326 14.0003 25.7271C14.0003 28.7186 13.9332 28.6112 15.8112 28.6112C17.6893 28.6112 17.6222 28.7186 17.6222 25.7271C17.6222 23.326 17.6088 23.2589 17.3271 23.0577C17.1661 22.9369 16.8039 22.843 16.5222 22.843H16.0259L16.2271 22.1321C16.4954 21.2199 17.2198 19.9053 17.9978 18.9126C19.138 17.4638 21.2039 16.1895 23.0953 15.787C24.2758 15.5456 26.0599 15.5456 27.1465 15.8139C28.3538 16.0956 30.0708 16.9541 31.0367 17.7455C32.3379 18.8455 33.6659 20.9248 34.0415 22.4674C34.122 22.8296 34.1086 22.843 33.5183 22.843C33.0891 22.843 32.8342 22.9235 32.6464 23.1113C32.3915 23.3662 32.3781 23.5272 32.4049 25.8345L32.4452 28.2759L32.9549 28.5173L33.4647 28.7722L33.1964 29.1881C31.694 31.5624 29.9769 32.9441 27.6965 33.6283C26.744 33.91 26.7709 33.91 26.5562 33.4002C26.2209 32.5819 25.255 32.2466 24.3294 32.6356C23.2831 33.0648 23.2429 34.9026 24.2624 35.4526C25.0404 35.8685 26.1806 35.5599 26.5026 34.8356C26.5831 34.6612 26.8111 34.4734 26.9989 34.4331C29.8159 33.8161 32.3915 31.9246 33.6391 29.5503L34.1354 28.6112H34.8464C35.9866 28.6112 36 28.5576 36 25.6869C36 23.326 35.9866 23.2589 35.7049 23.0577C35.5439 22.9369 35.2488 22.843 35.061 22.843C34.7525 22.843 34.6854 22.7625 34.5378 22.1455C34.4305 21.7699 34.0817 20.9114 33.7464 20.2406C32.5793 17.9065 30.1915 15.9882 27.6562 15.3444C26.4221 15.0358 24.9062 14.9151 23.8197 15.0627Z" fill="#EF2B7B"/>
<path id="Vector_2" d="M24.0879 20.0388C22.3172 20.2534 20.4526 21.5412 19.7148 23.0436C18.9904 24.5326 18.9636 26.0619 19.6343 27.5777C19.9697 28.3289 20.1038 29.4826 19.9294 30.1265C19.849 30.3947 19.7953 30.6228 19.8087 30.6228C19.8221 30.6228 20.077 30.5289 20.3721 30.4216C21.016 30.1935 22.2099 30.1667 22.8538 30.3679C27.3074 31.7496 31.761 28.2484 30.7147 24.1839C29.9903 21.3534 27.2537 19.6498 24.0879 20.0388ZM22.7465 24.8143C23.2562 25.2704 22.9075 26.0619 22.1965 26.0619C21.7136 26.0619 23.7657 26.1826 23.7657 25.646C23.7657 24.9887 22.2367 24.3448 22.7465 24.8143ZM25.6306 24.9351C25.8318 25.257 25.8318 25.3241 25.6574 25.646C25.5099 25.9143 26.632 25.3241 26.2698 25.3241C25.9076 25.3241 26.1669 24.4521 26.0194 24.1839C25.845 23.8619 25.0669 24.5859 25.2681 24.264C25.4291 24.0225 24.736 24.9351 25.0177 24.9351C25.2994 24.9351 25.4696 24.6936 25.6306 24.9351ZM28.3537 24.7875C28.4476 24.8948 28.5281 25.1363 28.5281 25.3241C28.5281 25.5119 28.4476 25.7533 28.3537 25.8607C27.9781 26.3033 29.2746 25.9143 29.2746 25.3241C29.2746 24.6936 27.9647 24.318 28.3537 24.7875Z" fill="#EF2B7B"/>
<path id="Vector_3" d="M26.7706 26.9558V26.5802C26.7706 26.381 26.6914 26.1899 26.5506 26.049C26.4097 25.9082 26.2186 25.829 26.0194 25.829H24.517C24.3177 25.829 24.1267 25.9082 23.9858 26.049C23.8449 26.1899 23.7657 26.381 23.7657 26.5802V26.9558" stroke="white" stroke-linecap="round" stroke-linejoin="round"/>
<path id="Vector_4" d="M25.2682 25.0778C25.6831 25.0778 26.0194 24.7415 26.0194 24.3266C26.0194 23.9117 25.6831 23.5754 25.2682 23.5754C24.8533 23.5754 24.517 23.9117 24.517 24.3266C24.517 24.7415 24.8533 25.0778 25.2682 25.0778Z" stroke="white" stroke-linecap="round" stroke-linejoin="round"/>
</g>
</g>
</g>
</g>
</g>
</g>
<defs>
<filter id="filter0_b_1321_5214" x="-40" y="-40" width="130" height="130" filterUnits="userSpaceOnUse" color-interpolation-filters="sRGB">
<feFlood flood-opacity="0" result="BackgroundImageFix"/>
<feGaussianBlur in="BackgroundImageFix" stdDeviation="20"/>
<feComposite in2="SourceAlpha" operator="in" result="effect1_backgroundBlur_1321_5214"/>
<feBlend mode="normal" in="SourceGraphic" in2="effect1_backgroundBlur_1321_5214" result="shape"/>
</filter>
</defs>
</svg>
