<svg width="81" height="81" viewBox="0 0 81 81" fill="none" xmlns="http://www.w3.org/2000/svg">
<g id="Group">
<g id="Group_2">
<path id="Vector" d="M73.1031 68.1875C72.8547 68.9418 72.1702 69.1217 71.5387 69.3429C70.5515 69.6884 69.5487 69.9938 68.5549 70.325C68.1913 70.4467 68.0451 70.5683 68.234 71.0574C69.0777 73.2428 70.0028 75.4011 70.5256 77.703C70.7779 78.8171 71.1984 79.8936 71.5426 80.987C62.9199 80.987 54.2958 80.987 45.6731 80.987C45.6278 79.9454 45.1128 79.0345 44.832 78.0576C44.7117 77.6396 44.6612 77.2074 44.515 76.7947C44.374 76.3974 44.6651 76.2072 44.9744 76.0869C45.3768 75.9303 45.8284 75.92 46.2049 75.6819C46.4546 75.7582 46.65 75.5758 46.8752 75.5305C48.741 75.154 50.6288 74.8499 52.4572 74.3336C55.3569 73.5159 58.2203 72.5687 61.0864 71.6397C62.6274 71.1402 64.1737 70.642 65.6035 69.8553C66.0822 69.9382 66.4704 69.5849 66.9453 69.5862C67.3438 69.5875 67.6647 69.6224 67.7773 70.0637C67.8472 70.3419 67.9986 70.347 68.2263 70.2474C69.1463 69.8398 70.0947 69.5086 71.0665 69.255C71.8325 69.0544 72.495 68.7128 73.0125 68.1072C73.041 68.1357 73.0707 68.1629 73.1031 68.1875Z" fill="#F05E90"/>
<path id="Vector_2" d="M65.6049 69.8567C64.1751 70.6434 62.6276 71.1416 61.0878 71.641C58.2204 72.5701 55.357 73.5159 52.4586 74.335C50.6302 74.8513 48.7424 75.1553 46.8766 75.5319C46.6514 75.5771 46.456 75.7596 46.2063 75.6833C46.0096 74.3363 45.5192 73.0734 45.0198 71.8248C44.7364 71.117 43.9937 70.7663 43.3765 70.439C41.367 69.3741 39.6513 67.9274 37.9083 66.5041C36.6351 65.4638 35.6634 64.1699 34.7033 62.8591C34.6256 62.753 34.5428 62.656 34.5584 62.5136C35.4602 62.5059 36.3621 62.4878 37.2652 62.4903C40.2542 62.5007 43.2445 62.5447 46.2335 62.5227C48.0838 62.5085 49.2483 60.8716 48.7372 59.1184C48.5302 58.408 48.221 57.7183 48.2572 56.9536C48.0256 56.0505 47.7668 55.1525 47.8612 54.2001C47.8936 53.8805 47.8845 53.5532 47.8586 53.2323C47.7163 51.5139 48.1847 49.8331 48.1575 48.1226C48.5017 48.0799 48.3685 47.8017 48.3905 47.6179C48.5328 46.4611 48.6234 45.2953 48.8058 44.145C49.1021 42.2779 49.0762 40.4573 48.2714 38.7053C48.2533 38.1787 47.9751 37.7426 47.7551 37.2949C47.4045 36.5807 46.8209 35.9648 46.8507 35.0953C47.9052 35.3916 48.8718 35.0202 49.8539 34.7187C50.7273 34.4496 51.4273 33.857 52.2515 33.5024C53.4225 34.9982 54.3361 36.6389 54.9791 38.4233C55.5756 40.0808 56.4309 41.6218 57.087 43.2561C57.5812 44.4879 58.1635 45.699 58.7898 46.8856C59.3242 47.8974 59.658 49.0192 60.0501 50.1023C60.3722 50.9925 60.9079 51.774 61.2405 52.6655C61.6157 53.6722 61.925 54.6737 62.163 55.727C62.4684 57.0804 62.6314 58.4209 62.625 59.7964C62.6599 59.8663 62.603 59.9788 62.7259 60.006C62.7013 61.1317 63.0766 62.1914 63.2655 63.2822C63.2603 63.3922 63.2435 63.5087 63.391 63.5475C63.3923 63.5863 63.3936 63.6251 63.3949 63.6639C63.3366 63.8218 63.4725 63.9137 63.5191 64.0353C63.6148 64.5852 63.8063 65.1028 64.0418 65.6048C64.0845 65.6527 64.1272 65.7006 64.1699 65.7485C64.1259 66.1004 64.2282 66.4329 64.3071 66.7681C64.3446 66.8962 64.4481 66.869 64.5413 66.8664C64.6953 67.4112 64.7897 67.9456 65.1844 68.4308C65.4742 68.7853 65.4755 69.3728 65.6049 69.8567Z" fill="#FFD0BC"/>
<path id="Vector_3" d="M52.2515 33.5011C51.4273 33.8556 50.7272 34.4495 49.8538 34.7174C48.8704 35.0201 47.9052 35.3902 46.8493 35.0939C45.2927 34.8584 44.1774 33.919 43.106 32.585C43.128 34.4275 42.9352 36.0462 42.5612 37.6416C42.4267 37.7568 42.2701 37.8448 42.098 37.7814C41.4148 37.5317 40.7083 37.674 40.0161 37.6714C39.5218 37.6688 38.9434 37.7568 38.7118 38.2757C38.4957 38.7622 38.3301 39.2888 38.2822 39.8349C37.251 39.9112 36.2313 39.743 35.1858 39.8167C33.2281 39.9539 31.3338 39.382 29.4757 38.8062C28.3267 38.4504 27.4119 37.7762 27.2114 36.4719C27.1467 36.0514 27.1648 35.6192 27.1441 35.1922C27.0833 34.0911 27.4093 33.0366 27.5374 31.9587C27.9774 30.4008 28.3798 28.8339 28.9827 27.3239C29.6 25.7763 30.5795 24.6842 32.2137 24.1511C32.9693 23.904 33.8337 23.8354 34.4315 23.1807C34.6437 22.9491 34.8792 22.7226 35.1923 22.614C35.6762 23.2363 36.3258 23.6698 36.9197 24.1705C37.2963 24.4876 37.4994 24.3569 37.7646 24.0709C38.1425 23.662 38.224 23.0953 38.5514 22.6631C39.2397 23.1419 39.954 23.5805 40.7252 23.9053C42.2248 24.5367 43.4269 25.5007 44.3184 26.871C44.8204 27.6422 45.3924 28.3668 45.9332 29.1121C46.3318 29.8871 46.9218 30.5263 47.4523 31.2044C47.7253 31.5537 48.1394 31.6624 48.5483 31.5408C49.2405 31.3337 49.9483 31.1616 50.5888 30.8058C51.7378 30.3025 53.0071 30.0851 54.0475 29.3294C54.2273 29.1988 54.4072 29.2479 54.5935 29.2635C54.7669 29.8263 55.1369 30.2857 55.4087 30.7968C55.2922 30.9766 55.1292 31.0892 54.9403 31.1966C53.9 31.797 53.2142 32.8114 52.2515 33.5011ZM30.9508 33.9565C30.6506 34.9503 30.7438 35.3385 31.3028 35.5248C31.1902 35.0189 31.0815 34.5336 30.9508 33.9565Z" fill="#EE3764"/>
<path id="Vector_4" d="M38.5526 22.6671C38.224 23.0992 38.1437 23.666 37.7659 24.0749C37.5007 24.3608 37.2975 24.4902 36.921 24.1745C36.3271 23.6737 35.6775 23.2403 35.1936 22.6179C35.2712 21.9515 35.1574 21.3615 34.5816 20.9216C34.3952 20.7792 34.306 20.5502 34.2891 20.3069C34.2322 18.9613 34.1753 17.6156 34.1196 16.2699C34.1119 16.0874 34.1028 15.9348 33.8505 15.9283C33.5878 15.9218 33.5063 16.0421 33.5218 16.2763C33.5723 17.0436 33.5309 17.8316 33.703 18.5692C33.8414 19.1579 33.5788 19.77 33.8958 20.3199C33.5956 20.5709 33.2333 20.3859 32.9098 20.4583C32.1826 20.6188 31.8798 20.1245 31.7297 19.594C31.5822 19.0725 31.5783 18.5032 31.5602 17.9533C31.5408 17.3244 31.5745 16.6943 31.5861 16.0654C31.5822 15.8105 31.5783 15.5543 31.5745 15.2994C31.6055 14.0663 32.0752 12.9962 32.8166 12.0361C32.9357 11.8809 33.0547 11.6661 33.32 11.7075C33.254 11.9093 33.1996 12.1151 33.1181 12.3117C32.7067 13.3094 32.532 14.3523 32.488 15.4236C32.4802 15.6216 32.4776 15.8157 32.7791 15.8028C33.0172 15.7937 33.1168 15.7174 33.1259 15.4625C33.1362 15.1687 33.1919 14.8724 33.2592 14.5839C33.6512 12.9082 34.3978 11.4435 36.0605 10.7435C37.053 10.3256 38.1412 10.1379 39.1866 9.84552C39.9177 9.79635 40.6436 9.85975 41.3656 9.96715C42.3387 10.1121 43.071 11.4616 42.7695 12.6521C42.5755 13.4168 42.2804 14.1569 42.0294 14.9074C41.7228 15.7006 41.7241 15.6954 42.4836 15.9516C42.6194 15.9982 42.7346 16.1055 42.8601 16.1845C43.1875 17.3348 42.8951 18.4592 42.6893 19.5798C42.6078 20.0236 42.2753 20.2629 41.7913 20.2099C41.6697 20.2125 41.5481 20.2151 41.4264 20.2177C41.3165 20.2073 41.1948 20.2215 41.1418 20.0883C41.2233 19.176 41.3048 18.2638 41.3863 17.3516C41.3178 17.3438 41.2479 17.3348 41.1793 17.327C41.3643 18.2949 40.9606 19.1528 40.7743 20.052C40.4832 20.3367 40.3383 20.7469 39.9863 20.9798C39.765 21.1868 39.527 21.1118 39.2708 21.0484C38.8981 20.9565 38.5203 20.9164 38.1593 21.1273C37.9095 21.2735 37.8992 21.3796 38.1179 21.5957C38.6186 22.0887 39.0922 21.7277 39.5787 21.606C39.5127 22.2258 38.7545 22.1793 38.5526 22.6671Z" fill="#FFD0BC"/>
<path id="Vector_5" d="M27.5375 31.96C27.4094 33.0378 27.0846 34.0924 27.1441 35.1935C26.8232 35.3087 26.3341 34.9697 26.1749 35.4264C26.0365 35.8224 26.0572 36.3257 26.3561 36.6582C26.906 37.2703 26.6848 37.9185 26.5165 38.5487C26.4299 38.8709 26.3108 39.325 25.8605 39.3199C25.3598 39.3134 24.9108 39.4648 24.4489 39.5942C24.1771 39.6964 23.9494 39.5049 23.6958 39.4816C22.9414 38.8877 22.1301 38.3766 21.4857 37.63C20.8517 36.8963 20.3833 36.098 20.0767 35.1948C19.6937 34.0613 20.0534 32.8644 21.0251 32.145C21.3033 31.9393 21.3499 31.7866 21.2632 31.4579C21.0872 30.7929 20.7624 30.1899 20.5645 29.53C20.197 28.302 20.6136 27.2177 21.773 26.7235C22.3359 26.4841 22.8301 26.8658 23.3645 26.8697C23.4448 26.871 23.525 26.8697 23.6557 26.8697C23.5263 26.5022 23.2765 26.268 23.0773 26.004C22.1689 24.7981 21.4456 23.499 21.1325 22.0071C20.9682 21.2294 21.3331 20.391 21.9244 20.039C22.2595 19.8397 22.5843 19.7647 22.9621 19.9264C23.2364 20.0442 23.5328 20.1115 23.82 20.2008C23.8213 22.3176 23.8316 24.4345 23.82 26.5501C23.8161 27.0974 24.0024 27.4532 24.5653 27.558C26.2707 28.5427 26.7326 30.3672 27.5375 31.96Z" fill="#FFD0BC"/>
<path id="Vector_6" d="M56.6663 22.5144C56.6986 21.2722 56.1966 20.2319 55.6039 19.1605C54.8884 17.8666 54.7707 16.4083 55.5561 15.0717C57.0868 12.467 60.2 12.1966 62.3104 14.2539C63.7014 15.6113 63.8023 17.3141 62.6688 19.1968C62.0762 20.1814 61.7048 21.1791 61.6867 22.3164C61.063 22.5196 60.42 22.3746 59.7872 22.4109C59.5297 22.4251 59.5181 22.2245 59.5608 22.0576C59.7846 21.1765 59.6255 20.2837 59.6591 19.396L59.6514 19.4051C60.1676 19.0751 60.6684 18.7167 61.2041 18.423C61.5366 18.2405 61.5056 17.9727 61.4642 17.71C61.4215 17.4435 61.1808 17.4448 60.9543 17.4396C60.3281 17.4254 60.0369 17.8731 59.7445 18.3091C59.3305 18.9263 58.4752 18.9548 58.1633 18.2845C57.924 17.7695 57.6121 17.6402 57.1153 17.7061C56.9005 17.7346 56.9199 17.8886 56.9005 18.0361C56.8228 18.6119 57.1942 18.8784 57.6535 18.9354C58.1465 18.9962 58.2449 19.3352 58.3057 19.6768C58.4338 20.4053 58.4622 21.1506 58.6046 21.8752C58.7081 22.4031 58.4765 22.4251 58.0676 22.4225C57.6005 22.4212 57.1217 22.3203 56.6663 22.5144Z" fill="#F05E90"/>
<path id="Vector_7" d="M48.2557 56.9536C48.2195 57.7184 48.53 58.408 48.7358 59.1184C49.2456 60.8717 48.0823 62.5085 46.232 62.5227C43.243 62.5447 40.254 62.5007 37.2638 62.4904C36.3619 62.4878 35.4587 62.5046 34.5569 62.5137C31.7995 62.4891 29.0434 62.4451 26.2861 62.4541C25.4256 62.4567 24.7929 62.11 24.2352 61.5135C23.8755 61.1292 23.6063 60.6569 23.6012 60.1704C23.5947 59.6618 23.3126 59.5169 22.9788 59.3358C22.9995 59.3073 23.0202 59.2788 23.0409 59.2504C23.5261 59.3733 23.662 59.1676 23.6296 58.6979C23.5934 58.1842 23.5624 57.655 23.6452 57.1516C23.8043 56.1825 23.4239 55.5083 22.6812 54.9455C22.4987 54.807 22.3383 54.7553 22.1196 54.7203C20.9214 54.5327 19.7284 54.7177 18.5328 54.7294C18.3827 54.7307 18.2314 54.7294 18.0813 54.7255C17.9687 54.7229 17.8652 54.6957 17.8691 54.5521C17.8729 54.4214 17.9583 54.3645 18.08 54.3645C18.4022 54.3632 18.7256 54.3684 19.0478 54.3684C20.0066 54.3697 20.9667 54.3684 21.9255 54.3684C21.954 54.3153 21.9812 54.2636 22.0096 54.2105C21.6292 53.8521 21.2475 53.4937 20.8671 53.1353C20.9046 53.1003 20.9434 53.0654 20.981 53.0304C21.8298 53.4898 22.3344 54.3257 23.0564 54.9235C23.2324 55.0697 23.3294 55.3065 23.671 55.4177C23.671 54.4214 23.6697 53.4665 23.6723 52.5103C23.6723 52.214 23.3941 52.1558 23.2259 52.038C23.0603 51.9203 22.8636 51.875 22.9037 51.6162C23.1599 51.5683 23.2557 51.9371 23.5766 51.8491C23.5248 51.5282 23.7228 51.118 23.4795 50.898C23.3023 50.7363 22.9697 51.0261 22.7666 51.1827C22.5104 51.382 22.9749 51.4389 22.9206 51.6317C22.4302 51.4946 21.9333 51.3781 21.4532 51.2112C21.2967 51.1568 21.0728 51.0016 21.1207 50.7997C21.2799 50.1204 20.7274 49.8306 20.4142 49.4087C20.4673 49.2768 20.5837 49.2806 20.6963 49.2793C20.99 49.7555 21.3303 50.0738 21.9592 49.8215C22.3719 49.6559 22.8222 49.7749 23.235 49.8681C23.4355 49.9134 23.5585 49.938 23.649 49.7633C23.7357 49.5951 23.6866 49.4514 23.53 49.3208C23.323 49.1461 23.0267 49.0024 23.1573 48.6363C23.3372 48.5923 23.3501 48.9209 23.5416 48.8316C23.6452 48.3581 23.4938 47.891 23.6296 47.4251C23.6478 47.3617 23.8095 46.8105 23.3074 46.8468C23.2803 46.8209 23.2531 46.795 23.2246 46.7717C23.4938 46.2658 23.4821 45.721 23.4355 45.1737C23.7797 45.4674 24.1239 45.7612 24.4668 46.0536C24.4228 50.6587 24.3646 55.2638 24.3452 59.8689C24.3413 60.8484 25.0788 61.5264 26.0972 61.648C26.1929 61.7192 26.29 61.7218 26.3909 61.6597C26.4336 61.6687 26.475 61.6842 26.5177 61.6842C33.0883 61.7205 39.6601 61.7593 46.2307 61.7826C47.1921 61.7865 47.7757 61.2171 48.0344 60.2985C48.2039 59.6981 48.0823 59.1054 48.1522 58.5154C48.2143 57.9978 47.9943 57.4596 48.2557 56.9536Z" fill="#2D2D32"/>
<path id="Vector_8" d="M24.4669 46.0561C24.1227 45.7624 23.7785 45.4687 23.4356 45.1763C23.3011 44.7648 23.085 44.409 22.7692 44.1036C22.0679 43.4269 21.9256 41.6205 22.5066 40.8519C22.8068 40.456 23.1833 40.1907 23.7112 40.2257C23.983 40.1351 24.2029 40.3331 24.4526 40.3628C25.0168 40.4573 25.3765 40.8817 25.7466 41.2414C26.7429 42.208 27.954 43.049 27.7121 44.7544C27.5969 45.5657 26.7222 46.4689 25.8993 46.6035C25.2536 46.7096 24.9767 46.1402 24.4669 46.0561Z" fill="#FFD0BC"/>
<path id="Vector_9" d="M59.6593 19.3986C59.6257 20.285 59.7848 21.1778 59.561 22.0602C59.5183 22.2272 59.5299 22.4277 59.7874 22.4135C60.4201 22.3773 61.0619 22.5222 61.6869 22.319C61.6558 22.6153 61.6235 22.9104 61.5963 23.2067C61.5885 23.2921 61.6079 23.3788 61.5976 23.4629C61.529 24.0206 59.9957 25.3637 59.4548 25.5241C58.6047 25.7751 58.1635 25.3585 57.7676 24.7335C57.6925 24.6145 57.6679 24.4644 57.5153 24.3854C56.7415 23.9882 56.5836 23.305 56.6664 22.5157C57.1219 22.3216 57.6007 22.4226 58.0665 22.4264C58.4753 22.4303 58.707 22.407 58.6034 21.8791C58.4611 21.1545 58.4326 20.4079 58.3045 19.6807C58.245 19.3404 58.1467 19.0014 57.6524 18.9393C57.1931 18.8824 56.8217 18.6158 56.8993 18.04C56.9187 17.8925 56.8993 17.7398 57.1141 17.7101C57.611 17.6441 57.9241 17.7735 58.1622 18.2884C58.4728 18.9587 59.3293 18.9302 59.7434 18.313C60.0358 17.8757 60.327 17.4293 60.9532 17.4435C61.1784 17.4487 61.4203 17.4487 61.463 17.7139C61.5044 17.9766 61.5355 18.2445 61.2029 18.4269C60.6673 18.7206 60.1665 19.0777 59.6502 19.409C59.4225 19.0726 59.0563 19.1256 58.7781 19.2136C58.4728 19.3106 58.5814 19.7105 58.6552 19.8813C58.9657 20.602 58.8713 21.346 58.8933 22.0848C58.8985 22.2595 58.9916 22.3591 59.2685 22.3333C58.9657 21.39 59.5765 20.5282 59.4691 19.5901C59.4561 19.4646 59.5208 19.3883 59.6593 19.3986ZM61.2431 17.7916C60.5107 17.6829 60.3011 18.1979 59.9116 18.6598C60.4732 18.4748 60.8769 18.26 61.2431 17.7916Z" fill="#2D2D32"/>
<path id="Vector_10" d="M24.564 27.5607C24.0024 27.4559 23.8161 27.1001 23.8187 26.5527C23.8316 24.4359 23.8213 22.319 23.8187 20.2034C23.8329 19.4322 23.8523 18.661 23.8601 17.8899C23.8743 16.4808 25.0117 15.3085 26.4272 15.2942C28.143 15.2774 29.8588 15.2955 31.5745 15.2981C31.5784 15.553 31.5823 15.8092 31.5861 16.0641C31.4878 16.0706 31.3895 16.0771 31.2911 16.0835C31.2226 16.081 31.1553 16.0784 31.0867 16.0758C29.5366 16.0628 27.9877 16.0292 26.4376 16.0447C25.4089 16.0551 24.6002 16.8444 24.5912 17.873C24.5627 21.1027 24.5705 24.331 24.564 27.5607Z" fill="#2D2D32"/>
<path id="Vector_11" d="M55.4087 30.8008C55.137 30.2897 54.7669 29.8316 54.5935 29.2675C55.2418 28.5817 56.2109 28.3708 57.0572 28.7318C57.2538 28.8159 57.4686 28.8715 57.6472 28.9841C58.8208 29.7255 59.9633 29.1652 61.1097 28.909C61.5937 28.8016 62.0724 28.6942 62.5706 28.7344C62.7129 28.746 62.8967 28.6904 62.9575 28.8793C63.0157 29.0643 62.9135 29.2312 62.7737 29.327C61.5639 30.1512 60.4188 31.0466 58.8169 31.0971C58.0095 31.1229 57.2577 31.0673 56.4982 30.8499C56.1398 30.7464 55.7723 30.7969 55.4087 30.8008Z" fill="#FFD0BC"/>
<path id="Vector_12" d="M50.59 30.8098C49.9508 31.1656 49.2417 31.3377 48.5495 31.5447C48.1393 31.6664 47.7265 31.5577 47.4535 31.2083C46.923 30.529 46.333 29.8911 45.9344 29.116C46.1272 28.9181 46.0522 28.667 46.0483 28.4406C46.038 27.7807 46.2929 27.1907 46.553 26.6174C46.804 26.0636 47.1507 26.0559 47.614 26.4428C47.8702 26.6576 47.9607 27.0199 48.2972 27.1467C48.534 27.5827 48.7707 28.0201 49.0062 28.4561C49.4035 29.1238 49.8136 29.7837 50.1876 30.463C50.2898 30.6454 50.3662 30.7955 50.59 30.8098Z" fill="#FFD0BC"/>
<path id="Vector_13" d="M49.0063 28.4548C48.7695 28.0187 48.5327 27.5814 48.2972 27.1453C48.4227 24.093 48.3761 21.038 48.3839 17.9843C48.3852 17.1847 47.8042 16.4575 47.0162 16.2919C45.6447 16.0046 44.2472 16.1586 42.8588 16.1832C42.7346 16.1042 42.6195 15.9956 42.4823 15.9503C41.7241 15.6941 41.7215 15.6992 42.0281 14.9061C42.0462 15.0368 42.0644 15.1687 42.0825 15.2994C42.1575 15.4832 42.2895 15.3939 42.4085 15.3654C43.7012 15.3796 44.9938 15.3978 46.2864 15.4081C47.997 15.4223 49.1137 16.5028 49.1124 18.2134C49.1085 20.972 49.071 23.7307 49.0503 26.4893C49.0477 26.8115 49.0619 27.135 49.0684 27.4572L49.0399 27.4973L49.0671 27.5374C49.0658 27.6422 49.0658 27.7457 49.0645 27.8492L49.0373 27.8868L49.0645 27.9256C49.0451 28.1029 49.0257 28.2788 49.0063 28.4548Z" fill="#2D2D32"/>
<path id="Vector_14" d="M39.1853 9.84422C38.1398 10.1354 37.0516 10.3243 36.0592 10.7422C34.3965 11.4422 33.6486 12.907 33.2578 14.5826C33.1905 14.8698 33.1362 15.1662 33.1245 15.4612C33.1155 15.7161 33.0158 15.7924 32.7778 15.8015C32.4776 15.8131 32.4789 15.619 32.4866 15.4224C32.5319 14.3523 32.7066 13.3081 33.1168 12.3105C33.197 12.1151 33.2513 11.908 33.3186 11.7062C34.0406 10.737 34.8623 9.87916 36.1239 9.69542C37.1448 9.54662 38.1838 9.4237 39.1853 9.84422Z" fill="#2D2D32"/>
<path id="Vector_15" d="M66.6464 66.8276C67.1045 66.2272 67.7217 65.7691 68.3466 65.4185C69.0738 65.0096 69.3261 64.3704 69.6186 63.7079C69.9252 63.0156 70.2164 62.3156 70.5036 61.6156C70.5631 61.4694 70.6071 61.3335 70.8983 61.3322C70.4557 62.3713 70.03 63.3741 69.603 64.3756C70.3716 63.968 71.2049 63.6988 71.6669 62.8837C72.0874 62.1409 72.4613 61.362 73.0514 60.7202C72.9414 61.5224 72.2815 62.0724 71.9942 62.9872C72.944 62.4269 73.7695 61.9676 74.5627 61.4577C74.9198 61.2274 75.3623 61.1407 75.6405 60.7513C75.7466 60.6038 76.0779 60.5947 76.2487 60.816C74.8784 61.6182 73.5094 62.4204 72.1405 63.2214C73.1381 63.3107 74.0619 63.0726 75.1359 63.1567C74.5989 63.5591 74.0011 63.5203 73.5961 63.484C71.707 63.3107 70.3354 64.316 68.9328 65.2968C68.5951 65.5336 68.2819 65.8041 67.8252 66.1638C69.4982 66.1638 71.0212 66.1638 72.6153 66.1638C72.46 66.4588 72.2711 66.3837 72.1262 66.385C70.9203 66.3928 69.713 66.4316 68.5097 66.376C67.8407 66.3449 67.2779 66.4911 66.7668 66.8974C66.7266 66.8741 66.6865 66.8508 66.6464 66.8276Z" fill="#2D2D32"/>
<path id="Vector_16" d="M20.8659 53.1378C19.3598 53.1171 17.8537 53.1003 16.3488 53.0705C16.1289 53.0667 15.8856 53.1534 15.5647 52.8855C17.2015 52.8855 18.7206 52.8855 20.2384 52.8855C19.1735 51.906 18.0646 51.0468 16.8172 50.4542C16.2078 50.1644 15.4081 50.2394 14.6939 50.2187C14.1867 50.2032 13.7209 50.0441 13.2279 49.9354C14.1 49.7594 14.9824 50.0919 15.9309 49.8771C14.646 48.9753 13.2874 48.3128 12.0659 47.429C13.5462 48.0113 14.8556 48.9067 16.3268 49.6261C15.9309 48.939 15.5362 48.252 15.1416 47.5688C15.3641 47.3954 15.4431 47.5765 15.5117 47.6904C15.795 48.1601 16.0978 48.6233 16.3294 49.1176C16.7771 50.0725 17.5392 50.6574 18.5524 51.1064C18.3117 49.9587 17.7152 48.996 17.3335 47.9337C17.6829 47.891 17.6842 48.098 17.7566 48.2765C18.0892 49.1008 18.4838 49.903 18.7737 50.7428C19.0764 51.6226 19.7829 52.0703 20.4829 52.5452C20.6796 52.6785 20.8646 52.8208 20.9824 53.033C20.9423 53.068 20.9048 53.1029 20.8659 53.1378Z" fill="#2D2D32"/>
<path id="Vector_17" d="M21.1453 46.9218C20.5734 46.7005 19.9511 46.729 19.3688 46.5685C18.749 46.399 18.2314 46.1079 17.8898 45.5049C17.6375 45.0598 17.7747 44.7337 18.0399 44.4206C18.3129 44.0997 18.6972 44.0285 19.0867 44.167C19.7 44.3844 20.1775 44.7493 20.4764 45.3665C20.7145 45.8569 20.8879 46.3887 21.2437 46.8196C21.2126 46.8532 21.179 46.8881 21.1453 46.9218Z" fill="#2D2D32"/>
<path id="Vector_18" d="M63.3923 63.5462C63.2447 63.5074 63.2629 63.3909 63.2667 63.2809C63.5462 63.1438 63.6058 62.8436 63.7054 62.6042C64.0806 61.7127 64.4895 60.8432 65.0977 60.0875C65.8598 59.1404 65.5065 58.0716 65.5169 57.03C65.2892 57.2111 65.1973 57.466 64.9579 57.5851C64.9333 57.5592 64.91 57.532 64.8855 57.5048C65.0925 57.1192 65.2788 56.7207 65.6541 56.4593C65.6786 56.4917 65.7045 56.5215 65.733 56.5512C65.918 57.2124 65.8287 57.8995 65.8792 58.7845C66.6297 57.752 67.2676 56.876 67.9042 56C67.9521 56.0285 67.9986 56.0582 68.0465 56.0867C67.8511 56.7919 67.1783 57.2357 66.9156 57.9344C67.4487 57.8646 67.8731 57.4544 68.524 57.4725C68.0685 57.9461 67.5251 58.0353 67.0437 58.223C66.6814 58.3653 66.3709 58.54 66.1781 58.8816C66.1121 58.998 65.9581 59.1054 66.0487 59.2607C66.1703 59.469 66.3101 59.2555 66.4356 59.2413C67.0075 59.1779 67.5121 58.7703 68.3079 58.9165C67.5445 59.1779 66.948 59.4224 66.3308 59.5829C65.7627 59.7304 65.3383 59.9711 65.1158 60.5533C64.9916 60.8807 64.7522 61.1628 64.4895 61.5872C65.6295 61.4319 66.5986 61.0269 67.6583 60.8134C67.6234 61.1641 67.3594 61.1382 67.2003 61.1835C66.4925 61.3802 65.7809 61.5626 65.0627 61.7192C64.5128 61.8382 64.1971 62.1824 63.9655 62.6663C63.8154 62.9795 63.7209 63.343 63.3923 63.5462Z" fill="#2D2D32"/>
<path id="Vector_19" d="M20.6977 49.2819C20.5851 49.2832 20.4687 49.2793 20.4156 49.4113C20.2228 49.4177 20.03 49.4333 19.8359 49.4307C18.8655 49.4216 18.5718 48.9895 18.9056 48.0643C18.9923 48.0371 19.0389 47.9789 19.0415 47.887C19.7259 47.5597 20.4337 47.5001 21.1635 47.7033C21.3032 47.7421 21.474 47.7499 21.4689 47.9634C20.4169 47.9828 19.7945 48.1626 19.4749 48.6401C20.4001 48.3205 21.2528 48.2105 22.1223 48.3101C21.7781 48.8251 21.1544 48.9299 20.6977 49.2819Z" fill="#F05E90"/>
<path id="Vector_20" d="M22.1224 48.3089C21.2528 48.2093 20.4001 48.3192 19.475 48.6388C19.7946 48.1627 20.417 47.9815 21.4689 47.9621C21.6759 47.9738 21.8817 47.9841 22.2013 48.0022C21.9399 47.4678 21.3473 47.3721 21.1467 46.9218C21.1804 46.8882 21.2127 46.8532 21.2464 46.8196C21.4003 46.9192 21.5569 47.015 21.7083 47.1211C21.9606 47.297 22.1249 47.2828 22.1521 46.9334C22.1534 46.9244 22.1896 46.9076 22.1987 46.9127C22.2297 46.9309 22.2556 46.9554 22.2828 46.9787C22.2582 47.1741 22.3578 47.319 22.4963 47.5274C22.4963 47.2556 22.4963 47.0551 22.4963 46.8532C22.8922 46.8623 22.4614 47.2323 22.724 47.3009C22.9725 47.4057 22.8793 47.015 23.085 47.0163C23.1135 47.0473 23.1446 47.0758 23.1769 47.103C23.1678 47.2621 23.1019 47.3786 22.9712 47.4821C22.7072 47.6891 22.5998 47.9479 22.79 48.2675C22.5675 48.2817 22.3449 48.2947 22.1224 48.3089Z" fill="#2D2D32"/>
<path id="Vector_21" d="M66.1159 63.0118C66.028 63.4957 65.61 63.8774 65.6864 64.4441C66.2233 64.1245 66.5197 63.5371 67.0553 63.2447C67.1019 63.2874 67.1485 63.3301 67.1951 63.3728C66.8121 63.7622 66.4601 64.1918 66.0344 64.5283C65.6683 64.8181 65.4496 65.1403 65.3435 65.5893C65.2632 65.9322 65.1326 66.2776 64.8233 66.5054C64.7884 66.4782 64.7534 66.451 64.7172 66.4226C64.8466 66.0629 65.1313 65.764 65.1856 65.3124C64.8958 65.4237 64.6654 65.5129 64.4338 65.6009C64.4105 65.5712 64.3873 65.5414 64.3627 65.5116C65.161 65.1636 65.4379 64.4687 65.6126 63.6846C65.6734 63.409 65.7588 63.1062 66.0435 62.9419C66.0668 62.9665 66.0914 62.9898 66.1159 63.0118Z" fill="#2D2D32"/>
<path id="Vector_22" d="M66.64 67.0294C66.5623 67.2947 66.0719 67.4098 66.2143 67.6505C66.3851 67.9377 66.7823 67.7359 67.0916 67.7268C68.1798 67.6945 69.2692 67.7139 70.3587 67.7139C70.3587 67.7876 70.3587 67.8614 70.3587 67.9352C68.7452 67.9352 67.133 67.9352 65.5363 67.9352C65.8416 67.5987 66.0525 67.0902 66.5843 66.8884C66.6038 66.9349 66.6219 66.9815 66.64 67.0294Z" fill="#2D2D32"/>
<path id="Vector_23" d="M20.7663 57.5048C19.3184 56.9782 17.9119 56.339 16.3993 55.9909C16.1082 55.9237 15.7821 55.7412 15.5958 55.4397C15.6229 55.4151 15.6501 55.3906 15.6747 55.3647C17.2184 56.1501 18.969 56.3869 20.5127 57.1775C20.6447 57.2448 20.7974 57.2693 20.8452 57.4388C20.8181 57.4596 20.7922 57.4828 20.7663 57.5048Z" fill="#2D2D32"/>
<path id="Vector_24" d="M13.99 51.6161C14.4351 51.9189 14.4713 52.443 14.5826 52.8816C14.7961 53.7188 15.1209 54.4926 15.544 55.2366C15.5181 55.2612 15.4922 55.287 15.4689 55.3129C14.9255 54.8665 14.7236 54.2144 14.5308 53.5933C14.3342 52.9605 14.2048 52.3071 13.9188 51.7028C13.9421 51.6744 13.9667 51.6459 13.99 51.6161Z" fill="#2D2D32"/>
<path id="Vector_25" d="M11.3038 46.7703C11.4448 46.4533 11.7774 46.3485 12.0361 46.3459C13.026 46.3369 14.0327 46.1816 15.0057 46.5892C13.8024 46.6526 12.5498 46.1104 11.406 46.848C11.3749 46.8182 11.34 46.7923 11.3038 46.7703Z" fill="#2D2D32"/>
<path id="Vector_26" d="M57.8347 10.9583C57.6225 10.3411 57.409 9.73683 57.4064 9.08728C57.4064 8.96824 57.2861 8.81944 57.4582 8.75345C57.6471 8.68099 57.783 8.88672 57.7817 8.97988C57.7804 9.63979 58.1336 10.288 57.8347 10.9583Z" fill="#F05E90"/>
<path id="Vector_27" d="M52.7678 16.4537C52.3007 16.3644 51.8452 16.279 51.3897 16.1884C51.2578 16.1625 51.1297 16.081 51.1439 15.9413C51.1672 15.7213 51.369 15.7731 51.4971 15.7938C51.9552 15.8675 52.4094 15.9607 52.8635 16.0538C53.011 16.0836 53.187 16.1405 53.1378 16.3282C53.09 16.5171 52.8933 16.4343 52.7678 16.4537Z" fill="#F05E90"/>
<path id="Vector_28" d="M51.796 19.0286C52.3822 18.8979 52.9683 18.7633 53.5571 18.643C53.6218 18.63 53.7369 18.6805 53.768 18.7348C53.8314 18.8487 53.7421 18.9471 53.6438 18.9846C53.0602 19.2097 52.465 19.3521 51.8491 19.2576C51.831 19.1813 51.8141 19.1049 51.796 19.0286Z" fill="#F05E90"/>
<path id="Vector_29" d="M67.2158 15.9359C66.42 15.9307 65.6942 16.513 64.8647 16.1908C65.6282 15.945 66.3812 15.6306 67.2158 15.9359Z" fill="#F05E90"/>
<path id="Vector_30" d="M64.65 18.7349C65.4716 18.4929 66.191 18.8578 66.935 19.0855C66.1108 19.3831 65.4004 18.9315 64.65 18.7349Z" fill="#F05E90"/>
<path id="Vector_31" d="M19.0414 47.8869C19.0402 47.9788 18.9936 48.037 18.9056 48.0642C17.9908 47.5388 16.9776 47.2632 16.002 46.8815C17.0889 46.9902 18.0878 47.3693 19.0414 47.8869Z" fill="#2D2D32"/>
<path id="Vector_32" d="M70.3756 60.6594C71.2632 60.2803 72.1703 59.9736 73.1744 59.9943C72.2635 60.2635 71.3538 60.5326 70.4429 60.8018C70.4209 60.7552 70.3976 60.7073 70.3756 60.6594Z" fill="#2D2D32"/>
<path id="Vector_33" d="M69.0932 55.4954C69.6496 56.1333 69.5539 57.3444 68.8163 58.0289C69.0001 57.162 69.5371 56.3895 68.9988 55.5718C69.0337 55.5485 69.0648 55.5239 69.0932 55.4954Z" fill="#2D2D32"/>
<path id="Vector_34" d="M11.2792 46.9788C10.7008 47.8664 11.1847 48.5755 11.6648 49.2845C11.6363 49.3156 11.6091 49.3479 11.5859 49.3829C10.6646 48.3568 10.5028 47.7072 11.199 46.8882C11.2248 46.9205 11.252 46.9503 11.2792 46.9788Z" fill="#2D2D32"/>
<path id="Vector_35" d="M75.823 63.5358C75.2575 64.0288 74.6934 64.5218 74.2043 64.9475C74.5433 64.36 75.0945 63.8412 75.7505 63.4207C75.7751 63.4582 75.7984 63.497 75.823 63.5358Z" fill="#2D2D32"/>
<path id="Vector_36" d="M24.454 40.3629C24.2043 40.3318 23.9856 40.1351 23.7126 40.2257C23.7074 39.9773 23.701 39.7288 23.6958 39.4817C23.9494 39.505 24.1771 39.6978 24.4489 39.5943C24.4502 39.8505 24.4515 40.1067 24.454 40.3629Z" fill="#2D2D32"/>
<path id="Vector_37" d="M12.4399 50.0621C13.0584 50.4801 13.6613 50.9122 13.99 51.6174C13.9667 51.6459 13.9421 51.6744 13.9175 51.7028C13.4168 51.162 12.8009 50.735 12.3558 50.1385C12.3855 50.1152 12.414 50.0893 12.4399 50.0621Z" fill="#2D2D32"/>
<path id="Vector_38" d="M55.0127 10.9466C55.3763 11.0876 55.657 11.2157 55.7515 11.6104C55.7929 11.7851 55.9999 11.9662 55.7916 12.0982C55.6195 12.2082 55.5031 11.9753 55.4008 11.851C55.2029 11.6065 54.9971 11.3607 55.0127 10.9466Z" fill="#F05E90"/>
<path id="Vector_39" d="M63.8515 9.96326C63.7454 10.7746 63.3417 11.1446 62.6857 11.5341C62.9574 10.8664 63.308 10.4575 63.8515 9.96326Z" fill="#F05E90"/>
<path id="Vector_40" d="M76.5515 60.0008C76.0857 59.9232 75.6199 59.8378 75.1527 59.7692C74.7102 59.7045 74.2522 59.9141 73.8148 59.72C74.7426 59.7446 75.7027 59.4341 76.5994 59.8442C76.5838 59.896 76.5683 59.9477 76.5515 60.0008Z" fill="#2D2D32"/>
<path id="Vector_41" d="M63.5204 64.0353C63.4738 63.9124 63.3379 63.8205 63.3962 63.6639C64.0845 63.7222 64.6344 63.1723 65.3267 63.215C64.8104 63.6911 64.0858 63.6859 63.5204 64.0353Z" fill="#2D2D32"/>
<path id="Vector_42" d="M66.6852 55.4229C67.3749 54.7048 68.181 54.6349 68.8345 55.2392C68.8073 55.2637 68.7827 55.2896 68.7581 55.3168C68.0503 54.9441 67.3943 55.0774 66.7694 55.5173C66.7409 55.485 66.7137 55.4539 66.6852 55.4229Z" fill="#2D2D32"/>
<path id="Vector_43" d="M68.837 61.723C68.4035 62.2276 67.9403 62.696 67.3451 63.0079C67.7592 62.4813 68.1525 61.9378 68.7619 61.6208C68.7827 61.6583 68.8072 61.692 68.837 61.723Z" fill="#2D2D32"/>
<path id="Vector_44" d="M67.0773 62.0375C67.4629 61.5497 68.0102 61.1926 68.2509 60.5844C68.15 61.2857 67.8356 61.8305 67.1537 62.11C67.1291 62.0854 67.1032 62.0608 67.0773 62.0375Z" fill="#2D2D32"/>
<path id="Vector_45" d="M66.1172 12.744C66.0473 13.0144 65.7691 13.0364 65.6009 13.1736C65.4974 13.2577 65.3162 13.3806 65.139 13.2887C65.0989 13.268 65.0743 13.1787 65.0782 13.1231C65.0885 12.9601 65.8752 12.515 66.0124 12.5939C66.0577 12.6211 66.0797 12.6896 66.1172 12.744Z" fill="#F05E90"/>
<path id="Vector_46" d="M65.7601 56.3415C66.0253 55.9922 66.2945 55.6467 66.6839 55.4229C66.7124 55.4539 66.7409 55.485 66.768 55.5173C66.5106 55.8628 66.2104 56.1669 65.861 56.4205C65.8299 56.3907 65.7963 56.3648 65.7601 56.3415Z" fill="#2D2D32"/>
<path id="Vector_47" d="M76.6382 62.5512C76.8504 62.1915 77.0613 61.8318 77.2735 61.472C77.3007 61.9663 77.1247 62.3545 76.7275 62.6301C76.699 62.6016 76.6692 62.5745 76.6382 62.5512Z" fill="#2D2D32"/>
<path id="Vector_48" d="M63.5902 59.0497C63.7856 58.7353 64.0612 58.4985 64.3485 58.2734C64.3782 58.3031 64.408 58.3316 64.439 58.3601C64.2915 58.7314 64.0418 58.9993 63.6601 59.1351C63.6368 59.1067 63.6135 59.0782 63.5902 59.0497Z" fill="#2D2D32"/>
<path id="Vector_49" d="M22.0654 58.5477C21.8066 58.3808 21.5828 58.1763 21.421 57.9124C21.4456 57.8839 21.4689 57.8542 21.4922 57.8244C21.8299 57.9163 22.0667 58.1117 22.143 58.4675C22.1159 58.4947 22.09 58.5205 22.0654 58.5477Z" fill="#2D2D32"/>
<path id="Vector_50" d="M62.9315 59.5764C63.0493 59.2749 63.3689 59.2231 63.5901 59.0497C63.6134 59.0782 63.6367 59.1067 63.66 59.1351C63.5021 59.3797 63.3236 59.5971 63.0156 59.654C62.9885 59.6268 62.9613 59.601 62.9315 59.5764Z" fill="#2D2D32"/>
<path id="Vector_51" d="M22.9789 59.3357C22.6593 59.2684 22.4639 59.0381 22.2776 58.7974C22.3216 58.7716 22.3656 58.7444 22.4096 58.7185C22.5998 58.9204 22.9039 58.9863 23.041 59.2503C23.0203 59.2788 22.9996 59.3072 22.9789 59.3357Z" fill="#2D2D32"/>
<path id="Vector_52" d="M21.4211 57.9125C21.1507 57.8594 20.9799 57.6485 20.7664 57.5049C20.7922 57.4829 20.8181 57.4596 20.8453 57.4389C21.1131 57.4803 21.3564 57.5644 21.4922 57.8258C21.469 57.8543 21.4444 57.884 21.4211 57.9125Z" fill="#2D2D32"/>
<path id="Vector_53" d="M22.495 46.8532C22.495 47.0538 22.495 47.2543 22.495 47.5273C22.3566 47.319 22.2556 47.1741 22.2815 46.9787C22.3527 46.936 22.4239 46.8946 22.495 46.8532Z" fill="#F05E90"/>
<path id="Vector_54" d="M73.1485 67.859C73.2559 67.6856 73.1938 67.4281 73.4345 67.3C73.56 67.5769 73.4021 67.758 73.2404 67.9379C73.2119 67.9094 73.1808 67.8836 73.1485 67.859Z" fill="#2D2D32"/>
<path id="Vector_55" d="M64.6279 57.8904C64.6809 57.7403 64.69 57.5592 64.8867 57.5035C64.9099 57.5307 64.9345 57.5579 64.9578 57.5838C64.9539 57.7688 64.8918 57.915 64.6965 57.9694C64.6732 57.9448 64.6499 57.9176 64.6279 57.8904Z" fill="#2D2D32"/>
<path id="Vector_56" d="M64.3484 58.2734C64.4261 58.1337 64.4326 57.9422 64.6279 57.8904C64.6499 57.9176 64.6732 57.9448 64.6965 57.9707C64.6965 58.157 64.6318 58.3019 64.439 58.3601C64.408 58.333 64.3769 58.3045 64.3484 58.2734Z" fill="#2D2D32"/>
<path id="Vector_57" d="M66.4122 62.5485C66.5377 62.3933 66.618 62.1668 66.9169 62.2445C66.9285 62.5395 66.6141 62.4787 66.508 62.6275C66.4782 62.599 66.4459 62.5731 66.4122 62.5485Z" fill="#2D2D32"/>
<path id="Vector_58" d="M68.8862 61.516C68.9406 61.3737 69.0312 61.2857 69.1942 61.3038C69.2291 61.3374 69.2641 61.3724 69.299 61.406C69.2239 61.5354 69.1101 61.5949 68.9626 61.5923C68.938 61.5665 68.9134 61.5406 68.8862 61.516Z" fill="#2D2D32"/>
<path id="Vector_59" d="M42.4098 15.3654C42.2908 15.3926 42.1588 15.4819 42.0837 15.2994C42.2015 15.2735 42.3218 15.2399 42.4098 15.3654Z" fill="#F05E90"/>
<path id="Vector_60" d="M62.7272 60.0047C62.6042 59.9775 62.6612 59.8637 62.6262 59.7951C62.687 59.7614 62.7491 59.7278 62.81 59.6942C62.8332 59.7265 62.8591 59.7576 62.8876 59.786C62.8345 59.8585 62.7815 59.9309 62.7272 60.0047Z" fill="#2D2D32"/>
<path id="Vector_61" d="M64.1725 65.7484C64.1298 65.7006 64.0871 65.6527 64.0444 65.6048C64.1505 65.5738 64.2579 65.544 64.364 65.5129C64.3886 65.5427 64.4118 65.5712 64.4351 65.6022C64.4093 65.7614 64.2708 65.7187 64.1725 65.7484Z" fill="#2D2D32"/>
<path id="Vector_62" d="M23.0837 47.0175C23.1303 46.936 23.1781 46.8557 23.2247 46.7742C23.2532 46.7975 23.2816 46.8234 23.3075 46.8493C23.3036 46.9554 23.3153 47.0692 23.1755 47.1042C23.1432 47.077 23.1121 47.0473 23.0837 47.0175Z" fill="#2D2D32"/>
<path id="Vector_63" d="M69.1942 61.3038C69.2537 61.1925 69.3352 61.1588 69.4478 61.23C69.3986 61.2882 69.3482 61.3465 69.299 61.406C69.2641 61.3723 69.2291 61.3387 69.1942 61.3038Z" fill="#2D2D32"/>
<path id="Vector_64" d="M64.5438 66.8664C64.4507 66.869 64.3472 66.8974 64.3096 66.768C64.3692 66.737 64.4287 66.7059 64.4882 66.6736C64.5128 66.7033 64.5361 66.7318 64.5607 66.7616C64.5568 66.7965 64.5503 66.8314 64.5438 66.8664Z" fill="#2D2D32"/>
<path id="Vector_65" d="M73.2416 67.9378C73.2416 68.0465 73.2429 68.1565 73.1031 68.1876C73.0721 68.1617 73.041 68.1358 73.0126 68.1073C73.0579 68.0245 73.1031 67.9417 73.1497 67.8576C73.1808 67.8835 73.2118 67.9094 73.2416 67.9378Z" fill="#2D2D32"/>
<path id="Vector_66" d="M22.2776 58.7975C22.2388 58.7548 22.2 58.7121 22.1611 58.6694C22.1987 58.6448 22.2349 58.6215 22.2724 58.5969C22.3177 58.637 22.3643 58.6771 22.4096 58.7186C22.3656 58.7444 22.3216 58.7716 22.2776 58.7975Z" fill="#2D2D32"/>
<path id="Vector_67" d="M12.3104 49.9327C12.3531 49.9754 12.3971 50.0194 12.4398 50.0621C12.4139 50.0893 12.3855 50.1152 12.3557 50.1398C12.3091 50.0971 12.2612 50.0544 12.2147 50.0117C12.2496 49.9871 12.2819 49.9612 12.3104 49.9327Z" fill="#2D2D32"/>
<path id="Vector_68" d="M12.2147 50.0104C12.1707 49.9677 12.1267 49.9237 12.0827 49.881C12.1189 49.8577 12.1513 49.8318 12.1823 49.8021C12.225 49.8448 12.2677 49.8888 12.3117 49.9315C12.282 49.9612 12.2496 49.9871 12.2147 50.0104Z" fill="#2D2D32"/>
<path id="Vector_69" d="M12.053 49.6727C12.0957 49.7154 12.1384 49.7594 12.1824 49.8021C12.1526 49.8318 12.119 49.8577 12.0827 49.881C12.0362 49.837 11.9896 49.793 11.9417 49.749C11.9792 49.7231 12.0168 49.6985 12.053 49.6727Z" fill="#2D2D32"/>
<path id="Vector_70" d="M11.9417 49.749C11.899 49.7063 11.8576 49.6636 11.8149 49.6196C11.8512 49.5937 11.8874 49.5678 11.9236 49.5419C11.9663 49.5846 12.0103 49.6286 12.053 49.6713C12.0168 49.6985 11.9793 49.7231 11.9417 49.749Z" fill="#2D2D32"/>
<path id="Vector_71" d="M15.5957 55.4397C15.553 55.397 15.5116 55.3556 15.4689 55.3129C15.4935 55.287 15.518 55.2611 15.5439 55.2365C15.5879 55.2792 15.6306 55.3219 15.6746 55.3646C15.6487 55.3905 15.6229 55.4151 15.5957 55.4397Z" fill="#2D2D32"/>
<path id="Vector_72" d="M68.9638 61.5923C68.9211 61.6363 68.8797 61.6803 68.837 61.723C68.8073 61.692 68.7827 61.657 68.762 61.6208C68.8034 61.5858 68.8448 61.5509 68.8862 61.5173C68.9134 61.5406 68.9379 61.5664 68.9638 61.5923Z" fill="#2D2D32"/>
<path id="Vector_73" d="M68.8331 55.2392C68.8758 55.2832 68.9185 55.3259 68.9612 55.3699C68.9366 55.3919 68.912 55.4152 68.8875 55.4385C68.8435 55.3984 68.8008 55.3569 68.7568 55.3168C68.7814 55.2897 68.8072 55.2638 68.8331 55.2392Z" fill="#2D2D32"/>
<path id="Vector_74" d="M67.1537 62.1099C67.1136 62.1475 67.0463 62.2238 67.0385 62.2186C66.926 62.1371 67.0127 62.0879 67.0773 62.0375C67.1032 62.0608 67.1291 62.0854 67.1537 62.1099Z" fill="#2D2D32"/>
<path id="Vector_75" d="M11.8149 49.6209C11.7709 49.5769 11.7269 49.5316 11.6829 49.4876C11.7192 49.463 11.7554 49.4397 11.7929 49.4152C11.8369 49.4579 11.8796 49.5006 11.9236 49.5433C11.8874 49.5691 11.8511 49.595 11.8149 49.6209Z" fill="#2D2D32"/>
<path id="Vector_76" d="M66.508 62.6288C66.464 62.6715 66.4213 62.7142 66.3773 62.7569C66.3476 62.7271 66.3152 62.7013 66.279 62.678C66.323 62.6353 66.3683 62.5913 66.4123 62.5486C66.4459 62.5732 66.4783 62.599 66.508 62.6288Z" fill="#2D2D32"/>
<path id="Vector_77" d="M76.7261 62.6287C76.6821 62.6714 76.6394 62.7141 76.5954 62.7568C76.5695 62.7296 76.5437 62.705 76.5165 62.6804C76.5566 62.6364 76.5967 62.5937 76.6368 62.5497C76.6692 62.5743 76.6989 62.6015 76.7261 62.6287Z" fill="#2D2D32"/>
<path id="Vector_78" d="M66.3773 62.7568C66.3346 62.7995 66.2906 62.8422 66.2479 62.8862C66.2195 62.8578 66.1884 62.8319 66.1561 62.8086C66.1975 62.7659 66.2389 62.7219 66.2803 62.6792C66.3139 62.7012 66.3476 62.7271 66.3773 62.7568Z" fill="#2D2D32"/>
<path id="Vector_79" d="M76.3884 62.8112C76.4311 62.7685 76.4751 62.7245 76.5178 62.6818C76.5449 62.7063 76.5708 62.7322 76.5967 62.7581C76.554 62.8008 76.51 62.8448 76.4673 62.8875C76.4414 62.8603 76.4155 62.8357 76.3884 62.8112Z" fill="#2D2D32"/>
<path id="Vector_80" d="M66.248 62.8862C66.204 62.9276 66.16 62.9703 66.116 63.0117C66.0914 62.9898 66.0668 62.9665 66.0435 62.9432C66.081 62.8979 66.1186 62.8526 66.1561 62.8073C66.1884 62.8319 66.2195 62.8578 66.248 62.8862Z" fill="#2D2D32"/>
<path id="Vector_81" d="M76.4674 62.8875C76.4247 62.9302 76.3807 62.9742 76.338 63.0169C76.3121 62.991 76.2862 62.9651 76.259 62.9406C76.3017 62.8979 76.3444 62.8539 76.3884 62.8112C76.4156 62.8357 76.4415 62.8603 76.4674 62.8875Z" fill="#2D2D32"/>
<path id="Vector_82" d="M76.1296 63.07C76.1723 63.0273 76.2163 62.9833 76.259 62.9406C76.2862 62.9652 76.3121 62.9911 76.338 63.017C76.2953 63.0597 76.2526 63.1037 76.2086 63.1464C76.184 63.1205 76.1568 63.0946 76.1296 63.07Z" fill="#2D2D32"/>
<path id="Vector_83" d="M69 55.5718C68.9625 55.5278 68.9263 55.4825 68.8887 55.4385C68.9133 55.4152 68.9366 55.3919 68.9625 55.3699C69.0065 55.4113 69.0505 55.454 69.0945 55.4954C69.0647 55.5239 69.0337 55.5485 69 55.5718Z" fill="#2D2D32"/>
<path id="Vector_84" d="M11.6842 49.4863C11.6519 49.4514 11.6195 49.4178 11.5872 49.3828C11.6104 49.3479 11.6363 49.3142 11.6661 49.2845C11.7088 49.3272 11.7515 49.3712 11.7942 49.4139C11.7567 49.4385 11.7204 49.463 11.6842 49.4863Z" fill="#2D2D32"/>
<path id="Vector_85" d="M65.861 56.4205C65.8183 56.4645 65.7756 56.5072 65.7342 56.5512C65.7057 56.5228 65.6799 56.4917 65.6553 56.4594C65.6902 56.4205 65.7264 56.3804 65.7614 56.3416C65.7963 56.3649 65.83 56.3908 65.861 56.4205Z" fill="#2D2D32"/>
<path id="Vector_86" d="M76.0804 63.2757C76.0377 63.3197 75.9937 63.3624 75.951 63.4064C75.9161 63.3805 75.8798 63.3546 75.8449 63.3287C75.898 63.2821 75.9497 63.2355 76.0028 63.189C76.0274 63.22 76.0532 63.2485 76.0804 63.2757Z" fill="#2D2D32"/>
<path id="Vector_87" d="M75.9523 63.4065C75.9096 63.4492 75.8669 63.4919 75.8229 63.5346C75.7984 63.4958 75.7751 63.4583 75.7505 63.4194C75.7815 63.3897 75.8139 63.3586 75.8449 63.3289C75.8812 63.3547 75.9161 63.3806 75.9523 63.4065Z" fill="#2D2D32"/>
<path id="Vector_88" d="M49.0648 27.9278L49.0373 27.8885C49.0373 27.8885 49.0648 27.8492 49.0648 27.8505C49.0792 27.8715 49.0937 27.8924 49.1081 27.9121C49.095 27.9173 49.0792 27.9226 49.0648 27.9278Z" fill="#F05E90"/>
<path id="Vector_89" d="M11.2002 46.8881C11.2351 46.8493 11.2688 46.8092 11.3037 46.7704C11.3399 46.7924 11.3736 46.8183 11.4059 46.848C11.3645 46.892 11.3218 46.936 11.2804 46.98C11.252 46.9502 11.2248 46.9205 11.2002 46.8881Z" fill="#2D2D32"/>
<path id="Vector_90" d="M64.8233 66.5054C64.7819 66.5507 64.7392 66.5947 64.6978 66.64C64.6667 66.6089 64.6357 66.5779 64.6046 66.5468C64.6421 66.5054 64.6797 66.464 64.7172 66.4239C64.7534 66.4511 64.7884 66.4782 64.8233 66.5054Z" fill="#2D2D32"/>
<path id="Vector_91" d="M64.6978 66.64C64.6848 66.7176 64.6434 66.7629 64.5606 66.7616C64.536 66.7319 64.5114 66.7034 64.4882 66.6736C64.527 66.6309 64.5658 66.5895 64.6046 66.5468C64.6357 66.5779 64.6667 66.6089 64.6978 66.64Z" fill="#2D2D32"/>
<path id="Vector_92" d="M66.5856 66.887C66.6025 66.8637 66.6232 66.8443 66.6465 66.8275C66.6866 66.8508 66.7267 66.8741 66.7668 66.8987C66.7241 66.9427 66.6827 66.9854 66.64 67.0294C66.6219 66.9815 66.6037 66.9349 66.5856 66.887Z" fill="#2D2D32"/>
<path id="Vector_93" d="M22.1612 58.6694C22.1288 58.6293 22.0978 58.5879 22.0654 58.5478C22.09 58.5206 22.1159 58.4935 22.1431 58.4689C22.1858 58.5116 22.2298 58.5543 22.2725 58.597C22.2349 58.6216 22.1987 58.6461 22.1612 58.6694Z" fill="#2D2D32"/>
<path id="Vector_94" d="M49.0671 27.5374L49.0399 27.496L49.0684 27.4559C49.0826 27.4779 49.0968 27.4986 49.1111 27.5206C49.0968 27.527 49.0826 27.5322 49.0671 27.5374Z" fill="#F05E90"/>
<path id="Vector_95" d="M62.8112 59.6929C62.8513 59.6541 62.8914 59.6153 62.9316 59.5765C62.96 59.6011 62.9885 59.6269 63.0144 59.6541C62.9717 59.6981 62.9303 59.7421 62.8876 59.7848C62.8604 59.7563 62.8345 59.7253 62.8112 59.6929Z" fill="#2D2D32"/>
<path id="Vector_96" d="M76.0042 63.189C76.0456 63.1489 76.0883 63.1101 76.1297 63.0699C76.1568 63.0945 76.184 63.1204 76.2086 63.1463C76.1659 63.189 76.1232 63.233 76.0805 63.2757C76.0533 63.2485 76.0274 63.22 76.0042 63.189Z" fill="#2D2D32"/>
<path id="Vector_97" d="M48.1665 47.6438C48.2506 46.2865 48.2403 44.9291 48.1976 43.5718L48.2299 43.5369L48.2014 43.4993C48.2454 42.2041 48.3632 40.9102 48.1574 39.615C48.1109 39.3238 48.0099 38.9784 48.27 38.704C49.0761 40.456 49.1007 42.2766 48.8044 44.1437C48.622 45.294 48.5314 46.4599 48.3891 47.6166C48.3658 47.8004 48.5003 48.0786 48.1562 48.1213C48.16 48.0009 48.1639 47.8793 48.1691 47.759C48.1833 47.7486 48.2118 47.7331 48.2092 47.7279C48.1989 47.6981 48.182 47.6723 48.1665 47.6438Z" fill="#2D2D32"/>
<path id="Vector_98" d="M42.5626 37.6417C42.8136 37.9082 43.2173 37.8435 43.4826 38.0596C43.6275 38.1774 44.0467 38.233 43.6482 38.5862C43.4593 38.7545 43.7181 38.7855 43.8384 38.8088C44.387 38.9149 44.9214 39.0754 45.4105 39.3406C45.9216 39.6175 45.9333 39.9979 45.4739 40.3408C44.9732 40.7148 44.365 40.8196 43.7828 40.8674C42.8861 40.9399 41.957 41.0033 41.081 40.8493C40.262 40.7057 39.4209 40.478 38.6821 40.0264C38.5566 39.95 38.4168 39.897 38.2836 39.8336C38.3314 39.2876 38.4958 38.7609 38.7132 38.2744C38.9448 37.7555 39.5232 37.6676 40.0174 37.6701C40.7097 37.6727 41.4162 37.5304 42.0994 37.7801C42.2715 37.8461 42.428 37.7568 42.5626 37.6417Z" fill="#FFD0BC"/>
<path id="Vector_99" d="M34.2878 20.3056C34.1571 20.3095 34.0264 20.3146 33.8957 20.3185C33.5787 19.7686 33.8401 19.1566 33.7029 18.5678C33.5295 17.8303 33.5722 17.041 33.5218 16.275C33.5063 16.0408 33.5878 15.9192 33.8504 15.9269C34.1028 15.9334 34.1118 16.0861 34.1196 16.2685C34.1739 17.6142 34.2321 18.9599 34.2878 20.3056Z" fill="#2D2D32"/>
<path id="Vector_100" d="M41.7913 20.2086C41.4536 20.8853 40.8675 21.2062 40.161 21.3732C39.9591 21.421 39.7715 21.5245 39.5761 21.6035C39.0896 21.7251 38.616 22.0861 38.1153 21.5944C37.8953 21.3783 37.907 21.2722 38.1567 21.126C38.5177 20.9151 38.8968 20.9552 39.2682 21.0471C39.5244 21.1105 39.7625 21.1855 39.9837 20.9785C40.685 21.1441 41.0991 20.7637 41.4239 20.2177C41.5468 20.2151 41.6684 20.2112 41.7913 20.2086Z" fill="#2D2D32"/>
<path id="Vector_101" d="M40.773 20.0508C40.9593 19.1528 41.3617 18.2936 41.178 17.3257C41.2466 17.3335 41.3165 17.3426 41.385 17.3503C41.3035 18.2625 41.222 19.1748 41.1405 20.087C41.0176 20.0753 40.8959 20.0624 40.773 20.0508Z" fill="#2D2D32"/>
<path id="Vector_102" d="M26.0972 61.6505C26.1969 61.6027 26.3043 61.3762 26.391 61.6622C26.2913 61.7256 26.193 61.723 26.0972 61.6505Z" fill="#F05E90"/>
<path id="Vector_103" d="M59.6592 19.3986C59.5221 19.3883 59.4561 19.4646 59.4716 19.5888C59.579 20.5269 58.9683 21.3874 59.271 22.332C58.9941 22.3578 58.901 22.2582 58.8958 22.0835C58.8738 21.3434 58.967 20.5994 58.6577 19.88C58.584 19.7092 58.4753 19.3093 58.7806 19.2123C59.0575 19.1243 59.425 19.0713 59.6528 19.4077C59.6502 19.4077 59.6592 19.3986 59.6592 19.3986Z" fill="#F05E90"/>
<path id="Vector_104" d="M61.2429 17.7915C60.8755 18.2612 60.4731 18.4747 59.9115 18.6597C60.3023 18.1965 60.5106 17.6828 61.2429 17.7915Z" fill="#F05E90"/>
<path id="Vector_105" d="M31.2911 16.0836C31.2187 16.1974 31.1501 16.191 31.0854 16.0758C31.154 16.0784 31.2225 16.081 31.2911 16.0836Z" fill="#F05E90"/>
<path id="Vector_106" d="M41.2453 47.6089C43.2884 47.3359 45.0727 49.4243 45.0598 51.2733C45.0416 53.5882 43.3375 55.2263 41.1806 55.225C39.219 55.2237 37.4566 53.7201 37.3803 51.3988C37.313 49.3958 39.0663 47.3695 41.2453 47.6089ZM41.1236 50.9498C41.3591 50.968 41.5972 50.9693 41.8275 51.012C41.9647 51.0378 42.1911 51.1051 42.1264 51.2785C41.8508 52.0238 42.547 52.0743 42.8886 52.3292C43.3246 52.6552 43.8409 52.3408 43.8564 51.7909C43.8732 51.2513 43.551 50.8981 43.1447 50.6367C41.8469 49.8021 40.1415 49.9898 38.9667 50.9175C38.5914 51.2138 38.4568 51.624 38.6186 52.0665C38.6872 52.2515 38.8295 52.4922 39.1465 52.4236C39.624 52.3214 40.1635 52.1661 40.2075 51.6563C40.267 50.9822 40.6048 50.9123 41.1236 50.9498Z" fill="#A2A6C0"/>
<path id="Vector_107" d="M27.6888 51.2564C27.8039 49.2534 29.3903 47.3979 31.8151 47.4432C33.8867 47.4807 35.4317 49.3492 35.4731 51.2241C35.5222 53.4561 33.6434 55.1524 31.5214 55.1434C29.3437 55.133 27.7509 53.3681 27.6888 51.2564ZM33.7483 50.1734C33.7483 50.044 33.7793 49.9055 33.7431 49.7878C33.6163 49.3789 33.3329 49.0541 32.9344 48.9584C32.6769 48.8976 32.3236 49.1201 32.2978 49.3919C32.2551 49.8512 31.9898 50.3403 32.3793 50.7932C32.6652 51.1257 32.4401 51.3742 32.1968 51.6187C31.9031 51.9137 31.4334 52.3537 31.1837 52.0871C30.6338 51.4958 30.177 51.871 29.6918 52.0134C29.2467 52.144 29.1147 52.5995 29.3968 52.9605C29.609 53.2322 29.8535 53.4367 30.2598 53.4237C30.9262 53.403 31.4683 53.1546 32.0454 52.8285C33.1142 52.2256 33.5477 51.2913 33.7483 50.1734Z" fill="#F05E90"/>
<path id="Vector_108" d="M48.1665 47.6437C48.182 47.6722 48.1988 47.6981 48.2092 47.7278C48.2105 47.733 48.1833 47.7485 48.1691 47.7589C48.1587 47.7317 48.1458 47.7058 48.1406 47.6787C48.138 47.6696 48.1574 47.6554 48.1665 47.6437Z" fill="#F05E90"/>
<path id="Vector_109" d="M48.2019 43.5007L48.2308 43.5387L48.198 43.5741C48.1862 43.5544 48.1731 43.5347 48.1613 43.5151C48.1757 43.5098 48.1888 43.5059 48.2019 43.5007Z" fill="#F05E90"/>
<path id="Vector_110" d="M22.7744 48.252C22.8689 48.252 22.9168 48.2985 22.9168 48.3943C22.8676 48.4008 22.8327 48.4732 22.7641 48.4046C22.6942 48.3374 22.7667 48.3024 22.7744 48.252Z" fill="#2D2D32"/>
<path id="Vector_111" d="M23.0332 48.5107C23.125 48.5133 23.1729 48.5612 23.1755 48.6531C23.1263 48.6595 23.0914 48.7333 23.0228 48.6647C22.9529 48.5961 23.0254 48.5612 23.0332 48.5107Z" fill="#2D2D32"/>
<path id="Vector_112" d="M22.9039 48.3813C22.9983 48.3813 23.0462 48.4279 23.0462 48.5237C22.9957 48.5263 22.9466 48.5289 22.8961 48.5314C22.8987 48.4823 22.9013 48.4318 22.9039 48.3813Z" fill="#2D2D32"/>
</g>
</g>
</svg>
