<svg width="23" height="23" viewBox="0 0 23 23" fill="none" xmlns="http://www.w3.org/2000/svg">
<g id="calendar-svgrepo-com (4) 1">
<path id="Vector" d="M1.91669 11.5C1.91669 7.88591 1.91669 6.07886 3.03944 4.9561C4.16221 3.83334 5.96925 3.83334 9.58335 3.83334H13.4167C17.0308 3.83334 18.8379 3.83334 19.9606 4.9561C21.0834 6.07886 21.0834 7.88591 21.0834 11.5V13.4167C21.0834 17.0307 21.0834 18.8379 19.9606 19.9606C18.8379 21.0833 17.0308 21.0833 13.4167 21.0833H9.58335C5.96925 21.0833 4.16221 21.0833 3.03944 19.9606C1.91669 18.8379 1.91669 17.0307 1.91669 13.4167V11.5Z" stroke="#EF2B7B" stroke-width="1.5"/>
<path id="Vector_2" opacity="0.5" d="M6.70831 3.83334V2.39584" stroke="#EF2B7B" stroke-width="1.5" stroke-linecap="round"/>
<path id="Vector_3" opacity="0.5" d="M16.2917 3.83334V2.39584" stroke="#EF2B7B" stroke-width="1.5" stroke-linecap="round"/>
<path id="Vector_4" opacity="0.5" d="M2.39581 8.625H20.6041" stroke="#EF2B7B" stroke-width="1.5" stroke-linecap="round"/>
<path id="Vector_5" d="M17.25 16.2917C17.25 16.821 16.8209 17.25 16.2916 17.25C15.7624 17.25 15.3333 16.821 15.3333 16.2917C15.3333 15.7624 15.7624 15.3333 16.2916 15.3333C16.8209 15.3333 17.25 15.7624 17.25 16.2917Z" fill="#EF2B7B"/>
<path id="Vector_6" d="M17.25 12.4583C17.25 12.9876 16.8209 13.4167 16.2916 13.4167C15.7624 13.4167 15.3333 12.9876 15.3333 12.4583C15.3333 11.929 15.7624 11.5 16.2916 11.5C16.8209 11.5 17.25 11.929 17.25 12.4583Z" fill="#EF2B7B"/>
<path id="Vector_7" d="M12.4584 16.2917C12.4584 16.821 12.0293 17.25 11.5 17.25C10.9707 17.25 10.5417 16.821 10.5417 16.2917C10.5417 15.7624 10.9707 15.3333 11.5 15.3333C12.0293 15.3333 12.4584 15.7624 12.4584 16.2917Z" fill="#EF2B7B"/>
<path id="Vector_8" d="M12.4584 12.4583C12.4584 12.9876 12.0293 13.4167 11.5 13.4167C10.9707 13.4167 10.5417 12.9876 10.5417 12.4583C10.5417 11.929 10.9707 11.5 11.5 11.5C12.0293 11.5 12.4584 11.929 12.4584 12.4583Z" fill="#EF2B7B"/>
<path id="Vector_9" d="M7.66667 16.2917C7.66667 16.821 7.2376 17.25 6.70833 17.25C6.17906 17.25 5.75 16.821 5.75 16.2917C5.75 15.7624 6.17906 15.3333 6.70833 15.3333C7.2376 15.3333 7.66667 15.7624 7.66667 16.2917Z" fill="#EF2B7B"/>
<path id="Vector_10" d="M7.66667 12.4583C7.66667 12.9876 7.2376 13.4167 6.70833 13.4167C6.17906 13.4167 5.75 12.9876 5.75 12.4583C5.75 11.929 6.17906 11.5 6.70833 11.5C7.2376 11.5 7.66667 11.929 7.66667 12.4583Z" fill="#EF2B7B"/>
</g>
</svg>
