<svg width="50" height="50" viewBox="0 0 50 50" fill="none" xmlns="http://www.w3.org/2000/svg">
<g id="Group 1000003747">
<g id="Ellipse 1395" filter="url(#filter0_b_883_1371)">
<circle cx="25" cy="25" r="25" fill="#F5DCE5"/>
</g>
<g id="Black">
<path id="Vector" d="M16.6681 14.0366C16.6681 14.0581 16.6165 14.071 16.5563 14.071C16.4961 14.071 16.4057 14.0925 16.3541 14.1183C16.3025 14.1442 16.1476 14.213 16.01 14.2732C15.7002 14.4109 15.1926 14.7421 14.9862 14.9529C14.7625 15.1723 14.414 15.6971 14.2807 16.024C14.2161 16.1746 14.1473 16.3208 14.1301 16.3424C14.1086 16.3682 14.0871 16.4413 14.0785 16.5015C14.0699 16.566 14.0484 16.6306 14.0312 16.6478C13.9795 16.6994 13.9968 30.551 14.0484 30.5811C14.0742 30.5983 14.0828 30.637 14.0742 30.6629C14.0613 30.693 14.0785 30.7747 14.1086 30.8435C14.1387 30.9124 14.2161 31.0801 14.2764 31.2221C14.457 31.6308 14.6807 31.962 14.9474 32.2244C15.2744 32.5427 15.4981 32.732 15.554 32.732C15.5755 32.732 15.6099 32.7535 15.6271 32.7836C15.6701 32.8524 16.0788 33.0374 16.4401 33.1536C16.7284 33.2439 16.7972 33.2439 19.9289 33.2611L23.1294 33.274L23.0949 33.1751C23.0777 33.1192 23.0132 32.9643 22.9444 32.8266C22.8799 32.6933 22.8368 32.5814 22.8454 32.5814C22.8583 32.5814 22.8411 32.5384 22.811 32.4825C22.7852 32.4309 22.7551 32.3534 22.7465 32.3061C22.7379 32.2631 22.7035 32.1771 22.6734 32.1125C22.639 32.0523 22.6002 31.9663 22.5873 31.9276C22.5658 31.8587 22.3593 31.8544 19.7998 31.8415C17.3048 31.8286 17.0209 31.82 16.9047 31.7555C16.7972 31.6953 16.6036 31.6135 16.4961 31.5791C16.4832 31.5748 16.4444 31.549 16.41 31.5189C16.3756 31.4931 16.2595 31.4028 16.1519 31.3253C15.8852 31.1231 15.6701 30.8263 15.5454 30.4822L15.4421 30.194V23.6338C15.4421 17.2801 15.4464 17.065 15.5239 16.8198C15.7175 16.2348 16.1863 15.7616 16.7886 15.5422L17.0768 15.439H23.6155C29.9132 15.439 30.1627 15.4433 30.3907 15.5207C30.8811 15.6885 31.2295 15.938 31.4317 16.2735C31.4833 16.3596 31.5522 16.4542 31.5823 16.4843C31.6339 16.5402 31.6554 16.6005 31.6425 16.6736C31.6425 16.6951 31.6597 16.708 31.6855 16.708C31.707 16.708 31.7199 16.7252 31.707 16.7424C31.6941 16.7639 31.7199 16.8371 31.7587 16.9059C31.8232 17.0177 31.8318 17.2844 31.8447 19.7923L31.8576 22.5498L31.9953 22.6057C32.0727 22.6315 32.1458 22.653 32.1673 22.6487C32.1845 22.6487 32.1974 22.6616 32.1974 22.6788C32.1974 22.7089 32.4555 22.8122 32.5846 22.838C32.5975 22.838 32.7136 22.8896 32.8513 22.9541C32.9847 23.0144 33.1352 23.0789 33.1825 23.0961L33.2729 23.1219V20.0935C33.2729 16.8241 33.2686 16.7295 33.0449 16.1488C32.9029 15.7831 32.8298 15.6326 32.7911 15.6326C32.7696 15.6326 32.7567 15.6025 32.7567 15.568C32.7567 15.5379 32.7266 15.4906 32.6878 15.4691C32.6491 15.4476 32.6147 15.4132 32.6147 15.396C32.5846 15.254 31.8189 14.5141 31.6941 14.5141C31.6683 14.5141 31.6167 14.4883 31.5866 14.4582C31.5565 14.4281 31.4059 14.3506 31.2511 14.2818C31.0962 14.2173 30.9069 14.1356 30.8295 14.1011C30.7521 14.0667 30.6746 14.0495 30.6531 14.0624C30.6316 14.0753 30.6015 14.0667 30.5843 14.0409C30.5499 13.985 16.6681 13.9807 16.6681 14.0366Z" fill="#EF2B7B"/>
<path id="Vector_2" d="M21.2243 18.1676C21.1641 18.2063 20.5963 18.7527 19.9682 19.3807L18.8239 20.525L18.3379 20.0432C18.0668 19.7808 17.8087 19.5442 17.7571 19.5184C17.6367 19.4539 17.2495 19.4539 17.1291 19.5141C16.9226 19.6216 16.7118 19.9486 16.7118 20.1636C16.7118 20.4605 16.7935 20.568 17.6023 21.381C18.2819 22.0693 18.4325 22.1984 18.596 22.2457C18.8369 22.3188 19.0519 22.2887 19.2412 22.1467C19.4219 22.0134 22.0201 19.4108 22.1492 19.2345C22.2051 19.1613 22.261 19.0366 22.2783 18.9549C22.3342 18.6494 22.1234 18.2279 21.8653 18.1375C21.6631 18.0644 21.3534 18.0816 21.2243 18.1676Z" fill="#EF2B7B"/>
<path id="Vector_3" d="M23.9938 19.5283C23.7271 19.6789 23.5938 19.8896 23.5938 20.1692C23.5938 20.38 23.6669 20.6295 23.7271 20.6295C23.7486 20.6295 23.7658 20.6553 23.7658 20.6898C23.7658 20.7199 23.8389 20.7844 23.9293 20.8274C24.0798 20.9048 24.2304 20.9091 26.3899 20.9091H28.6913L28.8333 20.8102C29.1086 20.6123 29.2204 20.1994 29.0828 19.8853C29.0096 19.7133 28.8075 19.5025 28.7515 19.5326C28.73 19.5498 28.7128 19.5412 28.7128 19.5154C28.7128 19.4466 24.1186 19.4595 23.9938 19.5283Z" fill="#EF2B7B"/>
<path id="Vector_4" d="M28.8551 23.6411C28.4594 23.7013 27.7453 23.8906 27.7324 23.9379C27.7238 23.9637 27.7023 23.9723 27.6808 23.9594C27.6033 23.9121 26.0461 24.7552 26.0461 24.8456C26.0461 24.8671 26.0203 24.8843 25.9902 24.8843C25.9128 24.8843 24.9406 25.8952 24.7255 26.1963C24.4071 26.6437 23.9038 27.7019 23.792 28.1579C23.521 29.2205 23.521 30.369 23.7877 31.4445C23.8307 31.6079 23.8823 31.7714 23.9038 31.8015C23.9296 31.8273 23.934 31.8531 23.9167 31.8531C23.8995 31.8531 23.9081 31.8832 23.9383 31.9176C23.9684 31.9521 23.977 31.9822 23.9641 31.9822C23.921 31.9822 24.5018 33.0877 24.6652 33.3157C24.7384 33.4233 24.833 33.5566 24.8717 33.6168C25.0653 33.9051 26.1795 34.9504 26.2956 34.9504C26.3214 34.9504 26.3472 34.9676 26.3558 34.9848C26.3816 35.0493 27.1344 35.4494 27.4442 35.5655C27.7281 35.6731 27.8227 35.7032 28.3604 35.8709C28.7175 35.9828 28.8896 36 29.7886 36C30.6318 36 31.0189 35.9742 31.1566 35.8968C31.1953 35.8752 31.4061 35.8107 31.6169 35.7505C32.0298 35.6387 32.7353 35.3461 32.9332 35.2042C32.9977 35.1612 33.0709 35.1224 33.0967 35.1224C33.1225 35.1224 33.144 35.1009 33.144 35.0794C33.144 35.0536 33.1741 35.0364 33.2085 35.0364C33.2472 35.0364 33.2859 35.0063 33.2988 34.9719C33.3161 34.9375 33.3419 34.916 33.3591 34.9289C33.3806 34.9418 33.4107 34.9246 33.4322 34.8901C33.4494 34.86 33.5527 34.7697 33.6602 34.7009C33.9011 34.5374 34.271 34.1804 34.499 33.8964C34.5937 33.7803 34.7356 33.6125 34.8131 33.5265C34.8862 33.4405 34.9507 33.3458 34.9507 33.32C34.9507 33.2942 34.9722 33.2727 34.9937 33.2727C35.0195 33.2727 35.0368 33.2469 35.0368 33.2125C35.0368 33.1781 35.054 33.1436 35.0755 33.135C35.1572 33.1049 35.6433 32.0252 35.7465 31.638C35.8068 31.4143 35.8756 31.195 35.8971 31.1562C35.9745 31.0186 36.0003 30.6357 36.0003 29.7883C36.0003 28.9537 35.9745 28.5967 35.9014 28.459C35.8799 28.4203 35.824 28.244 35.7724 28.0633C35.6347 27.5471 35.14 26.4673 34.9894 26.3469C34.9765 26.334 34.955 26.3039 34.9464 26.2781C34.8776 26.0802 33.8151 25.0004 33.4322 24.7337C33.144 24.5359 32.8257 24.3423 32.6708 24.2777C32.6106 24.2519 32.4385 24.1702 32.2836 24.0971C32.1288 24.0239 31.9782 23.968 31.9524 23.9723C31.9223 23.9809 31.8965 23.9637 31.8965 23.9379C31.8965 23.9164 31.8836 23.8992 31.8664 23.9035C31.8449 23.9035 31.8018 23.8992 31.7674 23.882C31.6384 23.8347 31.3932 23.7658 31.0791 23.697C30.6963 23.6153 29.2681 23.5766 28.8551 23.6411ZM30.1715 26.5491C30.4167 26.7297 30.4339 26.8244 30.4339 28.0332V29.143H31.5007C32.6106 29.143 32.8041 29.1688 32.9805 29.328C33.1397 29.4657 33.187 29.5818 33.187 29.8313C33.187 30.0249 33.1698 30.0679 33.0192 30.2314L32.8472 30.412L31.6513 30.4335L30.4554 30.4551L30.4339 31.638C30.4124 32.735 30.4081 32.8296 30.3263 32.9372C30.1027 33.2426 29.595 33.2684 29.3455 32.9931C29.1563 32.7866 29.1434 32.6791 29.1434 31.5305V30.4335H28.0378C26.7989 30.4335 26.7172 30.4163 26.5322 30.1367C26.33 29.8356 26.4591 29.3925 26.7989 29.2291C26.9624 29.1516 27.0656 29.143 28.0593 29.143H29.1391L29.152 28.0117C29.1649 26.8846 29.1649 26.876 29.2724 26.7211C29.3326 26.6351 29.4058 26.562 29.4359 26.562C29.4617 26.562 29.4875 26.5448 29.4875 26.5233C29.4875 26.4071 30.008 26.4286 30.1715 26.5491Z" fill="#EF2B7B"/>
<path id="Vector_5" d="M21.3701 24.9635C21.3142 24.9721 21.2712 24.9979 21.2712 25.0237C21.2712 25.0495 21.2583 25.0581 21.2454 25.0452C21.211 25.0108 20.9228 25.2818 19.7613 26.4476L18.8235 27.3853L18.3804 26.9466C18.1352 26.7057 17.8599 26.4734 17.7653 26.4304C17.1673 26.155 16.578 26.6497 16.7587 27.2864C16.806 27.4628 16.9135 27.5875 17.5459 28.2242C17.9503 28.6328 18.3589 29.0028 18.4536 29.0544C18.6514 29.162 18.9181 29.1706 19.1332 29.0802C19.2709 29.0243 21.8003 26.5551 22.0971 26.1809C22.2434 26.0002 22.3165 25.7507 22.2778 25.5528C22.2477 25.3936 22.0068 25.0538 21.9079 25.028C21.7186 24.985 21.4519 24.9506 21.3701 24.9635Z" fill="#EF2B7B"/>
</g>
</g>
<defs>
<filter id="filter0_b_883_1371" x="-40" y="-40" width="130" height="130" filterUnits="userSpaceOnUse" color-interpolation-filters="sRGB">
<feFlood flood-opacity="0" result="BackgroundImageFix"/>
<feGaussianBlur in="BackgroundImageFix" stdDeviation="20"/>
<feComposite in2="SourceAlpha" operator="in" result="effect1_backgroundBlur_883_1371"/>
<feBlend mode="normal" in="SourceGraphic" in2="effect1_backgroundBlur_883_1371" result="shape"/>
</filter>
</defs>
</svg>
