<svg width="30" height="64" viewBox="0 0 30 64" fill="none" xmlns="http://www.w3.org/2000/svg">
<g id="Group 1000003671" opacity="0.2">
<g id="Clip path group">
<mask id="mask0_928_10815" style="mask-type:luminance" maskUnits="userSpaceOnUse" x="4" y="18" width="9" height="46">
<g id="69b8c18b5a">
<path id="Vector" d="M12.254 18.7601H4.98389V63.1985H12.254V18.7601Z" fill="white"/>
</g>
</mask>
<g mask="url(#mask0_928_10815)">
<g id="Group">
<path id="Vector_2" d="M12.0154 19.9528C12.0154 19.9528 9.09037 30.0628 8.4088 36.9892C7.72723 43.9128 7.1763 63.1842 7.1763 63.1842L5.52065 62.9343C5.52065 62.9343 5.79612 43.5152 6.70488 36.9778C7.61364 30.4405 8.93986 22.8324 10.002 20.1686C11.0641 17.5077 12.0154 19.9528 12.0154 19.9528Z" fill="#35601A"/>
</g>
</g>
</g>
<g id="Clip path group_2">
<mask id="mask1_928_10815" style="mask-type:luminance" maskUnits="userSpaceOnUse" x="0" y="0" width="30" height="23">
<g id="f8bfa86324">
<path id="Vector_3" d="M29.9635 0H0V22.3952H29.9635V0Z" fill="white"/>
</g>
</mask>
<g mask="url(#mask1_928_10815)">
<g id="Group_2">
<path id="Vector_4" d="M13.9864 20.8447C16.0141 21.691 18.1241 22.1425 20.3193 22.2022C20.8021 22.2107 21.2849 22.1823 21.7648 22.117C22.2419 22.0517 22.7162 21.9523 23.1791 21.816C23.6448 21.6796 24.0964 21.5092 24.5366 21.3076C24.9739 21.1031 25.397 20.8674 25.8003 20.6005C26.2064 20.3335 26.5869 20.0382 26.9476 19.7116C27.3083 19.3879 27.6405 19.0386 27.9501 18.6637C28.2568 18.2888 28.5351 17.8941 28.785 17.4766C29.0349 17.0592 29.2507 16.6275 29.4353 16.1788C29.7023 15.554 29.867 14.9037 29.9323 14.2278C29.9323 14.2278 26.8851 15.7841 25.9764 16.1845C25.0676 16.5849 21.6484 18.2406 21.6484 18.2406C21.6484 18.2406 27.3537 14.1511 25.5589 6.79587C25.5589 6.79587 23.1223 6.96342 22.6196 7.33544C22.6196 7.33544 22.3243 3.07564 21.7932 2.18676C21.7932 2.18676 20.6772 2.19527 19.7769 3.71745C19.7769 3.71745 19.0244 2.79733 18.5671 2.28047C18.1071 1.76078 15.6705 2.78313 14.8639 3.73449C14.8639 3.73449 13.7621 1.28084 12.4018 0.221563C12.4018 0.221563 12.078 -0.00562616 10.9733 1.39443C9.86861 2.79733 9.92541 3.0302 9.92541 3.0302C9.92541 3.0302 8.61339 2.24639 8.24704 2.01352C7.8807 1.78065 6.88106 2.79165 6.43236 3.98155C5.9865 5.16862 5.37593 8.34644 5.37593 8.34644C5.37593 8.34644 4.99255 7.93182 4.52397 6.87255C4.05823 5.81611 3.25738 4.61769 2.40542 4.04119C1.5563 3.4647 1.30355 3.3795 1.30355 3.3795C1.30355 3.3795 0.502707 5.72524 0.630501 7.8523C0.758295 9.97937 2.67521 21.0293 10.6183 20.8703L13.9864 20.8447Z" fill="#FF4D7E"/>
</g>
</g>
</g>
<path id="Vector_5" d="M2.22081 11.7259C2.22081 11.7259 3.78558 13.7819 4.44159 14.4834C5.80757 15.9402 11.2573 18.4365 10.9989 19.7655C10.7433 21.0974 8.66732 22.5373 5.27652 20.9384C1.88571 19.3424 0.0369492 14.0773 2.22081 11.7259Z" fill="#ED356E"/>
<path id="Vector_6" d="M18.834 17.0251C18.834 17.0251 20.5407 19.6946 20.447 21.0946C20.3533 22.4918 18.1354 24.3889 15.96 24.0595C13.7818 23.7272 11.5469 22.6225 10.8568 21.7563C10.1667 20.8873 9.75206 19.7059 11.473 19.2004C13.1968 18.6978 17.2891 17.3829 18.2092 16.9285C18.6693 16.6985 18.834 17.0251 18.834 17.0251Z" fill="#ED356E"/>
<path id="Vector_7" d="M23.6646 7.79266C23.6646 7.79266 20.9667 8.4004 19.3763 9.93677C17.7832 11.4731 15.7896 13.6144 15.3693 16.7042C15.3693 16.7042 18.709 9.22396 23.6646 7.79266Z" fill="#FCCF8B"/>
<path id="Vector_8" d="M6.86691 4.19473C6.86691 4.19473 5.76504 7.16807 6.24214 9.66716C6.72208 12.1634 7.51724 15.4179 10.2123 17.7409C10.2094 17.7409 5.14879 9.86311 6.86691 4.19473Z" fill="#FCCF8B"/>
<path id="Vector_9" d="M9.39988 6.27614C9.39988 6.27614 13.2451 9.41988 13.6909 12.1348C14.1368 14.8497 13.1059 18.0247 13.1059 18.0247C13.1059 18.0247 14.5883 11.2118 9.39988 6.27614Z" fill="#FCCF8B"/>
<path id="Vector_10" d="M17.8174 3.02171C17.8174 3.02171 13.8075 4.10938 11.5356 7.67627C11.5356 7.67627 13.1714 3.63797 17.8174 3.02171Z" fill="#FCCF8B"/>
<path id="Vector_11" d="M18.4393 2.72923C18.817 3.11262 19.1436 3.53576 19.4248 3.99582C19.7002 4.4502 19.9104 4.93297 20.0552 5.44415C20.2029 5.95533 20.2739 6.47503 20.2654 7.00608C20.2682 7.27303 20.2512 7.53998 20.2199 7.80409C20.2057 7.93756 20.1859 8.07103 20.1575 8.20451C20.1347 8.33514 20.112 8.47146 20.0922 8.60493C20.1404 8.47998 20.1859 8.35218 20.2285 8.22439L20.2966 8.02844L20.3307 7.93188L20.3591 7.82681C20.4301 7.55702 20.4755 7.28723 20.4983 7.00892C20.5125 6.87261 20.521 6.73345 20.5181 6.5943L20.4954 6.17968C20.4926 6.10868 20.4841 6.04052 20.4699 5.97237L20.4329 5.76506L20.396 5.56059C20.379 5.49243 20.3563 5.42143 20.3392 5.35896C20.2597 5.09201 20.1631 4.83074 20.0439 4.57799L19.8451 4.21165C19.7741 4.09521 19.6946 3.98162 19.6179 3.86518C19.5384 3.75159 19.4475 3.64651 19.3623 3.5386C19.2771 3.43068 19.1806 3.33413 19.0868 3.23757C18.8909 3.04446 18.6751 2.87407 18.4393 2.72923Z" fill="#FCCF8B"/>
<path id="Vector_12" d="M12.0013 0.815086C11.6577 1.07351 11.351 1.36886 11.0784 1.70397C10.8029 2.03623 10.5587 2.38838 10.3485 2.76324C10.2406 2.95067 10.1469 3.14662 10.0532 3.33973C9.95663 3.53285 9.87712 3.73448 9.81748 3.94179C9.67265 4.34789 9.58177 4.76819 9.54201 5.19985C9.70105 4.79943 9.84304 4.40469 10.0276 4.02698C10.198 3.6436 10.3883 3.27158 10.5984 2.91091C10.8029 2.54457 11.0273 2.18958 11.2601 1.84312C11.4958 1.49382 11.7429 1.15303 12.0013 0.815086Z" fill="#FCCF8B"/>
<path id="Vector_13" d="M29.2534 15.2246C28.9694 15.9459 28.6031 16.6218 28.1487 17.2494C28.0351 17.4056 27.93 17.5618 27.8051 17.7095C27.683 17.8571 27.5751 18.0133 27.4387 18.1496C27.3053 18.286 27.186 18.4365 27.0525 18.5728L26.6379 18.9675C26.5016 19.1067 26.3511 19.2174 26.2062 19.3424L25.9876 19.527C25.9109 19.5838 25.8314 19.6377 25.7547 19.6945L25.2918 20.0325C25.1271 20.129 24.9652 20.2313 24.8033 20.3307L24.5591 20.484C24.4768 20.5323 24.3887 20.5721 24.3035 20.6232L23.7952 20.893C23.71 20.9384 23.6219 20.981 23.5339 21.0179L23.2698 21.1343C23.0937 21.2139 22.9177 21.2934 22.7416 21.3757C22.9262 21.3246 23.1136 21.2678 23.2925 21.211L23.5879 21.123C23.6816 21.0946 23.7725 21.0634 23.8633 21.0236L24.4001 20.7964C24.491 20.7566 24.5818 20.7197 24.6699 20.6743L24.9255 20.538C25.0987 20.4443 25.2691 20.3505 25.4395 20.2597L25.9279 19.9302C26.0103 19.8763 26.0898 19.8223 26.1693 19.7627L26.3965 19.5781C26.5442 19.4503 26.7061 19.3339 26.8452 19.1976C27.4274 18.6608 27.9272 18.0559 28.3447 17.3829C28.7735 16.7183 29.0773 15.997 29.2534 15.2246Z" fill="#FCCF8B"/>
<path id="Vector_14" d="M1.61866 4.79954C1.37727 5.37887 1.24664 5.98092 1.22392 6.60854C1.19268 7.23615 1.2438 7.85524 1.38295 8.46865C1.41419 8.61917 1.46815 8.76968 1.50791 8.92019L1.57322 9.14454C1.59878 9.21838 1.62718 9.28086 1.65558 9.36321L1.82881 9.79487C1.89697 9.93403 1.96796 10.0732 2.03896 10.2123L2.14688 10.4196C2.1838 10.4878 2.22639 10.5588 2.26899 10.6156L2.52458 11.0132C2.70349 11.2631 2.90512 11.4988 3.10107 11.7317C2.95624 11.4562 2.78869 11.2035 2.64669 10.9365L2.43938 10.5276C2.40531 10.4594 2.36839 10.3912 2.33715 10.3259L2.24911 10.1186C2.18948 9.97947 2.12984 9.84031 2.06736 9.70116L1.91969 9.27518C1.89697 9.20418 1.86857 9.13602 1.84585 9.06219L1.78621 8.84352C1.74929 8.69868 1.69818 8.55385 1.67262 8.40618L1.58174 7.966C1.55334 7.81832 1.53914 7.66781 1.51643 7.52014C1.47951 7.21911 1.45679 6.91808 1.45111 6.61706C1.43407 6.00364 1.49087 5.39875 1.61866 4.79954Z" fill="#FCCF8B"/>
<path id="Vector_15" d="M24.6643 8.60491C24.7466 9.37736 24.7324 10.1441 24.6245 10.9109C24.5961 11.1012 24.5734 11.2943 24.5308 11.4789C24.491 11.6663 24.4655 11.8566 24.4087 12.0412C24.3519 12.2258 24.315 12.4132 24.261 12.5949L24.0764 13.1373C24.0168 13.3191 23.9372 13.4923 23.8634 13.6712L23.7555 13.9354C23.7157 14.0206 23.6675 14.1057 23.6249 14.1909L23.3721 14.705C23.2727 14.8697 23.1733 15.0344 23.0768 15.1991L22.9319 15.4433C22.8808 15.5257 22.8212 15.6024 22.7672 15.6819L22.4378 16.1561C22.3867 16.2385 22.327 16.3152 22.2674 16.389L22.0857 16.6162C21.9664 16.7667 21.8443 16.9201 21.7278 17.0763C21.867 16.9371 22.0033 16.8065 22.1424 16.6702L22.3469 16.4685C22.4179 16.4004 22.4832 16.3265 22.5457 16.2527L22.9149 15.7983C22.9774 15.7216 23.0398 15.6478 23.0995 15.5683L23.2614 15.3241C23.3721 15.1622 23.48 15.0003 23.5879 14.8356L23.8634 14.3159C23.9088 14.2307 23.9571 14.1427 23.9997 14.0546L24.119 13.7792C24.19 13.5974 24.2809 13.4185 24.3405 13.2311C24.6131 12.487 24.7778 11.7203 24.8403 10.9308C24.917 10.147 24.8602 9.37168 24.6643 8.60491Z" fill="#FCCF8B"/>
</g>
</svg>
