<svg width="30" height="50" viewBox="0 0 30 50" fill="none" xmlns="http://www.w3.org/2000/svg">
<g id="Group 1000003818">
<g id="Group 1000003670">
<g id="Clip path group">
<mask id="mask0_928_10837" style="mask-type:luminance" maskUnits="userSpaceOnUse" x="14" y="14" width="7" height="36">
<g id="69b8c18b5a">
<path id="Vector" d="M14.4757 14.9039H20.1041V49.3076H14.4757V14.9039Z" fill="white"/>
</g>
</mask>
<g mask="url(#mask0_928_10837)">
<g id="Group">
<path id="Vector_2" d="M14.6605 15.8272C14.6605 15.8272 16.9251 23.6543 17.4527 29.0167C17.9804 34.3769 18.4069 49.2966 18.4069 49.2966L19.6887 49.1031C19.6887 49.1031 19.4755 34.0691 18.7719 29.0079C18.0684 23.9467 17.0416 18.0566 16.2193 15.9943C15.3971 13.9342 14.6605 15.8272 14.6605 15.8272Z" fill="#35601A"/>
</g>
</g>
</g>
<g id="Clip path group_2">
<mask id="mask1_928_10837" style="mask-type:luminance" maskUnits="userSpaceOnUse" x="0" y="0" width="24" height="18">
<g id="f8bfa86324">
<path id="Vector_3" d="M0.765137 0.379944H23.9626V17.7181H0.765137V0.379944Z" fill="white"/>
</g>
</mask>
<g mask="url(#mask1_928_10837)">
<g id="Group_2">
<path id="Vector_4" d="M13.1346 16.5178C11.5648 17.173 9.93122 17.5225 8.2317 17.5687C7.85794 17.5753 7.48418 17.5533 7.11261 17.5028C6.74325 17.4522 6.37608 17.3752 6.01771 17.2697C5.65714 17.1642 5.30756 17.0323 4.96677 16.8762C4.62819 16.7179 4.3006 16.5354 3.9884 16.3287C3.674 16.122 3.37938 15.8934 3.10016 15.6405C2.82094 15.3899 2.5637 15.1195 2.32405 14.8293C2.0866 14.539 1.87114 14.2334 1.67766 13.9102C1.48419 13.587 1.31709 13.2529 1.17418 12.9055C0.967515 12.4218 0.839997 11.9183 0.789429 11.395C0.789429 11.395 3.14853 12.5999 3.85208 12.9099C4.55564 13.2199 7.20275 14.5017 7.20275 14.5017C7.20275 14.5017 2.78576 11.3357 4.17528 5.6413C4.17528 5.6413 6.06168 5.77101 6.45083 6.05903C6.45083 6.05903 6.67949 2.76113 7.09063 2.07296C7.09063 2.07296 7.95468 2.07956 8.65163 3.25801C8.65163 3.25801 9.23426 2.54566 9.58824 2.14552C9.94441 1.74317 11.8308 2.53467 12.4552 3.2712C12.4552 3.2712 13.3083 1.37161 14.3614 0.55153C14.3614 0.55153 14.612 0.375641 15.4673 1.45955C16.3226 2.54566 16.2786 2.72595 16.2786 2.72595C16.2786 2.72595 17.2943 2.11913 17.578 1.93885C17.8616 1.75856 18.6355 2.54127 18.9829 3.46248C19.3281 4.3815 19.8008 6.84173 19.8008 6.84173C19.8008 6.84173 20.0976 6.52074 20.4603 5.70066C20.8209 4.88278 21.4409 3.95497 22.1005 3.50865C22.7579 3.06233 22.9535 2.99638 22.9535 2.99638C22.9535 2.99638 23.5736 4.81242 23.4746 6.45918C23.3757 8.10593 21.8916 16.6607 15.7421 16.5376L13.1346 16.5178Z" fill="#FF4D7E"/>
</g>
</g>
</g>
<path id="Vector_5" d="M22.2433 9.45804C22.2433 9.45804 21.0319 11.0498 20.524 11.5929C19.4665 12.7208 15.2474 14.6533 15.4474 15.6823C15.6453 16.7134 17.2525 17.8281 19.8776 16.5903C22.5028 15.3547 23.934 11.2785 22.2433 9.45804Z" fill="#ED356E"/>
<path id="Vector_6" d="M9.38145 13.5606C9.38145 13.5606 8.06009 15.6273 8.13264 16.7112C8.2052 17.7929 9.92231 19.2616 11.6064 19.0066C13.2928 18.7493 15.0231 17.8941 15.5573 17.2235C16.0916 16.5507 16.4126 15.6361 15.0802 15.2447C13.7457 14.8556 10.5775 13.8376 9.86514 13.4859C9.50897 13.3078 9.38145 13.5606 9.38145 13.5606Z" fill="#ED356E"/>
<path id="Vector_7" d="M5.64172 6.41294C5.64172 6.41294 7.7304 6.88344 8.96161 8.07289C10.195 9.26233 11.7385 10.9201 12.0638 13.3122C12.0638 13.3122 9.47829 7.52104 5.64172 6.41294Z" fill="#FCCF8B"/>
<path id="Vector_8" d="M18.6464 3.62737C18.6464 3.62737 19.4994 5.92931 19.13 7.86408C18.7585 9.79665 18.1429 12.3163 16.0564 14.1147C16.0586 14.1147 19.9765 8.01579 18.6464 3.62737Z" fill="#FCCF8B"/>
<path id="Vector_9" d="M16.6852 5.2389C16.6852 5.2389 13.7083 7.67275 13.3631 9.77462C13.0179 11.8765 13.816 14.3345 13.816 14.3345C13.816 14.3345 12.6683 9.06007 16.6852 5.2389Z" fill="#FCCF8B"/>
<path id="Vector_10" d="M10.1685 2.71929C10.1685 2.71929 13.2729 3.56136 15.0318 6.3228C15.0318 6.3228 13.7654 3.19639 10.1685 2.71929Z" fill="#FCCF8B"/>
<path id="Vector_11" d="M9.68707 2.49289C9.39465 2.7897 9.14182 3.11729 8.92415 3.47347C8.71089 3.82524 8.54819 4.19901 8.43606 4.59475C8.32174 4.9905 8.26677 5.39285 8.27337 5.80399C8.27117 6.01065 8.28436 6.21732 8.30855 6.42179C8.31954 6.52513 8.33493 6.62846 8.35691 6.7318C8.3745 6.83293 8.39209 6.93847 8.40748 7.0418C8.37011 6.94506 8.33493 6.84612 8.30195 6.74719L8.24918 6.59548L8.2228 6.52073L8.20081 6.43938C8.14585 6.23051 8.11067 6.02165 8.09308 5.80618C8.08209 5.70065 8.07549 5.59292 8.07769 5.48519L8.09528 5.16419C8.09748 5.10923 8.10408 5.05646 8.11507 5.00369L8.14365 4.8432L8.17223 4.6849C8.18542 4.63213 8.20301 4.57717 8.2162 4.5288C8.27776 4.32213 8.35252 4.11986 8.44486 3.92418L8.59876 3.64056C8.65373 3.55042 8.71529 3.46247 8.77465 3.37233C8.83621 3.28439 8.90657 3.20304 8.97252 3.11949C9.03848 3.03594 9.11323 2.96119 9.18579 2.88644C9.33749 2.73693 9.50459 2.60502 9.68707 2.49289Z" fill="#FCCF8B"/>
<path id="Vector_12" d="M14.6713 1.01094C14.9373 1.21101 15.1747 1.43967 15.3858 1.6991C15.5991 1.95634 15.7882 2.22897 15.9509 2.51918C16.0344 2.66429 16.107 2.81599 16.1795 2.9655C16.2543 3.115 16.3158 3.2711 16.362 3.4316C16.4741 3.746 16.5445 4.0714 16.5753 4.40558C16.4521 4.09558 16.3422 3.78997 16.1993 3.49756C16.0674 3.20075 15.9201 2.91273 15.7574 2.63351C15.5991 2.34989 15.4254 2.07506 15.2451 1.80683C15.0626 1.53641 14.8713 1.27257 14.6713 1.01094Z" fill="#FCCF8B"/>
<path id="Vector_13" d="M1.31482 12.1666C1.53468 12.7251 1.8183 13.2483 2.17008 13.7342C2.25802 13.8552 2.33937 13.9761 2.43611 14.0904C2.53065 14.2047 2.61419 14.3257 2.71973 14.4312C2.82306 14.5367 2.9154 14.6533 3.01874 14.7588L3.33973 15.0644C3.44527 15.1721 3.56179 15.2579 3.67392 15.3546L3.84321 15.4975C3.90258 15.5415 3.96414 15.5833 4.0235 15.6272L4.38187 15.8889C4.50939 15.9636 4.63471 16.0428 4.76003 16.1197L4.94911 16.2384C5.01287 16.2758 5.08103 16.3066 5.14698 16.3462L5.54053 16.555C5.60649 16.5902 5.67465 16.6232 5.74281 16.6518L5.94728 16.7419C6.08359 16.8035 6.2199 16.865 6.35622 16.9288C6.21331 16.8892 6.0682 16.8453 5.92969 16.8013L5.70103 16.7331C5.62848 16.7111 5.55812 16.687 5.48777 16.6562L5.07223 16.4803C5.00188 16.4495 4.93152 16.4209 4.86336 16.3858L4.66549 16.2802C4.53138 16.2077 4.39946 16.1351 4.26754 16.0648L3.88938 15.8097C3.82562 15.7679 3.76406 15.7262 3.7025 15.68L3.52661 15.5371C3.41229 15.4382 3.28697 15.348 3.17923 15.2425C2.72852 14.8269 2.34157 14.3586 2.01837 13.8376C1.68638 13.3231 1.45113 12.7647 1.31482 12.1666Z" fill="#FCCF8B"/>
<path id="Vector_14" d="M22.7094 4.09567C22.8963 4.54419 22.9975 5.01029 23.015 5.49618C23.0392 5.98207 22.9997 6.46137 22.8919 6.93627C22.8677 7.05279 22.826 7.16932 22.7952 7.28585L22.7446 7.45954C22.7248 7.5167 22.7028 7.56507 22.6809 7.62883L22.5467 7.96302C22.494 8.07075 22.439 8.17848 22.384 8.28621L22.3005 8.44671C22.2719 8.49948 22.2389 8.55444 22.206 8.59841L22.0081 8.90622C21.8696 9.09969 21.7135 9.28218 21.5618 9.46246C21.6739 9.2492 21.8036 9.05352 21.9135 8.84685L22.074 8.53026C22.1004 8.47749 22.129 8.42472 22.1532 8.37415L22.2213 8.21366C22.2675 8.10593 22.3137 7.99819 22.3621 7.89046L22.4764 7.56067C22.494 7.50571 22.516 7.45294 22.5336 7.39578L22.5797 7.22648C22.6083 7.11435 22.6479 7.00223 22.6677 6.8879L22.738 6.54712C22.76 6.43279 22.771 6.31626 22.7886 6.20193C22.8172 5.96888 22.8348 5.73583 22.8392 5.50278C22.8523 5.02788 22.8084 4.55958 22.7094 4.09567Z" fill="#FCCF8B"/>
<path id="Vector_15" d="M4.86772 7.04171C4.80396 7.63973 4.81495 8.23335 4.8985 8.82698C4.92049 8.97428 4.93807 9.12379 4.97105 9.2667C5.00183 9.4118 5.02162 9.55911 5.06559 9.70202C5.10957 9.84493 5.13815 9.99004 5.17992 10.1307L5.32283 10.5507C5.369 10.6914 5.43056 10.8255 5.48773 10.964L5.57127 11.1685C5.60205 11.2344 5.63943 11.3004 5.67241 11.3664L5.86808 11.7643C5.94503 11.8918 6.02199 12.0193 6.09674 12.1469L6.20887 12.3359C6.24844 12.3997 6.29461 12.4591 6.33639 12.5206L6.59142 12.8878C6.631 12.9516 6.67717 13.0109 6.72334 13.0681L6.86405 13.244C6.95639 13.3605 7.05093 13.4792 7.14107 13.6001C7.03334 13.4924 6.92781 13.3913 6.82008 13.2857L6.66178 13.1296C6.60681 13.0769 6.55625 13.0197 6.50788 12.9625L6.22206 12.6108C6.17369 12.5514 6.12532 12.4942 6.07915 12.4327L5.95383 12.2436C5.86808 12.1183 5.78454 11.993 5.70099 11.8654L5.48773 11.4631C5.45255 11.3971 5.41517 11.329 5.38219 11.2608L5.28985 11.0476C5.23489 10.9069 5.16453 10.7683 5.11836 10.6232C4.90729 10.0472 4.77978 9.45358 4.73141 8.84237C4.67204 8.23555 4.71602 7.63533 4.86772 7.04171Z" fill="#FCCF8B"/>
</g>
<g id="Group 1000003669">
<path id="Vector_16" d="M25.3766 35.0613C23.4106 35.772 21.2214 34.7332 20.6409 32.7938C20.3859 31.9396 20.1866 31.0018 20.2743 30.3429C20.4775 28.8033 20.8402 28.0409 20.8402 28.0409C20.8402 28.0409 21.5628 28.1923 21.608 28.3663C21.6532 28.539 22.0145 27.5626 22.0145 27.5626C22.0145 27.5626 22.4887 27.8894 22.5565 28.1923C22.5565 28.1923 23.1728 27.8403 23.3973 27.8217C23.6231 27.8044 24.2209 27.8589 24.4268 28.2175C24.4268 28.2175 24.8572 27.9665 25.0631 27.9837C25.269 28.0023 25.4988 28.3902 25.7459 28.8644C26.1696 29.6761 25.7459 31.0749 25.7459 31.0749C25.7459 31.0749 26.0687 30.5608 26.782 30.0148C27.2748 29.6389 28.0546 29.421 28.1675 29.332C28.2804 29.243 28.5222 29.332 28.5036 29.5658C28.485 29.7996 27.7398 34.3294 25.4072 35.0441C25.3992 35.052 25.3872 35.0573 25.3766 35.0613Z" fill="#FF4D7E"/>
<path id="Vector_17" d="M23.4546 28.2043C23.2673 28.2866 23.0893 28.3863 22.9206 28.5045C22.7532 28.6187 22.5965 28.7463 22.4504 28.8871C22.1634 29.166 21.9296 29.4848 21.7503 29.8435C21.575 30.2008 21.4567 30.5754 21.3943 30.9673C21.3319 31.3605 21.3093 31.7564 21.3279 32.1536C21.2681 31.755 21.2628 31.3565 21.312 30.958C21.3611 30.5515 21.4753 30.1663 21.6573 29.7997C21.842 29.429 22.0891 29.1049 22.3986 28.8286C22.7067 28.547 23.0601 28.3385 23.4546 28.2043Z" fill="#FCCF8B"/>
<path id="Vector_18" d="M20.8481 28.4792C20.8295 28.6187 20.8202 28.7582 20.8189 28.899C20.8162 29.0385 20.8242 29.178 20.8455 29.3148C20.8561 29.3839 20.8707 29.4503 20.8893 29.5167C20.9092 29.5858 20.9292 29.6548 20.9451 29.7239C20.977 29.8634 21.0022 30.0015 21.0261 30.141C21.0726 30.42 21.1072 30.7016 21.1297 30.9832C21.155 31.2648 21.1629 31.5478 21.1523 31.8307C21.1244 31.5531 21.0832 31.2701 21.0474 30.9912C21.0115 30.7122 20.9677 30.4373 20.9212 30.1596C20.8999 30.0201 20.8747 29.882 20.8468 29.7425C20.8322 29.6734 20.8162 29.6044 20.799 29.5393C20.7817 29.4689 20.7697 29.3971 20.7631 29.3254C20.7392 29.0371 20.7684 28.7555 20.8481 28.4792Z" fill="#FCCF8B"/>
<path id="Vector_19" d="M27.1142 30.0122C26.9495 30.1623 26.7848 30.3124 26.6254 30.4665C26.466 30.6206 26.3066 30.7747 26.1498 30.9327C25.9931 31.0908 25.8417 31.2502 25.6942 31.4176C25.5481 31.585 25.4033 31.7497 25.2718 31.9237C25.1363 32.0964 25.0167 32.277 24.9091 32.467C24.8573 32.5613 24.8122 32.6583 24.7763 32.7592C24.7564 32.8084 24.7431 32.8629 24.7258 32.9133C24.7086 32.9651 24.6913 33.017 24.6753 33.0688C24.6116 33.2773 24.5518 33.4845 24.5 33.6984C24.4429 33.9083 24.403 34.1222 24.3804 34.3387C24.3791 34.2298 24.3844 34.1208 24.4004 34.0132C24.4137 33.9043 24.4296 33.7954 24.4495 33.6878C24.4894 33.4726 24.5385 33.26 24.5956 33.0475C24.6249 32.9412 24.6528 32.8403 24.6873 32.7314C24.7232 32.6251 24.767 32.5215 24.8188 32.4232C24.9264 32.2266 25.0486 32.0393 25.1868 31.8626C25.4631 31.5119 25.7646 31.1851 26.0914 30.8809C26.4155 30.5714 26.7569 30.2818 27.1142 30.0122Z" fill="#FCCF8B"/>
<path id="Vector_20" d="M25.0247 28.2043C25.1987 28.365 25.3355 28.5536 25.4351 28.7675C25.5374 28.9774 25.6105 29.1966 25.657 29.4264L25.6849 29.5978C25.6955 29.6549 25.6968 29.712 25.7035 29.7691C25.7128 29.8847 25.7167 30.0003 25.7128 30.1158C25.7128 30.2301 25.6968 30.3456 25.6888 30.4625C25.6795 30.5808 25.6503 30.6897 25.6264 30.8013C25.6264 30.6857 25.6344 30.5728 25.637 30.4599V30.2898C25.637 30.2327 25.637 30.1769 25.6331 30.1198C25.6277 30.064 25.6251 30.0069 25.6224 29.9511C25.6211 29.8953 25.6105 29.8395 25.6052 29.7837C25.5985 29.7266 25.5959 29.6708 25.5839 29.6164L25.5547 29.4503C25.5108 29.2285 25.4458 29.0133 25.3621 28.8047C25.277 28.5895 25.1641 28.3889 25.0247 28.2043Z" fill="#FCCF8B"/>
<path id="Vector_21" d="M24.3805 28.4792C24.4217 28.5948 24.4562 28.7117 24.4828 28.8326C24.5107 28.9508 24.5332 29.073 24.5518 29.1939C24.5877 29.437 24.609 29.6814 24.6116 29.9272C24.6183 30.4213 24.5691 30.9088 24.4655 31.391C24.3592 31.8746 24.2065 32.3421 24.0072 32.7951C23.8066 33.2494 23.5662 33.6798 23.2859 34.0876C23.5303 33.6612 23.7442 33.2202 23.9302 32.7646C24.1135 32.3129 24.2569 31.8467 24.3605 31.3698C24.4642 30.8929 24.52 30.412 24.5293 29.9258C24.5332 29.6827 24.5239 29.4396 24.5014 29.1979C24.4801 28.9548 24.4402 28.7157 24.3805 28.4792Z" fill="#FCCF8B"/>
<g id="Clip path group_3">
<mask id="mask2_928_10837" style="mask-type:luminance" maskUnits="userSpaceOnUse" x="21" y="34" width="3" height="15">
<g id="afe08c7415">
<path id="Vector_22" d="M21.0569 34.8102H23.4373V48.5603H21.0569V34.8102Z" fill="white"/>
</g>
</mask>
<g mask="url(#mask2_928_10837)">
<g id="Group_3">
<path id="Vector_23" d="M23.3709 35.376C23.3709 35.376 22.538 38.4778 22.2936 40.5859C22.0505 42.6941 21.7064 48.5615 21.7064 48.5615L21.3013 48.5017C21.3013 48.5017 21.5776 42.5997 21.8725 40.6045C22.1674 38.6106 22.5792 36.286 22.8701 35.465C23.1623 34.6454 23.3709 35.376 23.3709 35.376Z" fill="#35601A"/>
</g>
</g>
</g>
<path id="Vector_24" d="M21.8325 35.3377C21.8325 35.3377 19.9781 34.5805 19.1346 33.5709C18.2911 32.5627 17.3028 30.2686 17.5459 30.1636C17.789 30.0574 21.3145 31.1984 22.1739 32.5441C23.2605 34.2497 23.5634 35.8424 21.8325 35.3377Z" fill="#ED356E"/>
<g id="Clip path group_4">
<mask id="mask3_928_10837" style="mask-type:luminance" maskUnits="userSpaceOnUse" x="22" y="33" width="8" height="4">
<g id="f7a400e670">
<path id="Vector_25" d="M22.7572 33.45H29.8707V36.1706H22.7572V33.45Z" fill="white"/>
</g>
</mask>
<g mask="url(#mask3_928_10837)">
<g id="Group_4">
<path id="Vector_26" d="M23.0587 35.1252C23.0587 35.1252 23.432 34.2192 24.0138 33.9456C24.5943 33.6733 25.8908 33.6042 26.7436 33.8433C27.5965 34.0824 28.525 34.4836 29.6129 34.3547C29.6129 34.3547 28.873 35.7416 28.1278 35.8983C27.3826 36.0564 24.043 36.3353 23.0587 35.1252Z" fill="#ED356E"/>
</g>
</g>
</g>
<g id="Clip path group_5">
<mask id="mask4_928_10837" style="mask-type:luminance" maskUnits="userSpaceOnUse" x="15" y="34" width="15" height="4">
<g id="62c6c1d70f">
<path id="Vector_27" d="M15.6157 34.1302H29.8705V37.5308H15.6157V34.1302Z" fill="white"/>
</g>
</mask>
<g mask="url(#mask4_928_10837)">
<g id="Group_5">
<path id="Vector_28" d="M29.836 37.2186C29.836 37.2186 29.2728 37.5148 27.7943 37.4431C26.3145 37.3714 23.6046 36.2688 23.0958 35.6551C23.0573 35.6086 23.0214 35.5595 22.9896 35.509C22.9431 35.5488 22.8939 35.5847 22.8434 35.6179C22.1646 36.0563 19.2329 36.3286 17.7996 35.9713C16.3676 35.6139 15.9213 35.1689 15.9213 35.1689C15.9213 35.1689 16.5522 35.0295 18.7228 34.3839C20.8921 33.7383 22.963 34.8634 22.963 34.8634C23.0055 34.8886 23.044 34.9205 23.0786 34.9577C23.1224 34.9325 23.1676 34.9139 23.2167 34.9006C23.2167 34.9006 25.5414 34.4264 27.4117 35.6644C29.2821 36.9011 29.836 37.2186 29.836 37.2186Z" fill="#35601A"/>
</g>
</g>
</g>
<g id="Clip path group_6">
<mask id="mask5_928_10837" style="mask-type:luminance" maskUnits="userSpaceOnUse" x="2" y="18" width="12" height="12">
<g id="0bc4d40630">
<path id="Vector_29" d="M2.01306 18.9986H13.2352V29.7093H2.01306V18.9986Z" fill="white"/>
</g>
</mask>
<g mask="url(#mask5_928_10837)">
<g id="Group_6">
<path id="Vector_30" d="M12.1632 27.7632C10.5546 29.983 7.40632 30.3695 5.33405 28.5828C4.42145 27.7938 3.50753 26.8732 3.11167 26.0616C2.18712 24.166 2.01709 23.0435 2.01709 23.0435C2.01709 23.0435 2.91507 22.6968 3.09308 22.8629C3.26975 23.0289 2.93766 21.6607 2.93766 21.6607C2.93766 21.6607 3.69749 21.6912 3.99504 21.9874C3.99504 21.9874 4.40286 21.1453 4.63267 20.9646C4.86248 20.7826 5.55323 20.4133 6.04473 20.6737C6.04473 20.6737 6.32502 20.0799 6.5628 19.9524C6.79925 19.8262 7.33857 20.1012 7.96025 20.4625C9.02163 21.0815 9.60213 22.9731 9.60213 22.9731C9.60213 22.9731 9.57025 22.1588 9.94219 21.0257C10.1972 20.2446 10.8827 19.4396 10.9385 19.2563C10.9943 19.0743 11.325 19.0013 11.4778 19.2802C11.6319 19.5592 14.189 25.2446 12.1898 27.7247C12.1818 27.7367 12.1725 27.7513 12.1632 27.7632Z" fill="#FF4D7E"/>
</g>
</g>
</g>
<path id="Vector_31" d="M4.97816 21.3538C4.83337 21.5823 4.71514 21.8241 4.62083 22.0778C4.52519 22.3275 4.44947 22.5852 4.39633 22.8469C4.28874 23.377 4.27279 23.9083 4.34453 24.4423C4.42024 24.975 4.57035 25.4851 4.79352 25.9739C5.01802 26.4654 5.289 26.9304 5.60383 27.3687C5.24251 26.9569 4.93964 26.5066 4.69788 26.0164C4.57434 25.7707 4.47205 25.5183 4.38969 25.2579C4.30866 24.9949 4.24756 24.7279 4.20903 24.4569C4.13464 23.907 4.16254 23.3623 4.29272 22.823C4.41626 22.2837 4.64474 21.7935 4.97816 21.3538Z" fill="#FCCF8B"/>
<path id="Vector_32" d="M2.34924 23.5337C2.43293 23.7051 2.52592 23.8711 2.62953 24.0332C2.73049 24.1926 2.84473 24.3427 2.97092 24.4848C3.03203 24.5539 3.09845 24.619 3.16752 24.6814C3.2366 24.7439 3.31232 24.8103 3.38139 24.8767C3.51954 25.0122 3.65105 25.1543 3.78123 25.2925C4.03761 25.5781 4.28469 25.8717 4.51848 26.1759C4.75759 26.4774 4.97545 26.7922 5.17337 27.1217C4.93427 26.8228 4.6832 26.5345 4.43613 26.2436C4.18905 25.954 3.93665 25.6671 3.67629 25.3855C3.54877 25.2473 3.41992 25.1078 3.28708 24.9697C3.218 24.9006 3.15424 24.8369 3.08384 24.7704C3.0121 24.7027 2.94569 24.631 2.88591 24.5539C2.6468 24.2457 2.46747 23.9057 2.34924 23.5337Z" fill="#FCCF8B"/>
<path id="Vector_33" d="M10.2969 20.784C10.2278 21.0722 10.1588 21.3605 10.103 21.6501C10.0472 21.9396 9.98607 22.2292 9.93293 22.5201C9.88113 22.8097 9.83463 23.102 9.79478 23.3942C9.75626 23.6865 9.72571 23.9787 9.7111 24.2723C9.6925 24.5645 9.69516 24.8554 9.72172 25.1477C9.73368 25.2925 9.75626 25.4346 9.7908 25.5754C9.80674 25.6445 9.83065 25.7149 9.85058 25.784C9.8705 25.853 9.89175 25.9221 9.91301 25.9952C9.99803 26.2781 10.0884 26.5584 10.1893 26.836C10.2836 27.1163 10.3992 27.3873 10.5347 27.6503C10.451 27.5268 10.3766 27.3993 10.3115 27.2651C10.2464 27.1323 10.1827 26.9981 10.1242 26.8613C10.0087 26.589 9.90371 26.306 9.80807 26.0297C9.76025 25.8902 9.71375 25.7521 9.66992 25.6046C9.63006 25.4572 9.60217 25.3097 9.5849 25.1583C9.55568 24.8594 9.54903 24.5605 9.5663 24.2603C9.60615 23.6652 9.68984 23.0767 9.82002 22.4949C9.94622 21.9157 10.1043 21.3445 10.2969 20.784Z" fill="#FCCF8B"/>
<path id="Vector_34" d="M6.68372 20.2273C6.99456 20.2871 7.28281 20.4027 7.54849 20.574C7.81549 20.7414 8.05859 20.938 8.27777 21.1638L8.43585 21.3378C8.49031 21.395 8.53415 21.4587 8.5833 21.5198C8.68027 21.6434 8.76927 21.7722 8.85163 21.9051C8.93797 22.0352 9.00439 22.1774 9.08011 22.3142C9.1545 22.4497 9.20631 22.5985 9.26343 22.7419C9.17841 22.6118 9.10136 22.4776 9.02033 22.3474L8.89148 22.1561C8.84897 22.091 8.81045 22.0259 8.7613 21.9648C8.71348 21.9051 8.66964 21.8426 8.62315 21.7815C8.57798 21.7191 8.52883 21.662 8.47968 21.6022C8.43186 21.5437 8.3867 21.4826 8.33223 21.4282L8.17947 21.2595C7.96693 21.039 7.73579 20.841 7.48871 20.663C7.23898 20.4824 6.97065 20.3376 6.68372 20.2273Z" fill="#FCCF8B"/>
<path id="Vector_35" d="M6.18701 21.0018C6.31852 21.1027 6.44472 21.2117 6.56294 21.3286C6.6825 21.4441 6.79541 21.5663 6.90832 21.6899C7.12883 21.9409 7.33207 22.204 7.51805 22.4803C7.89132 23.0355 8.20083 23.6253 8.44658 24.2483C8.69233 24.8713 8.87432 25.5129 8.99255 26.1718C9.11343 26.828 9.17188 27.4896 9.17055 28.1564C9.11874 27.4962 9.02443 26.8413 8.8876 26.1931C8.74945 25.5462 8.56082 24.9152 8.31906 24.3001C8.07597 23.6851 7.77841 23.0993 7.42639 22.54C7.24971 22.2597 7.05843 21.9901 6.85386 21.731C6.65062 21.4694 6.42878 21.2263 6.18701 21.0018Z" fill="#FCCF8B"/>
<path id="Vector_36" d="M10.2186 29.5592C10.2186 29.5592 11.62 33.6785 12.9232 36.2489C14.225 38.818 18.2114 45.7229 18.2114 45.7229L17.7279 45.9474C17.7279 45.9474 13.6392 39.0465 12.4782 36.569C11.3158 34.0903 10.0339 31.1559 9.74036 30.0161C9.44812 28.8751 10.2186 29.5592 10.2186 29.5592Z" fill="#35601A"/>
<path id="Vector_37" d="M8.51823 30.6166C8.51823 30.6166 5.94118 31.0855 4.27008 30.5475C2.60031 30.0082 -0.174672 28.1099 0.00864454 27.8163C0.193289 27.5228 4.87184 26.2914 6.80861 27.2026C9.2608 28.3583 10.7765 29.9497 8.51823 30.6166Z" fill="#ED356E"/>
<path id="Vector_38" d="M9.69378 29.4968C9.69378 29.4968 9.42545 28.2003 9.85053 27.4697C10.2756 26.7404 11.6359 25.7361 12.7398 25.3961C13.845 25.056 15.1521 24.8514 16.2387 23.9216C16.2387 23.9216 16.4632 26.0244 15.7724 26.7404C15.0804 27.4551 11.6611 30.1663 9.69378 29.4968Z" fill="#ED356E"/>
<path id="Vector_39" d="M18.6127 27.018C18.6127 27.018 18.2208 27.7592 16.5617 28.7369C14.9012 29.7146 11.1366 30.4067 10.1244 30.0733C10.0473 30.0494 9.97295 30.0188 9.89988 29.983C9.87996 30.0627 9.85339 30.1384 9.82151 30.2141C9.40706 31.1984 6.4275 33.6068 4.60497 34.2284C2.78376 34.8501 1.96814 34.6628 1.96814 34.6628C1.96814 34.6628 2.54997 34.0518 4.4283 31.7656C6.30795 29.4782 9.39112 29.2683 9.39112 29.2683C9.45753 29.2683 9.52262 29.2763 9.58639 29.2935C9.61561 29.2337 9.65148 29.1793 9.69531 29.1288C9.69531 29.1288 11.8685 26.9237 14.8215 26.9914C17.7732 27.0579 18.6127 27.018 18.6127 27.018Z" fill="#35601A"/>
</g>
</g>
</svg>
