<svg width="96" height="95" viewBox="0 0 96 95" fill="none" xmlns="http://www.w3.org/2000/svg">
<g id="Group 1000003669">
<path id="Vector" d="M80.807 51.1488C74.5467 53.4118 67.5757 50.104 65.7272 43.9282C64.9151 41.2083 64.2806 38.222 64.5597 36.1239C65.2069 31.2214 66.3617 28.7934 66.3617 28.7934C66.3617 28.7934 68.6628 29.2756 68.8066 29.8297C68.9504 30.3796 70.101 27.2706 70.101 27.2706C70.101 27.2706 71.6111 28.3112 71.8268 29.2756C71.8268 29.2756 73.7895 28.1547 74.5044 28.0954C75.2235 28.0405 77.127 28.2139 77.7826 29.356C77.7826 29.356 79.1531 28.5565 79.8088 28.6115C80.4644 28.6707 81.1962 29.9059 81.983 31.416C83.3323 34.0005 81.983 38.4546 81.983 38.4546C81.983 38.4546 83.0109 36.8176 85.2824 35.0791C86.8517 33.882 89.3347 33.1883 89.6942 32.9049C90.0538 32.6215 90.8236 32.9049 90.7644 33.6494C90.7052 34.3939 88.3322 48.8181 80.9043 51.0938C80.879 51.1192 80.8409 51.1361 80.807 51.1488Z" fill="#FF4D7E"/>
<path id="Vector_2" d="M74.6864 29.3137C74.09 29.5759 73.5232 29.8932 72.986 30.2697C72.453 30.6334 71.9539 31.0395 71.4886 31.4879C70.5749 32.3762 69.8304 33.3914 69.2594 34.5335C68.701 35.6713 68.3246 36.8642 68.1258 38.112C67.9269 39.3641 67.855 40.6246 67.9143 41.8894C67.7239 40.6204 67.707 39.3514 67.8635 38.0824C68.02 36.788 68.3838 35.5614 68.9633 34.3939C69.5513 33.2137 70.338 32.1816 71.3236 31.3018C72.305 30.405 73.4301 29.7409 74.6864 29.3137Z" fill="#FCCF8B"/>
<path id="Vector_3" d="M66.3871 30.1893C66.3279 30.6334 66.2983 31.0776 66.2941 31.526C66.2856 31.9701 66.311 32.4142 66.3787 32.8499C66.4125 33.0699 66.4591 33.2814 66.5183 33.4929C66.5817 33.7128 66.6452 33.9328 66.6959 34.1528C66.7975 34.5969 66.8778 35.0368 66.954 35.481C67.102 36.3693 67.212 37.266 67.2839 38.1628C67.3643 39.0595 67.3897 39.9605 67.3558 40.8615C67.267 39.9774 67.1359 39.0764 67.0216 38.1882C66.9074 37.2999 66.7678 36.4243 66.6198 35.5402C66.5521 35.096 66.4717 34.6561 66.3829 34.212C66.3364 33.992 66.2856 33.7721 66.2306 33.5648C66.1757 33.3406 66.1376 33.1122 66.1164 32.8838C66.0403 31.9659 66.1334 31.0691 66.3871 30.1893Z" fill="#FCCF8B"/>
<path id="Vector_4" d="M86.3399 35.0705C85.8154 35.5485 85.2909 36.0265 84.7833 36.5172C84.2757 37.0079 83.7681 37.4985 83.269 38.0019C82.7698 38.5053 82.2876 39.0129 81.8181 39.5458C81.3528 40.0788 80.8917 40.6033 80.473 41.1575C80.0415 41.7074 79.6608 42.2826 79.3182 42.8875C79.1532 43.1879 79.0094 43.4966 78.8952 43.8181C78.8317 43.9746 78.7894 44.1481 78.7344 44.3088C78.6795 44.4738 78.6245 44.6387 78.5737 44.8037C78.3707 45.4678 78.1803 46.1277 78.0154 46.8087C77.8335 47.477 77.7066 48.1581 77.6347 48.8476C77.6304 48.5007 77.6473 48.1538 77.6981 47.8112C77.7404 47.4644 77.7912 47.1175 77.8546 46.7749C77.9815 46.0896 78.138 45.4128 78.3199 44.736C78.413 44.3976 78.5018 44.0761 78.6118 43.7293C78.726 43.3909 78.8656 43.061 79.0305 42.7479C79.3732 42.1219 79.7623 41.5255 80.2022 40.9629C81.0821 39.8462 82.0423 38.8056 83.0829 37.8369C84.115 36.8514 85.2021 35.9292 86.3399 35.0705Z" fill="#FCCF8B"/>
<path id="Vector_5" d="M79.6863 29.3137C80.2404 29.8255 80.6761 30.4262 80.9933 31.1072C81.319 31.7755 81.5517 32.4735 81.6997 33.2053L81.7886 33.7509C81.8224 33.9328 81.8266 34.1147 81.8478 34.2966C81.8774 34.6646 81.8901 35.0326 81.8774 35.4006C81.8774 35.7644 81.8266 36.1324 81.8013 36.5046C81.7717 36.8811 81.6786 37.228 81.6025 37.5833C81.6025 37.2153 81.6278 36.8557 81.6363 36.4962V35.9547C81.6363 35.7729 81.6363 35.5952 81.6236 35.4133C81.6067 35.2356 81.5982 35.0538 81.5898 34.8761C81.5855 34.6984 81.5517 34.5208 81.5348 34.3431C81.5136 34.1612 81.5052 33.9836 81.4671 33.8101L81.374 33.2814C81.2344 32.575 81.0272 31.8897 80.7607 31.2256C80.49 30.5404 80.1304 29.9017 79.6863 29.3137Z" fill="#FCCF8B"/>
<path id="Vector_6" d="M77.6346 30.1893C77.7657 30.5573 77.8757 30.9295 77.9603 31.3145C78.0491 31.6909 78.121 32.0801 78.1803 32.465C78.2945 33.2391 78.3622 34.0174 78.3706 34.8C78.3918 36.3735 78.2353 37.9259 77.9053 39.4614C77.5669 41.0011 77.0805 42.49 76.446 43.9325C75.8073 45.3791 75.0416 46.7496 74.1491 48.0482C74.9274 46.6904 75.6084 45.286 76.2006 43.8352C76.7844 42.397 77.2412 40.9123 77.5712 39.3937C77.9011 37.8751 78.0787 36.3439 78.1084 34.7957C78.121 34.0216 78.0914 33.2476 78.0195 32.4777C77.9519 31.7036 77.825 30.9422 77.6346 30.1893Z" fill="#FCCF8B"/>
<g id="Clip path group">
<mask id="mask0_625_1441" style="mask-type:luminance" maskUnits="userSpaceOnUse" x="67" y="50" width="8" height="45">
<g id="afe08c7415">
<path id="Vector_7" d="M67.0515 50.3492H74.6316V94.1336H67.0515V50.3492Z" fill="white"/>
</g>
</mask>
<g mask="url(#mask0_625_1441)">
<g id="Group">
<path id="Vector_8" d="M74.4199 52.1511C74.4199 52.1511 71.7678 62.0281 70.9894 68.741C70.2154 75.454 69.1198 94.1377 69.1198 94.1377L67.8297 93.9474C67.8297 93.9474 68.7095 75.1537 69.6485 68.8002C70.5876 62.4511 71.8989 55.0486 72.8252 52.4345C73.7558 49.8246 74.4199 52.1511 74.4199 52.1511Z" fill="#35601A"/>
</g>
</g>
</g>
<path id="Vector_9" d="M69.5216 52.0286C69.5216 52.0286 63.6166 49.6175 60.9306 46.4027C58.2445 43.1922 55.0975 35.887 55.8715 35.5528C56.6456 35.2144 67.872 38.848 70.6087 43.1329C74.0689 48.5642 75.0333 53.6359 69.5216 52.0286Z" fill="#ED356E"/>
<g id="Clip path group_2">
<mask id="mask1_625_1441" style="mask-type:luminance" maskUnits="userSpaceOnUse" x="72" y="46" width="24" height="9">
<g id="f7a400e670">
<path id="Vector_10" d="M72.4657 46.0178H95.1172V54.6807H72.4657V46.0178Z" fill="white"/>
</g>
</mask>
<g mask="url(#mask1_625_1441)">
<g id="Group_2">
<path id="Vector_11" d="M73.4258 51.3517C73.4258 51.3517 74.6145 48.4669 76.4672 47.5955C78.3157 46.7284 82.4441 46.5084 85.1598 47.2698C87.8754 48.0312 90.8322 49.3087 94.2965 48.8984C94.2965 48.8984 91.9404 53.3144 89.5674 53.8136C87.1944 54.3169 76.5602 55.2052 73.4258 51.3517Z" fill="#ED356E"/>
</g>
</g>
</g>
<g id="Clip path group_3">
<mask id="mask2_625_1441" style="mask-type:luminance" maskUnits="userSpaceOnUse" x="49" y="48" width="47" height="12">
<g id="62c6c1d70f">
<path id="Vector_12" d="M49.7254 48.1836H95.1172V59.0123H49.7254V48.1836Z" fill="white"/>
</g>
</mask>
<g mask="url(#mask2_625_1441)">
<g id="Group_3">
<path id="Vector_13" d="M95.0074 58.0182C95.0074 58.0182 93.2138 58.9615 88.5059 58.7331C83.7937 58.5047 75.1646 54.9938 73.5445 53.0396C73.4218 52.8915 73.3076 52.735 73.2061 52.5743C73.058 52.7012 72.9015 52.8154 72.7408 52.9211C70.5793 54.317 61.2437 55.1841 56.6796 54.0463C52.1197 52.9084 50.6984 51.4914 50.6984 51.4914C50.6984 51.4914 52.7077 51.0472 59.6194 48.9915C66.527 46.9357 73.1215 50.5185 73.1215 50.5185C73.2568 50.5989 73.3795 50.7004 73.4895 50.8188C73.6291 50.7384 73.7729 50.6792 73.9294 50.6369C73.9294 50.6369 81.3319 49.1268 87.2877 53.0692C93.2435 57.0073 95.0074 58.0182 95.0074 58.0182Z" fill="#35601A"/>
</g>
</g>
</g>
<g id="Clip path group_4">
<mask id="mask3_625_1441" style="mask-type:luminance" maskUnits="userSpaceOnUse" x="6" y="0" width="37" height="35">
<g id="0bc4d40630">
<path id="Vector_14" d="M6.4104 0H42.1452V34.1062H6.4104V0Z" fill="white"/>
</g>
</mask>
<g mask="url(#mask3_625_1441)">
<g id="Group_4">
<path id="Vector_15" d="M38.7316 27.9094C33.6091 34.9777 23.5841 36.2086 16.9853 30.5193C14.0793 28.0067 11.1691 25.0753 9.90859 22.4908C6.96453 16.4546 6.4231 12.8803 6.4231 12.8803C6.4231 12.8803 9.28256 11.7763 9.84937 12.305C10.412 12.8338 9.35446 8.47693 9.35446 8.47693C9.35446 8.47693 11.774 8.57422 12.7215 9.5175C12.7215 9.5175 14.0201 6.8357 14.7519 6.26042C15.4837 5.68092 17.6833 4.50498 19.2484 5.33406C19.2484 5.33406 20.1409 3.44326 20.898 3.03719C21.651 2.63534 23.3684 3.51094 25.348 4.66149C28.7277 6.63266 30.5762 12.6561 30.5762 12.6561C30.5762 12.6561 30.4747 10.0632 31.6591 6.455C32.4712 3.96778 34.6539 1.40442 34.8316 0.820683C35.0092 0.241177 36.0625 0.00852972 36.5489 0.896823C37.0396 1.78512 45.1823 19.8894 38.8162 27.7867C38.7908 27.8248 38.7612 27.8713 38.7316 27.9094Z" fill="#FF4D7E"/>
</g>
</g>
</g>
<path id="Vector_16" d="M15.8518 7.49974C15.3907 8.22729 15.0143 8.99715 14.7139 9.80507C14.4094 10.6003 14.1683 11.4209 13.9991 12.2542C13.6564 13.942 13.6057 15.634 13.8341 17.3344C14.0752 19.0306 14.5532 20.6549 15.2638 22.2116C15.9787 23.7767 16.8416 25.2571 17.8441 26.653C16.6936 25.3417 15.7291 23.9078 14.9593 22.3469C14.5659 21.5644 14.2402 20.7607 13.9779 19.9316C13.7199 19.0941 13.5253 18.2439 13.4026 17.3809C13.1658 15.6297 13.2546 13.8955 13.6691 12.1781C14.0625 10.4607 14.7901 8.89986 15.8518 7.49974Z" fill="#FCCF8B"/>
<path id="Vector_17" d="M7.48071 14.4411C7.7472 14.9868 8.0433 15.5155 8.37324 16.0316C8.69471 16.5392 9.05849 17.0172 9.46034 17.4698C9.65492 17.6897 9.86642 17.897 10.0864 18.0958C10.3063 18.2946 10.5474 18.5061 10.7674 18.7176C11.2073 19.1491 11.6261 19.6017 12.0406 20.0416C12.857 20.951 13.6438 21.8859 14.3883 22.8545C15.1496 23.8147 15.8434 24.8172 16.4736 25.8663C15.7122 24.9145 14.9128 23.9966 14.126 23.0703C13.3392 22.1481 12.5355 21.2344 11.7065 20.3377C11.3004 19.8978 10.8901 19.4536 10.4671 19.0137C10.2471 18.7938 10.0441 18.5907 9.81989 18.3792C9.59147 18.1635 9.37997 17.9351 9.18962 17.6897C8.42823 16.7084 7.85718 15.6255 7.48071 14.4411Z" fill="#FCCF8B"/>
<path id="Vector_18" d="M32.7885 5.68507C32.5685 6.60298 32.3486 7.52088 32.1709 8.44301C31.9932 9.36515 31.7987 10.2873 31.6295 11.2136C31.4645 12.1358 31.3164 13.0664 31.1895 13.997C31.0669 14.9276 30.9696 15.8581 30.9231 16.793C30.8638 17.7236 30.8723 18.6499 30.9569 19.5805C30.995 20.0416 31.0669 20.4942 31.1769 20.9426C31.2276 21.1625 31.3038 21.3867 31.3672 21.6067C31.4307 21.8266 31.4983 22.0466 31.566 22.2792C31.8367 23.1802 32.1244 24.0727 32.4459 24.9568C32.7462 25.8493 33.1142 26.7122 33.5456 27.5498C33.2792 27.1564 33.0423 26.7503 32.835 26.3231C32.6277 25.9001 32.4247 25.4729 32.2386 25.0372C31.8706 24.17 31.5364 23.2691 31.2318 22.3892C31.0796 21.9451 30.9315 21.5052 30.7919 21.0356C30.665 20.5661 30.5762 20.0966 30.5212 19.6144C30.4282 18.6626 30.407 17.7109 30.462 16.7549C30.5889 14.8599 30.8554 12.986 31.2699 11.1333C31.6718 9.28901 32.1751 7.47012 32.7885 5.68507Z" fill="#FCCF8B"/>
<path id="Vector_19" d="M21.283 3.91266C22.2728 4.10301 23.1907 4.47101 24.0367 5.01668C24.8869 5.54966 25.661 6.17569 26.3589 6.89479L26.8623 7.44891C27.0357 7.6308 27.1753 7.83384 27.3318 8.02842C27.6406 8.42181 27.924 8.83211 28.1863 9.25511C28.4612 9.66965 28.6727 10.1223 28.9138 10.5579C29.1507 10.9894 29.3157 11.4632 29.4976 11.92C29.2268 11.5055 28.9815 11.0782 28.7235 10.6637L28.3132 10.0546C28.1778 9.84731 28.0551 9.64004 27.8986 9.44546C27.7464 9.25511 27.6068 9.0563 27.4587 8.86172C27.3149 8.66291 27.1584 8.48103 27.0019 8.29068C26.8496 8.10456 26.7058 7.90998 26.5324 7.73655L26.0459 7.19934C25.3691 6.49717 24.6331 5.8669 23.8463 5.30009C23.0511 4.72481 22.1966 4.26375 21.283 3.91266Z" fill="#FCCF8B"/>
<path id="Vector_20" d="M19.701 6.37866C20.1198 6.70014 20.5217 7.047 20.8981 7.41923C21.2788 7.78724 21.6384 8.1764 21.9979 8.56979C22.7001 9.36925 23.3473 10.2068 23.9395 11.0866C25.1281 12.8547 26.1137 14.7329 26.8962 16.7167C27.6788 18.7006 28.2583 20.7436 28.6347 22.8417C29.0197 24.9313 29.2058 27.0378 29.2016 29.1613C29.0366 27.059 28.7363 24.9736 28.3006 22.9094C27.8607 20.8494 27.26 18.8402 26.4901 16.8817C25.7161 14.9232 24.7686 13.0578 23.6476 11.277C23.085 10.3844 22.4759 9.52576 21.8245 8.70092C21.1773 7.86761 20.4709 7.09353 19.701 6.37866Z" fill="#FCCF8B"/>
<path id="Vector_21" d="M32.539 33.6281C32.539 33.6281 37.0017 46.7453 41.1513 54.9303C45.2966 63.111 57.9908 85.0984 57.9908 85.0984L56.451 85.8133C56.451 85.8133 43.4312 63.8386 39.7342 55.9497C36.033 48.0566 31.9511 38.7126 31.0162 35.0832C30.0857 31.4497 32.539 33.6281 32.539 33.6281Z" fill="#35601A"/>
<path id="Vector_22" d="M27.1247 36.9952C27.1247 36.9952 18.9186 38.4884 13.5973 36.7753C8.28019 35.0579 -0.556209 29.0133 0.0275269 28.0785C0.615493 27.1436 15.5134 23.2225 21.6807 26.1242C29.4893 29.8043 34.3157 34.8718 27.1247 36.9952Z" fill="#ED356E"/>
<path id="Vector_23" d="M30.8682 33.4294C30.8682 33.4294 30.0137 29.3009 31.3673 26.9744C32.7209 24.6522 37.0524 21.4543 40.5675 20.3715C44.0868 19.2886 48.2491 18.6372 51.7092 15.6762C51.7092 15.6762 52.4241 22.3722 50.2245 24.6522C48.0207 26.9279 37.1328 35.5613 30.8682 33.4294Z" fill="#ED356E"/>
<path id="Vector_24" d="M59.2684 25.5363C59.2684 25.5363 58.0205 27.8966 52.7373 31.0099C47.4498 34.1231 35.4621 36.3269 32.2389 35.2652C31.9935 35.1891 31.7566 35.0918 31.524 34.9776C31.4605 35.2314 31.3759 35.4725 31.2744 35.7136C29.9547 38.848 20.4669 46.5169 14.6633 48.4966C8.86405 50.4762 6.26685 49.8798 6.26685 49.8798C6.26685 49.8798 8.11957 47.934 14.1007 40.6542C20.0862 33.3702 29.9039 32.7019 29.9039 32.7019C30.1154 32.7019 30.3227 32.7272 30.5257 32.7822C30.6188 32.5919 30.733 32.4185 30.8726 32.2577C30.8726 32.2577 37.7928 25.236 47.196 25.4517C56.595 25.6632 59.2684 25.5363 59.2684 25.5363Z" fill="#35601A"/>
</g>
</svg>
