<svg width="123" height="225" viewBox="0 0 123 225" fill="none" xmlns="http://www.w3.org/2000/svg">
<g id="Group 1000003728">
<g id="Group 1000003671">
<g id="Clip path group">
<mask id="mask0_625_1440" style="mask-type:luminance" maskUnits="userSpaceOnUse" x="29" y="66" width="27" height="159">
<g id="69b8c18b5a">
<path id="Vector" d="M55.7952 66.7902H29.9122V225H55.7952V66.7902Z" fill="white"/>
</g>
</mask>
<g mask="url(#mask0_625_1440)">
<g id="Group">
<path id="Vector_2" d="M54.9457 71.0368C54.9457 71.0368 44.5318 107.03 42.1053 131.69C39.6788 156.339 37.7173 224.95 37.7173 224.95L31.8229 224.06C31.8229 224.06 32.8036 154.924 36.039 131.649C39.2743 108.375 43.996 81.2889 47.7773 71.8052C51.5586 62.3316 54.9457 71.0368 54.9457 71.0368Z" fill="#35601A"/>
</g>
</g>
</g>
<g id="Clip path group_2">
<mask id="mask1_625_1440" style="mask-type:luminance" maskUnits="userSpaceOnUse" x="12" y="0" width="107" height="80">
<g id="f8bfa86324">
<path id="Vector_3" d="M118.845 0H12.1684V79.7317H118.845V0Z" fill="white"/>
</g>
</mask>
<g mask="url(#mask1_625_1440)">
<g id="Group_2">
<path id="Vector_4" d="M61.9627 74.2114C69.1816 77.2244 76.6938 78.8319 84.5092 79.0443C86.228 79.0746 87.9468 78.9735 89.6555 78.7409C91.3541 78.5084 93.0425 78.1545 94.6905 77.6692C96.3487 77.1839 97.9562 76.5773 99.5234 75.8594C101.08 75.1315 102.587 74.2923 104.023 73.3419C105.468 72.3915 106.823 71.34 108.107 70.1773C109.391 69.0247 110.574 67.7811 111.676 66.4465C112.768 65.1119 113.759 63.7066 114.649 62.2203C115.538 60.7341 116.307 59.1973 116.964 57.5998C117.914 55.3755 118.501 53.0602 118.733 50.6539C118.733 50.6539 107.885 56.1944 104.649 57.62C101.414 59.0456 89.2409 64.94 89.2409 64.94C89.2409 64.94 109.553 50.3809 103.163 24.1946C103.163 24.1946 94.4883 24.7911 92.6988 26.1156C92.6988 26.1156 91.6473 10.9498 89.7566 7.78517C89.7566 7.78517 85.7831 7.8155 82.5781 13.2347C82.5781 13.2347 79.8988 9.95893 78.271 8.11881C76.6331 6.26859 67.9583 9.90838 65.0869 13.2954C65.0869 13.2954 61.164 4.5599 56.321 0.788672C56.321 0.788672 55.1684 -0.0201705 51.2354 4.96433C47.3024 9.95893 47.5046 10.788 47.5046 10.788C47.5046 10.788 42.8336 7.99749 41.5293 7.16842C40.225 6.33936 36.6661 9.93871 35.0687 14.175C33.4813 18.4012 31.3075 29.7149 31.3075 29.7149C31.3075 29.7149 29.9426 28.2388 28.2744 24.4676C26.6163 20.7064 23.7651 16.4398 20.7319 14.3873C17.7089 12.3349 16.809 12.0316 16.809 12.0316C16.809 12.0316 13.9579 20.3829 14.4128 27.9557C14.8678 35.5285 21.6924 74.8686 49.9716 74.3024L61.9627 74.2114Z" fill="#FF4D7E"/>
</g>
</g>
</g>
<path id="Vector_5" d="M20.0749 41.7467C20.0749 41.7467 25.6458 49.0668 27.9814 51.5641C32.8445 56.7508 52.2467 65.6379 51.3266 70.3697C50.4167 75.1115 43.0259 80.2376 30.9539 74.5453C18.8819 68.8632 12.2999 50.1183 20.0749 41.7467Z" fill="#ED356E"/>
<path id="Vector_6" d="M79.2215 60.6129C79.2215 60.6129 85.2979 70.1168 84.9643 75.1013C84.6306 80.0756 76.7343 86.8295 68.9896 85.6567C61.2348 84.4737 53.2778 80.5407 50.821 77.457C48.3641 74.3632 46.888 70.1572 53.015 68.3575C59.1521 66.568 73.7214 61.8868 76.9972 60.2691C78.6351 59.4501 79.2215 60.6129 79.2215 60.6129Z" fill="#ED356E"/>
<path id="Vector_7" d="M96.4193 27.7435C96.4193 27.7435 86.8143 29.9071 81.1524 35.3769C75.4804 40.8467 68.3828 48.4701 66.8864 59.4703C66.8864 59.4703 78.7764 32.8392 96.4193 27.7435Z" fill="#FCCF8B"/>
<path id="Vector_8" d="M36.6158 14.9337C36.6158 14.9337 32.6929 25.5194 34.3915 34.4167C36.1001 43.3038 38.9311 54.8905 48.526 63.1609C48.5159 63.1609 30.4989 35.1143 36.6158 14.9337Z" fill="#FCCF8B"/>
<path id="Vector_9" d="M45.634 22.3444C45.634 22.3444 59.3237 33.5368 60.9111 43.2024C62.4984 52.8681 58.8283 64.1717 58.8283 64.1717C58.8283 64.1717 64.106 39.9165 45.634 22.3444Z" fill="#FCCF8B"/>
<path id="Vector_10" d="M75.6022 10.7577C75.6022 10.7577 61.3261 14.63 53.2377 27.3289C53.2377 27.3289 59.0613 12.9517 75.6022 10.7577Z" fill="#FCCF8B"/>
<path id="Vector_11" d="M77.8164 9.71658C79.1611 11.0815 80.3238 12.588 81.3247 14.2259C82.3055 15.8436 83.0536 17.5624 83.5693 19.3823C84.095 21.2022 84.3478 23.0524 84.3175 24.9431C84.3276 25.8934 84.2669 26.8438 84.1557 27.7841C84.1051 28.2593 84.0344 28.7345 83.9333 29.2097C83.8524 29.6748 83.7715 30.1601 83.7007 30.6353C83.8726 30.1904 84.0344 29.7355 84.186 29.2805L84.4287 28.5829L84.55 28.2391L84.6511 27.865C84.9039 26.9045 85.0656 25.944 85.1465 24.9532C85.1971 24.4679 85.2274 23.9724 85.2173 23.477L85.1364 22.0009C85.1263 21.7481 85.096 21.5055 85.0454 21.2628L84.914 20.5248L84.7825 19.7968C84.7219 19.5541 84.641 19.3014 84.5803 19.0789C84.2972 18.1286 83.9535 17.1984 83.5288 16.2985L82.8211 14.9943C82.5683 14.5798 82.2852 14.1753 82.0123 13.7608C81.7292 13.3564 81.4056 12.9823 81.1023 12.5981C80.799 12.2139 80.4552 11.8701 80.1216 11.5264C79.424 10.8389 78.6556 10.2322 77.8164 9.71658Z" fill="#FCCF8B"/>
<path id="Vector_12" d="M54.8958 2.90182C53.6724 3.82188 52.5804 4.87338 51.6098 6.06642C50.6291 7.24936 49.7596 8.50307 49.0114 9.83766C48.6272 10.505 48.2936 11.2026 47.9599 11.8901C47.6162 12.5776 47.3331 13.2955 47.1207 14.0335C46.6051 15.4793 46.2816 16.9757 46.14 18.5125C46.7062 17.0869 47.2117 15.6816 47.8689 14.3368C48.4756 12.9719 49.153 11.6474 49.9011 10.3634C50.6291 9.05914 51.4278 7.79533 52.2569 6.56184C53.0961 5.31824 53.9757 4.10498 54.8958 2.90182Z" fill="#FCCF8B"/>
<path id="Vector_13" d="M116.317 54.2027C115.306 56.7707 114.002 59.1771 112.384 61.4115C111.979 61.9676 111.605 62.5236 111.16 63.0494C110.726 63.5751 110.342 64.1312 109.856 64.6165C109.381 65.1018 108.956 65.6377 108.481 66.123L107.005 67.5284C106.52 68.0238 105.984 68.4181 105.468 68.863L104.69 69.5201C104.417 69.7223 104.134 69.9144 103.861 70.1167L102.213 71.3198C101.626 71.6636 101.05 72.0276 100.474 72.3814L99.6041 72.9274C99.3109 73.0993 98.9975 73.2408 98.6942 73.4228L96.8844 74.3833C96.5811 74.5451 96.2676 74.6967 95.9542 74.8282L95.0139 75.2427C94.3871 75.5258 93.7602 75.8089 93.1334 76.1021C93.7906 75.9201 94.4578 75.7179 95.0948 75.5157L96.1463 75.2023C96.48 75.1012 96.8035 74.9899 97.127 74.8484L99.0379 74.0395C99.3615 73.898 99.685 73.7666 99.9984 73.6048L100.908 73.1195C101.525 72.7858 102.132 72.4522 102.738 72.1287L104.477 70.9558C104.771 70.7637 105.054 70.5716 105.337 70.3593L106.146 69.7021C106.671 69.2472 107.248 68.8326 107.743 68.3473C109.816 66.4364 111.595 64.2829 113.081 61.8867C114.608 59.5208 115.69 56.9527 116.317 54.2027Z" fill="#FCCF8B"/>
<path id="Vector_14" d="M17.9313 17.0871C17.0719 19.1496 16.6068 21.2931 16.5259 23.5275C16.4147 25.7619 16.5967 27.966 17.0921 30.1499C17.2033 30.6858 17.3954 31.2216 17.537 31.7575L17.7695 32.5562C17.8605 32.8191 17.9616 33.0415 18.0627 33.3347L18.6795 34.8715C18.9221 35.367 19.1749 35.8624 19.4276 36.3578L19.8118 37.0959C19.9433 37.3385 20.0949 37.5913 20.2466 37.7935L21.1565 39.209C21.7935 40.0987 22.5114 40.9379 23.209 41.7669C22.6933 40.7862 22.0968 39.8864 21.5913 38.936L20.8532 37.4801C20.7319 37.2374 20.6005 36.9948 20.4892 36.7622L20.1758 36.0241C19.9635 35.5287 19.7512 35.0333 19.5287 34.5379L19.003 33.0213C18.9221 32.7685 18.821 32.5259 18.7401 32.263L18.5278 31.4845C18.3964 30.9689 18.2144 30.4532 18.1234 29.9275L17.7998 28.3604C17.6987 27.8346 17.6482 27.2987 17.5673 26.773C17.4359 25.7013 17.355 24.6296 17.3348 23.5578C17.2741 21.374 17.4763 19.2204 17.9313 17.0871Z" fill="#FCCF8B"/>
<path id="Vector_15" d="M99.9785 30.635C100.272 33.385 100.221 36.1149 99.8369 38.8447C99.7358 39.5221 99.6549 40.2097 99.5033 40.8668C99.3617 41.5341 99.2707 42.2116 99.0685 42.8687C98.8663 43.5259 98.7349 44.1932 98.5428 44.8403L97.8856 46.7714C97.6733 47.4185 97.3902 48.0352 97.1273 48.6722L96.7431 49.6125C96.6016 49.9158 96.4297 50.2191 96.278 50.5224L95.3782 52.3524C95.0243 52.9388 94.6704 53.5252 94.3267 54.1117L93.811 54.9812C93.6291 55.2744 93.4167 55.5474 93.2246 55.8305L92.0518 57.5189C91.8698 57.8121 91.6575 58.0851 91.4452 58.348L90.7981 59.1568C90.3735 59.6927 89.9387 60.2386 89.5242 60.7947C90.0196 60.2993 90.5049 59.8342 91.0003 59.3489L91.7283 58.6311C91.981 58.3884 92.2136 58.1255 92.436 57.8627L93.7504 56.245C93.9728 55.972 94.1952 55.7091 94.4076 55.426L94.9839 54.5565C95.3782 53.9802 95.7624 53.4039 96.1466 52.8175L97.1273 50.9673C97.2891 50.664 97.461 50.3505 97.6126 50.0371L98.0373 49.0564C98.29 48.4093 98.6136 47.7724 98.8259 47.1051C99.7965 44.4561 100.383 41.7262 100.605 38.9155C100.878 36.125 100.676 33.3648 99.9785 30.635Z" fill="#FCCF8B"/>
</g>
<g id="Group 1000003672">
<path id="Vector_16" d="M5.66583 159.486C14.7067 162.754 24.7739 157.977 27.4434 149.058C28.6162 145.13 29.5325 140.818 29.1294 137.788C28.1947 130.708 26.5271 127.201 26.5271 127.201C26.5271 127.201 23.2039 127.898 22.9962 128.698C22.7885 129.492 21.127 125.002 21.127 125.002C21.127 125.002 18.9462 126.505 18.6346 127.898C18.6346 127.898 15.8002 126.279 14.7678 126.193C13.7293 126.114 10.9804 126.364 10.0336 128.014C10.0336 128.014 8.05433 126.859 7.10748 126.939C6.16063 127.024 5.10383 128.808 3.96761 130.989C2.01893 134.721 3.96761 141.154 3.96761 141.154C3.96761 141.154 2.48319 138.79 -0.79718 136.279C-3.06351 134.55 -6.64932 133.548 -7.16856 133.139C-7.6878 132.73 -8.79958 133.139 -8.71406 134.214C-8.62854 135.289 -5.20156 156.12 5.52533 159.406C5.56198 159.443 5.61696 159.468 5.66583 159.486Z" fill="#FF4D7E"/>
<path id="Vector_17" d="M14.505 127.953C15.3664 128.331 16.1849 128.79 16.9607 129.333C17.7304 129.859 18.4513 130.445 19.1232 131.093C20.4427 132.375 21.5178 133.842 22.3425 135.491C23.1488 137.134 23.6925 138.857 23.9796 140.659C24.2667 142.467 24.3706 144.287 24.2851 146.114C24.56 144.281 24.5844 142.449 24.3584 140.616C24.1324 138.747 23.607 136.975 22.7701 135.289C21.921 133.585 20.7848 132.094 19.3615 130.824C17.9442 129.529 16.3193 128.57 14.505 127.953Z" fill="#FCCF8B"/>
<path id="Vector_18" d="M26.4905 129.217C26.576 129.859 26.6188 130.5 26.6249 131.148C26.6371 131.789 26.6004 132.43 26.5027 133.06C26.4538 133.377 26.3866 133.683 26.3011 133.988C26.2095 134.306 26.1179 134.623 26.0446 134.941C25.8979 135.582 25.7819 136.218 25.6719 136.859C25.4581 138.142 25.2993 139.437 25.1954 140.732C25.0794 142.027 25.0427 143.328 25.0916 144.629C25.2199 143.353 25.4093 142.052 25.5742 140.769C25.7391 139.486 25.9407 138.221 26.1545 136.945C26.2523 136.303 26.3683 135.668 26.4966 135.027C26.5638 134.709 26.6371 134.391 26.7165 134.092C26.7959 133.768 26.8509 133.438 26.8815 133.108C26.9914 131.783 26.857 130.488 26.4905 129.217Z" fill="#FCCF8B"/>
<path id="Vector_19" d="M-2.32432 136.266C-1.56685 136.957 -0.809366 137.647 -0.0763216 138.356C0.656723 139.064 1.38977 139.773 2.1106 140.5C2.83142 141.227 3.52782 141.96 4.20588 142.73C4.87784 143.499 5.54369 144.257 6.14845 145.057C6.77154 145.851 7.32132 146.682 7.81613 147.555C8.05437 147.989 8.26206 148.435 8.427 148.899C8.51863 149.125 8.57971 149.376 8.65913 149.608C8.73854 149.846 8.81795 150.084 8.89126 150.323C9.18448 151.282 9.45937 152.235 9.69761 153.218C9.96028 154.183 10.1435 155.167 10.2474 156.163C10.2535 155.662 10.2291 155.161 10.1558 154.666C10.0947 154.165 10.0214 153.664 9.92974 153.169C9.74648 152.18 9.52046 151.202 9.25778 150.225C9.12339 149.736 8.99511 149.272 8.83628 148.771C8.67135 148.282 8.46976 147.806 8.23152 147.354C7.73671 146.45 7.17471 145.588 6.53941 144.776C5.2688 143.163 3.88212 141.66 2.37938 140.262C0.888856 138.838 -0.681084 137.507 -2.32432 136.266Z" fill="#FCCF8B"/>
<path id="Vector_20" d="M7.28455 127.953C6.48431 128.692 5.85511 129.559 5.39696 130.543C4.92659 131.508 4.59061 132.516 4.3768 133.573L4.24852 134.361C4.19965 134.623 4.19354 134.886 4.163 135.149C4.12024 135.68 4.10191 136.212 4.12024 136.743C4.12024 137.269 4.19354 137.8 4.23019 138.338C4.27295 138.881 4.40735 139.382 4.5173 139.895C4.5173 139.364 4.48065 138.845 4.46843 138.325V137.543C4.46843 137.281 4.46843 137.024 4.48676 136.762C4.51119 136.505 4.52341 136.242 4.53563 135.986C4.54174 135.729 4.59061 135.473 4.61504 135.216C4.64558 134.953 4.6578 134.697 4.71278 134.446L4.84717 133.683C5.04876 132.663 5.34809 131.673 5.73293 130.714C6.12389 129.724 6.64313 128.802 7.28455 127.953Z" fill="#FCCF8B"/>
<path id="Vector_21" d="M10.2476 129.217C10.0582 129.749 9.89936 130.286 9.77718 130.842C9.6489 131.386 9.54505 131.948 9.45953 132.504C9.2946 133.622 9.19686 134.746 9.18464 135.876C9.1541 138.148 9.38012 140.39 9.8566 142.608C10.3453 144.831 11.0478 146.981 11.9641 149.064C12.8865 151.154 13.9922 153.133 15.2811 155.008C14.1571 153.047 13.1736 151.019 12.3184 148.924C11.4754 146.847 10.8157 144.703 10.3392 142.51C9.86271 140.317 9.60614 138.105 9.56338 135.87C9.54505 134.752 9.58782 133.634 9.69166 132.522C9.7894 131.404 9.97266 130.305 10.2476 129.217Z" fill="#FCCF8B"/>
<g id="Clip path group_3">
<mask id="mask2_625_1440" style="mask-type:luminance" maskUnits="userSpaceOnUse" x="14" y="158" width="12" height="64">
<g id="afe08c7415">
<path id="Vector_22" d="M25.531 158.331H14.5842V221.562H25.531V158.331Z" fill="white"/>
</g>
</mask>
<g mask="url(#mask2_625_1440)">
<g id="Group_3">
<path id="Vector_23" d="M14.8899 160.933C14.8899 160.933 18.72 175.197 19.844 184.892C20.9619 194.586 22.5441 221.568 22.5441 221.568L24.4072 221.293C24.4072 221.293 23.1366 194.153 21.7805 184.977C20.4244 175.808 18.5307 165.118 17.1928 161.343C15.8489 157.574 14.8899 160.933 14.8899 160.933Z" fill="#35601A"/>
</g>
</g>
</g>
<path id="Vector_24" d="M21.9638 160.756C21.9638 160.756 30.4915 157.274 34.3706 152.632C38.2496 147.995 42.7945 137.446 41.6766 136.963C40.5587 136.474 24.3462 141.722 20.3939 147.91C15.3969 155.753 14.0042 163.078 21.9638 160.756Z" fill="#ED356E"/>
<g id="Clip path group_4">
<mask id="mask3_625_1440" style="mask-type:luminance" maskUnits="userSpaceOnUse" x="-15" y="152" width="33" height="13">
<g id="f7a400e670">
<path id="Vector_25" d="M17.7122 152.076H-15V164.587H17.7122V152.076Z" fill="white"/>
</g>
</mask>
<g mask="url(#mask3_625_1440)">
<g id="Group_4">
<path id="Vector_26" d="M16.3254 159.779C16.3254 159.779 14.6089 155.613 11.9333 154.354C9.26377 153.102 3.30168 152.785 -0.620111 153.884C-4.5419 154.984 -8.81189 156.828 -13.8149 156.236C-13.8149 156.236 -10.4124 162.613 -6.98538 163.334C-3.5584 164.061 11.7989 165.344 16.3254 159.779Z" fill="#ED356E"/>
</g>
</g>
</g>
<g id="Clip path group_5">
<mask id="mask4_625_1440" style="mask-type:luminance" maskUnits="userSpaceOnUse" x="-15" y="155" width="66" height="16">
<g id="62c6c1d70f">
<path id="Vector_27" d="M50.5526 155.204H-14.9999V170.842H50.5526V155.204Z" fill="white"/>
</g>
</mask>
<g mask="url(#mask4_625_1440)">
<g id="Group_5">
<path id="Vector_28" d="M-14.8412 169.406C-14.8412 169.406 -12.2511 170.769 -5.45215 170.439C1.35295 170.109 13.8147 165.039 16.1543 162.216C16.3315 162.003 16.4964 161.777 16.643 161.544C16.8568 161.728 17.0829 161.893 17.315 162.045C20.4365 164.061 33.9185 165.314 40.5098 163.67C47.0949 162.027 49.1475 159.981 49.1475 159.981C49.1475 159.981 46.2458 159.339 36.2642 156.37C26.2887 153.402 16.7652 158.576 16.7652 158.576C16.5697 158.692 16.3926 158.838 16.2338 159.009C16.0322 158.893 15.8245 158.808 15.5984 158.747C15.5984 158.747 4.90821 156.566 -3.69284 162.259C-12.2939 167.946 -14.8412 169.406 -14.8412 169.406Z" fill="#35601A"/>
</g>
</g>
</g>
<g id="Clip path group_6">
<mask id="mask5_625_1440" style="mask-type:luminance" maskUnits="userSpaceOnUse" x="61" y="85" width="53" height="50">
<g id="0bc4d40630">
<path id="Vector_29" d="M113.106 85.6194H61.4995V134.874H113.106V85.6194Z" fill="white"/>
</g>
</mask>
<g mask="url(#mask5_625_1440)">
<g id="Group_6">
<path id="Vector_30" d="M66.4292 125.925C73.8268 136.132 88.3044 137.91 97.834 129.694C102.031 126.065 106.233 121.832 108.054 118.1C112.306 109.382 113.087 104.221 113.087 104.221C113.087 104.221 108.958 102.626 108.139 103.39C107.327 104.153 108.854 97.8614 108.854 97.8614C108.854 97.8614 105.36 98.0019 103.992 99.3642C103.992 99.3642 102.116 95.4912 101.059 94.6605C100.003 93.8236 96.8261 92.1253 94.5659 93.3226C94.5659 93.3226 93.2769 90.5921 92.1835 90.0056C91.0961 89.4253 88.616 90.6898 85.7571 92.3514C80.8763 95.198 78.2068 103.897 78.2068 103.897C78.2068 103.897 78.3534 100.152 76.6429 94.9415C75.4701 91.3495 72.318 87.6477 72.0614 86.8047C71.8048 85.9678 70.2838 85.6318 69.5813 86.9146C68.8727 88.1974 57.1134 114.343 66.307 125.748C66.3436 125.803 66.3864 125.87 66.4292 125.925Z" fill="#FF4D7E"/>
</g>
</g>
</g>
<path id="Vector_31" d="M99.471 96.4501C100.137 97.5008 100.681 98.6126 101.114 99.7794C101.554 100.928 101.902 102.113 102.147 103.316C102.641 105.754 102.715 108.197 102.385 110.653C102.037 113.102 101.346 115.448 100.32 117.696C99.2878 119.956 98.0416 122.094 96.5938 124.11C98.2554 122.217 99.6482 120.146 100.76 117.892C101.328 116.762 101.798 115.601 102.177 114.404C102.55 113.194 102.831 111.966 103.008 110.72C103.35 108.191 103.222 105.687 102.623 103.206C102.055 100.726 101.004 98.4721 99.471 96.4501Z" fill="#FCCF8B"/>
<path id="Vector_32" d="M111.56 106.475C111.175 107.263 110.748 108.026 110.271 108.771C109.807 109.504 109.282 110.195 108.701 110.848C108.42 111.166 108.115 111.465 107.797 111.752C107.48 112.04 107.131 112.345 106.814 112.65C106.178 113.274 105.574 113.927 104.975 114.562C103.796 115.876 102.66 117.226 101.585 118.625C100.485 120.011 99.4832 121.459 98.573 122.974C99.6726 121.6 100.827 120.274 101.963 118.936C103.1 117.605 104.26 116.285 105.458 114.99C106.044 114.355 106.637 113.713 107.247 113.078C107.565 112.76 107.858 112.467 108.182 112.162C108.512 111.85 108.817 111.52 109.092 111.166C110.192 109.749 111.016 108.185 111.56 106.475Z" fill="#FCCF8B"/>
<path id="Vector_33" d="M75.0119 93.8295C75.3296 95.1551 75.6472 96.4807 75.9038 97.8124C76.1604 99.1441 76.4414 100.476 76.6857 101.814C76.924 103.145 77.1378 104.489 77.321 105.833C77.4982 107.177 77.6387 108.521 77.7059 109.871C77.7914 111.215 77.7792 112.553 77.657 113.897C77.602 114.562 77.4982 115.216 77.3394 115.864C77.2661 116.181 77.1561 116.505 77.0645 116.823C76.9728 117.14 76.8751 117.458 76.7774 117.794C76.3864 119.095 75.971 120.384 75.5067 121.661C75.073 122.95 74.5416 124.196 73.9185 125.405C74.3033 124.837 74.6454 124.251 74.9447 123.634C75.2441 123.023 75.5373 122.406 75.8061 121.777C76.3375 120.525 76.8201 119.223 77.2599 117.953C77.4799 117.311 77.6937 116.676 77.8953 115.998C78.0785 115.32 78.2068 114.642 78.2862 113.946C78.4206 112.571 78.4511 111.197 78.3717 109.816C78.1885 107.079 77.8036 104.373 77.205 101.698C76.6246 99.0342 75.8977 96.4074 75.0119 93.8295Z" fill="#FCCF8B"/>
<path id="Vector_34" d="M91.6277 91.2699C90.1982 91.5448 88.8727 92.0762 87.6509 92.8643C86.4231 93.634 85.3052 94.538 84.2972 95.5765L83.5703 96.3768C83.3198 96.6394 83.1183 96.9327 82.8922 97.2137C82.4463 97.7818 82.037 98.3743 81.6583 98.9852C81.2612 99.5838 80.9558 100.237 80.6076 100.867C80.2655 101.49 80.0273 102.174 79.7646 102.834C80.1555 102.235 80.5098 101.618 80.8825 101.019L81.475 100.14C81.6705 99.8404 81.8476 99.5411 82.0737 99.2601C82.2936 98.9852 82.4952 98.6981 82.709 98.4171C82.9167 98.13 83.1427 97.8673 83.3687 97.5924C83.5886 97.3236 83.7963 97.0426 84.0468 96.7922L84.7493 96.0163C85.7267 95.0023 86.7896 94.0921 87.9258 93.2735C89.0742 92.4428 90.3082 91.7769 91.6277 91.2699Z" fill="#FCCF8B"/>
<path id="Vector_35" d="M93.9121 94.8312C93.3073 95.2954 92.727 95.7963 92.1833 96.3339C91.6336 96.8654 91.1143 97.4274 90.5951 97.9955C89.581 99.15 88.6464 100.36 87.7912 101.63C86.0746 104.184 84.6513 106.896 83.5212 109.761C82.3911 112.626 81.5542 115.576 81.0105 118.606C80.4546 121.624 80.1858 124.666 80.192 127.733C80.4302 124.697 80.8639 121.685 81.4931 118.704C82.1284 115.729 82.9959 112.827 84.1076 109.999C85.2255 107.171 86.5939 104.477 88.2127 101.905C89.0251 100.616 89.9048 99.376 90.8455 98.1848C91.7802 96.9814 92.8003 95.8635 93.9121 94.8312Z" fill="#FCCF8B"/>
<path id="Vector_36" d="M75.3722 134.183C75.3722 134.183 68.9275 153.127 62.9349 164.947C56.9483 176.761 38.6161 208.514 38.6161 208.514L40.8397 209.547C40.8397 209.547 59.6423 177.812 64.9813 166.419C70.3264 155.02 76.2213 141.526 77.5713 136.285C78.9152 131.037 75.3722 134.183 75.3722 134.183Z" fill="#35601A"/>
<path id="Vector_37" d="M83.1913 139.046C83.1913 139.046 95.0422 141.202 102.727 138.728C110.406 136.248 123.167 127.519 122.324 126.169C121.475 124.819 99.9597 119.156 91.0532 123.347C79.7765 128.661 72.8065 135.98 83.1913 139.046Z" fill="#ED356E"/>
<path id="Vector_38" d="M77.7852 133.896C77.7852 133.896 79.0192 127.934 77.0644 124.575C75.1096 121.221 68.8543 116.603 63.7779 115.039C58.6955 113.475 52.6845 112.534 47.6876 108.258C47.6876 108.258 46.6552 117.928 49.8318 121.221C53.0144 124.507 68.7382 136.975 77.7852 133.896Z" fill="#ED356E"/>
<path id="Vector_39" d="M36.7711 122.498C36.7711 122.498 38.5732 125.906 46.2029 130.402C53.8388 134.898 71.1509 138.081 75.8057 136.548C76.16 136.438 76.5021 136.297 76.8381 136.132C76.9297 136.499 77.0519 136.847 77.1985 137.195C79.1044 141.722 92.8062 152.797 101.187 155.656C109.562 158.515 113.313 157.653 113.313 157.653C113.313 157.653 110.638 154.843 102 144.33C93.356 133.811 79.1777 132.846 79.1777 132.846C78.8723 132.846 78.573 132.882 78.2797 132.962C78.1454 132.687 77.9804 132.437 77.7788 132.204C77.7788 132.204 67.785 122.064 54.2053 122.375C40.6318 122.681 36.7711 122.498 36.7711 122.498Z" fill="#35601A"/>
</g>
</g>
</svg>
