<svg width="19" height="20" viewBox="0 0 19 20" fill="none" xmlns="http://www.w3.org/2000/svg">
<g id="Group 1000003760">
<g id="Group 1000003892">
<g id="Group 1000003902">
<rect id="Rectangle 17723" x="0.5" y="0.5" width="17.907" height="18.6948" rx="2.5" fill="white" stroke="black"/>
<path id="Vector" d="M7.25543 4.05902C7.15484 3.95838 7.0354 3.87855 6.90395 3.82408C6.77249 3.76961 6.6316 3.74158 6.4893 3.74158C6.34701 3.74158 6.20611 3.76961 6.07466 3.82408C5.9432 3.87855 5.82377 3.95838 5.72318 4.05902L5.51441 4.26779L5.30565 4.05902C5.10246 3.85583 4.82687 3.74168 4.53952 3.74168C4.25217 3.74168 3.97658 3.85583 3.77339 4.05902C3.57021 4.26221 3.45605 4.5378 3.45605 4.82515C3.45605 5.1125 3.57021 5.38809 3.77339 5.59128L3.98216 5.80004L5.51441 7.33229L7.04667 5.80004L7.25543 5.59128C7.35607 5.49068 7.4359 5.37125 7.49037 5.23979C7.54484 5.10834 7.57288 4.96744 7.57288 4.82515C7.57288 4.68286 7.54484 4.54196 7.49037 4.4105C7.4359 4.27905 7.35607 4.15961 7.25543 4.05902Z" fill="#EF2B7B"/>
<path id="Vector_2" d="M7.25543 10.3615C7.15484 10.2609 7.0354 10.181 6.90395 10.1266C6.77249 10.0721 6.6316 10.0441 6.4893 10.0441C6.34701 10.0441 6.20611 10.0721 6.07466 10.1266C5.9432 10.181 5.82377 10.2609 5.72318 10.3615L5.51441 10.5703L5.30565 10.3615C5.10246 10.1583 4.82687 10.0442 4.53952 10.0442C4.25217 10.0442 3.97658 10.1583 3.77339 10.3615C3.57021 10.5647 3.45605 10.8403 3.45605 11.1276C3.45605 11.415 3.57021 11.6906 3.77339 11.8938L3.98216 12.1025L5.51441 13.6348L7.04667 12.1025L7.25543 11.8938C7.35607 11.7932 7.4359 11.6737 7.49037 11.5423C7.54484 11.4108 7.57288 11.2699 7.57288 11.1276C7.57288 10.9853 7.54484 10.8444 7.49037 10.713C7.4359 10.5815 7.35607 10.4621 7.25543 10.3615Z" fill="#EF2B7B"/>
<rect id="Rectangle 17724" x="8.66553" y="4.72681" width="7.09012" height="1.57558" rx="0.787791" fill="#EF2B7B"/>
<rect id="Rectangle 17725" x="8.66553" y="7.87793" width="7.09012" height="1.57558" rx="0.787791" fill="#EF2B7B"/>
<rect id="Rectangle 17726" x="8.66553" y="11.0291" width="7.09012" height="1.57558" rx="0.787791" fill="#EF2B7B"/>
<path id="Rectangle 17727" d="M3.93896 16.1497C3.93896 15.4971 4.46802 14.968 5.12065 14.968H13.8651L14.968 16.1497L13.8651 17.3314H5.12065C4.46802 17.3314 3.93896 16.8023 3.93896 16.1497Z" fill="#EF2B7B"/>
</g>
</g>
</g>
</svg>
