<svg width="128" height="126" viewBox="0 0 128 126" fill="none" xmlns="http://www.w3.org/2000/svg">
<g id="Black">
<path id="Vector" d="M9.202 0.39875C6.9875 0.957748 5.0095 1.98975 3.4615 3.45175C1.161 5.60175 0.0645 8.24625 0.0215 11.8152L0 13.8577H10.75L21.5 13.8792L21.6075 64.9203C21.715 112.414 21.7365 116.047 22.0805 117.058C23.091 119.96 25.0905 122.218 27.95 123.637C31.1535 125.206 27.864 125.12 75.852 125.12C118.981 125.12 119.024 125.12 120.357 124.669C123.088 123.766 125.001 122.046 126.205 119.423C127.108 117.509 127.431 115.875 127.474 113.295L127.495 111.253H85.355H43.215L43.086 113.51C42.9355 116.198 42.656 117.359 41.7745 118.735C40.4415 120.82 38.2485 121.766 34.7225 121.766C29.971 121.788 26.6385 119.81 25.327 116.198C24.9615 115.166 24.94 112.779 24.8325 62.1253L24.725 9.12775L24.2735 7.92375C23.607 6.22525 23.263 5.58025 22.2525 4.33325L21.3925 3.21525H59.0605C90.5795 3.21525 96.9865 3.27975 98.169 3.51625C101.437 4.22575 103.996 6.28975 104.812 8.95575C105.243 10.3532 105.243 10.7832 105.243 56.9868V103.62H106.963H108.683L108.64 56.5783C108.575 11.5358 108.554 9.51475 108.188 8.37525C107.113 5.17175 105.028 2.76375 102.19 1.40925C98.9645 -0.117249 102.297 -0.00975037 54.137 0.0117493C13.3515 0.0117493 10.664 0.0547485 9.202 0.39875ZM14.405 3.53775C18.0815 4.31175 20.726 6.67675 21.285 9.72975L21.4355 10.5253H12.384C7.4175 10.5253 3.3325 10.4822 3.3325 10.4392C3.3325 10.3962 3.526 9.72975 3.7625 8.95575C4.5795 6.33275 7.1165 4.22575 10.2985 3.53775C12.0185 3.15075 12.599 3.15075 14.405 3.53775ZM124.055 115.273C123.561 117.832 122.701 119.38 121.196 120.541C119.304 121.981 121.927 121.895 80.9045 121.895C60.4795 121.895 43.7525 121.831 43.7525 121.766C43.7525 121.702 43.989 121.336 44.29 120.949C45.15 119.81 45.881 117.961 46.1605 116.219L46.44 114.585H85.312H124.206L124.055 115.273Z" fill="#F05E90"/>
<path id="Vector_2" d="M34.5076 14.8253V16.5453H46.6551H58.8026V14.8253V13.1053H46.6551H34.5076V14.8253Z" fill="#F05E90"/>
<path id="Vector_3" d="M74.1535 13.3203C71.81 13.7933 69.703 15.4918 68.6495 17.7708C67.1875 20.8453 68.069 25.0808 70.95 28.9938C72.928 31.6813 76.325 34.5623 80.0015 36.6478L81.657 37.5938L82.8825 36.9703C87.419 34.6698 92.278 30.2193 94.0625 26.6503C95.89 23.0383 96.019 19.3403 94.385 16.7603C91.9555 12.8903 86.215 12.0518 82.7965 15.0618L81.8075 15.9218L81.0335 15.1693C80.023 14.1803 78.733 13.5783 77.1635 13.3203C75.723 13.0838 75.4005 13.0838 74.1535 13.3203ZM77.873 16.9968C78.905 17.4913 79.7435 18.6953 79.98 20.0498L80.1305 20.8668L81.7645 20.8023L83.377 20.7378L83.635 19.7058C84.4305 16.5883 88.5155 15.5133 90.902 17.7923C91.9125 18.7383 92.2135 19.5123 92.1705 21.0603C92.1275 23.8553 90.5795 26.7148 87.591 29.5312C85.8925 31.1223 82.259 33.7453 81.7215 33.7453C81.3775 33.7453 78.002 31.4448 76.54 30.1978C72.111 26.4138 70.1115 21.1678 72.0465 18.4373C73.315 16.6313 75.852 16.0078 77.873 16.9968Z" fill="#F05E90"/>
<path id="Vector_4" d="M34.5076 25.4678V27.0803H46.6551H58.8026V25.4678V23.8553H46.6551H34.5076V25.4678Z" fill="#F05E90"/>
<path id="Vector_5" d="M52.5674 36.0027V37.6152H60.7374H68.9074V36.0027V34.3902H60.7374H52.5674V36.0027Z" fill="#F05E90"/>
<path id="Vector_6" d="M42.57 38.4752C41.151 40.2382 39.947 41.7002 39.8825 41.7002C39.818 41.7002 39.1085 40.8187 38.313 39.7652L36.851 37.8087L35.561 38.8192C34.4 39.7007 34.2925 39.8512 34.5505 40.2167C36.3995 42.8827 39.603 47.0537 39.775 47.0107C39.947 46.9462 42.0755 44.3877 47.1925 38.0237L47.816 37.2497L46.5905 36.2607C45.924 35.7017 45.322 35.2502 45.2575 35.2502C45.193 35.2502 43.989 36.6907 42.57 38.4752Z" fill="#F05E90"/>
<path id="Vector_7" d="M52.9976 46.6452V48.3652H74.8201H96.6426V46.6452V44.9252H74.8201H52.9976V46.6452Z" fill="#F05E90"/>
<path id="Vector_8" d="M42.57 58.2337C41.151 60.0182 39.947 61.4587 39.8825 61.4587C39.818 61.4587 39.2375 60.7492 38.5925 59.8462C37.9475 58.9647 37.3025 58.1047 37.152 57.9112C36.937 57.6317 36.7435 57.7177 35.604 58.5132C34.8945 59.0292 34.314 59.4807 34.314 59.5452C34.2925 59.6097 35.518 61.2867 37.0015 63.2862L39.7105 66.9197L40.1835 66.4037C40.463 66.1242 42.2905 63.8882 44.247 61.4372L47.816 57.0082L46.612 56.0192C45.967 55.4817 45.365 55.0302 45.279 55.0302C45.193 55.0302 43.9675 56.4707 42.57 58.2337Z" fill="#F05E90"/>
<path id="Vector_9" d="M53.2124 57.2878V58.9003H74.9274H96.6424V57.2878V55.6753H74.9274H53.2124V57.2878Z" fill="#F05E90"/>
<path id="Vector_10" d="M53.6426 67.8227V69.4352H75.1426H96.6426V67.8227V66.2102H75.1426H53.6426V67.8227Z" fill="#F05E90"/>
<path id="Vector_11" d="M42.5486 78.0138C41.1296 79.7768 39.9471 81.2388 39.8826 81.2388C39.8181 81.2388 39.1516 80.3788 38.3991 79.3253C37.6251 78.2503 36.9586 77.3903 36.9156 77.3903C36.8296 77.3903 34.9806 78.7233 34.3141 79.2393C34.2496 79.3038 39.646 86.6353 39.7751 86.6353C39.9041 86.6353 47.6226 76.9603 47.6226 76.7883C47.6226 76.5518 45.5801 74.8103 45.3006 74.8103C45.1716 74.8103 43.9461 76.2508 42.5486 78.0138Z" fill="#F05E90"/>
<path id="Vector_12" d="M53.9004 78.4007L53.9649 80.0777L75.3144 80.1422L96.6424 80.1852V78.4652V76.7452H75.2499H53.8359L53.9004 78.4007Z" fill="#F05E90"/>
<path id="Vector_13" d="M73.2721 87.4523L54.3091 87.4953L54.3521 89.0648L54.3951 90.6128L75.5296 90.6773L96.6641 90.7203L96.5996 89.0863L96.5351 87.4523L94.3851 87.4308C93.2026 87.4093 83.6996 87.4093 73.2721 87.4523Z" fill="#F05E90"/>
<path id="Vector_14" d="M42.6131 97.6003C41.1941 99.3848 39.9686 100.825 39.8826 100.825C39.7751 100.825 39.0871 100.008 38.3561 98.9978C37.6036 97.9873 36.9371 97.1703 36.8726 97.1703C36.7651 97.1703 34.6366 98.6753 34.3571 98.9763C34.3141 99.0193 35.4966 100.718 37.0016 102.76C38.5066 104.781 39.7966 106.372 39.9041 106.265C39.9901 106.179 41.8176 103.921 43.9461 101.277L47.7946 96.4823L46.5476 95.4288C45.8381 94.8483 45.2576 94.3753 45.2146 94.3753C45.1716 94.3968 44.0106 95.8373 42.6131 97.6003Z" fill="#F05E90"/>
<path id="Vector_15" d="M54.5024 99.6427V101.255H75.5724H96.6424V99.6427V98.0302H75.5724H54.5024V99.6427Z" fill="#F05E90"/>
</g>
</svg>
