<svg width="48" height="30" viewBox="0 0 48 30" fill="none" xmlns="http://www.w3.org/2000/svg">
<g id="Clip path group">
<mask id="mask0_928_613" style="mask-type:luminance" maskUnits="userSpaceOnUse" x="0" y="0" width="48" height="30">
<g id="e5b140d316">
<path id="Vector" d="M0 0H48V29.7562H0V0Z" fill="white"/>
</g>
</mask>
<g mask="url(#mask0_928_613)">
<g id="Group">
<path id="Vector_2" d="M21.1567 25.3997C20.3561 26.0245 19.4995 26.5566 18.5842 26.9703C17.6702 27.3839 16.7025 27.6817 15.7067 27.8708C15.2076 27.9636 14.7036 28.0319 14.1947 28.0783C13.9397 28.0966 13.6822 28.1198 13.4333 28.1259L13.2453 28.1344C13.2136 28.1357 13.1843 28.1381 13.1501 28.1381L13.0501 28.1405L12.6474 28.1454L12.5973 28.1466H12.5937C12.5912 28.1466 12.5839 28.1466 12.5851 28.1466L12.562 28.1454L12.468 28.143L12.2813 28.1381L12.0934 28.1332L12.047 28.132L11.9994 28.1296L11.9066 28.1222L11.532 28.0942C11.4075 28.082 11.2831 28.0649 11.1586 28.0502L10.9707 28.0283L10.7852 27.9978C10.6607 27.9758 10.5362 27.9575 10.413 27.9343C10.1665 27.8818 9.91875 27.8355 9.67346 27.7696L9.49041 27.7232C9.45869 27.7159 9.42818 27.7085 9.39767 27.7L9.30615 27.6732L8.94127 27.567C8.82046 27.5304 8.69965 27.4877 8.57884 27.4486C8.51904 27.4291 8.45803 27.4096 8.39823 27.3888L8.03946 27.257C7.97966 27.2351 7.91987 27.2131 7.86129 27.1887L7.50618 27.0447C7.38903 26.9959 7.27188 26.9422 7.15473 26.8922C7.09737 26.8653 7.03758 26.8409 6.98022 26.8141L6.80694 26.7311C6.57385 26.6249 6.34565 26.5065 6.11746 26.3894L5.77821 26.2063C5.66472 26.1453 5.55489 26.0806 5.44262 26.0172C4.9972 25.7597 4.56033 25.4851 4.13444 25.1959C3.70733 24.9055 3.29242 24.6004 2.88849 24.2807C2.71277 24.1416 2.5407 24 2.37108 23.8548C2.50775 23.7352 2.64565 23.6156 2.78599 23.4984L2.92388 23.3837L3.06422 23.2702C3.15696 23.1946 3.25215 23.1214 3.34611 23.0469C3.53648 22.8993 3.72807 22.7553 3.92332 22.6137C4.11857 22.4734 4.31505 22.3355 4.51396 22.2013C4.61402 22.1329 4.71409 22.067 4.81538 22.0023C4.91544 21.9364 5.01673 21.8705 5.11924 21.8083C5.22174 21.7461 5.32303 21.6802 5.42676 21.6204L5.73672 21.4361C5.94661 21.319 6.15529 21.2006 6.36884 21.0908L6.52748 21.0066L6.68856 20.926C6.79595 20.8735 6.90212 20.8174 7.01073 20.7674L7.33777 20.6161C7.44516 20.5648 7.55621 20.5209 7.66604 20.4733L7.832 20.4013C7.88692 20.3793 7.94305 20.3573 7.99797 20.3354C8.10901 20.2927 8.22006 20.2475 8.33233 20.2048C8.55687 20.1255 8.78141 20.0413 9.00961 19.9717L9.18045 19.9168L9.26466 19.89L9.3513 19.8656L9.69543 19.7692C9.75278 19.7521 9.81136 19.7399 9.86871 19.7252L10.2153 19.6422C10.2739 19.6276 10.3324 19.6178 10.391 19.6056L10.74 19.5361C10.856 19.5166 10.9694 19.4995 11.0842 19.4812L11.255 19.4531L11.2782 19.4507L11.3441 19.5263C11.3905 19.5776 11.4368 19.6239 11.482 19.6715L11.7724 19.9742L12.0812 20.267C12.1324 20.3159 12.1837 20.3647 12.2361 20.4123L12.3972 20.5514C12.5046 20.6429 12.6108 20.7369 12.7206 20.8272L13.055 21.0883C13.1648 21.1774 13.2807 21.2567 13.3954 21.3397L13.5675 21.4617C13.6249 21.5032 13.6822 21.5435 13.742 21.5813L14.0959 21.812C14.1545 21.851 14.2155 21.8864 14.2753 21.923L14.4559 22.0304L14.6377 22.1378C14.6975 22.1744 14.7597 22.2061 14.8208 22.2403L15.1905 22.4417C15.4407 22.5661 15.6896 22.6955 15.9447 22.809C16.1973 22.9286 16.4548 23.0323 16.7123 23.1409C16.9722 23.241 17.2309 23.3447 17.4933 23.435C18.0168 23.6205 18.5476 23.784 19.0821 23.9243C19.6178 24.0659 20.1572 24.1867 20.7003 24.288C21.1957 24.3807 21.6948 24.4564 22.1951 24.5162C21.8571 24.8249 21.5118 25.1215 21.1567 25.3997ZM47.435 23.3117L47.3508 23.23L47.2715 23.1555C47.219 23.1079 47.1665 23.0591 47.1153 23.0128C47.0628 22.9652 47.0103 22.9188 46.9578 22.8724C46.9054 22.8261 46.8517 22.7797 46.7992 22.7345C46.5881 22.5527 46.3733 22.3758 46.1561 22.2037C45.7217 21.8596 45.275 21.5313 44.8162 21.2189C44.3573 20.9077 43.8875 20.6124 43.4055 20.3342C43.2847 20.2658 43.1651 20.195 43.0431 20.1292L42.6745 19.9315C42.4268 19.8045 42.1791 19.6764 41.9253 19.5593L41.7361 19.469C41.6739 19.4397 41.6092 19.4128 41.5457 19.3835C41.4164 19.3286 41.2895 19.27 41.1601 19.2164L40.7708 19.0589C40.7062 19.0321 40.6403 19.0077 40.5744 18.9833L40.3767 18.9113L40.179 18.8381C40.1119 18.8149 40.0447 18.7941 39.9788 18.7722C39.8446 18.7282 39.7116 18.6819 39.5774 18.6404L39.171 18.522L39.0697 18.4927C39.0355 18.4829 39.0014 18.4756 38.9672 18.4671L38.761 18.4146C38.4876 18.3414 38.2094 18.2889 37.9324 18.2303C37.792 18.2047 37.6517 18.1827 37.5114 18.1596L37.3015 18.1254L37.0891 18.0998C36.9476 18.0827 36.8072 18.0644 36.6645 18.0497L36.2239 18.0168L36.1129 18.0095L36.058 18.0058L35.8078 17.9997L35.6064 17.9936L35.5052 17.9912H35.4808L35.4478 17.9899L35.4344 17.9912H35.3831C35.1049 17.996 34.8254 17.996 34.546 18.0119C34.2678 18.0204 33.9883 18.0448 33.7089 18.0644C33.1499 18.1168 32.5923 18.1913 32.037 18.295C30.9277 18.5049 29.8331 18.8405 28.7946 19.3103C27.7574 19.7789 26.7835 20.3866 25.8976 21.0786C25.5828 21.3251 25.2789 21.5813 24.9848 21.8437C25.0312 21.5118 25.0849 21.1786 25.1471 20.8491C25.2423 20.3451 25.3558 19.846 25.4863 19.353C25.6169 18.8588 25.7695 18.3719 25.9403 17.8923C26.0233 17.6519 26.1185 17.4164 26.2112 17.1796C26.3101 16.9478 26.4065 16.7123 26.5151 16.4841C26.6188 16.2522 26.7372 16.0301 26.8494 15.8043L27.0313 15.4736C27.063 15.4187 27.0911 15.3626 27.124 15.3089L27.2204 15.1466L27.318 14.9855C27.3498 14.9318 27.3827 14.8781 27.4181 14.8256L27.6243 14.512C27.6573 14.4583 27.6939 14.4083 27.7305 14.357L27.8403 14.2057C27.9136 14.1044 27.9856 14.0007 28.0637 13.9043L28.2955 13.6114C28.3748 13.515 28.459 13.4223 28.5396 13.3283L28.6616 13.1868C28.7043 13.1416 28.747 13.0977 28.7897 13.0525L29.0472 12.7828L29.323 12.5217C29.3706 12.4765 29.4207 12.4289 29.4682 12.3862L29.6049 12.2691C29.6964 12.191 29.7855 12.1129 29.8795 12.0348L30.1748 11.8041C30.2712 11.7248 30.3749 11.654 30.4774 11.582L30.63 11.4722C30.68 11.4356 30.7313 11.4002 30.785 11.366L31.101 11.161C31.1523 11.1256 31.2072 11.0939 31.2609 11.0622L31.4232 10.9658L31.5855 10.8682C31.6392 10.8364 31.6965 10.8071 31.7502 10.7766L32.0834 10.596C32.3104 10.4838 32.5337 10.3654 32.7668 10.2629C32.995 10.1543 33.2317 10.0591 33.466 9.96024C33.704 9.86871 33.9395 9.77353 34.1811 9.69055C34.6631 9.52092 35.1525 9.36838 35.6492 9.23903C36.1446 9.10846 36.6462 8.99619 37.1526 8.901C37.6578 8.80704 38.1667 8.73016 38.678 8.6728C38.9282 8.64351 39.1783 8.62033 39.4285 8.60202C39.4297 8.70209 39.4297 8.80216 39.4285 8.90222C39.4273 9.09381 39.4224 9.28662 39.4163 9.47943L39.4029 9.76743L39.3858 10.0566L39.365 10.3459L39.3418 10.6351C39.3223 10.8279 39.3028 11.0207 39.2796 11.2135C39.2698 11.3099 39.2564 11.4063 39.243 11.5027C39.2308 11.5991 39.2174 11.6955 39.2027 11.7907C39.1881 11.8871 39.1747 11.9835 39.1588 12.0787L39.11 12.3667C39.0929 12.4631 39.0734 12.5583 39.0563 12.6547L39.0282 12.7975L38.9989 12.9415C38.9782 13.0367 38.9599 13.1318 38.9379 13.227L38.8708 13.5126C38.8501 13.6078 38.8244 13.7017 38.8 13.7969C38.7768 13.8921 38.7524 13.9873 38.7256 14.0813L38.6463 14.3644L38.5608 14.645L38.5169 14.7866L38.4705 14.9257L38.3766 15.2064L38.2765 15.4834C38.2594 15.5298 38.2436 15.5761 38.2253 15.6225L38.1716 15.7604L38.0617 16.035L37.9446 16.3083L37.886 16.4438L37.8225 16.5792L37.6968 16.8489L37.8665 16.6024L37.9507 16.4792L38.0312 16.3547L38.1935 16.1021L38.3485 15.8458L38.4254 15.7177C38.451 15.6738 38.4742 15.6298 38.4998 15.5871L38.6463 15.3248L38.7878 15.0599L38.8586 14.9269L38.9257 14.7915L39.0599 14.5218L39.1881 14.2484C39.2308 14.1581 39.2711 14.0654 39.3113 13.9739C39.3516 13.8811 39.3943 13.7896 39.4321 13.6969L39.5481 13.4174C39.5871 13.3234 39.6225 13.2295 39.6591 13.1355L39.7153 12.9939L39.7665 12.8524C39.8019 12.7572 39.8373 12.662 39.8715 12.5668L39.9703 12.2801C40.0033 12.1849 40.0338 12.0885 40.0655 11.9921C40.0972 11.8957 40.1265 11.7993 40.1558 11.7016C40.1863 11.6052 40.2168 11.5076 40.2437 11.41C40.301 11.2159 40.3547 11.0195 40.4072 10.823L40.4828 10.5277L40.5548 10.2311L40.622 9.93339L40.6866 9.63319C40.7269 9.43306 40.7647 9.23293 40.8001 9.03036C40.8367 8.82778 40.8685 8.62521 40.8977 8.4202C40.9124 8.31769 40.9258 8.21396 40.938 8.11024L40.9563 7.95281L40.9649 7.87105L40.9685 7.82956L40.9722 7.78319L40.9758 6.98632L40.1839 6.99853L40.0667 6.99975L39.9581 7.00341C39.8873 7.00585 39.8165 7.00829 39.747 7.01195C39.6762 7.01561 39.6066 7.01927 39.5371 7.02415C39.4675 7.02781 39.398 7.03269 39.3284 7.03758C39.0502 7.0571 38.7756 7.08395 38.4998 7.11446C37.9507 7.17791 37.4052 7.25967 36.8622 7.36096C36.3191 7.46225 35.7797 7.58306 35.244 7.72461C34.7083 7.86373 34.1787 8.02847 33.6552 8.21396C33.3916 8.30305 33.1329 8.40677 32.8742 8.50684C32.6167 8.61545 32.3592 8.72039 32.1066 8.83999C31.8515 8.95347 31.6026 9.08283 31.3524 9.2073L30.9827 9.40865C30.9216 9.44282 30.8594 9.47455 30.7996 9.51116L30.6178 9.61855L30.4372 9.72594C30.3762 9.76133 30.3164 9.79794 30.2578 9.83699L29.9039 10.0676C29.8441 10.1042 29.7867 10.1457 29.7294 10.1872L29.5573 10.3092C29.4426 10.391 29.3267 10.4716 29.2156 10.5606L28.8825 10.8218C28.7714 10.9133 28.6604 11.0109 28.5493 11.1061L28.3834 11.2489C28.3333 11.2953 28.287 11.3404 28.2369 11.3868L27.9331 11.6748L27.639 11.9823C27.5902 12.0336 27.5414 12.0836 27.4925 12.1361L27.3534 12.2959C27.2619 12.4033 27.1667 12.5095 27.0764 12.6181L26.8153 12.9512C26.725 13.0598 26.6444 13.1758 26.5627 13.2905L26.4394 13.4613C26.3979 13.5187 26.3564 13.576 26.3186 13.6346L26.0867 13.9873C26.0477 14.0459 26.0123 14.1057 25.9757 14.1655L25.8671 14.3461L25.7597 14.5267C25.7231 14.5865 25.6914 14.6487 25.6572 14.7097L25.4546 15.077C25.3301 15.326 25.1996 15.5725 25.0861 15.8275C24.9653 16.0789 24.8603 16.3352 24.7517 16.5914C24.6504 16.8489 24.5467 17.1064 24.4564 17.3688C24.2709 17.8899 24.1049 18.417 23.9646 18.9503C23.8231 19.4824 23.701 20.0193 23.5997 20.5599C23.5143 21.0102 23.4435 21.463 23.3862 21.9169C23.1397 21.5984 22.9017 21.2738 22.6735 20.9419C22.3831 20.5184 22.1085 20.0864 21.851 19.6447C21.5911 19.2029 21.3531 18.7514 21.1347 18.2926C21.0212 18.0644 20.9224 17.8301 20.8186 17.5982C20.7247 17.3639 20.6246 17.1308 20.5404 16.8916C20.4489 16.6561 20.3744 16.4157 20.2927 16.1765L20.1865 15.8141C20.1694 15.7531 20.1499 15.6933 20.1353 15.6323L20.0425 15.2674C20.0279 15.2076 20.012 15.1466 19.9998 15.0844L19.9229 14.717C19.9083 14.656 19.8985 14.595 19.8887 14.5328L19.8582 14.3485C19.8375 14.2252 19.8143 14.102 19.8021 13.9787L19.757 13.6078C19.746 13.4845 19.7386 13.36 19.7289 13.2368L19.7155 13.0501C19.7118 12.9891 19.7118 12.9268 19.7106 12.8646L19.7008 12.4936L19.7106 12.1141C19.7118 12.0482 19.713 11.9811 19.7155 11.9164L19.7301 11.7382C19.7399 11.6174 19.746 11.5003 19.757 11.3782L19.8021 11.0073C19.8143 10.884 19.8375 10.7608 19.8582 10.6375L19.8887 10.4532C19.8985 10.391 19.9083 10.33 19.9229 10.269L19.9998 9.90166C20.012 9.84065 20.0279 9.77963 20.0425 9.71861L20.0889 9.53557L20.1353 9.35374C20.1499 9.29272 20.1694 9.23293 20.1865 9.17191L20.2927 8.80948C20.3744 8.57152 20.4489 8.32989 20.5404 8.09437C20.6246 7.85641 20.7247 7.62211 20.8186 7.38781C20.9224 7.15595 21.0212 6.92165 21.1347 6.69345C21.3531 6.23461 21.5911 5.78309 21.851 5.34133C22.1085 4.9008 22.3831 4.46759 22.6735 4.04535C22.9639 3.6219 23.2702 3.20944 23.59 2.81039C23.7462 2.61392 23.906 2.41989 24.0708 2.23196C24.144 2.30396 24.2172 2.37718 24.2904 2.4504C24.4259 2.58829 24.5601 2.72863 24.6931 2.87141L24.8896 3.08618L25.0849 3.3034L25.2765 3.52428L25.4656 3.74882C25.5913 3.89892 25.7145 4.05024 25.8354 4.20522C25.8964 4.28088 25.9562 4.35898 26.016 4.43708C26.0758 4.51396 26.1356 4.59206 26.1929 4.67138C26.2515 4.7507 26.3101 4.8288 26.3674 4.90812L26.5383 5.14852C26.5944 5.22906 26.6493 5.31083 26.7042 5.39137L26.7872 5.5134L26.869 5.63665C26.9214 5.71963 26.9776 5.80139 27.0288 5.88437L27.1863 6.13576C27.2387 6.21874 27.2875 6.30416 27.3376 6.38837C27.3888 6.47379 27.4389 6.55799 27.4864 6.64463L27.6329 6.90334L27.772 7.16449L27.8416 7.29628L27.9075 7.4293L28.0405 7.69533L28.1662 7.96502L28.2284 8.10047L28.2882 8.23715L28.4053 8.51172L28.5164 8.78873L28.5713 8.92785L28.6213 9.06818L28.7239 9.35008L28.6689 9.05598L28.6421 8.90832L28.6104 8.76066L28.5457 8.46657L28.4737 8.17369L28.4371 8.02725L28.3968 7.88204L28.3163 7.59038L28.2272 7.30116L28.1833 7.15595L28.1344 7.01195L28.0368 6.72517L27.9331 6.43962C27.9001 6.34321 27.8623 6.24925 27.8257 6.15529C27.7879 6.0601 27.7537 5.96492 27.7134 5.87217L27.5963 5.59028C27.5572 5.49631 27.5157 5.40357 27.4742 5.31082L27.4132 5.17049L27.3486 5.03259C27.3058 4.93985 27.2644 4.8471 27.2192 4.75558L27.085 4.48101C27.0398 4.38948 26.9922 4.29918 26.9458 4.20766C26.9007 4.11613 26.8519 4.02583 26.8043 3.93675C26.7555 3.84644 26.7079 3.75614 26.6579 3.66706C26.559 3.48645 26.4577 3.3095 26.354 3.13256L26.1966 2.86775L26.0355 2.60538L25.8695 2.34545L25.7011 2.08674C25.5864 1.9159 25.4705 1.74506 25.3509 1.57543C25.2325 1.40581 25.1093 1.23862 24.9836 1.07266C24.9201 0.988458 24.8554 0.905476 24.7908 0.822495L24.6907 0.698022L24.6382 0.634565L24.6114 0.601617L24.5797 0.566228L24.0171 0L23.4655 0.566228L23.3837 0.65043L23.3093 0.72853C23.2617 0.779784 23.2129 0.831037 23.1665 0.88351C23.1189 0.934764 23.0726 0.987237 23.0262 1.03971C22.9798 1.09096 22.9334 1.14344 22.8883 1.19591C22.7065 1.40581 22.5295 1.61814 22.3575 1.83292C22.0133 2.26369 21.6851 2.70667 21.3739 3.1594C21.0615 3.61336 20.7662 4.07952 20.4879 4.55545C20.2097 5.03137 19.951 5.52072 19.7118 6.01983C19.5898 6.26877 19.4812 6.52382 19.3689 6.77765C19.2639 7.03391 19.1553 7.29018 19.0626 7.55255C18.9625 7.81248 18.8783 8.07851 18.7905 8.34332L18.6721 8.7448C18.6526 8.81192 18.6306 8.87904 18.6147 8.94615L18.5623 9.14995L18.511 9.35374C18.4939 9.42208 18.4768 9.48919 18.4634 9.55875L18.3768 9.97C18.3609 10.0383 18.3499 10.1079 18.3377 10.1775L18.3036 10.3861C18.2804 10.524 18.256 10.6631 18.2413 10.8035L18.1901 11.2233C18.1766 11.366 18.1681 11.5125 18.1571 11.6577L18.1413 11.8761C18.1388 11.9445 18.1376 12.0092 18.1364 12.0763L18.1254 12.4936L18.1364 12.9171C18.1376 12.9878 18.1388 13.0586 18.1425 13.1294L18.1571 13.3405C18.1681 13.4821 18.1766 13.6224 18.1901 13.764L18.2413 14.1838C18.256 14.3241 18.2804 14.462 18.3036 14.6011L18.3389 14.8086C18.3499 14.8781 18.3609 14.9477 18.3768 15.016L18.4634 15.4285C18.4768 15.4968 18.4939 15.5652 18.511 15.6323L18.5623 15.8361L18.6147 16.0399C18.6306 16.1082 18.6526 16.1741 18.6721 16.2412L18.7905 16.6439C18.8783 16.9075 18.9625 17.1748 19.0626 17.4335C19.1553 17.6958 19.2639 17.9521 19.3689 18.2096C19.4812 18.4622 19.5898 18.7185 19.7118 18.9662C19.951 19.4653 20.2097 19.9546 20.4879 20.4306C20.7662 20.9077 21.0615 21.3727 21.3739 21.8266C21.6338 22.2049 21.9047 22.5734 22.1878 22.9359C21.7876 22.8846 21.3873 22.8224 20.9907 22.748C20.4843 22.6528 19.9827 22.5405 19.4873 22.4099C18.9906 22.2806 18.5012 22.128 18.0204 21.9572C17.7776 21.8754 17.5421 21.7802 17.3041 21.6887C17.0698 21.5899 16.8343 21.4947 16.6049 21.3861C16.3718 21.2836 16.1485 21.1652 15.9215 21.0529L15.5896 20.8723C15.5334 20.8418 15.4773 20.8125 15.4236 20.7796L15.099 20.5868C15.0453 20.555 14.9904 20.5233 14.9391 20.4879L14.6231 20.2829C14.5694 20.2487 14.5193 20.2121 14.4681 20.1755L14.3156 20.0669C14.213 19.9937 14.1093 19.9229 14.0129 19.8448L13.7176 19.6142C13.6212 19.5349 13.5284 19.4519 13.4333 19.3713L13.2917 19.2505C13.2466 19.2078 13.2014 19.1651 13.1563 19.1224L12.8853 18.8661L12.623 18.5915C12.5778 18.544 12.5302 18.4951 12.4863 18.4476L12.3691 18.3109C12.291 18.2194 12.2117 18.1315 12.1336 18.0375L11.9018 17.7434C11.8237 17.647 11.7517 17.5445 11.6784 17.4432L11.5698 17.2907C11.532 17.2407 11.4954 17.1894 11.4624 17.1369L11.2562 16.8233C11.2208 16.7708 11.1891 16.7171 11.1561 16.6634L11.0597 16.5011L10.9621 16.3401C10.9292 16.2864 10.9011 16.2302 10.8694 16.1753L10.6875 15.8446C10.5753 15.6189 10.4569 15.3955 10.3544 15.1649C10.2446 14.9367 10.1494 14.7012 10.0493 14.4693C9.9578 14.2326 9.86139 13.9971 9.77841 13.7566C9.60757 13.2771 9.45503 12.7902 9.32445 12.2959C9.19388 11.8029 9.08039 11.3026 8.9852 10.7998C8.89002 10.297 8.81314 9.78939 8.75578 9.28174C8.7265 9.03158 8.70331 8.78141 8.68501 8.53246C8.77653 8.53125 8.86927 8.53125 8.96202 8.53246C9.14995 8.53246 9.3391 8.53735 9.52824 8.54223C9.71739 8.54955 9.90654 8.55809 10.0957 8.56907L10.38 8.58738L10.6656 8.61057L10.9499 8.63741C11.0439 8.64595 11.1391 8.65694 11.233 8.6667C11.3282 8.67646 11.4234 8.68989 11.5174 8.70087C11.6125 8.71307 11.7077 8.72528 11.8017 8.7387C11.9908 8.76433 12.18 8.79483 12.3691 8.82534C12.5571 8.85951 12.7462 8.89124 12.9329 8.93029C13.1221 8.96568 13.3088 9.00717 13.4967 9.04866C13.5907 9.06941 13.6834 9.09381 13.7774 9.11578C13.8701 9.13896 13.9641 9.16093 14.0568 9.18656L14.3363 9.26099L14.6133 9.34154L14.7524 9.38181L15.1661 9.5136C15.3479 9.57828 15.5334 9.63685 15.7128 9.70763L15.9849 9.81014L16.2546 9.91997L16.3901 9.9761L16.5231 10.0347L16.7904 10.153L16.5463 9.99197L16.4243 9.9102L16.2998 9.83332L16.0508 9.67834L15.797 9.53069C15.6286 9.4294 15.4553 9.3391 15.2833 9.24391L15.0209 9.10846L14.8891 9.04134L14.7573 8.97666L14.4913 8.84731L14.2216 8.72528C14.1313 8.68378 14.041 8.64473 13.9507 8.60568C13.8592 8.56663 13.7689 8.52636 13.6773 8.48975C13.4943 8.41531 13.31 8.34088 13.1245 8.27132C12.9403 8.19932 12.7523 8.13464 12.5656 8.06752C12.3777 8.00285 12.1898 7.93939 11.9994 7.87959C11.9054 7.84909 11.8102 7.8198 11.7151 7.79173C11.6199 7.76366 11.5247 7.73316 11.4283 7.70753C11.3319 7.68068 11.2367 7.6514 11.1403 7.62577L10.8511 7.54889L10.5606 7.47567L10.269 7.40611C10.0737 7.36096 9.87726 7.31825 9.68079 7.27798C9.48431 7.23893 9.28662 7.2011 9.08771 7.16693C8.8888 7.13154 8.68989 7.09981 8.48853 7.07174C8.38725 7.0571 8.28596 7.04368 8.18345 7.03147L8.02847 7.01439L7.94915 7.00585L7.90766 7.00219L7.86129 6.99853L7.06076 6.99486L7.07296 7.78319L7.07541 7.89912L7.07785 8.00651C7.08151 8.07729 7.08395 8.14806 7.08761 8.21762C7.09005 8.2884 7.09493 8.35796 7.09859 8.4263C7.10347 8.49586 7.10713 8.56541 7.11323 8.63375C7.13276 8.91076 7.15961 9.18534 7.19011 9.45869C7.25357 10.0054 7.33533 10.5484 7.43784 11.089C7.53913 11.6296 7.66116 12.1666 7.80271 12.6986C7.94305 13.2319 8.10901 13.7591 8.2945 14.2802C8.38481 14.5425 8.48853 14.7988 8.58982 15.0575C8.69843 15.3138 8.80338 15.57 8.92419 15.8214C9.03768 16.0753 9.16825 16.323 9.29272 16.5719L9.4953 16.9392C9.52947 17.0003 9.56119 17.0625 9.5978 17.1223L9.70519 17.3029L9.8138 17.4835C9.85041 17.5433 9.8858 17.6031 9.92607 17.6617L10.1567 18.0131C10.1945 18.0729 10.236 18.1303 10.2775 18.1876L10.4008 18.3585C10.402 18.3609 10.4032 18.3633 10.4057 18.3658L10.1628 18.4036C10.0981 18.4146 10.0335 18.4231 9.97 18.4366L9.77841 18.4744L9.58682 18.5134C9.52336 18.5269 9.45869 18.5379 9.39645 18.5537L9.01693 18.6452L8.92175 18.6672L8.82778 18.6941L8.63985 18.7453C8.38847 18.8112 8.14196 18.893 7.89424 18.9711C7.77221 19.0113 7.65018 19.0553 7.52692 19.098C7.46591 19.1199 7.40489 19.1407 7.34388 19.1627L7.16327 19.2322C7.04246 19.2798 6.92042 19.3237 6.80083 19.3738L6.44328 19.5227C6.32369 19.5739 6.20654 19.6276 6.08939 19.6801L5.91244 19.7606L5.73794 19.8436C5.50364 19.9534 5.27544 20.073 5.0448 20.1902L4.70555 20.3732C4.59084 20.4342 4.48101 20.5001 4.36752 20.5636C4.25525 20.6258 4.14542 20.6917 4.03437 20.7576C3.92332 20.8235 3.81349 20.8894 3.70489 20.9577C3.48523 21.0932 3.26923 21.2335 3.05446 21.3763C2.8409 21.5191 2.62857 21.6655 2.41989 21.8156C2.31494 21.8913 2.21 21.9657 2.10749 22.0438L1.95251 22.1585L1.79875 22.2769C1.59374 22.4343 1.39238 22.5954 1.19225 22.7626C1.09219 22.8456 0.993339 22.9298 0.894493 23.0164C0.84446 23.0591 0.794427 23.1031 0.745614 23.1482L0.669955 23.2166L0.632125 23.2519L0.589414 23.291L0 23.8731L0.589414 24.4418L0.674836 24.5235L0.754157 24.598C0.80663 24.6468 0.859104 24.6956 0.911578 24.742C0.964051 24.7895 1.01653 24.8359 1.069 24.8823C1.12147 24.9287 1.17395 24.975 1.22764 25.0202C1.43998 25.202 1.65475 25.379 1.87197 25.551C2.30884 25.8952 2.75548 26.2234 3.21554 26.5346C3.67438 26.847 4.14542 27.1411 4.62745 27.4193C4.74948 27.4877 4.86907 27.5584 4.9911 27.6243L5.35964 27.822C5.60858 27.9489 5.85631 28.0771 6.11013 28.1942L6.29928 28.2833C6.36274 28.3126 6.42742 28.3395 6.49209 28.3687C6.62023 28.4237 6.74714 28.4822 6.87649 28.5359L7.267 28.6933C7.33167 28.7202 7.39757 28.7446 7.46347 28.7678L7.66238 28.841L7.86007 28.913C7.92597 28.9362 7.99308 28.9582 8.0602 28.9801C8.19444 29.0228 8.32745 29.0692 8.46291 29.1107L8.86927 29.2291L8.97056 29.2584C9.00473 29.2669 9.04012 29.2754 9.07429 29.284L9.2793 29.3352C9.55265 29.4084 9.8321 29.4609 10.1103 29.5195C10.2495 29.5451 10.391 29.5671 10.5313 29.5903L10.7412 29.6244L10.9536 29.6501C11.0951 29.6659 11.2367 29.6855 11.3782 29.6989L11.8066 29.7306L11.9127 29.7379L11.9664 29.7416L12.0201 29.7428L12.2349 29.7489L12.5571 29.7562L12.5839 29.7575C12.5937 29.7575 12.5815 29.7575 12.6083 29.7575L12.6218 29.7562H12.6718L13.1746 29.7489C13.2075 29.7477 13.2453 29.7453 13.2795 29.744L13.4943 29.7355C13.7811 29.7257 14.0581 29.7013 14.3375 29.6806C14.8964 29.6293 15.4553 29.5537 16.0106 29.4487C17.1198 29.2376 18.2157 28.9008 19.253 28.4298C20.2915 27.9587 21.264 27.3498 22.15 26.6566C22.5918 26.3101 23.0128 25.944 23.4179 25.5681C23.8231 25.1935 24.2099 24.8091 24.5894 24.4308C24.9689 24.0549 25.3399 23.6852 25.7206 23.3325C26.1002 22.981 26.487 22.6442 26.8873 22.3306C27.6866 21.7046 28.5432 21.1713 29.4585 20.7564C30.3713 20.3403 31.3402 20.0425 32.3372 19.8521C32.8351 19.7582 33.3415 19.6898 33.8504 19.6422C34.1055 19.6239 34.3605 19.6008 34.6168 19.5934C34.873 19.5776 35.1305 19.5776 35.388 19.5727H35.4661L35.5674 19.5751L35.7675 19.58L35.9689 19.5849L36.0189 19.5861L36.1544 19.5971L36.5156 19.6227C36.6388 19.6349 36.7645 19.652 36.889 19.6666L37.0769 19.6886L37.2624 19.7191C37.3869 19.7399 37.5114 19.7594 37.6358 19.7814C37.8823 19.8338 38.1313 19.8802 38.3753 19.9461L38.5596 19.9913C38.5913 19.9998 38.6219 20.0071 38.6524 20.0157L38.7439 20.0413L39.1088 20.1475C39.2308 20.1853 39.3516 20.2268 39.4724 20.2658C39.5322 20.2854 39.5932 20.3049 39.653 20.3256L40.0118 20.4574C40.0728 20.4794 40.1326 20.5013 40.1912 20.5258L40.5463 20.6685C40.6647 20.7173 40.7818 20.771 40.899 20.8223C40.9575 20.8479 41.0161 20.8723 41.0747 20.8992L41.248 20.9822C41.4811 21.0883 41.7093 21.2067 41.9387 21.3238L42.2779 21.5057C42.3914 21.5667 42.5025 21.6326 42.6147 21.696C43.0614 21.9523 43.4982 22.2269 43.9254 22.5161C44.3525 22.8065 44.7698 23.1116 45.1737 23.4313C45.3629 23.5802 45.5484 23.7327 45.7302 23.889C45.585 24.0232 45.4349 24.155 45.2848 24.2868C44.9187 24.6028 44.5392 24.9067 44.1511 25.1984C43.7618 25.4912 43.3628 25.7682 42.954 26.0318L42.8002 26.1307L42.6465 26.2271C42.5415 26.2893 42.4402 26.3564 42.3341 26.4162L42.0192 26.6005L41.6995 26.7762C41.2724 27.0056 40.838 27.2265 40.3913 27.4169L40.2241 27.4913L40.0557 27.5597L39.7177 27.6963L39.376 27.8208C39.3187 27.8416 39.2625 27.8635 39.2052 27.8831L39.0307 27.9392C38.5706 28.0954 38.1008 28.215 37.6273 28.3211L37.2697 28.3907C37.2099 28.4017 37.1502 28.4163 37.0904 28.4237L36.9097 28.4505C36.7902 28.4676 36.6706 28.4883 36.5498 28.503L36.1873 28.5396C36.1275 28.5445 36.0665 28.5518 36.0055 28.5567L35.8237 28.5652L35.46 28.5847L35.0866 28.5908C35.0231 28.5908 34.9597 28.5933 34.8987 28.5933L34.7144 28.5921C34.2214 28.5957 33.7259 28.5725 33.2341 28.5384L32.8656 28.5054C32.8034 28.4993 32.7424 28.4944 32.6813 28.4871L32.4971 28.4639L32.1298 28.4163C32.0077 28.3968 31.8869 28.3748 31.7649 28.3553L31.4903 28.3077L31.4 28.2894L30.8545 28.1723L30.6751 28.1259L30.3151 28.0319C30.1943 28.0039 30.0772 27.9648 29.9576 27.9282L29.6025 27.8184L29.5122 27.7915C29.4829 27.7818 29.4536 27.7708 29.4255 27.7598L29.2498 27.6976L28.8984 27.5719L28.8105 27.5401C28.7812 27.5292 28.7519 27.517 28.7239 27.5048L28.5506 27.434L28.2052 27.2924C28.1479 27.268 28.0881 27.2473 28.0319 27.2204L27.8623 27.1411L27.5231 26.9849L27.3522 26.9056C27.2961 26.8799 27.2412 26.8494 27.185 26.8214L26.8519 26.6505C26.7408 26.592 26.6286 26.5358 26.5187 26.4772L26.1929 26.2918L25.8659 26.1063C25.8122 26.0745 25.756 26.0453 25.7036 26.0111L25.5437 25.9122L24.9055 25.5144L25.5169 25.9537L25.6706 26.0623C25.7206 26.1002 25.7743 26.1331 25.8268 26.1673L26.4565 26.5822C26.5627 26.6493 26.6713 26.7128 26.7799 26.7787L27.1033 26.9727C27.1582 27.0044 27.2107 27.0386 27.2668 27.0691L27.4328 27.1582L27.7647 27.34L27.9319 27.4303C27.9868 27.4608 28.0441 27.4864 28.1003 27.5145L28.442 27.6805L28.6116 27.7635C28.6409 27.7781 28.6689 27.7927 28.6982 27.805L28.7849 27.8428L29.3084 28.0698C29.3365 28.082 29.3657 28.0954 29.395 28.1076L29.4841 28.1405L29.8392 28.276C29.9588 28.3211 30.0772 28.3687 30.198 28.4066L30.5604 28.5262L30.7423 28.586L30.9253 28.6372L31.2938 28.7422L31.3854 28.7678L31.4781 28.7897L31.6648 28.8349C31.7893 28.863 31.9125 28.8947 32.037 28.9215L32.4129 28.996L32.6008 29.0326C32.6643 29.0436 32.7277 29.0533 32.79 29.0631L33.1683 29.1229C33.6759 29.1912 34.1823 29.2474 34.6936 29.2779L34.8852 29.2913C34.9499 29.295 35.0109 29.2974 35.0744 29.3011L35.4539 29.3194L35.8432 29.3242L36.0372 29.3267C36.1031 29.3267 36.1678 29.323 36.2325 29.3218L36.6205 29.3084C36.7511 29.2998 36.8805 29.2876 37.0098 29.2779L37.2038 29.262C37.2685 29.2571 37.332 29.2461 37.3967 29.2388L37.7835 29.1888C38.2948 29.1083 38.8073 29.0131 39.3077 28.8788L39.4968 28.8312C39.5603 28.8154 39.6213 28.7946 39.6835 28.7775L40.0569 28.6677L40.4267 28.5457L40.611 28.4847L40.794 28.4176C41.2821 28.2443 41.7593 28.0417 42.2303 27.8269L42.5818 27.6622L42.9296 27.4877C43.0455 27.4315 43.1578 27.3681 43.2737 27.3083L43.4445 27.2168L43.613 27.1228C44.0657 26.8714 44.5099 26.6042 44.9419 26.321C45.3751 26.0379 45.7998 25.7414 46.2147 25.4278C46.4197 25.2704 46.6259 25.1117 46.8285 24.9457C46.9286 24.8628 47.0298 24.7786 47.1299 24.6919C47.1812 24.6504 47.2312 24.6053 47.2812 24.5613L47.3569 24.493L47.3959 24.4576L47.4374 24.4186L48 23.8951L47.435 23.3117Z" fill="#ED2166"/>
</g>
</g>
</g>
</svg>
