<svg width="26" height="22" viewBox="0 0 26 22" fill="none" xmlns="http://www.w3.org/2000/svg">
<g id="Group 1000003681">
<path id="Vector" d="M14.9837 0.133644C13.5359 0.441909 12.0264 1.61331 11.359 2.93885C9.85982 5.90847 11.2769 9.47406 14.3984 10.5838C15.148 10.851 16.5753 10.9435 17.3147 10.7688C19.8509 10.1831 21.6171 7.97384 21.6171 5.39469C21.6171 4.0486 21.0934 2.76417 20.1179 1.72634C18.7625 0.298051 16.8936 -0.287651 14.9837 0.133644ZM17.2941 0.709071C18.4236 0.965958 19.625 1.8291 20.2822 2.85665C21.4733 4.71651 21.1858 7.28538 19.5942 8.87808C17.7459 10.7379 14.7578 10.7585 12.8479 8.91919C11.7184 7.84026 11.2871 6.74078 11.3693 5.15836C11.4103 4.33632 11.472 4.09998 11.7903 3.43208C12.4166 2.10654 13.577 1.12009 14.9324 0.739897C15.5074 0.585765 16.6883 0.565214 17.2941 0.709071Z" fill="#EE3764"/>
<path id="Vector_2" d="M15.0967 1.56212C13.9261 1.93204 13.0533 2.68215 12.5604 3.7508C11.6157 5.76479 12.4885 8.15898 14.5216 9.1146C15.0248 9.35094 15.2199 9.38177 16.1749 9.38177C17.1914 9.38177 17.3044 9.36121 17.9307 9.05295C19.2759 8.38504 20.0768 7.16226 20.159 5.67231C20.2309 4.24402 19.6969 3.06234 18.5879 2.21975C17.6638 1.51074 16.144 1.2333 15.0967 1.56212ZM16.3755 3.02448C16.3755 3.19917 16.5959 3.16509 16.9861 3.35005C17.3454 3.51446 17.5303 3.67887 17.6638 3.94603C17.7562 4.14127 17.8178 4.32622 17.7973 4.34678C17.787 4.35705 17.6022 4.4187 17.3968 4.48036C17.0579 4.57284 17.0271 4.55229 16.8628 4.28512C16.6061 3.833 13.0193 3.2473 15.771 6.7464C15.771 7.30128 16.6206 5.33114 16.98 5.44417C17.1854 5.5161 17.3763 5.48735 17.5714 5.65176C17.8794 5.9292 17.9205 6.02168 17.9205 6.4738C17.9205 6.8951 17.8691 7.02868 17.633 7.27529C17.4687 7.4397 17.1401 7.61438 16.9142 7.68631C16.5548 7.77879 16.4829 7.84044 16.4829 8.04595C16.4829 8.42614 17.0211 8.84897 16.98 8.46877C16.9594 8.25299 19.6855 7.93578 19.398 7.86385C18.9873 7.7611 17.787 5.63121 17.5714 5.22019C17.3454 4.78862 14.5011 6.27857 14.9324 6.16554C15.3226 6.07306 15.3431 6.08333 15.4047 6.34022C15.4869 6.65876 17.4687 8.04595 17.6638 8.04595C17.7562 8.04595 16.0722 6.80262 16.0722 6.37105V5.78534L15.5485 5.60039C14.8913 5.36405 18.5263 4.9222 18.5879 4.28512C18.6495 3.71997 17.6037 3.78354 18.189 3.6294C18.5586 3.53693 16.0722 3.10344 16.0722 2.89793C16.0722 2.72325 15.8346 4.34678 15.9783 4.34678C16.1221 4.34678 16.3755 2.86008 16.3755 3.02448Z" fill="#EE3764"/>
<g id="Black">
<path id="Vector_3" d="M14.562 3.85094V4.07274H14.8159C15.1141 4.07274 15.3882 4.14533 15.5695 4.27438C15.6824 4.35504 15.8516 4.61717 15.8516 4.71799C15.8516 4.74219 15.6259 4.75832 15.2068 4.75832H14.562V4.98013V5.20193H15.2108H15.8637L15.8395 5.34308C15.7831 5.67781 15.4526 5.88348 14.9046 5.91978L14.562 5.93994V6.09722C14.562 6.22224 14.6789 6.45211 15.1947 7.3595L15.8274 8.46852H16.166C16.4199 8.46852 16.5005 8.45643 16.4843 8.4161C16.4763 8.3919 16.1901 7.91199 15.8557 7.3595L15.2431 6.35129L15.4365 6.29886C15.7791 6.20611 16.0169 6.07706 16.1901 5.88348C16.3433 5.7141 16.3916 5.60925 16.4763 5.29066C16.5005 5.20597 16.5206 5.20193 16.9438 5.20193H17.3871L17.375 4.98819L17.3629 4.77849L16.9156 4.76639L16.4642 4.75429L16.44 4.61717C16.4239 4.54055 16.3513 4.3873 16.2748 4.27842L16.1418 4.07677L16.7503 4.06468L17.3629 4.05258L17.375 3.83884L17.3871 3.62913H15.9766H14.562V3.85094Z" fill="white"/>
</g>
<g id="Group 1000003680">
<path id="Vector_4" d="M2.16666 18.2822C2.16666 17.9239 1.87503 17.6322 1.51668 17.6322C1.15833 17.6322 0.866699 17.9239 0.866699 18.2822C0.866699 18.6406 1.15833 18.9322 1.51668 18.9322C1.87503 18.9322 2.16666 18.6406 2.16666 18.2822Z" fill="#EE3764"/>
<path id="Vector_5" d="M25.7669 13.2989C25.289 12.4708 24.2252 12.1874 23.4265 12.6502L18.439 15.0777C17.6638 15.4655 16.8812 15.4655 15.1662 15.4655C13.4897 15.4655 10.93 15.0422 10.904 15.0383C10.6683 14.9993 10.4447 15.1583 10.4057 15.394C10.3663 15.6302 10.5258 15.8538 10.7619 15.8928C10.8693 15.911 13.4173 16.3322 15.1662 16.3322C16.9653 16.3322 17.8684 16.3322 18.8225 15.8551L23.8325 13.4151C24.0327 13.2994 24.2658 13.2686 24.4903 13.3284C24.7135 13.3886 24.9007 13.5321 25.016 13.7323C25.1321 13.9329 25.1629 14.1664 25.103 14.3901C25.0432 14.6137 24.8998 14.8004 24.6871 14.9235L18.8281 18.5699C18.816 18.5781 17.5659 19.3654 14.7329 19.3654C12.2764 19.3654 8.48137 17.2742 8.42673 17.2443C8.38727 17.2253 7.44785 16.7655 5.63313 16.7655C5.3935 16.7655 5.19983 16.9597 5.19983 17.1988C5.19983 17.438 5.3935 17.6321 5.63313 17.6321C7.20913 17.6321 8.02115 18.0113 8.02288 18.0113V18.0108C8.18669 18.1018 12.0514 20.2321 14.7329 20.2321C17.8614 20.2321 19.2489 19.3308 19.2949 19.3L25.1325 15.6666C25.5333 15.4352 25.8202 15.0613 25.9398 14.6145C26.0603 14.1668 25.9983 13.6997 25.7669 13.2989Z" fill="#EE3764"/>
<path id="Vector_6" d="M5.63313 11.5657H9.09971C9.60538 11.5657 10.4647 12.2105 11.223 12.779C12.1737 13.4922 13.072 14.1656 13.8662 14.1656H16.4661C17.1243 14.1656 17.451 14.4641 17.4597 14.4719C17.5442 14.5564 17.6552 14.5989 17.7661 14.5989C17.877 14.5989 17.9879 14.5564 18.0724 14.4719C18.2418 14.3025 18.2418 14.0286 18.0724 13.8592C18.0153 13.8021 17.4831 13.2989 16.4661 13.2989H13.8662C13.3605 13.2989 12.5012 12.6541 11.7429 12.0857C10.7922 11.3724 9.89396 10.699 9.09971 10.699H5.63313C5.3935 10.699 5.19983 10.8931 5.19983 11.1323C5.19983 11.3715 5.3935 11.5657 5.63313 11.5657Z" fill="#EE3764"/>
<path id="Vector_7" d="M3.03323 8.96544H0.433303C0.193674 8.96544 0 9.15957 0 9.39875C0 9.63792 0.193674 9.83205 0.433303 9.83205H3.03323C3.2724 9.83205 3.46653 10.0266 3.46653 10.2654V19.7984C3.46653 20.0372 3.2724 20.2317 3.03323 20.2317H0.433303C0.193674 20.2317 0 20.4258 0 20.665C0 20.9042 0.193674 21.0983 0.433303 21.0983H3.03323C3.74993 21.0983 4.33319 20.515 4.33319 19.7983V10.2654C4.33319 9.5487 3.74993 8.96544 3.03323 8.96544Z" fill="#EE3764"/>
</g>
</g>
</svg>
