<svg width="51" height="30" viewBox="0 0 51 30" fill="none" xmlns="http://www.w3.org/2000/svg">
<g id="Group 1000003614">
<g id="Clip path group">
<mask id="mask0_676_728" style="mask-type:luminance" maskUnits="userSpaceOnUse" x="18" y="0" width="14" height="27">
<g id="3f619703d8">
<path id="Vector" d="M18.6406 0H31.974V26.2344H18.6406V0Z" fill="white"/>
</g>
</mask>
<g mask="url(#mask0_676_728)">
<g id="Group">
<path id="Vector_2" fill-rule="evenodd" clip-rule="evenodd" d="M25.297 0C17.2397 5.90625 16.8022 18.4948 25.297 25.9792C33.797 18.4948 33.3595 5.90625 25.297 0Z" fill="#ED2166"/>
</g>
</g>
</g>
<path id="Vector_3" fill-rule="evenodd" clip-rule="evenodd" d="M9.3285 5.40118C12.615 5.33347 15.6931 6.33347 18.2712 8.0991C17.5525 10.8699 17.5212 13.8126 18.1462 16.6147C18.9118 20.047 20.6098 23.146 23.0056 25.6824C12.99 23.7866 6.766 14.3022 9.3285 5.40118ZM41.266 5.40118C37.9795 5.33347 34.9014 6.33347 32.3233 8.0991C33.042 10.8699 33.0733 13.8126 32.4483 16.6147C31.6827 20.047 29.99 23.146 27.5941 25.6824C37.6045 23.7866 43.8285 14.3022 41.266 5.40118Z" fill="#ED2166"/>
<path id="Vector_4" fill-rule="evenodd" clip-rule="evenodd" d="M0 19.3592C2.5625 17.3123 5.61458 16.2394 8.73958 16.0728C11.1771 21.7811 16.5417 25.8592 22.7448 27.0363L23.2917 27.1405C14.1927 31.6978 3.44271 27.9634 0 19.3592ZM50.5938 19.3592C48.0365 17.3123 44.9844 16.2394 41.8594 16.0728C39.4167 21.7811 34.0521 25.8592 27.8542 27.0363L27.3073 27.1405C36.401 31.6978 47.151 27.9634 50.5938 19.3592ZM29.6458 20.3748C27.9271 21.8696 26.4323 23.7446 25.2969 25.979C25.2865 25.9842 25.276 25.9894 25.2708 25.9998L24.4583 25.1978C24.3021 25.0415 24.151 24.88 24 24.7238L23.9323 24.6509L23.875 24.5936L23.8698 24.5832L23.8073 24.5155L23.7396 24.4425L23.7344 24.4321L23.6771 24.3748L23.6146 24.3071L23.6042 24.2915L23.5885 24.2707L23.526 24.203L23.4948 24.1613L23.4323 24.0936L23.375 24.0259L23.3698 24.0207L23.3073 23.9478L23.2604 23.8957L23.2448 23.8696L23.1875 23.8071L23.1302 23.7342C23.0885 23.6821 23.0521 23.6353 23.0104 23.5884L22.9531 23.5155L22.9479 23.5103C22.875 23.4113 22.7969 23.3175 22.724 23.2186L22.6667 23.1457C22.5938 23.0467 22.5208 22.9478 22.4479 22.8436H22.4427L22.3906 22.7655C22.3177 22.6665 22.25 22.5675 22.1823 22.4634L22.1667 22.4478L22.0781 22.3123L22.0677 22.2967L22.0208 22.229L21.9688 22.1509L21.9271 22.0832L21.9062 22.0571C21.8594 21.9842 21.8125 21.9061 21.7708 21.8332L21.7188 21.755C21.6875 21.703 21.6563 21.6509 21.6198 21.5988L21.5729 21.5155V21.5103L21.5365 21.453L21.5052 21.4061L21.4427 21.2863L21.4323 21.2707L21.3385 21.1144L21.2969 21.0363L21.2917 21.0259L21.25 20.953L21.2031 20.8696L21.1615 20.7915L21.1562 20.7759C21.1302 20.729 21.1042 20.6821 21.0781 20.6353L21.0729 20.6144L21.0312 20.5415L20.9896 20.4582L20.9531 20.38L20.9479 20.3748C22.6667 21.8696 24.1615 23.7446 25.2969 25.979C25.3073 25.9842 25.3177 25.9894 25.3281 25.9998L26.1354 25.1978C26.2917 25.0415 26.4479 24.88 26.599 24.7238L26.6615 24.6509L26.7188 24.5936L26.724 24.5832L26.7865 24.5155H26.7917L26.8542 24.4425L26.8646 24.4321L26.9115 24.38L26.9167 24.3748L26.9792 24.3071L26.9896 24.2915L27.0104 24.2707L27.0677 24.203L27.1042 24.1613L27.2188 24.0259L27.224 24.0207L27.2865 23.9478L27.3333 23.8957L27.349 23.8696L27.4062 23.8071L27.4635 23.7342C27.5052 23.6821 27.5469 23.6353 27.5833 23.5884L27.6406 23.5155L27.6458 23.5103C27.724 23.4113 27.7969 23.3175 27.8698 23.2186L27.9271 23.1457C28 23.0467 28.0729 22.9478 28.1458 22.8436H28.151L28.2031 22.7655C28.276 22.6665 28.3438 22.5675 28.4167 22.4634L28.4271 22.4478L28.5156 22.3123L28.526 22.2967L28.5729 22.229L28.625 22.1509L28.6719 22.0832L28.6875 22.0571C28.7344 21.9842 28.7813 21.9113 28.8281 21.8332L28.875 21.755C28.9063 21.703 28.9427 21.6509 28.974 21.5988L29.0208 21.5155L29.026 21.5103L29.0573 21.453L29.0885 21.4061L29.1562 21.2863L29.1667 21.2707L29.2083 21.1925L29.2552 21.1144L29.2969 21.0363L29.3021 21.0259L29.3438 20.953L29.3906 20.8696L29.4323 20.7915L29.4375 20.7759C29.4635 20.729 29.4896 20.6821 29.5156 20.6353L29.5208 20.6144L29.5625 20.5415L29.6042 20.4582L29.6458 20.38V20.3748Z" fill="#ED2166"/>
</g>
</svg>
