<svg width="47" height="28" viewBox="0 0 47 28" fill="none" xmlns="http://www.w3.org/2000/svg">
<g id="Group 1000003726">
<path id="Vector" d="M30.9608 2.44264C25.459 6.4445 22.4318 11.2515 22.1994 16.3691C22.0488 19.6536 23.0946 22.1353 23.461 22.8978C24.2353 22.5515 26.6388 21.3279 28.6486 18.7216C31.7802 14.6605 32.577 9.04008 30.9608 2.44264ZM23.1765 23.6756L23.046 23.4468C22.9796 23.3282 21.399 20.499 21.5781 16.375C21.6836 13.955 22.3773 11.5953 23.6425 9.3626C25.2171 6.5856 27.6823 3.99833 30.9715 1.67429L31.3379 1.41461L31.4505 1.84859C32.4596 5.74136 32.6707 9.30331 32.0766 12.4384C31.5987 14.9593 30.6039 17.2086 29.1194 19.1248C26.589 22.3915 23.5512 23.5369 23.4231 23.5843L23.1765 23.6756Z" fill="#B71F58"/>
<g id="Clip path group">
<mask id="mask0_625_999" style="mask-type:luminance" maskUnits="userSpaceOnUse" x="18" y="0" width="11" height="24">
<g id="003e6a10e2">
<path id="Vector_2" d="M18.7017 0H28.4152V23.8108H18.7017V0Z" fill="white"/>
</g>
</mask>
<g mask="url(#mask0_625_999)">
<g id="Group">
<path id="Vector_3" d="M23.8072 1.09791C19.8859 6.66731 18.5793 12.2023 20.0282 17.1291C20.9531 20.2772 22.7329 22.2728 23.3246 22.8716C23.9447 22.2965 25.8241 20.3637 26.8842 17.25C28.5347 12.3992 27.4711 6.82264 23.8072 1.09791ZM23.3068 23.6992L23.11 23.5249C23.008 23.4348 20.5974 21.2649 19.433 17.3034C18.75 14.9793 18.6445 12.5237 19.1188 10.0028C19.7105 6.8677 21.208 3.62472 23.5688 0.3675L23.8321 0.003479L24.0787 0.378171C26.2937 3.73736 27.6454 7.04201 28.0972 10.2008C28.46 12.7395 28.2466 15.1892 27.4604 17.48C26.1217 21.3859 23.6175 23.4478 23.5119 23.5344L23.3068 23.6992Z" fill="#B71F58"/>
</g>
</g>
</g>
<path id="Vector_4" d="M23.6875 23.0909C24.4974 23.3399 27.1131 24.0004 30.3478 23.3613C35.3872 22.3676 39.7009 18.6646 42.8466 12.6422C36.05 12.0316 30.5885 13.6643 27.0313 17.3757C24.7582 19.746 23.9128 22.2799 23.6875 23.0909ZM27.5364 24.2541C25.0025 24.2541 23.2998 23.6186 23.2049 23.583L22.9595 23.4882L23.0128 23.2309C23.0401 23.0981 23.7231 19.9321 26.5831 16.9488C28.2609 15.1975 30.343 13.8813 32.7702 13.0335C35.7891 11.9794 39.3535 11.6557 43.3624 12.0707L43.8094 12.117L43.6067 12.5165C41.7937 16.107 39.5977 18.9254 37.0792 20.8914C35.054 22.4732 32.8189 23.5107 30.4355 23.9743C29.3909 24.1783 28.4139 24.2541 27.5364 24.2541Z" fill="#B71F58"/>
<path id="Vector_5" d="M23.6152 22.9961C24.463 23.0068 27.1594 22.9072 30.0834 21.387C34.639 19.0203 37.7362 14.2572 39.0571 7.59576C32.3624 8.91548 27.5815 12.0138 25.2136 16.573C23.7006 19.4851 23.6034 22.1542 23.6152 22.9961ZM23.7741 23.6174C23.4896 23.6174 23.32 23.6044 23.2915 23.602L23.0283 23.5807L23.007 23.3186C22.9963 23.1834 22.7591 19.9535 24.6622 16.2884C25.7792 14.1375 27.406 12.2901 29.4965 10.7972C32.0968 8.9392 35.4264 7.62896 39.3903 6.9021L39.8326 6.82147L39.7507 7.26257C39.0227 11.2158 37.7089 14.5359 35.8461 17.1303C34.3485 19.2148 32.4964 20.8369 30.3407 21.9515C27.4487 23.4455 24.8271 23.6174 23.7741 23.6174Z" fill="#B71F58"/>
<g id="Clip path group_2">
<mask id="mask1_625_999" style="mask-type:luminance" maskUnits="userSpaceOnUse" x="22" y="18" width="25" height="10">
<g id="d462fd2328">
<path id="Vector_6" d="M22.873 18.5521H46.6708V28H22.873V18.5521Z" fill="white"/>
</g>
</mask>
<g mask="url(#mask1_625_999)">
<g id="Group_2">
<path id="Vector_7" d="M23.7397 23.2938C24.3314 23.8997 26.3092 25.7305 29.4537 26.7182C34.352 28.2573 39.919 27.074 45.5762 23.2938C39.919 19.5149 34.352 18.3303 29.4537 19.8694C26.3092 20.8571 24.3314 22.6879 23.7397 23.2938ZM33.8208 28C32.245 28 30.7106 27.7652 29.2356 27.2981C25.2906 26.0495 23.1682 23.5986 23.0804 23.4942L22.9097 23.2938L23.0804 23.0934C23.1682 22.9903 25.2906 20.5394 29.2356 19.2896C31.5501 18.5568 34.0093 18.3979 36.5468 18.8165C39.7032 19.3358 42.9854 20.7575 46.303 23.0401L46.673 23.2938L46.303 23.5488C42.9854 25.8313 39.7032 27.2518 36.5468 27.7724C35.6267 27.9241 34.7172 28 33.8208 28Z" fill="#B71F58"/>
</g>
</g>
</g>
<path id="Vector_8" d="M15.712 2.44264C14.0958 9.04008 14.8926 14.6605 18.0242 18.7216C20.0352 21.3279 22.4375 22.5515 23.2117 22.8978C23.5793 22.1353 24.624 19.6536 24.4746 16.3691C24.241 11.2515 21.2138 6.4445 15.712 2.44264ZM23.4963 23.6756L23.2497 23.5843C23.1216 23.5369 20.085 22.3915 17.5534 19.1248C16.0689 17.2086 15.074 14.9593 14.5962 12.4384C14.0021 9.30331 14.2132 5.74136 15.2223 1.84859L15.3349 1.41461L15.7025 1.67429C18.9905 3.99833 21.4557 6.5856 23.0303 9.3626C24.2955 11.5953 24.9903 13.955 25.0947 16.375C25.2737 20.499 23.6943 23.3282 23.6268 23.4468L23.4963 23.6756Z" fill="#B71F58"/>
<path id="Vector_9" d="M3.82659 12.6422C6.97946 18.6776 11.305 22.3831 16.3563 23.3684C19.5838 23.9968 22.1794 23.3399 22.9857 23.0921C22.7592 22.2775 21.9043 19.7246 19.6206 17.3532C16.0622 13.6584 10.6078 12.0328 3.82659 12.6422ZM19.1368 24.2541C18.2594 24.2541 17.2823 24.1783 16.2377 23.9743C13.8544 23.5107 11.6192 22.4732 9.59519 20.8914C7.0755 18.9254 4.87952 16.107 3.06653 12.5165L2.86377 12.117L3.31079 12.0707C7.31976 11.6557 10.8841 11.9794 13.903 13.0335C16.3302 13.8813 18.4123 15.1975 20.0901 16.9488C22.9501 19.9321 23.6331 23.0981 23.6604 23.2309L23.7137 23.4882L23.4683 23.583C23.3734 23.6186 21.6707 24.2541 19.1368 24.2541Z" fill="#B71F58"/>
<path id="Vector_10" d="M7.61699 7.59576C8.94027 14.2714 12.0469 19.0405 16.6179 21.4025C19.5384 22.9107 22.2134 23.0079 23.0576 22.9961C23.0683 22.1507 22.9687 19.4614 21.445 16.5445C19.0724 12.0008 14.2962 8.91311 7.61699 7.59576ZM22.8988 23.6174C21.847 23.6174 19.2253 23.4455 16.3333 21.9515C14.1765 20.8369 12.3244 19.2148 10.8268 17.1303C8.96398 14.5359 7.65019 11.2158 6.92215 7.26257L6.84033 6.82147L7.28261 6.9021C11.2477 7.62896 14.5761 8.9392 17.1764 10.7972C19.2668 12.2901 20.8937 14.1375 22.0106 16.2884C23.9137 19.9535 23.6766 23.1834 23.6659 23.3186L23.6446 23.5807L23.3825 23.602C23.3529 23.6044 23.1833 23.6174 22.8988 23.6174Z" fill="#B71F58"/>
<g id="Clip path group_3">
<mask id="mask2_625_999" style="mask-type:luminance" maskUnits="userSpaceOnUse" x="0" y="18" width="24" height="10">
<g id="71592a22f9">
<path id="Vector_11" d="M0 18.5521H23.8025V28.0001H0V18.5521Z" fill="white"/>
</g>
</mask>
<g mask="url(#mask2_625_999)">
<g id="Group_3">
<path id="Vector_12" d="M1.09681 23.2939C6.75395 27.074 12.321 28.2573 17.2204 26.7183C20.3638 25.7305 22.3416 23.8998 22.9333 23.2939C22.3416 22.6879 20.3638 20.8572 17.2204 19.8695C12.321 18.3304 6.75395 19.5149 1.09681 23.2939ZM12.8522 28C11.9558 28 11.0463 27.9242 10.1262 27.7724C6.97094 27.2518 3.68764 25.8313 0.369949 23.5488L0 23.2939L0.369949 23.0401C3.68764 20.7576 6.97094 19.3359 10.1262 18.8165C12.6637 18.398 15.1241 18.5568 17.4386 19.2896C21.3824 20.5394 23.5048 22.9903 23.5938 23.0935L23.7633 23.2939L23.5938 23.4942C23.5048 23.5986 21.3824 26.0495 17.4386 27.2981C15.9624 27.7653 14.428 28 12.8522 28Z" fill="#B71F58"/>
</g>
</g>
</g>
</g>
</svg>
