<svg width="75" height="145" viewBox="0 0 75 145" fill="none" xmlns="http://www.w3.org/2000/svg">
<g id="Group 1000003671">
<g id="Clip path group">
<mask id="mask0_526_2820" style="mask-type:luminance" maskUnits="userSpaceOnUse" x="13" y="46" width="19" height="110">
<g id="69b8c18b5a">
<path id="Vector" d="M31.022 46.2489H13.0993V155.801H31.022V46.2489Z" fill="white"/>
</g>
</mask>
<g mask="url(#mask0_526_2820)">
<g id="Group">
<path id="Vector_2" d="M30.4338 49.1894C30.4338 49.1894 23.2228 74.1131 21.5425 91.1886C19.8623 108.257 18.5041 155.766 18.5041 155.766L14.4225 155.15C14.4225 155.15 15.1016 107.277 17.3419 91.1606C19.5822 75.0442 22.8517 56.2884 25.4701 49.7215C28.0885 43.1615 30.4338 49.1894 30.4338 49.1894Z" fill="#35601A"/>
</g>
</g>
</g>
<g id="Clip path group_2">
<mask id="mask1_526_2820" style="mask-type:luminance" maskUnits="userSpaceOnUse" x="0" y="0" width="75" height="56">
<g id="f8bfa86324">
<path id="Vector_3" d="M74.6807 0H0.812721V55.2102H74.6807V0Z" fill="white"/>
</g>
</mask>
<g mask="url(#mask1_526_2820)">
<g id="Group_2">
<path id="Vector_4" d="M35.2927 51.3876C40.2914 53.474 45.4932 54.5871 50.905 54.7341C52.0952 54.7551 53.2854 54.6851 54.4685 54.5241C55.6447 54.3631 56.8139 54.1181 57.955 53.782C59.1032 53.446 60.2164 53.0259 61.3015 52.5288C62.3797 52.0247 63.4229 51.4437 64.417 50.7856C65.4182 50.1275 66.3563 49.3994 67.2454 48.5942C68.1346 47.7961 68.9537 46.935 69.7168 46.0109C70.4729 45.0867 71.159 44.1136 71.7751 43.0844C72.3912 42.0553 72.9233 40.9911 73.3783 39.8849C74.0364 38.3447 74.4425 36.7415 74.6035 35.0752C74.6035 35.0752 67.0914 38.9118 64.8511 39.8989C62.6107 40.8861 54.1815 44.9677 54.1815 44.9677C54.1815 44.9677 68.2466 34.8862 63.8219 16.7535C63.8219 16.7535 57.815 17.1666 56.5758 18.0837C56.5758 18.0837 55.8477 7.58216 54.5385 5.39084C54.5385 5.39084 51.7871 5.41184 49.5678 9.1644C49.5678 9.1644 47.7125 6.89606 46.5854 5.62187C45.4512 4.34069 39.4443 6.86106 37.456 9.2064C37.456 9.2064 34.7396 3.15751 31.3861 0.546122C31.3861 0.546122 30.588 -0.0139604 27.8646 3.43755C25.1412 6.89606 25.2812 7.47015 25.2812 7.47015C25.2812 7.47015 22.0467 5.53786 21.1436 4.96378C20.2405 4.38969 17.7761 6.88206 16.6699 9.81549C15.5708 12.7419 14.0656 20.5761 14.0656 20.5761C14.0656 20.5761 13.1204 19.5539 11.9652 16.9426C10.8171 14.3382 8.84277 11.3837 6.74247 9.96252C4.64915 8.54131 4.02606 8.33127 4.02606 8.33127C4.02606 8.33127 2.05177 14.1141 2.36682 19.3579C2.68186 24.6017 7.40756 51.8427 26.9895 51.4507L35.2927 51.3876Z" fill="#FF4D7E"/>
</g>
</g>
</g>
<path id="Vector_5" d="M6.28758 28.9075C6.28758 28.9075 10.1452 33.9763 11.7624 35.7055C15.1299 39.297 28.5649 45.451 27.9278 48.7274C27.2977 52.0109 22.1799 55.5604 13.8207 51.6189C5.46146 47.6843 0.903782 34.7044 6.28758 28.9075Z" fill="#ED356E"/>
<path id="Vector_6" d="M47.2435 41.9713C47.2435 41.9713 51.4511 48.5523 51.2201 52.0038C50.989 55.4483 45.5212 60.125 40.1584 59.3129C34.7886 58.4938 29.2788 55.7704 27.5776 53.6351C25.8763 51.4927 24.8542 48.5803 29.0968 47.3341C33.3464 46.0949 43.4349 42.8535 45.7033 41.7333C46.8374 41.1662 47.2435 41.9713 47.2435 41.9713Z" fill="#ED356E"/>
<path id="Vector_7" d="M59.1521 19.2109C59.1521 19.2109 52.5011 20.7092 48.5805 24.4967C44.653 28.2843 39.7382 33.5631 38.7021 41.1802C38.7021 41.1802 46.9353 22.7395 59.1521 19.2109Z" fill="#FCCF8B"/>
<path id="Vector_8" d="M17.7413 10.3408C17.7413 10.3408 15.0249 17.6709 16.2011 23.8318C17.3843 29.9857 19.3445 38.0089 25.9885 43.7357C25.9815 43.7357 13.5057 24.3149 17.7413 10.3408Z" fill="#FCCF8B"/>
<path id="Vector_9" d="M23.986 15.4724C23.986 15.4724 33.4654 23.2225 34.5646 29.9155C35.6637 36.6085 33.1223 44.4357 33.1223 44.4357C33.1223 44.4357 36.7769 27.6402 23.986 15.4724Z" fill="#FCCF8B"/>
<path id="Vector_10" d="M44.7375 7.44917C44.7375 7.44917 34.8521 10.1306 29.2513 18.9239C29.2513 18.9239 33.2839 8.9684 44.7375 7.44917Z" fill="#FCCF8B"/>
<path id="Vector_11" d="M46.2706 6.72823C47.2018 7.67336 48.0069 8.71652 48.7 9.85069C49.3791 10.9709 49.8972 12.161 50.2542 13.4212C50.6183 14.6814 50.7933 15.9626 50.7723 17.2718C50.7793 17.9299 50.7373 18.588 50.6603 19.2391C50.6253 19.5681 50.5763 19.8972 50.5063 20.2262C50.4502 20.5483 50.3942 20.8843 50.3452 21.2134C50.4642 20.9053 50.5763 20.5903 50.6813 20.2752L50.8493 19.7922L50.9333 19.5541L51.0033 19.2951C51.1784 18.63 51.2904 17.9649 51.3464 17.2788C51.3814 16.9427 51.4024 16.5997 51.3954 16.2566L51.3394 15.2345C51.3324 15.0595 51.3114 14.8914 51.2764 14.7234L51.1854 14.2123L51.0943 13.7083C51.0523 13.5402 50.9963 13.3652 50.9543 13.2112C50.7583 12.5531 50.5203 11.909 50.2262 11.2859L49.7361 10.3828C49.5611 10.0957 49.3651 9.81568 49.1761 9.52864C48.98 9.2486 48.756 8.98956 48.546 8.72352C48.3359 8.45748 48.0979 8.21945 47.8669 7.98141C47.3838 7.50534 46.8517 7.08528 46.2706 6.72823Z" fill="#FCCF8B"/>
<path id="Vector_12" d="M30.3992 2.00937C29.552 2.64646 28.7959 3.37457 28.1238 4.20069C27.4447 5.01982 26.8426 5.88794 26.3246 6.81208C26.0585 7.27415 25.8275 7.75722 25.5965 8.23329C25.3584 8.70936 25.1624 9.20643 25.0154 9.71751C24.6583 10.7187 24.4343 11.7548 24.3363 12.819C24.7283 11.8318 25.0784 10.8587 25.5334 9.92754C25.9535 8.9824 26.4226 8.06526 26.9407 7.17613C27.4447 6.273 27.9978 5.39787 28.5719 4.54374C29.153 3.68262 29.7621 2.84249 30.3992 2.00937Z" fill="#FCCF8B"/>
<path id="Vector_13" d="M72.9302 37.5326C72.2301 39.3108 71.3269 40.9771 70.2068 42.5243C69.9267 42.9094 69.6677 43.2944 69.3596 43.6585C69.0586 44.0225 68.7926 44.4076 68.4565 44.7436C68.1275 45.0797 67.8334 45.4508 67.5044 45.7868L66.4822 46.7599C66.1462 47.103 65.7751 47.376 65.4181 47.6841L64.879 48.1391C64.69 48.2792 64.4939 48.4122 64.3049 48.5522L63.1637 49.3853C62.7577 49.6234 62.3586 49.8754 61.9596 50.1204L61.3575 50.4985C61.1544 50.6175 60.9374 50.7155 60.7274 50.8415L59.4742 51.5066C59.2642 51.6187 59.0471 51.7237 58.8301 51.8147L58.179 52.1017C57.7449 52.2978 57.3109 52.4938 56.8768 52.6968C57.3319 52.5708 57.7939 52.4308 58.235 52.2908L58.9631 52.0737C59.1941 52.0037 59.4182 51.9267 59.6422 51.8287L60.9654 51.2686C61.1894 51.1706 61.4135 51.0796 61.6305 50.9676L62.2606 50.6315C62.6877 50.4005 63.1077 50.1694 63.5278 49.9454L64.732 49.1333C64.935 49.0003 65.131 48.8673 65.327 48.7202L65.8871 48.2652C66.2512 47.9501 66.6502 47.6631 66.9933 47.327C68.4285 46.0038 69.6607 44.5126 70.6898 42.8534C71.747 41.2151 72.4961 39.4369 72.9302 37.5326Z" fill="#FCCF8B"/>
<path id="Vector_14" d="M4.80322 11.8319C4.20813 13.2602 3.88609 14.7444 3.83008 16.2916C3.75307 17.8388 3.87909 19.3651 4.22214 20.8773C4.29915 21.2483 4.43217 21.6194 4.53018 21.9905L4.69121 22.5435C4.75421 22.7256 4.82422 22.8796 4.89424 23.0826L5.3213 24.1468C5.48932 24.4898 5.66435 24.8329 5.83938 25.1759L6.10542 25.687C6.19643 25.855 6.30144 26.0301 6.40646 26.1701L7.03655 27.1502C7.47762 27.7663 7.97469 28.3474 8.45776 28.9215C8.10071 28.2424 7.68765 27.6193 7.3376 26.9612L6.82652 25.953C6.74251 25.785 6.6515 25.617 6.57448 25.456L6.35745 24.9449C6.21043 24.6018 6.06341 24.2588 5.90939 23.9157L5.54533 22.8656C5.48932 22.6906 5.41931 22.5225 5.36331 22.3405L5.21628 21.8014C5.12527 21.4444 4.99925 21.0873 4.93624 20.7233L4.71221 19.6381C4.6422 19.274 4.60719 18.903 4.55119 18.5389C4.46017 17.7968 4.40416 17.0547 4.39016 16.3126C4.34816 14.8004 4.48817 13.3092 4.80322 11.8319Z" fill="#FCCF8B"/>
<path id="Vector_15" d="M61.6167 21.2132C61.8197 23.1174 61.7847 25.0077 61.5186 26.898C61.4486 27.3671 61.3926 27.8431 61.2876 28.2982C61.1896 28.7603 61.1266 29.2293 60.9866 29.6844C60.8465 30.1395 60.7555 30.6015 60.6225 31.0496L60.1674 32.3868C60.0204 32.8349 59.8244 33.2619 59.6424 33.703L59.3763 34.3541C59.2783 34.5641 59.1593 34.7742 59.0543 34.9842L58.4312 36.2514C58.1861 36.6574 57.9411 37.0635 57.7031 37.4696L57.346 38.0717C57.22 38.2747 57.073 38.4637 56.94 38.6597L56.1278 39.8289C56.0018 40.0319 55.8548 40.221 55.7078 40.403L55.2597 40.9631C54.9657 41.3341 54.6646 41.7122 54.3776 42.0973C54.7206 41.7542 55.0567 41.4322 55.3997 41.0961L55.9038 40.599C56.0788 40.431 56.2399 40.249 56.3939 40.067L57.304 38.9468C57.458 38.7578 57.6121 38.5757 57.7591 38.3797L58.1581 37.7776C58.4312 37.3786 58.6972 36.9795 58.9633 36.5734L59.6424 35.2922C59.7544 35.0822 59.8734 34.8652 59.9784 34.6481L60.2725 33.969C60.4475 33.521 60.6715 33.0799 60.8185 32.6178C61.4906 30.7836 61.8967 28.8933 62.0507 26.947C62.2397 25.0147 62.0997 23.1034 61.6167 21.2132Z" fill="#FCCF8B"/>
</g>
</svg>
