<svg width="96" height="86" viewBox="0 0 96 86" fill="none" xmlns="http://www.w3.org/2000/svg">
<g id="Group 1000003672">
<path id="Vector" d="M14.3101 51.4359C20.5704 53.6989 27.5414 50.3911 29.3899 44.2153C30.2021 41.4955 30.8366 38.5091 30.5574 36.411C29.9102 31.5085 28.7554 29.0805 28.7554 29.0805C28.7554 29.0805 26.4543 29.5627 26.3105 30.1168C26.1667 30.6667 25.0161 27.5577 25.0161 27.5577C25.0161 27.5577 23.506 28.5983 23.2903 29.5627C23.2903 29.5627 21.3276 28.4418 20.6127 28.3826C19.8936 28.3276 17.9901 28.501 17.3345 29.6431C17.3345 29.6431 15.964 28.8436 15.3083 28.8986C14.6527 28.9578 13.9209 30.193 13.1341 31.7031C11.7848 34.2876 13.1341 38.7418 13.1341 38.7418C13.1341 38.7418 12.1063 37.1048 9.83477 35.3662C8.26545 34.1692 5.78246 33.4754 5.42291 33.192C5.06336 32.9086 4.29351 33.192 4.35273 33.9365C4.41195 34.681 6.78496 49.1052 14.2128 51.3809C14.2382 51.4063 14.2762 51.4232 14.3101 51.4359Z" fill="#FF4D7E"/>
<path id="Vector_2" d="M20.4308 29.6008C21.0272 29.863 21.594 30.1803 22.1312 30.5568C22.6642 30.9205 23.1633 31.3266 23.6286 31.775C24.5423 32.6633 25.2868 33.6785 25.8578 34.8206C26.4162 35.9584 26.7926 37.1513 26.9914 38.3991C27.1902 39.6512 27.2621 40.9117 27.2029 42.1765C27.3933 40.9075 27.4102 39.6385 27.2537 38.3695C27.0972 37.0751 26.7334 35.8485 26.1539 34.681C25.5659 33.5008 24.7792 32.4687 23.7936 31.5889C22.8122 30.6921 21.6871 30.028 20.4308 29.6008Z" fill="#FCCF8B"/>
<path id="Vector_3" d="M28.7301 30.4764C28.7893 30.9205 28.8189 31.3647 28.8232 31.8131C28.8316 32.2572 28.8062 32.7014 28.7386 33.137C28.7047 33.357 28.6582 33.5685 28.599 33.78C28.5355 34 28.4721 34.2199 28.4213 34.4399C28.3198 34.884 28.2394 35.3239 28.1633 35.7681C28.0152 36.6564 27.9053 37.5531 27.8333 38.4499C27.753 39.3466 27.7276 40.2476 27.7614 41.1486C27.8503 40.2645 27.9814 39.3636 28.0956 38.4753C28.2098 37.587 28.3494 36.7114 28.4975 35.8273C28.5651 35.3832 28.6455 34.9432 28.7343 34.4991C28.7809 34.2791 28.8316 34.0592 28.8866 33.8519C28.9416 33.6277 28.9797 33.3993 29.0008 33.1709C29.077 32.253 28.9839 31.3562 28.7301 30.4764Z" fill="#FCCF8B"/>
<path id="Vector_4" d="M8.77726 35.3576C9.30177 35.8356 9.82629 36.3136 10.3339 36.8043C10.8415 37.295 11.3491 37.7856 11.8482 38.289C12.3473 38.7924 12.8296 39.3 13.2991 39.833C13.7644 40.3659 14.2255 40.8904 14.6442 41.4446C15.0757 41.9945 15.4564 42.5697 15.799 43.1746C15.964 43.475 16.1078 43.7837 16.222 44.1052C16.2855 44.2617 16.3277 44.4352 16.3827 44.5959C16.4377 44.7609 16.4927 44.9258 16.5435 45.0908C16.7465 45.7549 16.9369 46.4148 17.1018 47.0958C17.2837 47.7641 17.4106 48.4452 17.4825 49.1347C17.4868 48.7878 17.4698 48.4409 17.4191 48.0983C17.3768 47.7515 17.326 47.4046 17.2626 47.062C17.1357 46.3767 16.9792 45.6999 16.7973 45.0231C16.7042 44.6847 16.6154 44.3632 16.5054 44.0164C16.3912 43.678 16.2516 43.3481 16.0866 43.035C15.744 42.409 15.3549 41.8126 14.9149 41.25C14.0351 40.1333 13.0749 39.0927 12.0343 38.124C11.0022 37.1385 9.91512 36.2163 8.77726 35.3576Z" fill="#FCCF8B"/>
<path id="Vector_5" d="M15.4309 29.6008C14.8768 30.1126 14.4411 30.7133 14.1238 31.3943C13.7981 32.0626 13.5655 32.7606 13.4174 33.4924L13.3286 34.038C13.2948 34.2199 13.2905 34.4018 13.2694 34.5837C13.2398 34.9517 13.2271 35.3197 13.2398 35.6877C13.2398 36.0515 13.2905 36.4195 13.3159 36.7917C13.3455 37.1682 13.4386 37.5151 13.5147 37.8704C13.5147 37.5024 13.4894 37.1428 13.4809 36.7833V36.2418C13.4809 36.06 13.4809 35.8823 13.4936 35.7004C13.5105 35.5227 13.519 35.3409 13.5274 35.1632C13.5317 34.9855 13.5655 34.8079 13.5824 34.6302C13.6036 34.4483 13.612 34.2707 13.6501 34.0972L13.7432 33.5685C13.8827 32.8621 14.09 32.1768 14.3565 31.5127C14.6272 30.8275 14.9868 30.1888 15.4309 29.6008Z" fill="#FCCF8B"/>
<path id="Vector_6" d="M17.4825 30.4764C17.3514 30.8444 17.2414 31.2166 17.1568 31.6016C17.068 31.978 16.9961 32.3672 16.9369 32.7521C16.8226 33.5262 16.755 34.3045 16.7465 35.0871C16.7254 36.6606 16.8819 38.213 17.2118 39.7485C17.5502 41.2882 18.0366 42.7771 18.6711 44.2196C19.3099 45.6662 20.0755 47.0367 20.968 48.3353C20.1897 46.9775 19.5087 45.5732 18.9165 44.1223C18.3327 42.6841 17.8759 41.1994 17.546 39.6808C17.216 38.1622 17.0384 36.631 17.0088 35.0828C16.9961 34.3087 17.0257 33.5347 17.0976 32.7648C17.1653 31.9907 17.2922 31.2293 17.4825 30.4764Z" fill="#FCCF8B"/>
<g id="Clip path group">
<mask id="mask0_526_2879" style="mask-type:luminance" maskUnits="userSpaceOnUse" x="20" y="50" width="9" height="45">
<g id="afe08c7415">
<path id="Vector_7" d="M28.0657 50.6363H20.4856V94.4207H28.0657V50.6363Z" fill="white"/>
</g>
</mask>
<g mask="url(#mask0_526_2879)">
<g id="Group">
<path id="Vector_8" d="M20.6971 52.4382C20.6971 52.4382 23.3493 62.3152 24.1276 69.0281C24.9017 75.7411 25.9972 94.4249 25.9972 94.4249L27.2874 94.2345C27.2874 94.2345 26.4075 75.4408 25.4685 69.0874C24.5294 62.7382 23.2181 55.3357 22.2918 52.7216C21.3612 50.1117 20.6971 52.4382 20.6971 52.4382Z" fill="#35601A"/>
</g>
</g>
</g>
<path id="Vector_9" d="M25.5957 52.3157C25.5957 52.3157 31.5007 49.9046 34.1867 46.6898C36.8728 43.4793 40.0199 36.1741 39.2458 35.8399C38.4717 35.5015 27.2454 39.1351 24.5086 43.42C21.0484 48.8513 20.084 53.9231 25.5957 52.3157Z" fill="#ED356E"/>
<g id="Clip path group_2">
<mask id="mask1_526_2879" style="mask-type:luminance" maskUnits="userSpaceOnUse" x="0" y="46" width="23" height="9">
<g id="f7a400e670">
<path id="Vector_10" d="M22.6514 46.3049H-0.000114441V54.9678H22.6514V46.3049Z" fill="white"/>
</g>
</mask>
<g mask="url(#mask1_526_2879)">
<g id="Group_2">
<path id="Vector_11" d="M21.6912 51.6388C21.6912 51.6388 20.5025 48.754 18.6498 47.8826C16.8013 47.0155 12.6729 46.7955 9.95723 47.5569C7.24159 48.3183 4.28484 49.5958 0.820496 49.1855C0.820496 49.1855 3.17659 53.6015 5.5496 54.1007C7.92261 54.604 18.5568 55.4923 21.6912 51.6388Z" fill="#ED356E"/>
</g>
</g>
</g>
<g id="Clip path group_3">
<mask id="mask2_526_2879" style="mask-type:luminance" maskUnits="userSpaceOnUse" x="0" y="48" width="46" height="12">
<g id="62c6c1d70f">
<path id="Vector_12" d="M45.3918 48.4707H5.34058e-05V59.2994H45.3918V48.4707Z" fill="white"/>
</g>
</mask>
<g mask="url(#mask2_526_2879)">
<g id="Group_3">
<path id="Vector_13" d="M0.11002 58.3053C0.11002 58.3053 1.90353 59.2486 6.61148 59.0202C11.3237 58.7918 19.9528 55.2809 21.5729 53.3267C21.6956 53.1786 21.8098 53.0221 21.9113 52.8614C22.0593 52.9883 22.2158 53.1025 22.3766 53.2082C24.5381 54.6041 33.8736 55.4713 38.4378 54.3334C42.9977 53.1955 44.4189 51.7785 44.4189 51.7785C44.4189 51.7785 42.4097 51.3343 35.4979 49.2786C28.5904 47.2228 21.9959 50.8056 21.9959 50.8056C21.8605 50.886 21.7379 50.9875 21.6279 51.1059C21.4883 51.0256 21.3445 50.9663 21.188 50.924C21.188 50.924 13.7855 49.4139 7.82972 53.3563C1.87392 57.2944 0.11002 58.3053 0.11002 58.3053Z" fill="#35601A"/>
</g>
</g>
</g>
<g id="Clip path group_4">
<mask id="mask3_526_2879" style="mask-type:luminance" maskUnits="userSpaceOnUse" x="52" y="0" width="37" height="35">
<g id="0bc4d40630">
<path id="Vector_14" d="M88.7068 0.287109H52.972V34.3933H88.7068V0.287109Z" fill="white"/>
</g>
</mask>
<g mask="url(#mask3_526_2879)">
<g id="Group_4">
<path id="Vector_15" d="M56.3856 28.1965C61.5081 35.2648 71.5331 36.4957 78.1319 30.8064C81.0378 28.2938 83.9481 25.3624 85.2086 22.7779C88.1527 16.7418 88.6941 13.1674 88.6941 13.1674C88.6941 13.1674 85.8346 12.0634 85.2678 12.5922C84.7052 13.1209 85.7627 8.76404 85.7627 8.76404C85.7627 8.76404 83.3432 8.86133 82.3957 9.80462C82.3957 9.80462 81.0971 7.12282 80.3653 6.54754C79.6335 5.96803 77.4339 4.7921 75.8688 5.62118C75.8688 5.62118 74.9763 3.73038 74.2191 3.3243C73.4662 2.92246 71.7488 3.79806 69.7692 4.94861C66.3895 6.91978 64.541 12.9433 64.541 12.9433C64.541 12.9433 64.6425 10.3503 63.4581 6.74212C62.6459 4.2549 60.4633 1.69154 60.2856 1.1078C60.108 0.528294 59.0547 0.295647 58.5683 1.18394C58.0776 2.07223 49.9349 20.1765 56.301 28.0739C56.3264 28.1119 56.356 28.1585 56.3856 28.1965Z" fill="#FF4D7E"/>
</g>
</g>
</g>
<path id="Vector_16" d="M79.2654 7.78684C79.7265 8.5144 80.1029 9.28425 80.4033 10.0922C80.7078 10.8874 80.9489 11.708 81.1181 12.5413C81.4607 14.2291 81.5115 15.9211 81.2831 17.6215C81.042 19.3177 80.564 20.942 79.8534 22.4987C79.1385 24.0638 78.2756 25.5442 77.2731 26.9401C78.4236 25.6288 79.3881 24.1949 80.1579 22.634C80.5513 21.8515 80.877 21.0478 81.1393 20.2187C81.3973 19.3812 81.5919 18.531 81.7145 17.668C81.9514 15.9168 81.8626 14.1826 81.4481 12.4652C81.0547 10.7478 80.3271 9.18696 79.2654 7.78684Z" fill="#FCCF8B"/>
<path id="Vector_17" d="M87.6365 14.7282C87.37 15.2739 87.0739 15.8026 86.744 16.3187C86.4225 16.8263 86.0587 17.3043 85.6568 17.7569C85.4623 17.9768 85.2508 18.1841 85.0308 18.3829C84.8109 18.5817 84.5697 18.7932 84.3498 19.0047C83.9099 19.4362 83.4911 19.8888 83.0766 20.3287C82.2602 21.2381 81.4734 22.173 80.7289 23.1416C79.9675 24.1018 79.2738 25.1043 78.6436 26.1534C79.405 25.2016 80.2044 24.2837 80.9912 23.3574C81.778 22.4352 82.5817 21.5216 83.4107 20.6248C83.8168 20.1849 84.2271 19.7407 84.6501 19.3008C84.8701 19.0809 85.0731 18.8778 85.2973 18.6663C85.5257 18.4506 85.7372 18.2222 85.9276 17.9768C86.689 16.9955 87.26 15.9126 87.6365 14.7282Z" fill="#FCCF8B"/>
<path id="Vector_18" d="M62.3288 5.97218C62.5488 6.89009 62.7687 7.80799 62.9464 8.73012C63.1241 9.65226 63.3186 10.5744 63.4878 11.5008C63.6528 12.4229 63.8009 13.3535 63.9278 14.2841C64.0504 15.2147 64.1477 16.1453 64.1942 17.0801C64.2535 18.0107 64.245 18.937 64.1604 19.8676C64.1223 20.3287 64.0504 20.7813 63.9404 21.2297C63.8897 21.4496 63.8136 21.6738 63.7501 21.8938C63.6867 22.1137 63.619 22.3337 63.5513 22.5664C63.2806 23.4673 62.9929 24.3599 62.6715 25.2439C62.3711 26.1364 62.0031 26.9994 61.5717 27.8369C61.8382 27.4435 62.075 27.0374 62.2823 26.6102C62.4896 26.1872 62.6926 25.76 62.8787 25.3243C63.2467 24.4571 63.5809 23.5562 63.8855 22.6763C64.0377 22.2322 64.1858 21.7923 64.3254 21.3227C64.4523 20.8532 64.5411 20.3837 64.5961 19.9015C64.6892 18.9497 64.7103 17.998 64.6553 17.042C64.5284 15.147 64.2619 13.2731 63.8474 11.4204C63.4455 9.57612 62.9422 7.75723 62.3288 5.97218Z" fill="#FCCF8B"/>
<path id="Vector_19" d="M73.8342 4.19977C72.8444 4.39012 71.9265 4.75812 71.0805 5.30379C70.2303 5.83677 69.4562 6.4628 68.7583 7.1819L68.2549 7.73602C68.0815 7.91791 67.9419 8.12095 67.7854 8.31553C67.4766 8.70891 67.1932 9.11922 66.9309 9.54222C66.656 9.95676 66.4445 10.4094 66.2034 10.845C65.9665 11.2765 65.8015 11.7503 65.6196 12.2071C65.8903 11.7926 66.1357 11.3653 66.3937 10.9508L66.804 10.3417C66.9394 10.1344 67.062 9.92715 67.2186 9.73257C67.3708 9.54222 67.5104 9.34341 67.6585 9.14883C67.8023 8.95002 67.9588 8.76814 68.1153 8.57779C68.2676 8.39167 68.4114 8.19709 68.5848 8.02366L69.0713 7.48645C69.7481 6.78428 70.4841 6.15401 71.2709 5.5872C72.0661 5.01192 72.9206 4.55085 73.8342 4.19977Z" fill="#FCCF8B"/>
<path id="Vector_20" d="M75.416 6.66577C74.9972 6.98725 74.5954 7.33411 74.2189 7.70634C73.8382 8.07435 73.4787 8.46351 73.1191 8.8569C72.417 9.65636 71.7698 10.4939 71.1776 11.3737C69.989 13.1419 69.0034 15.02 68.2208 17.0038C67.4383 18.9877 66.8588 21.0307 66.4823 23.1288C66.0974 25.2184 65.9113 27.3249 65.9155 29.4484C66.0805 27.3461 66.3808 25.2607 66.8165 23.1965C67.2564 21.1365 67.8571 19.1273 68.6269 17.1688C69.401 15.2103 70.3485 13.3449 71.4695 11.5641C72.032 10.6716 72.6412 9.81287 73.2926 8.98802C73.9398 8.15472 74.6462 7.38064 75.416 6.66577Z" fill="#FCCF8B"/>
<path id="Vector_21" d="M62.5783 33.9152C62.5783 33.9152 58.1157 47.0324 53.9661 55.2174C49.8207 63.3981 37.1266 85.3855 37.1266 85.3855L38.6663 86.1004C38.6663 86.1004 51.6861 64.1257 55.3831 56.2368C59.0843 48.3437 63.1662 38.9997 64.1011 35.3704C65.0317 31.7368 62.5783 33.9152 62.5783 33.9152Z" fill="#35601A"/>
<path id="Vector_22" d="M67.9925 37.2823C67.9925 37.2823 76.1986 38.7755 81.5199 37.0624C86.837 35.345 95.6734 29.3004 95.0897 28.3656C94.5017 27.4308 79.6037 23.5096 73.4365 26.4113C65.6279 30.0914 60.8015 35.1589 67.9925 37.2823Z" fill="#ED356E"/>
<path id="Vector_23" d="M64.2491 33.7165C64.2491 33.7165 65.1035 29.588 63.7499 27.2616C62.3964 24.9393 58.0649 21.7414 54.5498 20.6586C51.0304 19.5757 46.8681 18.9243 43.408 15.9633C43.408 15.9633 42.6932 22.6593 44.8927 24.9393C47.0966 27.215 57.9845 35.8484 64.2491 33.7165Z" fill="#ED356E"/>
<path id="Vector_24" d="M35.8488 25.8234C35.8488 25.8234 37.0967 28.1837 42.3799 31.297C47.6674 34.4102 59.6551 36.6141 62.8783 35.5523C63.1237 35.4762 63.3605 35.3789 63.5932 35.2647C63.6566 35.5185 63.7412 35.7596 63.8428 36.0007C65.1625 39.1351 74.6503 46.8041 80.4539 48.7837C86.2531 50.7633 88.8503 50.1669 88.8503 50.1669C88.8503 50.1669 86.9976 48.2211 81.0164 40.9413C75.031 33.6573 65.2133 32.989 65.2133 32.989C65.0018 32.989 64.7945 33.0144 64.5915 33.0693C64.4984 32.879 64.3842 32.7056 64.2446 32.5448C64.2446 32.5448 57.3244 25.5231 47.9212 25.7388C38.5222 25.9503 35.8488 25.8234 35.8488 25.8234Z" fill="#35601A"/>
</g>
</svg>
