<svg width="124" height="124" viewBox="0 0 124 124" fill="none" xmlns="http://www.w3.org/2000/svg">
<g id="material-symbols:fingerprint">
<path id="Vector" d="M16.7918 49.8587C16.1891 49.4282 15.8222 48.8891 15.6913 48.2416C15.5604 47.594 15.7551 46.9275 16.2752 46.2421C21.6141 38.9226 28.3101 33.2393 36.3632 29.1921C44.4163 25.1448 53.005 23.1212 62.1293 23.1212C71.2571 23.1212 79.8682 25.0811 87.9627 29.0009C96.0571 32.9207 102.817 38.5816 108.242 45.9837C108.758 46.7587 108.924 47.4476 108.738 48.0504C108.552 48.6532 108.214 49.1698 107.725 49.6004C107.208 50.0309 106.606 50.2256 105.917 50.1842C105.228 50.1429 104.625 49.7761 104.108 49.0837C99.3724 42.3671 93.2792 37.2228 85.8288 33.6509C78.3785 30.079 70.4787 28.2913 62.1293 28.2879C53.7766 28.2879 45.9404 30.0756 38.621 33.6509C31.3015 37.2262 25.2307 42.3705 20.4085 49.0837C19.8918 49.8587 19.2891 50.2893 18.6002 50.3754C17.9113 50.4615 17.3085 50.2893 16.7918 49.8587ZM76.7252 113.538C67.7696 111.299 60.4502 106.842 54.7668 100.167C49.0835 93.4912 46.2418 85.3331 46.2418 75.6921C46.2418 71.3865 47.7918 67.7698 50.8918 64.8421C53.9918 61.9143 57.7377 60.4504 62.1293 60.4504C66.521 60.4504 70.2668 61.9143 73.3668 64.8421C76.4668 67.7698 78.0168 71.3865 78.0168 75.6921C78.0168 78.5337 79.0932 80.9242 81.246 82.8634C83.3988 84.8026 85.939 85.7705 88.8668 85.7671C91.7946 85.7671 94.2918 84.7974 96.3585 82.8582C98.4252 80.919 99.4585 78.5303 99.4585 75.6921C99.4585 65.7032 95.7988 57.3073 88.4793 50.5046C81.1599 43.7018 72.4196 40.3004 62.2585 40.3004C52.0974 40.3004 43.3571 43.7018 36.0377 50.5046C28.7182 57.3073 25.0585 65.6601 25.0585 75.5629C25.0585 77.6296 25.2531 80.2129 25.6423 83.3129C26.0316 86.4129 26.9564 90.0296 28.4168 94.1629C28.6752 94.9379 28.6545 95.6268 28.3548 96.2296C28.0552 96.8323 27.5592 97.2629 26.8668 97.5212C26.1779 97.7796 25.5097 97.7572 24.8622 97.4541C24.2146 97.1509 23.7634 96.6567 23.5085 95.9712C22.2168 92.6129 21.292 89.2752 20.734 85.9582C20.176 82.6412 19.8953 79.2192 19.8918 75.6921C19.8918 64.2393 24.0476 54.6379 32.359 46.8879C40.6704 39.1379 50.5939 35.2629 62.1293 35.2629C73.7543 35.2629 83.7432 39.1379 92.096 46.8879C100.449 54.6379 104.625 64.2393 104.625 75.6921C104.625 79.9976 103.098 83.5919 100.042 86.4749C96.9871 89.3579 93.2619 90.8011 88.8668 90.8046C84.4752 90.8046 80.7069 89.3613 77.5622 86.4749C74.4174 83.5884 72.8467 79.9942 72.8502 75.6921C72.8502 72.8504 71.7962 70.4599 69.6882 68.5207C67.5802 66.5815 65.0605 65.6136 62.1293 65.6171C59.2015 65.6171 56.6819 66.5867 54.5705 68.5259C52.4591 70.4651 51.405 72.8538 51.4085 75.6921C51.4085 84.0448 53.885 91.0198 58.8382 96.6171C63.7913 102.214 70.1842 106.132 78.0168 108.371C78.7918 108.63 79.3085 109.06 79.5668 109.663C79.8252 110.266 79.8682 110.912 79.696 111.6C79.5238 112.203 79.1793 112.72 78.6627 113.15C78.146 113.581 77.5002 113.71 76.7252 113.538ZM33.5835 22.8629C32.8946 23.2934 32.2057 23.4019 31.5168 23.1884C30.8279 22.9748 30.3113 22.5219 29.9668 21.8296C29.6224 21.1407 29.5363 20.5172 29.7085 19.9592C29.8807 19.4012 30.3113 18.9052 31.0002 18.4712C35.8224 15.8879 40.8599 13.9073 46.1127 12.5296C51.3654 11.1518 56.7043 10.4629 62.1293 10.4629C67.6404 10.4629 73.0224 11.1311 78.2752 12.4676C83.5279 13.804 88.6085 15.7191 93.5168 18.2129C94.2918 18.6434 94.7448 19.1601 94.8757 19.7629C95.0066 20.3657 94.9411 20.9684 94.6793 21.5712C94.421 22.174 93.9904 22.6476 93.3877 22.9921C92.7849 23.3365 92.0529 23.2934 91.1918 22.8629C86.6279 20.5379 81.9125 18.7502 77.0455 17.4999C72.1785 16.2496 67.2064 15.6261 62.1293 15.6296C57.1349 15.6296 52.2266 16.2117 47.4043 17.3759C42.5821 18.5401 37.9752 20.3691 33.5835 22.8629ZM48.8252 111.73C43.7446 106.391 39.8472 100.943 37.133 95.3874C34.4188 89.8315 33.0634 83.2664 33.0668 75.6921C33.0668 67.8559 35.9085 61.2461 41.5918 55.8624C47.2752 50.4787 54.121 47.7886 62.1293 47.7921C70.1377 47.7921 77.0265 50.4839 82.796 55.8676C88.5654 61.2512 91.4502 67.8594 91.4502 75.6921C91.4502 76.4671 91.2125 77.0922 90.7372 77.5676C90.2618 78.0429 89.6384 78.2788 88.8668 78.2754C88.1779 78.2754 87.5752 78.0377 87.0585 77.5624C86.5418 77.0871 86.2835 76.4636 86.2835 75.6921C86.2835 69.2337 83.8931 63.8294 79.1122 59.4791C74.3313 55.1287 68.6703 52.9553 62.1293 52.9587C55.5849 52.9587 49.9653 55.1339 45.2705 59.4842C40.5757 63.8346 38.2301 69.2372 38.2335 75.6921C38.2335 82.6671 39.4391 88.5881 41.8502 93.4551C44.2613 98.3221 47.7918 103.208 52.4418 108.113C52.9585 108.63 53.2168 109.232 53.2168 109.921C53.2168 110.61 52.9585 111.213 52.4418 111.73C51.9252 112.246 51.3224 112.505 50.6335 112.505C49.9446 112.505 49.3418 112.246 48.8252 111.73ZM87.8335 102.946C80.1696 102.946 73.5167 100.363 67.8747 95.1962C62.2327 90.0296 59.4134 83.5282 59.4168 75.6921C59.4168 75.0032 59.6545 74.4004 60.1298 73.8837C60.6052 73.3671 61.2286 73.1087 62.0002 73.1087C62.7752 73.1087 63.4003 73.3671 63.8757 73.8837C64.351 74.4004 64.5869 75.0032 64.5835 75.6921C64.5835 82.1504 66.9085 87.4462 71.5585 91.5796C76.2085 95.7129 81.6335 97.7796 87.8335 97.7796C88.3502 97.7796 89.0821 97.7365 90.0293 97.6504C90.9765 97.5643 91.9668 97.4351 93.0002 97.2629C93.7752 97.0907 94.4434 97.1992 95.0048 97.5884C95.5663 97.9776 95.9314 98.558 96.1002 99.3296C96.2724 100.018 96.1432 100.621 95.7127 101.138C95.2821 101.655 94.7224 101.999 94.0335 102.171C92.4835 102.602 91.1281 102.839 89.9673 102.884C88.8066 102.929 88.0953 102.95 87.8335 102.946Z" fill="#373434"/>
</g>
</svg>
