<svg width="23" height="21" viewBox="0 0 23 21" fill="none" xmlns="http://www.w3.org/2000/svg">
<g id="Group 1000003894">
<g id="Group 1000003901">
<g id="Group 1000003904">
<path id="Vector" d="M18.4796 5.12121C18.2679 4.90942 18.0166 4.74141 17.7399 4.62678C17.4633 4.51215 17.1668 4.45316 16.8673 4.45316C16.5679 4.45316 16.2713 4.51215 15.9947 4.62678C15.7181 4.74141 15.4667 4.90942 15.255 5.12121L14.8157 5.56056L14.3763 5.12121C13.9487 4.69361 13.3688 4.45338 12.764 4.45338C12.1593 4.45338 11.5793 4.69361 11.1517 5.12121C10.7241 5.54882 10.4839 6.12879 10.4839 6.73352C10.4839 7.33825 10.7241 7.91821 11.1517 8.34582L11.5911 8.78516L14.8157 12.0098L18.0403 8.78516L18.4796 8.34582C18.6914 8.13413 18.8594 7.88278 18.9741 7.60613C19.0887 7.32949 19.1477 7.03297 19.1477 6.73352C19.1477 6.43407 19.0887 6.13755 18.9741 5.8609C18.8594 5.58426 18.6914 5.33291 18.4796 5.12121Z" fill="#EF2B7B"/>
<path id="Vector 40" d="M7.52637 15.3684H15.048C15.2564 15.3684 15.4596 15.4335 15.6292 15.5547L18.9206 17.9057C19.053 18.0002 19.2369 17.9056 19.2369 17.7429V16.3684C19.2369 15.8161 19.6846 15.3684 20.2369 15.3684H21.0001C21.5523 15.3684 22.0001 14.9207 22.0001 14.3684V2C22.0001 1.44772 21.5523 1 21.0001 1H7.52637C6.97408 1 6.52637 1.44772 6.52637 2V14.3684C6.52637 14.9207 6.97408 15.3684 7.52637 15.3684Z" stroke="black"/>
<path id="Vector 41" d="M12.6052 17.579H7.95201C7.74358 17.579 7.54037 17.6441 7.37077 17.7652L4.07937 20.1162C3.94699 20.2108 3.76312 20.1162 3.76312 19.9535V18.579C3.76312 18.0267 3.31541 17.579 2.76312 17.579H1.99996C1.44768 17.579 0.999962 17.1312 0.999962 16.579V4.21054C0.999962 3.65826 1.44768 3.21054 1.99996 3.21054H6.52628" stroke="black"/>
</g>
</g>
</g>
</svg>
