<svg width="23" height="16" viewBox="0 0 23 16" fill="none" xmlns="http://www.w3.org/2000/svg">
<g id="Group 1000003503">
<g id="Silver">
<path id="Vector" d="M4.06676 0.442054C4.00782 0.677807 3.90467 0.913561 3.831 0.957765C3.75733 1.0167 3.69839 1.16405 3.69839 1.3114C3.69839 1.51768 3.60998 1.56188 3.33002 1.51768C3.03533 1.45874 2.96166 1.51768 2.88799 1.85658C2.6817 2.75539 2.50489 3.03535 2.18072 3.03535C1.90077 3.02061 1.84183 3.12375 1.72395 3.86049C1.60607 4.65615 1.5766 4.70036 1.25244 4.62669C0.943016 4.53828 0.913546 4.59722 0.810404 5.43709C0.721996 6.26223 0.677793 6.3359 0.353631 6.3359H0L0.0294692 9.68066C0.0442039 11.5372 0.0884077 13.4822 0.117877 14.0421L0.19155 15.0293H10.1227C16.1786 15.0293 20.0538 14.9704 20.0538 14.8967C20.0538 14.823 20.1275 14.5726 20.2306 14.3368C20.319 14.1158 20.4074 13.8948 20.4074 13.8506C20.4222 13.8064 20.4664 13.7032 20.5106 13.6295C20.5695 13.5411 20.7905 12.9223 21.0116 12.2297C21.2326 11.5372 21.4683 10.9478 21.5125 10.9036C21.5567 10.8594 21.7925 10.2258 22.0283 9.50384C22.264 8.76711 22.5734 7.94198 22.7208 7.66202C23.1923 6.79268 23.2807 6.86635 21.2326 6.17382C20.5401 5.93807 19.8475 5.67284 19.6855 5.59917C19.5234 5.5255 18.8014 5.26027 18.0646 5.00979C17.3426 4.7593 16.4144 4.43514 16.0018 4.27306C15.604 4.11097 14.2336 3.62473 12.9812 3.16796C11.7288 2.71118 10.5647 2.26915 10.4026 2.21021C10.2406 2.13653 9.41542 1.84184 8.56081 1.54715C7.70621 1.26719 6.88107 0.957765 6.71899 0.884092C6.4685 0.75148 4.30251 1.43051e-05 4.19937 1.43051e-05C4.18463 1.43051e-05 4.12569 0.191565 4.06676 0.442054ZM8.14824 1.98919C9.1502 2.35755 10.491 2.85853 11.1394 3.09429C11.7877 3.33004 13.2464 3.86049 14.381 4.27306C15.5156 4.68562 17.1364 5.27501 17.991 5.58444C18.8456 5.89386 19.7739 6.23276 20.0538 6.32117C20.5106 6.46851 20.6137 6.57166 20.7611 7.17577C20.8642 7.54414 21.0852 8.03038 21.2326 8.2514C21.3947 8.48716 21.5273 8.73764 21.5273 8.81132C21.5273 8.89973 21.2179 9.79854 20.8495 10.8005L20.1717 12.6423L19.5381 12.8044C19.1845 12.8928 18.6982 13.1433 18.433 13.3496L17.9762 13.7327L16.8417 13.3054C16.2228 13.0549 12.9959 11.8761 9.69538 10.6826C6.38009 9.47438 3.65419 8.42822 3.62472 8.33981C3.59525 8.2514 3.53631 8.00091 3.49211 7.79463C3.4479 7.58834 3.24162 7.16104 3.0206 6.85161L2.6375 6.27696L3.35949 4.31726C4.02255 2.4607 4.09622 2.35755 4.50879 2.26915C4.74455 2.22494 5.21606 2.00392 5.54022 1.76817C5.86438 1.53242 6.17381 1.34087 6.23274 1.34087C6.29168 1.32613 7.14629 1.62082 8.14824 1.98919ZM6.79266 10.1816C9.01759 10.992 11.3309 11.8319 11.9203 12.0382C14.4989 12.9223 12.0087 12.3624 6.27695 10.7563C5.46654 10.5353 4.43512 10.27 3.99308 10.1669C3.21215 9.99009 3.15321 9.96062 2.93219 9.34176C2.81431 8.98813 2.71117 8.69344 2.7259 8.69344C2.7259 8.69344 4.56773 9.3565 6.79266 10.1816ZM4.87716 10.9184C8.17771 11.8024 12.7749 13.0991 12.6423 13.0991C12.4802 13.1138 6.96948 12.1855 4.62667 11.7435L2.81431 11.4046L2.53435 10.8594C2.35754 10.5205 2.31334 10.3142 2.41648 10.3142C2.51962 10.3142 3.62472 10.5942 4.87716 10.9184ZM5.09818 12.3624C6.48323 12.6128 8.8113 13.0107 10.2995 13.2759C11.773 13.5411 12.9665 13.7769 12.937 13.7916C12.9075 13.8358 8.03037 13.438 5.46654 13.1875C5.09818 13.158 4.28777 13.0844 3.66892 13.0254C2.56382 12.9223 2.51962 12.9075 2.22493 12.4213C1.85656 11.7877 1.85656 11.773 2.26913 11.8466C2.44595 11.8909 3.72786 12.1266 5.09818 12.3624ZM5.39287 13.7179C6.36536 13.8064 8.48714 13.9979 10.1079 14.1453L13.0549 14.3957L7.73568 14.4252L2.43121 14.4399L2.10705 13.9979C1.93024 13.7622 1.78289 13.5264 1.78289 13.4675C1.78289 13.4085 2.19546 13.4085 2.71117 13.4675C3.21215 13.5117 4.42039 13.6295 5.39287 13.7179Z" fill="#EE3764"/>
<path id="Vector_2" d="M4.11103 4.14041C3.72793 4.36143 3.77213 5.09816 4.15523 5.31918C4.65621 5.58441 5.17192 5.27498 5.17192 4.7298C5.17192 4.11094 4.64147 3.81625 4.11103 4.14041Z" fill="#EE3764"/>
<path id="Vector_3" d="M11.0068 4.49406C8.70821 5.30446 8.20723 8.41347 10.1227 9.99007C11.7877 11.3751 14.44 10.5942 15.1178 8.53134C15.9724 5.95279 13.5559 3.58051 11.0068 4.49406ZM14.0716 6.07066C14.0127 6.15907 13.7916 6.18854 13.5559 6.15907C13.0549 6.0854 12.9518 6.40956 13.438 6.5569C13.8064 6.67478 13.718 7.01368 13.3201 6.96947C13.1581 6.95474 12.8928 7.07262 12.7602 7.21996C12.5981 7.39678 12.3035 7.51465 12.0088 7.51465H11.5225L11.8172 8.54608C12.1708 9.85746 12.1708 9.9164 11.8025 9.72485C11.4194 9.51856 10.6532 6.92527 10.9773 6.92527C11.0215 6.92527 11.2278 6.99894 11.4341 7.07262C11.6993 7.17576 11.9204 7.17576 12.1119 7.07262C12.5392 6.83686 12.4508 6.66005 11.8025 6.4685C11.4783 6.36535 11.2278 6.21801 11.2573 6.1296C11.3162 5.95279 11.7141 5.93805 12.215 6.10013C12.7602 6.27695 12.5981 5.89385 12.0088 5.65809C11.5962 5.48128 11.5225 5.39287 11.6404 5.24552C11.7877 5.08344 12.0235 5.12765 12.9812 5.48128C13.6296 5.73177 14.1158 5.99699 14.0716 6.07066Z" fill="#EE3764"/>
<path id="Vector_4" d="M19.1992 9.75429C19.096 9.85744 19.0223 10.0637 19.0223 10.2405C19.0223 10.6678 19.3023 10.9036 19.7885 10.9036C20.039 10.9036 20.2453 10.8005 20.3485 10.5942C20.7021 9.96058 19.7149 9.23858 19.1992 9.75429Z" fill="#EE3764"/>
</g>
<g id="LightGray">
<path id="Vector_5" d="M6.01182 1.57663C5.90868 1.6945 5.42244 1.94499 4.9362 2.13654C4.22893 2.4165 4.03738 2.57858 3.89004 2.97642C3.7869 3.24164 3.47747 4.08151 3.19751 4.84771L2.69653 6.21803L3.1091 6.86636C3.33012 7.23472 3.56588 7.7357 3.61008 8.00092L3.69849 8.47243L10.3733 10.8742C14.0275 12.1856 17.2396 13.3643 17.4754 13.4675C17.8879 13.6443 17.9616 13.6443 18.3594 13.3201C18.5952 13.1286 19.0962 12.8928 19.4645 12.8044L20.1423 12.6276L20.8496 10.6679L21.5568 8.70819L21.1737 8.20721C20.9675 7.94198 20.7464 7.47048 20.6875 7.16105C20.5549 6.5422 20.6138 6.57166 17.6964 5.52551C16.9302 5.26028 15.3683 4.68563 14.2337 4.27306C13.0992 3.86049 11.6404 3.33005 10.9921 3.09429C10.3438 2.85854 9.00295 2.38703 8.01573 2.01867C6.48333 1.45875 6.18864 1.39981 6.01182 1.57663ZM4.99513 4.15519C5.21615 4.37621 5.21615 5.054 4.99513 5.27502C4.70044 5.56971 4.17 5.4813 3.90477 5.08347C3.68375 4.74457 3.68375 4.68563 3.90477 4.34674C4.17 3.9489 4.70044 3.86049 4.99513 4.15519ZM13.3202 4.49408C14.7052 5.06873 15.4272 6.26224 15.3094 7.80937C15.2357 8.89974 14.6758 9.76908 13.718 10.3143C12.8782 10.771 11.4194 10.8152 10.6385 10.4027C8.67879 9.35651 8.26622 6.77795 9.81335 5.23081C10.1375 4.89192 10.6385 4.55302 10.9185 4.46461C11.6699 4.22886 12.7161 4.2436 13.3202 4.49408ZM20.3781 9.94589C20.7022 10.6826 19.8182 11.3752 19.2582 10.8152C18.9783 10.55 18.9488 10.0048 19.1993 9.75434C19.5235 9.43018 20.1865 9.54806 20.3781 9.94589Z" fill="white"/>
<path id="Vector_6" d="M11.5813 5.28976C11.5371 5.36344 11.655 5.48131 11.8318 5.52552C12.2591 5.65813 12.7011 6.04123 12.6127 6.20331C12.5685 6.26225 12.3033 6.21804 12.0381 6.1149C11.5813 5.92335 11.3603 5.95282 11.3603 6.18858C11.3603 6.24751 11.6255 6.36539 11.9497 6.46853C12.2738 6.55694 12.5391 6.70429 12.5391 6.77796C12.5391 7.04318 11.9497 7.23473 11.434 7.13159C10.8151 7.01371 10.8151 7.04318 11.2571 8.48718C11.5371 9.41546 11.8465 9.88697 12.0528 9.68068C12.0823 9.65121 11.9644 9.19444 11.8023 8.67873C11.434 7.48522 11.434 7.51469 11.9349 7.51469C12.156 7.51469 12.5243 7.38208 12.7306 7.20526C12.9516 7.04318 13.2316 6.92531 13.3642 6.95478C13.7326 7.01371 13.7915 6.68955 13.4231 6.58641C12.9958 6.46853 13.04 6.05596 13.4821 6.08543C14.1746 6.14437 13.8504 5.82021 12.878 5.48131C11.7581 5.11295 11.6992 5.09821 11.5813 5.28976Z" fill="white"/>
<path id="Vector_7" d="M3.02066 9.34175C3.21221 9.94587 2.72597 9.78379 8.31039 11.272C10.329 11.8172 11.994 12.2297 12.0235 12.2003C12.0677 12.1561 4.55306 9.38595 3.02066 8.88498C2.90278 8.84077 2.90278 8.95865 3.02066 9.34175Z" fill="white"/>
<path id="Vector_8" d="M2.44602 10.5648C2.50496 10.7121 2.57864 10.9479 2.62284 11.0805C2.72598 11.4046 2.68178 11.3899 5.90866 11.9351C7.41159 12.1856 9.31236 12.5097 10.1522 12.6718C11.7288 12.9813 12.554 13.0402 11.6552 12.8044C11.3752 12.716 9.88701 12.3182 8.33987 11.9056C6.80747 11.5078 4.84777 10.9773 4.00789 10.7416C3.15329 10.5058 2.44602 10.3143 2.40182 10.3143C2.37235 10.3143 2.38708 10.4322 2.44602 10.5648Z" fill="white"/>
<path id="Vector_9" d="M2.26915 12.3476L2.57857 12.9223L5.00979 13.0991C6.35064 13.2023 8.05985 13.3496 8.78185 13.4233C12.274 13.7622 11.1541 13.4527 5.26027 12.4508C3.56579 12.1561 2.1218 11.8909 2.06286 11.8467C2.00392 11.8172 2.09233 12.0382 2.26915 12.3476Z" fill="white"/>
<path id="Vector_10" d="M2.13654 13.939L2.44597 14.4252L7.23472 14.4105C12.3624 14.3957 12.3329 14.3663 6.49799 13.8653C4.50881 13.7032 2.65225 13.5264 2.35756 13.4969L1.81238 13.438L2.13654 13.939Z" fill="white"/>
</g>
</g>
</svg>
