<svg width="21" height="29" viewBox="0 0 21 29" fill="none" xmlns="http://www.w3.org/2000/svg">
<g id="Black">
<path id="Vector" d="M6.18447 0.962057C6.06352 1.01703 5.89861 1.13247 5.81615 1.22043C5.52479 1.53378 5.4973 1.6877 5.4973 2.94109V4.09552L3.20493 4.11201C0.951033 4.1285 0.901558 4.1285 0.676168 4.24944C0.395806 4.39787 0.148427 4.70022 0.0604703 4.97509C0.0164919 5.12901 0 8.213 0 16.6184V28.0473L0.148427 28.3496C0.252876 28.542 0.384811 28.7014 0.538736 28.8114L0.780617 28.9763L7.65774 28.9928C15.321 29.0093 14.8262 29.0313 15.1781 28.6355C15.4804 28.2837 15.5024 28.1847 15.5024 26.9203V25.7659L17.7728 25.7494C19.8398 25.7329 20.0597 25.7219 20.2741 25.6285C20.5544 25.5075 20.8513 25.1777 20.9337 24.8863C20.9832 24.7324 20.9997 22.3026 20.9997 15.5024C20.9997 5.47534 21.0217 6.14052 20.6918 6.05806C20.5159 6.01408 20.2576 6.10753 20.1916 6.23397C20.1696 6.28894 20.1366 8.34493 20.1201 10.8077C20.0871 15.8488 20.1091 15.5464 19.6529 16.4974C19.1141 17.6244 18.2785 18.471 15.8047 20.4005C15.233 20.8458 14.4194 21.4835 14.0071 21.8133L13.2485 22.418L11.8632 21.3296C8.63076 18.8008 7.79517 18.0477 7.17948 17.1131C6.57477 16.2006 6.37687 15.4694 6.37687 14.1336C6.37687 13.2265 6.33839 13.0561 6.1185 12.9572C5.92609 12.8692 5.80515 12.8802 5.64023 13.0121L5.4973 13.1221L5.48631 16.3105L5.46982 19.499L4.66721 18.7073C2.28138 16.3435 1.2204 14.37 0.940039 11.7862C0.901558 11.4784 0.879568 9.99412 0.879568 8.26247C0.879568 5.39838 0.885066 5.26095 0.984017 5.14001L1.08847 5.00807L3.29288 4.99158L5.4973 4.97509V8.29546V11.6158L5.62374 11.7313C5.75018 11.8522 5.95358 11.8852 6.12949 11.8192C6.37687 11.7203 6.37687 11.7643 6.37687 6.69574V1.91859L6.49231 1.81414C6.60226 1.71519 6.80566 1.70969 13.0781 1.6932C16.6348 1.6877 19.6254 1.6932 19.7243 1.70969C19.8233 1.72618 19.9552 1.79215 20.0157 1.85262C20.1146 1.95157 20.1201 2.04502 20.1201 3.3259C20.1201 4.62326 20.1256 4.70022 20.2356 4.83765C20.384 5.03006 20.7083 5.03556 20.8788 4.85415C20.9942 4.72771 20.9997 4.68923 20.9997 3.27092V1.81414L20.8513 1.51179C20.7468 1.31938 20.6149 1.15996 20.461 1.05001L20.2191 0.885094L13.3145 0.8741C6.67922 0.857607 6.39336 0.863106 6.18447 0.962057ZM1.74814 16.6349C2.8476 18.317 4.39784 19.8618 7.44884 22.3136C8.72422 23.3416 8.82867 23.402 9.10903 23.2041C9.26295 23.0942 9.31793 22.8358 9.22447 22.6654C9.18599 22.5939 8.70773 22.1761 8.16349 21.7419C7.61926 21.3076 6.99257 20.8018 6.77817 20.6204L6.37687 20.2906V18.9217V17.5529L6.66273 17.9267C7.31691 18.7953 8.13601 19.5429 10.17 21.1372C10.8517 21.6649 11.7697 22.3905 12.215 22.7424C12.6548 23.0997 13.0671 23.402 13.1276 23.4185C13.298 23.4735 13.4959 23.3691 14.0621 22.9128C14.3535 22.6764 15.1781 22.0277 15.8872 21.4725C18.2071 19.6639 19.268 18.7073 19.8453 17.9102L20.0926 17.5639L20.1091 21.0602C20.1146 23.4625 20.1036 24.5895 20.0597 24.6664C20.0322 24.7269 19.9442 24.7984 19.8673 24.8258C19.7848 24.8588 18.2071 24.8808 15.9477 24.8808H12.171L11.3574 24.2486C10.6483 23.6989 10.5163 23.6164 10.3349 23.6164C10.1975 23.6164 10.0985 23.6549 10.0326 23.7264C9.91164 23.8583 9.89514 24.1717 10.0051 24.2981C10.0436 24.3476 10.5108 24.7269 11.0441 25.1392C13.155 26.7829 14.5679 27.9263 14.5514 27.9813C14.4854 28.1737 14.3864 28.1792 7.80067 28.1792C3.22142 28.1792 1.28637 28.1627 1.15993 28.1187C1.06648 28.0857 0.962028 28.0143 0.934541 27.9593C0.901558 27.8933 0.879568 25.5295 0.879568 21.4725V15.0846L1.12145 15.5684C1.25888 15.8378 1.53924 16.316 1.74814 16.6349ZM14.6228 26.2881C14.6228 26.7059 14.6063 26.8049 14.5569 26.7664C14.5184 26.7389 14.216 26.497 13.8862 26.2387L13.2925 25.7604H13.9577H14.6228V26.2881Z" fill="#151515"/>
<path id="Vector_2" d="M13.3199 4.45836C12.8031 4.61778 12.2864 5.04657 12.0445 5.51934C11.9621 5.67876 11.8631 5.77221 11.6377 5.88216C11.4728 5.95912 11.3079 6.06357 11.2694 6.10755C11.2144 6.16802 11.1649 6.15702 10.956 6.02509C10.5437 5.76122 10.2249 5.68426 9.68617 5.70625C9.27937 5.71724 9.15293 5.75022 8.84508 5.89865C8.4108 6.11305 8.07546 6.45938 7.87206 6.89366C7.73463 7.17952 7.72363 7.26748 7.72363 7.87218C7.72363 8.52086 7.72913 8.53736 7.92703 8.94416C8.21289 9.52137 8.55922 9.8787 9.76863 10.8462C10.9451 11.7863 11.066 11.8632 11.2639 11.8137C11.4343 11.7698 13.0395 10.5164 13.5783 10.0051L13.9906 9.60933L14.5348 10.0436C14.8316 10.2855 15.1395 10.4944 15.211 10.5109C15.4363 10.5714 15.5298 10.5054 17.0965 9.25201C18.4159 8.19652 18.8447 7.48187 18.7897 6.42089C18.7622 5.82169 18.5863 5.40389 18.185 4.99709C17.8222 4.62877 17.3879 4.43087 16.8547 4.39239C16.4479 4.35941 15.9421 4.45836 15.6837 4.62877C15.6123 4.67275 15.5023 4.74422 15.4309 4.7882C15.3154 4.86516 15.2879 4.85966 15.112 4.73322C14.6942 4.41988 13.8476 4.29344 13.3199 4.45836ZM11.5593 6.80571C11.7022 6.84968 14.6887 9.82373 14.8756 10.0051C15.2659 10.3954 17.7661 7.56433 18.0959 7.20701C18.6512 6.6078 17.08 5.10154 17.5968 5.67876C17.8607 5.97012 17.9431 6.23399 17.9101 6.65728C17.8497 7.36093 17.5308 7.76773 16.2005 8.81772C15.7332 9.18604 15.3319 9.48839 15.3154 9.48839C15.2934 9.48839 15.0955 9.34546 14.8756 9.17504L14.4688 8.8617L14.5568 8.6418C14.6118 8.49338 14.6392 8.21302 14.6447 7.8392C14.6502 7.30046 14.6392 7.2345 14.4798 6.90466C14.3864 6.70675 14.194 6.43189 14.0565 6.28896C13.7982 6.03608 13.3089 5.75022 13.1275 5.75022C12.9955 5.75022 13.001 5.68426 13.155 5.54133C13.4408 5.27196 11.1195 6.67377 11.5593 6.80571ZM8.27432 8.31395C8.39526 8.36892 9.08063 9.38394 9.17408 9.48839C9.52041 9.8787 10.8626 11.2834 11.1649 10.9645C11.2859 10.8381 13.5618 9.16405 13.5783 9.17504C13.5893 9.19154 11.8576 7.0311 11.9016 7.20701C12.0335 7.71276 12.2479 8.0481 12.7702 8.57034C13.034 8.83971 13.2319 9.08159 13.2154 9.11457C13.1275 9.2575 12.4183 9.85121 11.4728 10.5769L11.1649 10.8187L10.2359 10.0766C8.87807 8.98814 8.62519 8.6583 8.58671 7.92166C8.56472 7.48737 8.63069 7.26198 8.87257 6.98162C9.19141 6.59681 7.80155 8.09405 8.27432 8.31395ZM13.144 6.71775C13.5563 6.94864 13.7982 7.36643 13.7982 7.86669C13.7982 8.28448 13.7212 8.28998 13.3419 7.88867C12.9626 7.49837 12.7812 7.17403 12.7207 6.80571C12.6767 6.51985 12.7482 6.50335 13.144 6.71775Z" fill="#EF2B7B"/>
<path id="Vector_3" d="M7.83922 13.1221C7.64682 13.2705 7.64132 13.5948 7.82273 13.7653C7.94917 13.8862 7.96566 13.8862 10.258 13.8862H12.5724L12.6878 13.7598C12.8638 13.5729 12.8528 13.2705 12.6659 13.1221C12.5229 13.0121 12.4625 13.0066 10.2525 13.0066C8.04262 13.0066 7.98215 13.0121 7.83922 13.1221Z" fill="#151515"/>
<path id="Vector_4" d="M13.8698 13.0726C13.6169 13.1935 13.6059 13.6993 13.8533 13.8312C13.9138 13.8642 14.8538 13.8862 16.2337 13.8862C18.4546 13.8862 18.515 13.8807 18.658 13.7708C18.8504 13.6168 18.8559 13.331 18.6635 13.1441L18.5315 13.0066L16.2611 13.0121C14.7824 13.0121 13.9468 13.0341 13.8698 13.0726Z" fill="#151515"/>
<path id="Vector_5" d="M7.83922 14.7713C7.72927 14.8593 7.69629 14.9307 7.69629 15.0956C7.69629 15.2606 7.72927 15.332 7.83922 15.42C7.98215 15.5299 8.04262 15.5354 10.2525 15.5354C12.4625 15.5354 12.5229 15.5299 12.6659 15.42C12.8693 15.2606 12.8693 14.9307 12.6659 14.7713C12.5229 14.6614 12.4625 14.6559 10.2525 14.6559C8.04262 14.6559 7.98215 14.6614 7.83922 14.7713Z" fill="#151515"/>
<path id="Vector_6" d="M13.8368 14.7218C13.6939 14.8318 13.6279 15.0737 13.6939 15.2441C13.8038 15.5354 13.7653 15.5299 16.2226 15.5354C18.4545 15.5354 18.515 15.5354 18.6579 15.42C18.8613 15.2606 18.8613 14.9307 18.6579 14.7713C18.515 14.6614 18.4545 14.6559 16.2226 14.6559C14.4745 14.6559 13.9083 14.6724 13.8368 14.7218Z" fill="#151515"/>
<path id="Vector_7" d="M8.87816 16.4425C8.7902 16.5249 8.74072 16.6404 8.74072 16.7448C8.74072 16.8493 8.7902 16.9647 8.87816 17.0472L9.01009 17.1846H13.177C15.4694 17.1846 17.399 17.1681 17.4704 17.1516C17.6409 17.1021 17.7728 16.8383 17.7288 16.6294C17.6519 16.2885 17.8662 16.305 13.232 16.305H9.01009L8.87816 16.4425Z" fill="#151515"/>
<path id="Vector_8" d="M11.077 18.0917C10.8956 18.2676 10.8956 18.5205 11.077 18.7019L11.2144 18.8393L13.3858 18.8228C15.7937 18.8063 15.6947 18.8228 15.7607 18.438C15.7827 18.2731 15.7662 18.2126 15.6507 18.0972L15.5078 17.9542H13.3584H11.2089L11.077 18.0917Z" fill="#151515"/>
</g>
</svg>
