<svg width="33" height="30" viewBox="0 0 33 30" fill="none" xmlns="http://www.w3.org/2000/svg">
<g id="Asset 8 1 (traced)" clip-path="url(#clip0_467_1477)">
<g id="Gray">
<path id="Vector" d="M22.3508 25.0566V25.6294H23.3399C23.8829 25.6294 24.3291 25.6379 24.3291 25.6506C24.3291 25.6634 23.8071 26.5969 23.1673 27.7214C22.5275 28.8458 21.993 29.7793 21.9846 29.7963C21.9761 29.8175 22.9442 29.8303 24.1354 29.8303H26.3074V29.2574V28.6846L25.2004 28.6761L24.0891 28.6634L25.2635 26.5884C25.9075 25.4512 26.4337 24.5092 26.4337 24.5007C26.4337 24.4922 25.5161 24.4837 24.3922 24.4837H22.3508V25.0566Z" fill="#404040"/>
<path id="Vector_2" d="M26.9387 24.5049C26.9387 24.5177 27.2544 25.116 27.6374 25.8331C28.0205 26.5502 28.3825 27.2206 28.4372 27.3267L28.5424 27.5177L27.9279 28.6634C27.5911 29.2914 27.3175 29.8133 27.3175 29.8175C27.3175 29.826 27.6585 29.8303 28.071 29.8303H28.8244L29.3464 28.7567C29.6368 28.1711 30.2135 27.0467 30.6302 26.2659C31.0469 25.4851 31.4299 24.7638 31.4804 24.6619L31.5688 24.4837H30.8996H30.2303L29.7589 25.3536C29.5021 25.8331 29.2748 26.232 29.258 26.2404C29.2411 26.2532 29.0096 25.867 28.7445 25.3833L28.2646 24.5049L27.5996 24.4922C27.2376 24.488 26.9387 24.4922 26.9387 24.5049Z" fill="#404040"/>
</g>
<g id="Red">
<path id="Vector_3" d="M0 0.106094C0 0.26734 0.197832 1.70581 0.315689 2.4102C0.745026 4.92646 1.43112 7.47243 2.3361 9.90808C2.49184 10.3282 2.64758 10.7228 2.68125 10.7864L2.74018 10.9052H3.40102H4.06186L4.16288 10.6931C4.28495 10.4385 4.52066 10.2136 4.81531 10.0736C5.07628 9.95051 5.48036 9.93778 5.77921 10.0396C6.03597 10.1287 6.3727 10.4342 6.51582 10.7101C6.61263 10.8968 6.62946 10.9774 6.62946 11.2871C6.62946 11.5969 6.61263 11.6775 6.51582 11.8642C6.3727 12.14 6.03597 12.4456 5.77921 12.5347C5.48036 12.6365 5.07628 12.6238 4.81531 12.5007C4.52066 12.3607 4.28495 12.1358 4.16288 11.8812L4.06186 11.669H3.56939C3.28316 11.669 3.0727 11.686 3.0727 11.7115C3.0727 11.7709 3.68304 13.1202 3.96926 13.6846C5.30778 16.3366 7.8375 18.1528 10.9439 18.6959C11.6931 18.8275 12.8296 18.8869 12.7707 18.7935C12.7496 18.7596 12.5013 18.3862 12.2151 17.9576C10.6787 15.6577 9.33597 13.0778 8.31735 10.4894C7.65651 8.80482 7.17245 7.28573 6.71365 5.43566C6.419 4.23057 6.32219 3.93778 6.03176 3.3904C5.62347 2.60539 4.80268 1.70157 4.03661 1.18813C2.9338 0.454044 1.49426 0.0042572 0.244133 1.33514e-05C0.0126276 1.33514e-05 0 0.0042572 0 0.106094Z" fill="#EC406B"/>
<path id="Vector_4" d="M13.6378 1.89675C13.6378 1.96464 13.6841 2.35078 13.743 2.75813C14.2818 6.51768 15.3299 9.93777 17.0262 13.4809C17.4177 14.2956 17.6955 14.7794 18.0575 15.2716C18.3142 15.6195 19.0719 16.4385 19.2024 16.5106C19.2739 16.5488 19.2781 16.4894 19.2781 15.0339V13.5149L19.0466 13.3918C18.4321 13.0693 18.1669 12.3182 18.4489 11.6987C18.9203 10.6634 20.3473 10.6422 20.8439 11.6605C20.9828 11.9491 20.9955 12.3777 20.8776 12.7001C20.7724 12.9887 20.4777 13.3069 20.2126 13.4257L20.0358 13.5064V15.3352V17.1641L20.3851 17.3847C21.8163 18.2843 23.904 18.8911 25.352 18.8317L25.6845 18.819L25.4488 18.4922C22.3298 14.1132 20.221 9.04668 19.3876 3.94625C19.2908 3.35644 19.1098 1.97737 19.1098 1.83734C19.1098 1.79067 18.6004 1.78218 16.3738 1.78218H13.6378V1.89675Z" fill="#EC406B"/>
<path id="Vector_5" d="M5.08472 10.3706C4.65117 10.4894 4.40283 10.8204 4.40283 11.2871C4.40283 11.9321 4.91635 12.3564 5.54773 12.2206C5.96444 12.1273 6.2675 11.7369 6.27171 11.2956C6.27171 10.6506 5.70347 10.2051 5.08472 10.3706Z" fill="#EC406B"/>
<path id="Vector_6" d="M19.4464 11.2956C18.8318 11.4017 18.5035 12.1697 18.8402 12.7171C18.916 12.8359 19.0465 12.9675 19.1644 13.0438C19.5769 13.2984 20.1409 13.1796 20.4313 12.7807C20.5534 12.6068 20.5618 12.5728 20.5618 12.2291C20.5618 11.8981 20.5492 11.843 20.4482 11.6902C20.2251 11.3635 19.8631 11.2235 19.4464 11.2956Z" fill="#EC406B"/>
<path id="Vector_7" d="M19.6148 23.703V25.0056L19.4801 24.8911C19.0213 24.5177 18.5667 24.3564 17.9774 24.3564C17.2492 24.3564 16.7609 24.5559 16.2685 25.0566C15.6539 25.6803 15.3719 26.5799 15.4898 27.5474C15.574 28.256 15.8307 28.8034 16.2979 29.2659C17.1777 30.1358 18.5625 30.2249 19.438 29.4696L19.6148 29.3126V29.5714V29.8303H20.2882H20.9617V26.1174V22.4045H20.2882H19.6148V23.703ZM18.8487 25.7525C19.3496 26.0113 19.6148 26.4356 19.6484 27.0339C19.6779 27.5559 19.5643 27.9123 19.2738 28.2348C18.9666 28.5742 18.6803 28.7058 18.2468 28.7058C17.9648 28.7058 17.8722 28.6846 17.6743 28.587C17.3839 28.4469 17.1187 28.1669 16.9714 27.8444C16.8704 27.6322 16.8578 27.5516 16.8578 27.157C16.8578 26.7666 16.8704 26.6817 16.9672 26.4781C17.1482 26.0834 17.4176 25.8288 17.8006 25.6846C18.0363 25.5955 18.6214 25.6336 18.8487 25.7525Z" fill="#EC406B"/>
<path id="Vector_8" d="M11.3649 24.4201C10.4936 24.6365 9.7738 25.3154 9.48336 26.198C9.38234 26.5078 9.36971 26.6054 9.36971 27.1782C9.3655 27.7723 9.37392 27.8401 9.48336 28.1542C9.79063 29.0325 10.4978 29.6817 11.3859 29.8981C11.588 29.9491 11.8489 29.9703 12.2067 29.9703C13.1243 29.966 13.6715 29.7539 14.2397 29.1895C14.4165 29.0113 14.5638 28.8416 14.5638 28.8161C14.5638 28.7694 13.5494 28.2602 13.461 28.2602C13.44 28.2602 13.3179 28.3366 13.1874 28.43C12.8507 28.6718 12.5939 28.7482 12.1436 28.744C11.4954 28.7397 11.0323 28.4682 10.7966 27.9505C10.6072 27.5431 10.4052 27.5813 12.8212 27.5813H14.9553L14.9258 27.1358C14.8669 26.2362 14.6312 25.6506 14.1008 25.1202C13.7473 24.7595 13.3474 24.5346 12.8802 24.4243C12.5392 24.3437 11.689 24.3394 11.3649 24.4201ZM12.7792 25.6464C13.0654 25.7779 13.3263 26.0198 13.4526 26.2744L13.5536 26.4781H12.1436H10.7293L10.8219 26.3083C11.0492 25.901 11.3144 25.6888 11.7437 25.5657C12.051 25.4809 12.4929 25.5148 12.7792 25.6464Z" fill="#EC406B"/>
<path id="Vector_9" d="M1.44798 24.5771C1.46061 24.6323 1.88574 25.8289 2.39084 27.2419L3.31265 29.8091L3.75462 29.8218L4.20079 29.8345L4.41125 29.2914C4.5249 28.9944 4.77745 28.3324 4.97107 27.8275C5.16469 27.3225 5.33306 26.9152 5.34569 26.9279C5.35832 26.9406 5.60666 27.5941 5.9013 28.3791L6.43166 29.8091H6.88625H7.34084L8.27949 27.2207C8.79722 25.7949 9.22656 24.5983 9.24339 24.5559C9.26444 24.488 9.22235 24.4838 8.58255 24.4922L7.89645 24.505L7.39135 25.935C7.10934 26.7242 6.87362 27.3692 6.86099 27.3692C6.84837 27.3692 6.60003 26.7242 6.30538 25.935L5.77503 24.505H5.34569H4.91214L4.36495 25.9604C4.06189 26.7582 3.80513 27.3989 3.78829 27.3819C3.77145 27.3649 3.53574 26.703 3.26214 25.9137L2.76546 24.4838H2.09199H1.42273L1.44798 24.5771Z" fill="#EC406B"/>
</g>
<g id="Silver">
<path id="Vector_10" d="M32.3896 0.369156C30.4871 0.483725 28.7487 1.0014 27.2502 1.89674C25.9748 2.66053 24.9478 3.63224 24.1902 4.7949C23.6977 5.55445 22.7422 7.56152 22.0856 9.23337C21.6057 10.4512 21.6225 10.2772 21.9298 10.9943C22.5359 12.4116 23.4956 14.2786 24.3627 15.7213C24.771 16.4003 25.7391 17.8854 25.7939 17.9236C25.8149 17.9363 25.8738 17.6436 25.9243 17.2786C26.4252 13.8331 27.5828 10.0948 29.1696 6.79773L29.6284 5.85572H28.8497H28.0752L27.9742 6.06364C27.8395 6.32672 27.4986 6.63648 27.246 6.72135C26.6189 6.93775 25.9201 6.64497 25.6381 6.05515C25.4697 5.70296 25.4445 5.49504 25.5245 5.18104C25.6381 4.72701 25.8696 4.45119 26.3032 4.25176C26.9135 3.96746 27.6838 4.26449 27.991 4.90522L28.0836 5.09193H29.056H30.0325L30.1967 4.78217C30.7228 3.80197 31.914 1.90522 32.6759 0.840158C32.8527 0.589806 33 0.377642 33 0.364912C33 0.339453 32.8148 0.339453 32.3896 0.369156Z" fill="#EC6B96"/>
<path id="Vector_11" d="M12.8758 2.60958C11.7267 4.37903 10.4008 7.04805 9.36118 9.68313L8.9613 10.6888L9.3275 11.5502C9.80314 12.6874 10.8218 14.7581 11.3984 15.768C11.8741 16.6039 12.5854 17.7369 12.6359 17.7369C12.6485 17.7369 12.6822 17.5968 12.7117 17.4271C13.1452 14.6605 13.6756 12.6195 14.488 10.5657L14.8668 9.61099L14.61 8.80477C14.0502 7.02259 13.7051 5.55442 13.3852 3.58553C13.2926 2.99996 13.2 2.44833 13.1831 2.35498L13.1494 2.18525L12.8758 2.60958Z" fill="#EC6B96"/>
<path id="Vector_12" d="M26.5809 4.53607C26.1305 4.6464 25.8696 4.9901 25.8654 5.47384C25.8654 5.70297 25.8864 5.78359 25.9832 5.95333C26.16 6.2546 26.3789 6.3819 26.7493 6.39887C26.9892 6.4116 27.086 6.39887 27.2165 6.33098C27.9742 5.93635 27.8942 4.8034 27.0902 4.56153C26.8671 4.49364 26.7787 4.48939 26.5809 4.53607Z" fill="#EC6B96"/>
</g>
</g>
<defs>
<clipPath id="clip0_467_1477">
<rect width="33" height="30" fill="white"/>
</clipPath>
</defs>
</svg>
