<svg width="17" height="20" viewBox="0 0 17 20" fill="none" xmlns="http://www.w3.org/2000/svg">
<path id="Vector" d="M8.5 20C9.66875 20 10.625 19.0769 10.625 17.9487H6.375C6.375 19.0769 7.33125 20 8.5 20ZM14.875 13.8462V8.71795C14.875 5.56923 13.1431 2.93333 10.0938 2.2359V1.53846C10.0938 0.68718 9.38188 0 8.5 0C7.61812 0 6.90625 0.68718 6.90625 1.53846V2.2359C3.8675 2.93333 2.125 5.55897 2.125 8.71795V13.8462L0 15.8974V16.9231H17V15.8974L14.875 13.8462ZM12.75 14.8718H4.25V8.71795C4.25 6.17436 5.85437 4.10256 8.5 4.10256C11.1456 4.10256 12.75 6.17436 12.75 8.71795V14.8718Z" fill="#EF2B7B"/>
</svg>
