<svg width="13" height="13" viewBox="0 0 13 13" fill="none" xmlns="http://www.w3.org/2000/svg">
<g id="phone-call" clip-path="url(#clip0_195_1109)">
<path id="Vector" d="M8.15219 2.70964C8.68125 2.81286 9.16748 3.07161 9.54864 3.45277C9.9298 3.83393 10.1885 4.32015 10.2918 4.84922M8.15219 0.542969C9.25138 0.66508 10.2764 1.15731 11.0589 1.93885C11.8414 2.72038 12.3349 3.74477 12.4584 4.8438M11.9168 9.1663V10.7913C11.9174 10.9422 11.8865 11.0915 11.826 11.2297C11.7656 11.3679 11.677 11.492 11.5658 11.594C11.4547 11.696 11.3234 11.7736 11.1805 11.8219C11.0376 11.8703 10.8862 11.8882 10.7359 11.8746C9.06914 11.6935 7.46806 11.124 6.06136 10.2117C4.7526 9.38008 3.643 8.27048 2.81136 6.96172C1.89593 5.54862 1.32624 3.93976 1.14844 2.26547C1.1349 2.11568 1.15271 1.96471 1.20071 1.82218C1.24872 1.67965 1.32587 1.54868 1.42727 1.4376C1.52867 1.32652 1.65208 1.23777 1.78966 1.177C1.92724 1.11623 2.07596 1.08478 2.22636 1.08464H3.85136C4.11423 1.08205 4.36908 1.17514 4.56839 1.34655C4.76771 1.51796 4.8979 1.756 4.93469 2.0163C5.00328 2.53634 5.13048 3.04695 5.31386 3.53839C5.38673 3.73226 5.40251 3.94296 5.35931 4.14553C5.3161 4.34809 5.21574 4.53403 5.07011 4.6813L4.38219 5.36922C5.15328 6.72531 6.2761 7.84813 7.63219 8.61922L8.32011 7.9313C8.46738 7.78567 8.65331 7.6853 8.85588 7.6421C9.05844 7.5989 9.26915 7.61467 9.46302 7.68755C9.95446 7.87093 10.4651 7.99813 10.9851 8.06672C11.2482 8.10384 11.4885 8.23637 11.6603 8.43911C11.8321 8.64185 11.9234 8.90066 11.9168 9.1663Z" stroke="black" stroke-linecap="round" stroke-linejoin="round"/>
</g>
<defs>
<clipPath id="clip0_195_1109">
<rect width="13" height="13" fill="white"/>
</clipPath>
</defs>
</svg>
