<svg width="16" height="19" viewBox="0 0 16 19" fill="none" xmlns="http://www.w3.org/2000/svg">
<g id="Gray">
<path id="Vector" d="M9.66062 1.01838C9.60562 1.02755 9.56895 1.05964 9.5827 1.08256C9.59645 1.10547 9.57811 1.11006 9.54144 1.09631C9.46352 1.0688 9.14724 1.20632 9.14724 1.27049C9.14724 1.29341 9.12891 1.30258 9.11057 1.28882C9.08765 1.27507 8.97764 1.36216 8.86305 1.48134C8.65678 1.69678 8.47343 1.94888 8.51927 1.94888C8.53302 1.94888 8.51927 2.00389 8.4826 2.06806C8.45051 2.13682 8.43218 2.21933 8.44593 2.25141C8.45968 2.28808 8.44593 2.31558 8.41842 2.31558C8.34967 2.31558 8.35425 2.59061 8.42759 2.59061C8.45509 2.59061 8.44593 2.61353 8.40009 2.64103C8.35884 2.66853 8.33133 2.7052 8.34508 2.73271C8.36342 2.75562 8.34967 2.77396 8.32675 2.77396C8.29925 2.77396 8.27633 2.75104 8.27633 2.72812C8.27633 2.65937 7.91421 2.67312 7.65294 2.75104C7.52001 2.78771 7.37333 2.8748 7.30916 2.94356C7.22207 3.0444 7.21748 3.05815 7.29082 3.00315C7.35958 2.95731 7.35499 2.96648 7.27707 3.03523C7.21748 3.09482 7.18998 3.14066 7.20831 3.14066C7.22665 3.14066 7.2129 3.16358 7.17623 3.1865C7.08455 3.2415 7.05247 4.21326 7.13039 4.49745C7.18081 4.67622 7.3825 4.91915 7.465 4.89165C7.48334 4.88707 7.49709 4.90082 7.49709 4.92832C7.49709 5.05208 7.89129 5.07042 10.1511 5.05667C11.9571 5.0475 12.4659 5.02916 12.4842 4.98333C12.4934 4.95582 12.5163 4.93749 12.5392 4.95124C12.5621 4.96499 12.6355 4.91915 12.7088 4.85498C12.7776 4.78623 12.8051 4.75872 12.7592 4.78623C12.7042 4.82748 12.6767 4.82748 12.6492 4.78623C12.6309 4.75414 12.6355 4.74497 12.6584 4.75872C12.7226 4.79539 12.9013 4.64413 12.938 4.51578C12.9563 4.45161 12.9747 4.1445 12.9747 3.82822C12.9747 3.30567 12.9655 3.2415 12.8692 3.08107C12.8097 2.9894 12.7409 2.92064 12.718 2.93897C12.6951 2.95273 12.6767 2.92981 12.6767 2.89314C12.6767 2.82896 12.6492 2.81063 12.5576 2.82438C12.5392 2.82438 12.5117 2.80146 12.4934 2.77396C12.4475 2.70062 11.8929 2.65937 11.7737 2.71895C11.6912 2.76479 11.6866 2.75562 11.705 2.63186C11.7141 2.55852 11.7096 2.46226 11.6866 2.42101C11.6683 2.37517 11.6454 2.28808 11.6408 2.22849C11.6179 2.04973 11.5262 1.85721 11.4712 1.8893C11.4483 1.90305 11.4391 1.89846 11.4529 1.87096C11.4941 1.8022 11.3108 1.52718 11.242 1.56385C11.2145 1.58218 11.2008 1.58218 11.2191 1.55927C11.2649 1.50884 11.1687 1.38967 11.1137 1.42634C11.0908 1.44009 11.077 1.42634 11.0816 1.38967C11.0908 1.35758 11.0678 1.33466 11.0403 1.33925C11.0082 1.34841 10.9807 1.33466 10.9807 1.30716C10.9807 1.25215 10.7286 1.11923 10.6874 1.1559C10.6736 1.17423 10.6599 1.16048 10.6599 1.12839C10.6599 1.09631 10.637 1.08714 10.6095 1.10547C10.582 1.11923 10.5407 1.11006 10.5224 1.07797C10.4857 1.0138 9.86689 0.972546 9.66062 1.01838ZM10.4994 1.86179C10.637 1.92597 10.7928 2.05889 10.802 2.11848C10.8066 2.1414 10.8432 2.22391 10.8799 2.30642C10.9303 2.40726 10.9762 2.44851 11.022 2.43018C11.0724 2.41643 11.0678 2.43018 11.0082 2.47602C10.9532 2.51727 10.9303 2.57686 10.9487 2.63645C10.9624 2.68687 10.9532 2.72812 10.9257 2.72812C10.9028 2.72812 10.8982 2.75104 10.9166 2.78313C10.9349 2.81521 10.9303 2.8198 10.8936 2.80146C10.8661 2.78313 10.8524 2.74646 10.8707 2.72354C10.8891 2.69145 10.582 2.68228 9.98148 2.69145C9.08307 2.7052 9.06932 2.7052 9.1014 2.61353C9.11974 2.56311 9.16558 2.43018 9.19766 2.31558C9.26183 2.10015 9.40393 1.9443 9.61478 1.85263C9.68354 1.82512 9.73396 1.78845 9.72479 1.77012C9.68812 1.71511 10.3619 1.79304 10.4994 1.86179Z" fill="#373434"/>
<path id="Vector_2" d="M5.22829 3.31016C5.17787 3.32391 5.08619 3.356 5.02202 3.3835C4.95785 3.411 4.89826 3.43392 4.88451 3.4385C4.87076 3.4385 4.7745 3.48892 4.66907 3.54393C4.47197 3.64477 4.35738 3.78687 4.41696 3.85104C4.4353 3.87396 4.42155 3.87396 4.38946 3.85562C4.35738 3.83729 4.34821 3.79604 4.36654 3.76853C4.38488 3.73645 4.32071 3.79145 4.22445 3.88313C4.13277 3.9748 4.05943 4.05731 4.0686 4.06648C4.07318 4.07564 4.02276 4.13523 3.95401 4.20857C3.88067 4.27733 3.83941 4.35525 3.85316 4.37817C3.86691 4.40567 3.86233 4.42401 3.83941 4.42401C3.79816 4.42401 3.67898 4.66695 3.6744 4.76779C3.66981 4.79071 3.65148 4.82738 3.63314 4.84113C3.61481 4.85488 3.59189 4.93739 3.58272 5.02906C3.57355 5.11616 3.55522 5.21241 3.53688 5.2445C3.51397 5.27659 3.55064 5.29492 3.64689 5.29492C3.72482 5.29492 3.77982 5.27659 3.76607 5.25825C3.7569 5.23992 3.91275 5.23992 4.11902 5.25367C4.32529 5.272 4.49489 5.28575 4.49947 5.28117C4.51322 5.26284 4.69657 4.83196 4.70574 4.79988C4.71032 4.78154 4.75158 4.74029 4.802 4.7082C4.84784 4.67612 4.87534 4.62569 4.857 4.60278C4.84325 4.57986 4.84784 4.56611 4.87076 4.57069C4.88909 4.57527 5.01285 4.52485 5.14578 4.4561C5.30163 4.37359 5.48956 4.32317 5.705 4.30483L6.03044 4.27275V3.7777V3.27807L5.6775 3.28266C5.48039 3.28724 5.27871 3.30099 5.22829 3.31016Z" fill="#373434"/>
<path id="Vector_3" d="M13.502 3.78769V4.28731H13.6624C13.887 4.28731 14.2858 4.37899 14.405 4.45691C14.4646 4.49817 14.5104 4.51192 14.5104 4.49358C14.5104 4.47525 14.5517 4.50733 14.6021 4.56692C14.6479 4.62651 14.6892 4.6586 14.6938 4.63568C14.6938 4.61276 14.7625 4.71819 14.845 4.86487L14.9917 5.13531V10.59C14.9917 13.5877 14.9825 16.0951 14.9688 16.1592C14.9459 16.2784 14.9229 16.3105 14.6296 16.6589C14.4967 16.8147 14.3958 16.8835 14.24 16.9247C14.0795 16.966 12.9565 16.9797 9.68831 16.9797C5.66836 16.9797 5.33374 16.9751 5.19623 16.9018C5.11372 16.8605 5.03122 16.801 5.01288 16.778C4.99455 16.7505 4.95329 16.7322 4.92121 16.7322C4.88912 16.7322 4.86162 16.7093 4.86162 16.6772C4.86162 16.6497 4.80203 16.558 4.72869 16.4801C4.65993 16.3976 4.59576 16.3013 4.59118 16.2601C4.57743 16.1684 4.47658 16.1546 4.12822 16.2005C3.9632 16.2188 3.80277 16.2142 3.74318 16.1867C3.58275 16.118 3.54608 16.2005 3.62859 16.4755C3.69735 16.7184 3.94487 17.1677 4.00904 17.1677C4.02738 17.1677 4.06863 17.1402 4.10072 17.1081C4.15114 17.0622 4.15114 17.0714 4.10072 17.1539C4.04571 17.2456 4.05029 17.2685 4.15114 17.3739C4.21073 17.4381 4.28407 17.4885 4.32074 17.4885C4.35282 17.4885 4.38032 17.5069 4.38032 17.5344C4.38032 17.5939 4.70577 17.8094 4.75619 17.7819C4.77453 17.7681 4.79286 17.7773 4.79286 17.8002C4.79286 17.8231 4.90287 17.8827 5.0358 17.9286C5.2604 18.0111 5.48501 18.0156 9.58288 18.0294C13.8824 18.0431 14.5104 18.0248 14.5104 17.8873C14.5104 17.8644 14.5242 17.8506 14.5379 17.869C14.6113 17.9377 15.3309 17.4839 15.2988 17.3877C15.2942 17.3648 15.308 17.3556 15.3309 17.3739C15.3722 17.3968 15.4638 17.2822 15.4638 17.1997C15.4638 17.1768 15.4822 17.1447 15.5005 17.131C15.5188 17.1126 15.5188 17.131 15.5005 17.1677C15.4822 17.2043 15.5097 17.186 15.5647 17.1218C15.7022 16.966 15.8947 16.5763 15.8626 16.5259C15.8443 16.4984 15.858 16.4801 15.8901 16.4801C15.9268 16.4801 15.9222 16.4572 15.881 16.4022C15.8397 16.3517 15.8351 16.338 15.8718 16.3563C15.9085 16.3792 15.9405 16.3472 15.9635 16.2647C15.9818 16.1959 16.0001 13.6519 16.0001 10.6129C16.0001 5.96955 15.991 5.06655 15.936 4.95196C15.8993 4.87403 15.8672 4.79153 15.8626 4.76402C15.8259 4.60818 15.7847 4.5165 15.748 4.53942C15.7297 4.55317 15.6976 4.53025 15.6839 4.489C15.6655 4.44316 15.6747 4.42941 15.7159 4.45691C15.803 4.51192 15.6151 4.22773 15.4776 4.10855C15.4134 4.04896 15.3905 4.01687 15.4272 4.03979C15.473 4.06271 15.4684 4.03979 15.4088 3.97562C15.363 3.92061 15.3034 3.88853 15.2759 3.90686C15.2484 3.9252 15.2438 3.91145 15.2621 3.87936C15.2851 3.84269 15.2621 3.81519 15.2026 3.79685C15.1476 3.7831 15.1063 3.7556 15.1063 3.73726C15.1063 3.67768 14.7488 3.46224 14.6479 3.46224C14.5975 3.46224 14.5562 3.4439 14.5562 3.42099C14.5562 3.35223 14.1758 3.27889 13.832 3.28347L13.502 3.28806V3.78769Z" fill="#373434"/>
<path id="Vector_4" d="M3.84389 6.2116C3.73389 6.25743 3.64679 6.32161 3.64679 6.35369C3.64679 6.38578 3.63304 6.39953 3.61929 6.3812C3.60096 6.36744 3.55053 6.39953 3.50011 6.45454C3.44969 6.50954 3.42677 6.52788 3.44053 6.49579C3.46803 6.44537 3.45428 6.44537 3.38094 6.49121C3.32593 6.52329 3.29384 6.56455 3.30301 6.5783C3.31218 6.59663 3.29384 6.61038 3.26176 6.61038C3.1655 6.61038 2.91339 6.72498 2.93173 6.75706C2.94548 6.7754 2.91798 6.78915 2.87672 6.79373C2.73463 6.80748 1.79037 7.10543 1.76287 7.14668C1.74454 7.1696 1.70787 7.17418 1.68495 7.15585C1.62536 7.11918 0.887376 7.20169 0.676523 7.27044C0.594016 7.29795 0.539011 7.3392 0.552762 7.36212C0.571097 7.38504 0.552762 7.38962 0.516092 7.37587C0.447336 7.35295 0.369412 7.42629 0.369412 7.51797C0.369412 7.54088 0.351077 7.5638 0.323574 7.5638C0.231899 7.5638 0.167727 7.63714 0.195229 7.71048C0.213564 7.75632 0.204397 7.77466 0.176894 7.75632C-0.0202069 7.63256 -0.0660444 9.3148 0.108138 10.3141C0.199813 10.8504 0.415249 11.6204 0.484006 11.6663C0.502341 11.68 0.516092 11.7213 0.516092 11.7579C0.516092 11.7946 0.561929 11.9367 0.621518 12.0696C0.699442 12.2484 0.740696 12.2988 0.768198 12.253C0.800285 12.2117 0.804868 12.2163 0.786533 12.2759C0.759031 12.363 0.979051 12.8122 1.04781 12.8122C1.06614 12.8122 1.07989 12.8443 1.07989 12.881C1.07989 12.9176 1.10281 12.9497 1.13031 12.9497C1.15323 12.9497 1.16698 12.968 1.14865 12.991C1.1349 13.0185 1.16698 13.0597 1.22199 13.0872C1.27241 13.1193 1.3045 13.1514 1.29075 13.1651C1.24949 13.2064 1.3595 13.321 1.40534 13.2889C1.42826 13.2752 1.44659 13.3072 1.44659 13.3577C1.44659 13.4081 1.48326 13.4768 1.5291 13.5089C1.57494 13.541 1.62536 13.6052 1.64369 13.6556C1.66661 13.706 1.70328 13.7289 1.74912 13.7106C1.79037 13.6969 1.80413 13.7014 1.79037 13.7335C1.74912 13.7931 1.85455 13.9215 1.91872 13.8802C1.94164 13.8665 1.95081 13.8756 1.93705 13.8985C1.89122 13.9673 2.26708 14.2744 2.37251 14.2561C2.41835 14.2469 2.44585 14.2561 2.4321 14.2836C2.41376 14.3065 2.37709 14.3157 2.34959 14.2973C2.31751 14.2836 2.34501 14.3157 2.4046 14.3661C2.4596 14.4211 2.53294 14.4486 2.56044 14.4303C2.58336 14.4165 2.59253 14.4257 2.57878 14.4486C2.54669 14.499 2.8538 14.7374 2.95006 14.7374C2.98215 14.7374 3.00507 14.7603 3.00507 14.7878C3.00507 14.8107 3.02799 14.8199 3.05091 14.8061C3.07841 14.7878 3.08299 14.7557 3.06924 14.7282C3.05091 14.6961 3.06007 14.6915 3.08758 14.7099C3.11508 14.7282 3.12883 14.7695 3.11049 14.8061C3.09674 14.8566 3.14258 14.8978 3.26176 14.9482C3.3626 14.9895 3.45428 15.0445 3.46803 15.072C3.48636 15.0949 3.53678 15.1041 3.58262 15.0857C3.65596 15.0582 3.65596 15.0491 3.60096 15.0124C3.56429 14.9849 3.55512 14.9666 3.57804 14.9666C3.60554 14.9666 3.65138 14.9849 3.68346 15.0078C3.73389 15.0353 3.7293 15.0537 3.66513 15.0766C3.59637 15.1041 3.60554 15.1682 3.68346 15.1774C3.7018 15.1774 3.79347 15.2141 3.88515 15.2553C4.16476 15.3837 4.53604 15.3562 4.87066 15.1912C5.03109 15.1132 5.15943 15.0307 5.15943 15.0078C5.15943 14.9849 5.17318 14.9711 5.1961 14.9757C5.26944 14.9986 5.43904 14.8657 5.41612 14.8061C5.40237 14.7649 5.41612 14.7511 5.45738 14.7649C5.54447 14.8015 5.81032 14.609 5.77365 14.5449C5.75532 14.5128 5.76449 14.5082 5.79657 14.5265C5.82866 14.5494 5.90658 14.499 5.99367 14.4073C6.0716 14.3248 6.14952 14.2607 6.16786 14.2652C6.19994 14.2744 6.38329 14.0865 6.88292 13.541C6.94251 13.4768 6.99293 13.4127 6.99293 13.3989C6.99293 13.3852 7.0571 13.3072 7.13044 13.2247C7.20837 13.1422 7.26796 13.0506 7.26796 13.0139C7.26796 12.9772 7.29088 12.9497 7.31838 12.9497C7.35505 12.9497 7.35046 12.9268 7.31379 12.881C7.26337 12.8214 7.26796 12.8168 7.32755 12.8351C7.37338 12.858 7.42839 12.8076 7.49256 12.6884C7.54757 12.5922 7.5934 12.4959 7.58882 12.4776C7.58882 12.4592 7.61632 12.4088 7.65758 12.3722C7.69425 12.3309 7.71258 12.2805 7.69883 12.253C7.68049 12.2209 7.68966 12.2163 7.71716 12.2346C7.74925 12.253 7.77217 12.253 7.77675 12.2301C7.78592 12.1063 7.81801 12.0146 7.85468 11.9917C7.88676 11.9688 8.05636 11.5792 8.0747 11.4829C8.0747 11.4692 8.1022 11.4004 8.1297 11.3316C8.16179 11.2583 8.17096 11.1804 8.1572 11.1575C8.14345 11.13 8.16179 11.075 8.20304 11.0291C8.2443 10.9879 8.28097 10.887 8.29013 10.8137C8.2993 10.7403 8.31764 10.6578 8.33139 10.6303C8.36806 10.5753 8.48265 9.99319 8.55141 9.53482C8.58349 9.33313 8.611 8.89768 8.61558 8.57223C8.62016 8.00384 8.61558 7.96717 8.4964 7.77007C8.36806 7.55005 8.21221 7.39421 8.16637 7.43546C8.15262 7.45379 8.13887 7.44004 8.13887 7.40796C8.13887 7.37587 8.07011 7.32545 7.99219 7.28878C7.82259 7.22002 6.97001 7.11001 6.87834 7.14668C6.84167 7.16043 6.80958 7.15127 6.80041 7.12835C6.79125 7.11001 6.71332 7.08251 6.62623 7.07334C6.53914 7.06876 6.45663 7.05042 6.44288 7.03667C6.41996 7.01375 5.88366 6.82124 5.77824 6.79373C5.75532 6.78915 5.72323 6.77081 5.70948 6.75706C5.6774 6.72039 5.3107 6.53246 5.26486 6.53246C5.24652 6.53246 5.27403 6.56455 5.32445 6.6058C5.40695 6.66997 5.40695 6.67456 5.30611 6.62414C5.25111 6.59663 5.21444 6.55538 5.22819 6.53704C5.23736 6.51412 5.1961 6.45912 5.13193 6.41787C5.06317 6.37661 5.02192 6.35828 5.03567 6.3812C5.05401 6.40411 5.03567 6.42703 5.00358 6.42703C4.9715 6.42703 4.944 6.39495 4.94858 6.35369C4.95316 6.30786 4.92108 6.28494 4.86607 6.2941C4.82023 6.30327 4.79732 6.28952 4.81107 6.2666C4.90274 6.11075 4.15101 6.0695 3.84389 6.2116ZM4.58188 7.08251C4.62772 7.08251 4.65064 7.10085 4.63688 7.11918C4.62772 7.13752 4.65522 7.18335 4.71022 7.21544C4.78356 7.26128 4.79732 7.26128 4.76981 7.21085C4.75606 7.17877 4.7744 7.19252 4.81107 7.23836C4.85232 7.28878 4.88441 7.31628 4.88441 7.29795C4.88441 7.27961 4.92566 7.30711 4.97608 7.35753C5.07692 7.45838 5.12735 7.46755 5.24652 7.40796C5.30611 7.37587 5.32903 7.38045 5.32903 7.42629C5.32903 7.45838 5.30153 7.47671 5.26486 7.46296C5.23277 7.44921 5.20527 7.44921 5.20527 7.46755C5.20527 7.5088 5.46654 7.63256 5.49863 7.60047C5.51238 7.58214 5.52613 7.59589 5.52613 7.62339C5.52613 7.6509 5.55822 7.66465 5.59489 7.6509C5.63156 7.63256 5.66364 7.64631 5.66364 7.6784C5.66364 7.71507 5.7049 7.72424 5.79199 7.7059C5.8745 7.68298 5.89742 7.68756 5.85158 7.71965C5.7324 7.79757 6.45205 7.98093 7.20837 8.06343C7.52923 8.1001 7.68508 8.1001 7.69883 8.06802C7.71258 8.0451 7.71258 8.31096 7.70341 8.6639C7.68049 9.47523 7.54757 10.2545 7.30921 10.9329C7.20837 11.2216 7.12128 11.4921 7.12128 11.5287C7.11669 11.5654 7.10294 11.6067 7.08461 11.6204C7.01127 11.6754 6.72249 12.253 6.75458 12.2851C6.77291 12.308 6.75916 12.3034 6.72249 12.2851C6.67207 12.2576 6.6629 12.2667 6.68582 12.3263C6.70416 12.3722 6.69957 12.3951 6.67207 12.3767C6.64457 12.363 6.62623 12.3813 6.62623 12.418C6.62623 12.4592 6.6079 12.4913 6.58498 12.4913C6.56206 12.4913 6.4933 12.5693 6.4383 12.6609C6.37871 12.7572 6.28703 12.8718 6.23661 12.9176C6.18619 12.9635 6.17702 12.9864 6.21369 12.968C6.25036 12.9451 6.14494 13.0597 5.97534 13.2202C5.80116 13.3806 5.6774 13.5318 5.69573 13.5593C5.70948 13.5823 5.7049 13.5914 5.68198 13.5777C5.61322 13.5364 5.28319 13.8573 5.32445 13.926C5.34737 13.9627 5.33361 13.9627 5.28319 13.9169C5.20985 13.8619 5.18235 13.8802 5.20069 13.9719C5.20527 13.9948 5.18693 13.9994 5.1686 13.9856C5.14568 13.9719 5.07234 14.0086 5.00817 14.0681C4.944 14.1277 4.87982 14.1644 4.86607 14.1507C4.85232 14.1369 4.83857 14.1461 4.83857 14.1736C4.83857 14.2011 4.78356 14.2377 4.71939 14.2515C4.65064 14.2698 4.60938 14.2973 4.62772 14.3111C4.64147 14.3294 4.57271 14.3707 4.47187 14.4028C4.33894 14.4486 4.2656 14.4532 4.20143 14.4165C4.15101 14.3936 4.0685 14.3707 4.01349 14.3707C3.96307 14.3707 3.90807 14.3386 3.88973 14.2973C3.87598 14.2607 3.83473 14.2377 3.79806 14.2515C3.76139 14.2652 3.74305 14.2607 3.7568 14.2377C3.77972 14.2011 3.56429 14.0727 3.50011 14.0865C3.4772 14.0911 3.46344 14.0727 3.46344 14.0406C3.46344 14.0131 3.44969 14.004 3.43136 14.0177C3.41761 14.0361 3.37177 14.0086 3.3351 13.9536C3.28468 13.8802 3.25717 13.871 3.20675 13.9169C3.15175 13.9581 3.14716 13.9581 3.1655 13.9077C3.17925 13.8665 3.07382 13.7473 2.87214 13.5823C2.59711 13.3577 2.54669 13.3347 2.48252 13.3898C2.41835 13.4493 2.41376 13.4448 2.47794 13.376C2.53753 13.3072 2.52377 13.2752 2.32667 13.0689C2.2075 12.9405 2.0929 12.8397 2.07457 12.8489C2.05165 12.8535 2.04706 12.8443 2.06082 12.8214C2.07915 12.7893 1.86371 12.4409 1.76746 12.3538C1.7537 12.3401 1.71703 12.2759 1.68953 12.2026C1.65745 12.1338 1.61161 12.0788 1.58411 12.0788C1.5566 12.0788 1.54285 12.0605 1.56119 12.0375C1.59327 11.978 1.48785 11.7534 1.44201 11.7854C1.41909 11.7992 1.41451 11.7763 1.42826 11.7396C1.44659 11.6983 1.43284 11.6663 1.40076 11.6663C1.37325 11.6663 1.35492 11.6388 1.36867 11.6067C1.37784 11.5792 1.3595 11.4875 1.32742 11.4142C1.06614 10.7816 0.896543 9.77317 0.896543 8.81517C0.896543 8.0451 0.846122 8.12302 1.37784 8.06802C1.7262 8.03593 2.34959 7.91217 2.50086 7.848C2.56503 7.82508 2.6567 7.79299 2.70712 7.78382C2.75755 7.77466 2.80338 7.74715 2.81255 7.72424C2.82172 7.70132 2.85839 7.69673 2.89506 7.71048C2.93173 7.72424 2.95923 7.71507 2.95923 7.69215C2.95923 7.66923 2.99132 7.64631 3.02799 7.64631C3.11508 7.64631 3.46344 7.49046 3.46344 7.44921C3.46344 7.43087 3.49095 7.41712 3.52762 7.41712C3.63763 7.41712 4.10058 7.1146 4.07308 7.06417C4.05933 7.03667 4.05933 7.0275 4.07767 7.04584C4.096 7.05959 4.17851 7.04584 4.25643 7.01375C4.38019 6.95875 4.41228 6.95875 4.45353 7.01834C4.48104 7.05042 4.54063 7.08251 4.58188 7.08251Z" fill="#373434"/>
<path id="Vector_5" d="M6.07612 9.21557C6.01195 9.25224 5.89277 9.31183 5.81485 9.35308C5.73234 9.38975 5.66358 9.44476 5.66358 9.47226C5.66358 9.49518 5.64525 9.50893 5.62233 9.49059C5.59941 9.47684 5.5444 9.51351 5.50773 9.56852C5.46648 9.62352 5.43439 9.65102 5.43439 9.62811C5.43439 9.6006 5.40231 9.62352 5.36105 9.67394C5.32438 9.72436 5.27855 9.76562 5.26021 9.7702C5.15937 9.78395 5.07228 9.85271 5.09978 9.89855C5.11353 9.92605 5.11353 9.93522 5.09061 9.91688C5.04019 9.86646 4.7835 10.059 4.82476 10.1186C4.84309 10.1507 4.82476 10.1598 4.7835 10.1415C4.73766 10.1277 4.64599 10.1782 4.54056 10.2744C4.4443 10.3615 4.3618 10.4303 4.35263 10.4303C4.29304 10.4303 3.79341 10.8611 3.81175 10.8978C3.8255 10.9207 3.81175 10.9299 3.77508 10.9253C3.74299 10.9161 3.72007 10.9391 3.72924 10.9711C3.73382 11.0078 3.72007 11.0216 3.69257 11.0032C3.66507 10.9849 3.61923 10.9941 3.58714 11.017C3.49088 11.0949 3.36712 11.0582 3.27545 10.9253C3.22503 10.8566 3.16085 10.8107 3.13335 10.8245C3.10585 10.8428 3.09668 10.8336 3.11043 10.8107C3.12877 10.7832 3.11043 10.7374 3.07376 10.7053C3.03709 10.6732 3.00501 10.6594 3.00501 10.6732C3.00501 10.687 2.94542 10.6365 2.86749 10.5632C2.79415 10.4853 2.71165 10.4348 2.68414 10.4532C2.66123 10.4669 2.63831 10.4623 2.63831 10.4348C2.63831 10.3569 2.45496 10.3294 2.37703 10.3936C2.31286 10.444 2.30369 10.444 2.33578 10.3844C2.35411 10.3478 2.34036 10.3523 2.29911 10.4028C2.24869 10.4623 2.2441 10.5128 2.27161 10.5678C2.29453 10.6136 2.29911 10.6594 2.28536 10.6778C2.27161 10.6915 2.27619 10.7053 2.30369 10.7053C2.32661 10.7053 2.34953 10.7328 2.34953 10.7695C2.34953 10.8886 2.46412 11.1178 2.51455 11.0857C2.54205 11.072 2.54663 11.0812 2.5283 11.1087C2.50079 11.1591 2.56497 11.3378 2.63372 11.3928C2.64747 11.4066 2.70248 11.4937 2.74832 11.5854C2.83082 11.755 2.95 11.8329 2.895 11.6862C2.88125 11.645 2.88583 11.6312 2.91792 11.645C2.94083 11.6633 2.95 11.7183 2.93167 11.7687C2.91333 11.8375 2.93167 11.8925 3.00959 11.9521C3.06918 12.0025 3.08751 12.0254 3.05084 12.0071C3.01417 11.9887 3.04626 12.0392 3.1196 12.1171C3.25711 12.2546 3.61006 12.3875 3.53672 12.2729C3.5138 12.2363 3.52755 12.2271 3.57798 12.2454C3.61923 12.2638 3.67882 12.2408 3.72007 12.1904C3.76133 12.14 3.77508 12.1354 3.75674 12.1721C3.73841 12.2088 3.84842 12.1171 3.9951 11.9658C4.14178 11.8146 4.39847 11.5579 4.56348 11.3974C4.7285 11.237 4.82934 11.1224 4.79267 11.1453C4.73308 11.1774 4.73308 11.1682 4.78809 11.1041C4.82017 11.0628 4.87059 11.0399 4.8981 11.0582C4.9256 11.072 4.93018 11.0628 4.91185 11.0353C4.89351 11.0032 4.8981 10.9803 4.92101 10.9803C4.94393 10.9803 4.98977 10.9299 5.02186 10.8657C5.05394 10.8015 5.0952 10.7603 5.10436 10.774C5.1502 10.8199 5.53524 10.3844 5.51232 10.3157C5.49398 10.2698 5.50773 10.2607 5.55816 10.279C5.61774 10.3019 5.62691 10.2882 5.60399 10.2286C5.58566 10.1827 5.59024 10.1598 5.62233 10.1782C5.67733 10.2148 5.81026 10.114 5.77818 10.059C5.76442 10.0406 5.79651 9.99939 5.84693 9.97189C5.89735 9.94438 5.92944 9.90313 5.91569 9.87563C5.89735 9.85271 5.9111 9.83896 5.93861 9.84354C5.97069 9.85271 6.01653 9.81604 6.04403 9.76562C6.07612 9.71978 6.14029 9.64186 6.19071 9.59602C6.24113 9.55477 6.26405 9.5181 6.24572 9.51351C6.2228 9.51351 6.24113 9.48143 6.2778 9.44017C6.36031 9.35766 6.34656 9.17431 6.25489 9.16056C6.21822 9.1514 6.14029 9.1789 6.07612 9.21557Z" fill="#373434"/>
<path id="Vector_6" d="M8.91797 7.24013C8.91797 7.32264 9.03256 7.48766 9.06923 7.46474C9.09674 7.45099 9.10132 7.46015 9.08298 7.48766C9.06923 7.51516 9.07382 7.58392 9.09674 7.6435C9.11965 7.69851 9.13799 7.76727 9.14716 7.79477C9.15174 7.81769 9.18841 7.88186 9.22966 7.9277C9.27092 7.97812 9.28009 8.00104 9.25258 7.9827C9.2205 7.96437 9.19299 7.96895 9.19299 7.99645C9.19299 8.02854 9.87597 8.04229 11.2328 8.04688C12.6583 8.04688 13.2725 8.03312 13.2725 8.00104C13.2725 7.97353 13.2909 7.95978 13.3138 7.97353C13.3642 8.00562 13.5109 7.84519 13.4696 7.80394C13.4559 7.7856 13.4605 7.77185 13.4834 7.77185C13.5063 7.77185 13.5338 7.72143 13.5384 7.65726C13.543 7.59308 13.5246 7.54266 13.4971 7.54266C13.4742 7.54266 13.465 7.561 13.4788 7.5885C13.5246 7.66184 13.4742 7.63892 13.4055 7.55641C13.3688 7.51516 13.3642 7.49224 13.3917 7.51058C13.5109 7.57933 13.4926 7.40057 13.378 7.32723C13.2634 7.25389 13.0617 7.24472 11.0861 7.23097C9.89431 7.22638 8.91797 7.23097 8.91797 7.24013Z" fill="#373434"/>
<path id="Vector_7" d="M11.1182 9.60553C10.0227 9.61928 9.12425 9.63761 9.11967 9.6422C9.11508 9.64678 9.10133 9.74762 9.08758 9.8668C9.07383 9.99056 9.04633 10.1556 9.02799 10.2335L9.00049 10.3848H11.1365C12.53 10.3848 13.2725 10.371 13.2725 10.3389C13.2725 10.3114 13.3 10.2977 13.3321 10.3023C13.3596 10.3114 13.3826 10.2885 13.378 10.2564C13.3688 10.2289 13.3917 10.206 13.4238 10.2106C13.4513 10.2198 13.4742 10.1877 13.4742 10.1464C13.4696 10.1006 13.4834 10.0777 13.5063 10.0914C13.5292 10.1052 13.5384 10.0456 13.5292 9.96306C13.5201 9.88055 13.488 9.80721 13.4605 9.79805C13.433 9.78888 13.4101 9.75221 13.4101 9.71554C13.4101 9.67887 13.3917 9.64678 13.3642 9.64678C13.3413 9.6422 13.3 9.63761 13.2771 9.63303C13.2542 9.63303 13.2175 9.6147 13.1992 9.59178C13.1809 9.57344 13.1534 9.56427 13.1396 9.56886C13.1259 9.57803 12.2137 9.59178 11.1182 9.60553Z" fill="#373434"/>
<path id="Vector_8" d="M8.51008 12.0249C8.48716 12.0936 8.45507 12.1807 8.45049 12.2174C8.44132 12.2541 8.42757 12.2953 8.41382 12.3091C8.37715 12.3458 8.23047 12.6162 8.23047 12.6483C8.23047 12.662 9.37182 12.6758 10.7653 12.6758C13.2313 12.6758 13.3047 12.6712 13.3872 12.5841C13.4284 12.5383 13.4559 12.4649 13.4422 12.4283C13.4239 12.387 13.4376 12.3458 13.4651 12.3274C13.4972 12.3091 13.5018 12.3137 13.4834 12.3458C13.4651 12.3778 13.4743 12.4008 13.4972 12.4008C13.5247 12.4008 13.5476 12.3503 13.5476 12.2862C13.5476 12.222 13.5247 12.1716 13.4972 12.1716C13.4743 12.1716 13.4605 12.1532 13.4743 12.1349C13.5018 12.0891 13.4605 12.0341 13.3459 11.9424C13.2634 11.8828 13.2588 11.8828 13.2955 11.9424C13.3276 12.002 13.323 12.002 13.2634 11.9515C13.2084 11.9057 12.6813 11.8965 10.8753 11.8965L8.5605 11.9011L8.51008 12.0249Z" fill="#373434"/>
<path id="Vector_9" d="M6.80954 14.5772L6.41992 14.9668H9.84398C11.7233 14.9668 13.2955 14.953 13.3368 14.9393C13.3781 14.9255 13.4101 14.8935 13.4101 14.866C13.4101 14.843 13.4422 14.7926 13.4789 14.7559C13.5568 14.6734 13.5706 14.4626 13.4972 14.4626C13.4743 14.4626 13.4606 14.4442 13.4743 14.4213C13.511 14.3617 13.3322 14.2196 13.268 14.2609C13.2314 14.2792 13.2222 14.2747 13.2451 14.2426C13.268 14.2013 12.5255 14.1876 10.2382 14.1876H7.19916L6.80954 14.5772Z" fill="#373434"/>
</g>
</svg>
