<svg width="46" height="49" viewBox="0 0 46 49" fill="none" xmlns="http://www.w3.org/2000/svg">
<g id="Gray">
<path id="Vector" d="M27.55 0.0546274C27.3932 0.0807714 27.2886 0.172275 27.3278 0.237634C27.367 0.302994 27.3148 0.316066 27.2102 0.27685C26.988 0.198419 26.086 0.590575 26.086 0.773582C26.086 0.838942 26.0337 0.865085 25.9814 0.82587C25.9161 0.786654 25.6023 1.03502 25.2755 1.37489C24.6873 1.98927 24.1644 2.70822 24.2951 2.70822C24.3344 2.70822 24.2951 2.86508 24.1906 3.04809C24.0991 3.24417 24.0468 3.47946 24.086 3.57097C24.1252 3.67554 24.086 3.75397 24.0076 3.75397C23.8115 3.75397 23.8246 4.53829 24.0337 4.53829C24.1121 4.53829 24.086 4.60365 23.9553 4.68208C23.8376 4.76051 23.7592 4.86508 23.7984 4.94352C23.8507 5.00888 23.8115 5.06116 23.7461 5.06116C23.6677 5.06116 23.6023 4.9958 23.6023 4.93044C23.6023 4.73437 22.5697 4.77358 21.8246 4.9958C21.4455 5.10038 21.0272 5.34874 20.8442 5.54482C20.5958 5.83241 20.5827 5.87162 20.7919 5.71476C20.988 5.58404 20.9749 5.61018 20.7527 5.80626C20.5827 5.9762 20.5043 6.10691 20.5566 6.10691C20.6089 6.10691 20.5697 6.17227 20.4651 6.23763C20.2036 6.3945 20.1121 9.16574 20.3344 9.9762C20.4782 10.486 21.0533 11.1788 21.2886 11.1004C21.3409 11.0873 21.3801 11.1265 21.3801 11.205C21.3801 11.5579 22.5043 11.6102 28.9487 11.571C34.0991 11.5448 35.55 11.4925 35.6023 11.3618C35.6285 11.2834 35.6938 11.2311 35.7592 11.2703C35.8246 11.3095 36.0337 11.1788 36.2429 10.9958C36.4389 10.7997 36.5174 10.7213 36.3867 10.7997C36.2298 10.9174 36.1514 10.9174 36.0729 10.7997C36.0206 10.7082 36.0337 10.6821 36.0991 10.7213C36.2821 10.8259 36.7919 10.3945 36.8965 10.0285C36.9487 9.84548 37.001 8.96966 37.001 8.0677C37.001 6.5775 36.9749 6.3945 36.7004 5.93698C36.5304 5.67554 36.3344 5.47946 36.269 5.53175C36.2036 5.57097 36.1514 5.50561 36.1514 5.40103C36.1514 5.21803 36.0729 5.16574 35.8115 5.20495C35.7592 5.20495 35.6808 5.13959 35.6285 5.06116C35.4978 4.85201 33.9161 4.73437 33.5762 4.9043C33.3409 5.03502 33.3278 5.00888 33.3801 4.65593C33.4063 4.44678 33.3932 4.17227 33.3278 4.05463C33.2755 3.92391 33.2102 3.67554 33.1971 3.50561C33.1317 2.9958 32.8703 2.44678 32.7134 2.53829C32.6481 2.5775 32.6219 2.56443 32.6612 2.486C32.7788 2.28992 32.2559 1.50561 32.0599 1.61018C31.9814 1.66247 31.9422 1.66247 31.9945 1.59711C32.1252 1.45332 31.8507 1.11345 31.6938 1.21803C31.6285 1.25724 31.5893 1.21803 31.6023 1.11345C31.6285 1.02195 31.5631 0.956589 31.4847 0.96966C31.3932 0.995804 31.3148 0.956589 31.3148 0.878157C31.3148 0.721294 30.5958 0.342209 30.4782 0.446784C30.4389 0.499072 30.3997 0.459856 30.3997 0.368353C30.3997 0.27685 30.3344 0.250706 30.2559 0.302994C30.1775 0.342209 30.0599 0.316066 30.0076 0.224563C29.903 0.0415554 28.1383 -0.0760918 27.55 0.0546274ZM29.9422 2.45986C30.3344 2.64286 30.7788 3.02195 30.8049 3.19188C30.818 3.25724 30.9226 3.49254 31.0272 3.72783C31.171 4.01541 31.3017 4.13306 31.4324 4.08077C31.5762 4.04156 31.5631 4.08077 31.3932 4.21149C31.2363 4.32914 31.171 4.49907 31.2233 4.66901C31.2625 4.8128 31.2363 4.93044 31.1579 4.93044C31.0925 4.93044 31.0795 4.9958 31.1317 5.08731C31.184 5.17881 31.171 5.19188 31.0664 5.13959C30.988 5.08731 30.9487 4.98273 31.001 4.91737C31.0533 4.82587 30.1775 4.79973 28.4651 4.82587C25.903 4.86509 25.8638 4.86509 25.9553 4.60365C26.0076 4.45986 26.1383 4.08077 26.2298 3.75397C26.4128 3.1396 26.818 2.69515 27.4193 2.43371C27.6154 2.35528 27.7592 2.25071 27.7331 2.19842C27.6285 2.04156 29.55 2.26378 29.9422 2.45986Z" fill="#373434"/>
<path id="Vector_2" d="M14.9098 6.59182C14.766 6.63104 14.5045 6.72254 14.3215 6.80097C14.1385 6.8794 13.9686 6.94476 13.9294 6.95784C13.8902 6.95784 13.6156 7.10163 13.315 7.25849C12.7529 7.54607 12.4261 7.9513 12.596 8.13431C12.6483 8.19967 12.6091 8.19967 12.5176 8.14738C12.4261 8.09509 12.4 7.97744 12.4522 7.89901C12.5045 7.80751 12.3215 7.96437 12.047 8.22581C11.7856 8.48725 11.5764 8.72254 11.6026 8.74869C11.6156 8.77483 11.4719 8.94476 11.2758 9.15391C11.0666 9.34999 10.949 9.57221 10.9882 9.63757C11.0274 9.71601 11.0143 9.76829 10.949 9.76829C10.8313 9.76829 10.4915 10.4611 10.4784 10.7487C10.4653 10.814 10.413 10.9186 10.3607 10.9578C10.3085 10.9971 10.2431 11.2323 10.217 11.4938C10.1908 11.7421 10.1385 12.0167 10.0862 12.1082C10.0209 12.1997 10.1255 12.252 10.4 12.252C10.6222 12.252 10.779 12.1997 10.7398 12.1474C10.7137 12.0951 11.1581 12.0951 11.7464 12.1343C12.3346 12.1866 12.8183 12.2258 12.8313 12.2127C12.8706 12.1604 13.3934 10.9317 13.4196 10.8402C13.4326 10.7879 13.5503 10.6703 13.6941 10.5788C13.8248 10.4872 13.9032 10.3435 13.8509 10.2781C13.8117 10.2127 13.8248 10.1735 13.8902 10.1866C13.9424 10.1997 14.2954 10.0559 14.6745 9.8598C15.1189 9.6245 15.6549 9.48071 16.2692 9.42842L17.1973 9.33692V7.92516V6.50032L16.1908 6.51339C15.6287 6.52646 15.0536 6.56568 14.9098 6.59182Z" fill="#373434"/>
<path id="Vector_3" d="M38.5046 7.95094V9.37578H38.9621C39.6026 9.37578 40.7399 9.63722 41.0797 9.85944C41.2497 9.97709 41.3804 10.0163 41.3804 9.96402C41.3804 9.91173 41.498 10.0032 41.6418 10.1732C41.7725 10.3431 41.8902 10.4346 41.9033 10.3692C41.9033 10.3039 42.0993 10.6045 42.3346 11.0228L42.7529 11.7941V27.3496C42.7529 35.8987 42.7268 43.049 42.6876 43.232C42.6222 43.5719 42.5569 43.6634 41.7203 44.6568C41.3412 45.1013 41.0536 45.2973 40.6091 45.415C40.1516 45.5326 36.949 45.5719 27.6288 45.5719C16.1647 45.5719 15.2105 45.5588 14.8183 45.3496C14.583 45.232 14.3477 45.0621 14.2954 44.9967C14.2431 44.9183 14.1255 44.866 14.034 44.866C13.9425 44.866 13.864 44.8006 13.864 44.7091C13.864 44.6307 13.6941 44.3692 13.485 44.147C13.2889 43.9117 13.1059 43.6372 13.0928 43.5196C13.0536 43.2581 12.766 43.2189 11.7725 43.3496C11.302 43.4019 10.8444 43.3889 10.6745 43.3104C10.217 43.1143 10.1124 43.3496 10.3477 44.1339C10.5438 44.8268 11.2497 46.1078 11.4327 46.1078C11.485 46.1078 11.6026 46.0294 11.6941 45.9379C11.8379 45.8072 11.8379 45.8333 11.6941 46.0686C11.5373 46.33 11.5503 46.3954 11.8379 46.696C12.0078 46.879 12.217 47.0228 12.3216 47.0228C12.4131 47.0228 12.4915 47.0751 12.4915 47.1536C12.4915 47.3235 13.4196 47.9379 13.5634 47.8594C13.6157 47.8202 13.668 47.8464 13.668 47.9117C13.668 47.9771 13.9817 48.147 14.3608 48.2777C15.0013 48.513 15.6418 48.5261 27.3281 48.5653C39.5895 48.6045 41.3804 48.5522 41.3804 48.1601C41.3804 48.0947 41.4196 48.0555 41.4588 48.1078C41.668 48.3039 43.7203 47.0098 43.6288 46.7353C43.6157 46.6699 43.6549 46.6438 43.7203 46.696C43.8379 46.7614 44.0993 46.4346 44.0993 46.1993C44.0993 46.1339 44.1516 46.0424 44.2039 46.0032C44.2562 45.9509 44.2562 46.0032 44.2039 46.1078C44.1516 46.2124 44.2301 46.1601 44.3869 45.9771C44.7791 45.5326 45.3281 44.4215 45.2366 44.2777C45.1843 44.1993 45.2235 44.147 45.315 44.147C45.4196 44.147 45.4065 44.0817 45.2889 43.9248C45.1712 43.781 45.1582 43.7418 45.2627 43.7941C45.3673 43.8594 45.4588 43.7679 45.5242 43.5326C45.5765 43.3366 45.6288 36.0817 45.6288 27.415C45.6288 14.1732 45.6026 11.598 45.4457 11.2712C45.3412 11.049 45.2497 10.8137 45.2366 10.7353C45.132 10.2908 45.0144 10.0294 44.9098 10.0947C44.8575 10.1339 44.766 10.0686 44.7268 9.95094C44.6745 9.82022 44.7006 9.78101 44.8183 9.85944C45.0667 10.0163 44.5307 9.20584 44.1386 8.86598C43.9556 8.69604 43.8902 8.60454 43.9948 8.6699C44.1255 8.73526 44.1124 8.6699 43.9425 8.48689C43.8118 8.33003 43.6418 8.23853 43.5634 8.29081C43.485 8.3431 43.4719 8.30389 43.5242 8.21238C43.5895 8.10781 43.5242 8.02938 43.3542 7.97709C43.1974 7.93787 43.0797 7.85944 43.0797 7.80715C43.0797 7.63722 42.0601 7.02284 41.7725 7.02284C41.6288 7.02284 41.5111 6.97055 41.5111 6.90519C41.5111 6.70911 40.4261 6.49997 39.4457 6.51303L38.5046 6.52611V7.95094Z" fill="#373434"/>
<path id="Vector_4" d="M10.962 14.866C10.6483 14.9967 10.3999 15.1797 10.3999 15.2712C10.3999 15.3627 10.3607 15.402 10.3215 15.3497C10.2692 15.3105 10.1254 15.402 9.98159 15.5588C9.8378 15.7157 9.77244 15.768 9.81166 15.6765C9.89009 15.5327 9.85087 15.5327 9.64172 15.6634C9.48486 15.7549 9.39335 15.8726 9.4195 15.9118C9.44564 15.9641 9.39335 16.0033 9.30185 16.0033C9.02734 16.0033 8.30839 16.3301 8.36067 16.4216C8.39989 16.4739 8.32146 16.5131 8.20381 16.5261C7.79858 16.5654 5.10577 17.415 5.02734 17.5327C4.97505 17.598 4.87048 17.6111 4.80512 17.5588C4.63518 17.4543 2.53061 17.6895 1.9293 17.8856C1.69401 17.9641 1.53715 18.0817 1.57636 18.1471C1.62865 18.2124 1.57636 18.2255 1.47179 18.1863C1.27571 18.1209 1.05349 18.3301 1.05349 18.5915C1.05349 18.6569 1.0012 18.7222 0.922766 18.7222C0.661328 18.7222 0.478322 18.9314 0.556753 19.1405C0.609041 19.2712 0.582897 19.3235 0.504466 19.2712C-0.0576257 18.9183 -0.188345 23.7157 0.308387 26.5654C0.569825 28.0948 1.1842 30.2908 1.38028 30.4216C1.43257 30.4608 1.47179 30.5784 1.47179 30.683C1.47179 30.7876 1.6025 31.1928 1.77244 31.5719C1.99466 32.0817 2.11231 32.2255 2.19074 32.0948C2.28224 31.9771 2.29532 31.9902 2.24303 32.1601C2.1646 32.4085 2.79205 33.6895 2.98813 33.6895C3.04041 33.6895 3.07963 33.781 3.07963 33.8856C3.07963 33.9902 3.14499 34.0817 3.22342 34.0817C3.28878 34.0817 3.328 34.134 3.27571 34.1993C3.23649 34.2778 3.328 34.3954 3.48486 34.4739C3.62865 34.5654 3.72015 34.6569 3.68094 34.6961C3.56329 34.8137 3.87702 35.1405 4.00773 35.049C4.07309 35.0098 4.12538 35.1013 4.12538 35.2451C4.12538 35.3889 4.22996 35.585 4.36068 35.6765C4.49139 35.768 4.63518 35.951 4.68747 36.0948C4.75283 36.2386 4.85741 36.3039 4.98813 36.2516C5.10577 36.2124 5.14499 36.2255 5.10577 36.317C4.98813 36.4869 5.28878 36.8529 5.47179 36.7353C5.53715 36.6961 5.56329 36.7222 5.52407 36.7876C5.39335 36.9837 6.46525 37.8595 6.7659 37.8072C6.89662 37.781 6.97505 37.8072 6.93584 37.8856C6.88355 37.951 6.77898 37.9771 6.70054 37.9248C6.60904 37.8856 6.68747 37.9771 6.85741 38.1209C7.01427 38.2778 7.22342 38.3562 7.30185 38.3039C7.36721 38.2647 7.39335 38.2908 7.35414 38.3562C7.26264 38.5 8.13845 39.1797 8.41296 39.1797C8.50447 39.1797 8.56983 39.2451 8.56983 39.3235C8.56983 39.3889 8.63518 39.415 8.70054 39.3758C8.77898 39.3235 8.79205 39.232 8.75283 39.1536C8.70054 39.0621 8.72669 39.049 8.80512 39.1013C8.88355 39.1536 8.92277 39.2712 8.87048 39.3758C8.83126 39.5196 8.96198 39.6373 9.30185 39.781C9.58943 39.8987 9.85087 40.0556 9.89009 40.134C9.94237 40.1993 10.0862 40.2255 10.2169 40.1732C10.426 40.0948 10.426 40.0686 10.2692 39.9641C10.1646 39.8856 10.1385 39.8333 10.2038 39.8333C10.2822 39.8333 10.413 39.8856 10.5045 39.951C10.6483 40.0294 10.6352 40.0817 10.4522 40.1471C10.2561 40.2255 10.2822 40.4085 10.5045 40.4346C10.5568 40.4346 10.8182 40.5392 11.0796 40.6569C11.877 41.0229 12.9358 40.9444 13.8901 40.4739C14.3476 40.2516 14.7136 40.0163 14.7136 39.951C14.7136 39.8856 14.7528 39.8464 14.8182 39.8595C15.0273 39.9248 15.511 39.5458 15.4456 39.3758C15.4064 39.2582 15.4456 39.219 15.5633 39.2582C15.8117 39.3627 16.5698 38.8137 16.4653 38.6307C16.413 38.5392 16.4391 38.5261 16.5306 38.5784C16.6221 38.6438 16.8443 38.5 17.0927 38.2386C17.3149 38.0033 17.5371 37.8203 17.5894 37.8333C17.6809 37.8595 18.2038 37.3235 19.6286 35.768C19.7986 35.585 19.9424 35.402 19.9424 35.3627C19.9424 35.3235 20.1254 35.1013 20.3345 34.866C20.5568 34.6307 20.7267 34.3693 20.7267 34.2647C20.7267 34.1601 20.792 34.0817 20.8705 34.0817C20.9751 34.0817 20.962 34.0163 20.8574 33.8856C20.7136 33.7157 20.7267 33.7026 20.8966 33.7549C21.0273 33.8203 21.1842 33.6765 21.3672 33.3366C21.5241 33.0621 21.6548 32.7876 21.6417 32.7353C21.6417 32.683 21.7202 32.5392 21.8378 32.4346C21.9424 32.317 21.9947 32.1732 21.9554 32.0948C21.9032 32.0033 21.9293 31.9902 22.0077 32.0425C22.0992 32.0948 22.1646 32.0948 22.1777 32.0294C22.2038 31.6765 22.2953 31.415 22.3999 31.3497C22.4914 31.2843 22.9751 30.1732 23.0273 29.8987C23.0273 29.8595 23.1058 29.6634 23.1842 29.4673C23.2757 29.2582 23.3019 29.0359 23.2626 28.9706C23.2234 28.8922 23.2757 28.7353 23.3934 28.6046C23.511 28.4869 23.6156 28.1993 23.6417 27.9902C23.6679 27.781 23.7202 27.5458 23.7594 27.4673C23.8639 27.3105 24.1907 25.6503 24.3868 24.3431C24.4783 23.768 24.5568 22.5261 24.5698 21.598C24.5829 19.9771 24.5698 19.8726 24.23 19.3105C23.8639 18.683 23.4195 18.2386 23.2888 18.3562C23.2496 18.4085 23.2103 18.3693 23.2103 18.2778C23.2103 18.1863 23.0143 18.0425 22.792 17.9379C22.3084 17.7418 19.877 17.4281 19.6156 17.5327C19.511 17.5719 19.4195 17.5458 19.3934 17.4804C19.3672 17.4281 19.145 17.3497 18.8966 17.3235C18.6483 17.3105 18.413 17.2582 18.3737 17.219C18.3084 17.1536 16.779 16.6046 16.4783 16.5261C16.413 16.5131 16.3215 16.4608 16.2822 16.4216C16.1907 16.317 15.145 15.781 15.0143 15.781C14.962 15.781 15.0404 15.8726 15.1842 15.9902C15.4195 16.1732 15.4195 16.1863 15.1319 16.0425C14.9751 15.9641 14.8705 15.8464 14.9097 15.7941C14.9358 15.7288 14.8182 15.5719 14.6352 15.4543C14.4391 15.3366 14.3215 15.2843 14.3607 15.3497C14.413 15.415 14.3607 15.4804 14.2692 15.4804C14.1777 15.4804 14.0992 15.3889 14.1123 15.2712C14.1254 15.1405 14.0339 15.0752 13.877 15.1013C13.7463 15.1275 13.6809 15.0882 13.7202 15.0229C13.9816 14.5784 11.8378 14.4608 10.962 14.866ZM13.0666 17.3497C13.1973 17.3497 13.2626 17.402 13.2234 17.4543C13.1973 17.5065 13.2757 17.6373 13.4326 17.7288C13.6417 17.8595 13.6809 17.8595 13.6025 17.7157C13.5633 17.6242 13.6156 17.6634 13.7202 17.7941C13.8378 17.9379 13.9293 18.0163 13.9293 17.9641C13.9293 17.9118 14.047 17.9902 14.1907 18.134C14.4783 18.4216 14.6221 18.4477 14.962 18.2778C15.1319 18.1863 15.1973 18.1993 15.1973 18.3301C15.1973 18.4216 15.1188 18.4739 15.0143 18.4346C14.9228 18.3954 14.8443 18.3954 14.8443 18.4477C14.8443 18.5654 15.5894 18.9183 15.6809 18.8268C15.7202 18.7745 15.7594 18.8137 15.7594 18.8922C15.7594 18.9706 15.8509 19.0098 15.9554 18.9706C16.06 18.9183 16.1515 18.9575 16.1515 19.049C16.1515 19.1536 16.2692 19.1797 16.5175 19.1275C16.7528 19.0621 16.8182 19.0752 16.6875 19.1667C16.3476 19.3889 18.3999 19.9118 20.5568 20.1471C21.4718 20.2516 21.9162 20.2516 21.9554 20.1601C21.9947 20.0948 21.9947 20.8529 21.9685 21.8595C21.9032 24.1732 21.5241 26.3954 20.8443 28.3301C20.5568 29.1536 20.3084 29.9248 20.3084 30.0294C20.2953 30.134 20.2561 30.2516 20.2038 30.2908C19.9947 30.4477 19.1711 32.0948 19.2626 32.1863C19.3149 32.2516 19.2757 32.2386 19.1711 32.1863C19.0273 32.1078 19.0012 32.134 19.0666 32.3039C19.1188 32.4346 19.1058 32.5 19.0273 32.4477C18.9489 32.4085 18.8966 32.4608 18.8966 32.5654C18.8966 32.683 18.8443 32.7745 18.779 32.7745C18.7136 32.7745 18.5175 32.9967 18.3607 33.2582C18.1907 33.5327 17.9293 33.8595 17.7855 33.9902C17.6417 34.1209 17.6156 34.1863 17.7202 34.134C17.8247 34.0686 17.5241 34.3954 17.0404 34.8529C16.5437 35.3105 16.1907 35.7418 16.243 35.8203C16.2822 35.8856 16.2692 35.9118 16.2038 35.8725C16.0077 35.7549 15.0666 36.6699 15.1842 36.866C15.2496 36.9706 15.2103 36.9706 15.0666 36.8399C14.8574 36.683 14.779 36.7353 14.8313 36.9967C14.8443 37.0621 14.792 37.0752 14.7398 37.0359C14.6744 36.9967 14.4653 37.1013 14.2822 37.2712C14.0992 37.4412 13.9162 37.5458 13.877 37.5065C13.8378 37.4673 13.7986 37.4935 13.7986 37.5719C13.7986 37.6503 13.6417 37.7549 13.4587 37.7941C13.2626 37.8464 13.145 37.9248 13.1973 37.9641C13.2365 38.0163 13.0404 38.134 12.7528 38.2255C12.3737 38.3562 12.1646 38.3693 11.9816 38.2647C11.8378 38.1993 11.6025 38.134 11.4456 38.134C11.3019 38.134 11.145 38.0425 11.0927 37.9248C11.0535 37.8203 10.9358 37.7549 10.8313 37.7941C10.7267 37.8333 10.6744 37.8203 10.7136 37.7549C10.779 37.6503 10.1646 37.2843 9.98159 37.3235C9.91623 37.3366 9.87702 37.2843 9.87702 37.1928C9.87702 37.1144 9.8378 37.0882 9.78551 37.1275C9.7463 37.1797 9.61558 37.1013 9.511 36.9444C9.36721 36.7353 9.28878 36.7091 9.14499 36.8399C8.98813 36.9575 8.97505 36.9575 9.02734 36.8137C9.06656 36.6961 8.7659 36.3562 8.19074 35.8856C7.40643 35.2451 7.26264 35.1797 7.07963 35.3366C6.89662 35.5065 6.88355 35.4935 7.06656 35.2974C7.23649 35.1013 7.19728 35.0098 6.63518 34.4216C6.29532 34.0556 5.96852 33.768 5.91623 33.7941C5.85087 33.8072 5.8378 33.781 5.87702 33.7157C5.9293 33.6242 5.31492 32.6307 5.04041 32.3824C5.0012 32.3431 4.89662 32.1601 4.81819 31.951C4.72669 31.7549 4.59597 31.598 4.51754 31.598C4.43911 31.598 4.39989 31.5458 4.45218 31.4804C4.54368 31.3105 4.24303 30.6699 4.11231 30.7614C4.04695 30.8007 4.03388 30.7353 4.07309 30.6307C4.12538 30.5131 4.08617 30.4216 3.99466 30.4216C3.91623 30.4216 3.86394 30.3431 3.90316 30.2516C3.9293 30.1732 3.87702 29.9118 3.78551 29.7026C3.04041 27.8987 2.55675 25.0229 2.55675 22.2909C2.55675 20.0948 2.41296 20.317 3.9293 20.1601C4.92277 20.0686 6.70054 19.7157 7.13192 19.5327C7.31492 19.4673 7.57636 19.3758 7.72015 19.3497C7.86394 19.3235 7.99466 19.2451 8.02081 19.1797C8.04695 19.1144 8.15152 19.1013 8.2561 19.1405C8.36067 19.1797 8.43911 19.1536 8.43911 19.0882C8.43911 19.0229 8.53061 18.9575 8.63518 18.9575C8.88355 18.9575 9.87702 18.5131 9.87702 18.3954C9.87702 18.3431 9.95545 18.3039 10.06 18.3039C10.3737 18.3039 11.694 17.4412 11.6156 17.2974C11.5764 17.219 11.5764 17.1928 11.6286 17.2451C11.6809 17.2843 11.9162 17.2451 12.1385 17.1536C12.4914 16.9967 12.5829 16.9967 12.7005 17.1667C12.779 17.2582 12.9489 17.3497 13.0666 17.3497Z" fill="#EE3764"/>
<path id="Vector_5" d="M17.328 23.4285C17.145 23.5331 16.8052 23.7031 16.5829 23.8207C16.3476 23.9253 16.1516 24.0821 16.1516 24.1606C16.1516 24.2259 16.0993 24.2651 16.0339 24.2129C15.9686 24.1736 15.8117 24.2782 15.7071 24.4351C15.5895 24.5919 15.498 24.6704 15.498 24.605C15.498 24.5266 15.4065 24.5919 15.2888 24.7357C15.1842 24.8795 15.0535 24.9972 15.0012 25.0102C14.7137 25.0495 14.4653 25.2455 14.5437 25.3763C14.5829 25.4547 14.5829 25.4808 14.5176 25.4285C14.3738 25.2848 13.6418 25.8338 13.7594 26.0037C13.8117 26.0952 13.7594 26.1214 13.6418 26.0691C13.511 26.0299 13.2496 26.1736 12.9489 26.4482C12.6744 26.6965 12.4391 26.8926 12.413 26.8926C12.2431 26.8926 10.8182 28.1214 10.8705 28.2259C10.9097 28.2913 10.8705 28.3174 10.7659 28.3044C10.6744 28.2782 10.6091 28.3436 10.6352 28.4351C10.6483 28.5397 10.6091 28.5789 10.5306 28.5266C10.4522 28.4743 10.3215 28.5004 10.23 28.5658C9.95548 28.788 9.60254 28.6834 9.3411 28.3044C9.19731 28.1083 9.01431 27.9776 8.93587 28.0168C8.85744 28.0691 8.8313 28.0429 8.87051 27.9776C8.9228 27.8991 8.87051 27.7684 8.76594 27.6769C8.66136 27.5854 8.56986 27.5462 8.56986 27.5854C8.56986 27.6246 8.39993 27.4808 8.1777 27.2717C7.96855 27.0495 7.73326 26.9057 7.65483 26.958C7.58947 26.9972 7.52411 26.9841 7.52411 26.9057C7.52411 26.6834 7.00123 26.605 6.77901 26.788C6.59601 26.9318 6.56986 26.9318 6.66136 26.7619C6.71365 26.6573 6.67444 26.6704 6.55679 26.8142C6.413 26.9841 6.39993 27.1279 6.47836 27.2848C6.54372 27.4155 6.55679 27.5462 6.51757 27.5985C6.47836 27.6377 6.49143 27.6769 6.56986 27.6769C6.63522 27.6769 6.70058 27.7553 6.70058 27.8599C6.70058 28.1998 7.02738 28.8534 7.17117 28.7619C7.2496 28.7227 7.26267 28.7488 7.21038 28.8272C7.13195 28.971 7.31496 29.4808 7.51104 29.6377C7.55025 29.6769 7.70712 29.9253 7.83783 30.1867C8.07313 30.6704 8.413 30.8926 8.25614 30.4743C8.21692 30.3566 8.22999 30.3174 8.3215 30.3566C8.38685 30.4089 8.413 30.5658 8.36071 30.7096C8.30842 30.9057 8.36071 31.0625 8.58293 31.2325C8.75287 31.3763 8.80516 31.4416 8.70058 31.3893C8.596 31.337 8.68751 31.4808 8.89666 31.7031C9.28882 32.0952 10.2954 32.4743 10.0862 32.1475C10.0208 32.0429 10.0601 32.0168 10.2038 32.0691C10.3215 32.1214 10.4914 32.056 10.6091 31.9122C10.7267 31.7684 10.7659 31.7553 10.7137 31.8599C10.6614 31.9645 10.9751 31.7031 11.3934 31.2717C11.8117 30.8403 12.5437 30.1083 13.0143 29.6508C13.4849 29.1932 13.7725 28.8665 13.6679 28.9318C13.498 29.0233 13.498 28.9972 13.6548 28.8142C13.7463 28.6965 13.8901 28.6312 13.9686 28.6834C14.047 28.7227 14.0601 28.6965 14.0078 28.6181C13.9555 28.5266 13.9686 28.4612 14.0339 28.4612C14.0993 28.4612 14.23 28.3174 14.3215 28.1344C14.413 27.9514 14.5306 27.8338 14.5568 27.873C14.6875 28.0037 15.7855 26.7619 15.7202 26.5658C15.6679 26.4351 15.7071 26.4089 15.8509 26.4612C16.0208 26.5266 16.047 26.4874 15.9816 26.3174C15.9293 26.1867 15.9424 26.1214 16.0339 26.1736C16.1908 26.2782 16.5699 25.9906 16.4784 25.8338C16.4391 25.7815 16.5306 25.6638 16.6744 25.5854C16.8182 25.507 16.9097 25.3893 16.8705 25.3109C16.8182 25.2455 16.8574 25.2063 16.9359 25.2194C17.0274 25.2455 17.1581 25.141 17.2365 24.9972C17.328 24.8665 17.511 24.6442 17.6548 24.5135C17.7986 24.3959 17.864 24.2913 17.8117 24.2782C17.7463 24.2782 17.7986 24.1867 17.9032 24.0691C18.1385 23.8338 18.0993 23.3109 17.8378 23.2717C17.7333 23.2455 17.511 23.324 17.328 23.4285Z" fill="#EE3764"/>
<path id="Vector_6" d="M25.4326 17.795C25.4326 18.0303 25.7594 18.5009 25.864 18.4356C25.9424 18.3964 25.9555 18.4225 25.9032 18.5009C25.864 18.5794 25.8771 18.7754 25.9424 18.9454C26.0078 19.1022 26.0601 19.2983 26.0862 19.3767C26.0993 19.4421 26.2039 19.6251 26.3215 19.7558C26.4392 19.8996 26.4653 19.965 26.3869 19.9127C26.2954 19.8604 26.2169 19.8735 26.2169 19.9519C26.2169 20.0434 28.1646 20.0826 32.0339 20.0957C36.0993 20.0957 37.8509 20.0565 37.8509 19.965C37.8509 19.8866 37.9032 19.8473 37.9686 19.8866C38.1124 19.9781 38.5307 19.5205 38.413 19.4029C38.3738 19.3506 38.3869 19.3114 38.4522 19.3114C38.5176 19.3114 38.596 19.1676 38.6091 18.9846C38.6222 18.8016 38.5699 18.6578 38.4914 18.6578C38.4261 18.6578 38.3999 18.7101 38.4392 18.7885C38.5699 18.9977 38.4261 18.9323 38.23 18.697C38.1254 18.5794 38.1124 18.514 38.1908 18.5663C38.5307 18.7624 38.4784 18.2526 38.1516 18.0434C37.8248 17.8343 37.2496 17.8081 31.6156 17.7689C28.2169 17.7558 25.4326 17.7689 25.4326 17.795Z" fill="#373434"/>
<path id="Vector_7" d="M31.7072 24.5395C28.583 24.5787 26.0209 24.631 26.0078 24.6441C25.9948 24.6571 25.9556 24.9447 25.9163 25.2846C25.8771 25.6375 25.7987 26.1081 25.7464 26.3303L25.668 26.7617H31.7595C35.7333 26.7617 37.851 26.7225 37.851 26.631C37.851 26.5526 37.9294 26.5134 38.0209 26.5264C38.0993 26.5526 38.1647 26.4872 38.1516 26.3957C38.1255 26.3173 38.1908 26.2519 38.2823 26.265C38.3608 26.2911 38.4261 26.1996 38.4261 26.082C38.4131 25.9513 38.4523 25.8859 38.5176 25.9251C38.583 25.9643 38.6091 25.7944 38.583 25.5591C38.5569 25.3238 38.4654 25.1147 38.3869 25.0885C38.3085 25.0624 38.2431 24.9578 38.2431 24.8532C38.2431 24.7486 38.1908 24.6571 38.1124 24.6571C38.0471 24.6441 37.9294 24.631 37.864 24.6179C37.7987 24.6179 37.6941 24.5656 37.6418 24.5003C37.5895 24.448 37.5111 24.4218 37.4719 24.4349C37.4327 24.4611 34.8314 24.5003 31.7072 24.5395Z" fill="#373434"/>
<path id="Vector_8" d="M24.2691 31.4407C24.2037 31.6367 24.1122 31.8851 24.0991 31.9897C24.073 32.0943 24.0338 32.2119 23.9946 32.2511C23.89 32.3557 23.4717 33.1269 23.4717 33.2184C23.4717 33.2577 26.7266 33.2969 30.7004 33.2969C37.7331 33.2969 37.9423 33.2838 38.1776 33.0354C38.2952 32.9047 38.3736 32.6956 38.3344 32.591C38.2821 32.4733 38.3214 32.3557 38.3998 32.3034C38.4913 32.2511 38.5044 32.2642 38.4521 32.3557C38.3998 32.4472 38.4259 32.5126 38.4913 32.5126C38.5697 32.5126 38.6351 32.3688 38.6351 32.1858C38.6351 32.0028 38.5697 31.859 38.4913 31.859C38.4259 31.859 38.3867 31.8067 38.4259 31.7544C38.5044 31.6237 38.3867 31.4668 38.0599 31.2054C37.8246 31.0354 37.8115 31.0354 37.9161 31.2054C38.0076 31.3753 37.9946 31.3753 37.8246 31.2315C37.6678 31.1008 36.1645 31.0747 31.0142 31.0747L24.4129 31.0877L24.2691 31.4407Z" fill="#373434"/>
<path id="Vector_9" d="M19.4197 38.7229L18.3086 39.834H28.0733C33.4328 39.834 37.9164 39.7948 38.0341 39.7556C38.1517 39.7163 38.2432 39.6248 38.2432 39.5464C38.2432 39.481 38.3347 39.3373 38.4393 39.2327C38.6615 38.9974 38.7008 38.3961 38.4916 38.3961C38.4262 38.3961 38.387 38.3438 38.4262 38.2784C38.5308 38.1085 38.021 37.7033 37.838 37.8209C37.7334 37.8732 37.7073 37.8601 37.7726 37.7686C37.838 37.651 35.7204 37.6118 29.1975 37.6118H20.5308L19.4197 38.7229Z" fill="#373434"/>
</g>
</svg>
