<svg width="18" height="21" viewBox="0 0 18 21" fill="none" xmlns="http://www.w3.org/2000/svg">
<g id="Group 1000003691">
<path id="Vector" d="M8.12481 0.187351C7.61599 0.466385 5.9582 2.20624 5.67916 2.76431C5.53144 3.02693 5.41654 3.63424 5.41654 4.09383V4.91451H3.85723C2.29793 4.91451 2.29793 4.91451 1.64138 5.50541C1.29669 5.81727 0.951998 6.2112 0.919171 6.35892C0.837102 6.58872 0 19.8018 0 20.7046C0 20.9836 0.492413 21 8.00992 21H16.0198L16.7092 20.2942L17.415 19.572L16.9882 12.4484C16.7584 8.52554 16.5451 5.22638 16.4958 5.11148C16.4466 4.96375 15.8393 4.91451 14.1979 4.91451H11.982V3.38803C11.982 1.61535 11.6374 0.811073 10.6689 0.302246C10.0288 -0.0424423 8.65005 -0.108097 8.12481 0.187351ZM9.91391 0.876728C10.9152 1.28707 11.1614 1.81231 11.1614 3.45369C11.1614 5.11148 10.9316 5.39051 10.7674 3.9461C10.6033 2.46886 9.96315 1.71383 8.45309 1.205C8.15764 1.10652 8.17405 1.07369 8.61722 0.876728C9.24095 0.597694 9.25736 0.597694 9.91391 0.876728ZM8.78136 2.18983C9.50357 2.50169 9.83184 3.02693 9.96315 4.07741L10.0616 4.91451H8.71571H7.38619V3.74914C7.38619 1.99286 7.6324 1.71383 8.78136 2.18983ZM6.72964 3.84762C6.72964 4.68472 6.6804 4.91451 6.48344 4.91451C6.18799 4.91451 6.13875 3.60141 6.40137 3.09259C6.6804 2.60017 6.72964 2.71507 6.72964 3.84762ZM5.41654 5.98141C5.41654 6.17837 5.13751 6.22761 3.84082 6.22761C2.44565 6.22761 2.28151 6.19479 2.46206 5.98141C2.60979 5.80086 3.02013 5.7352 4.03779 5.7352C5.15392 5.7352 5.41654 5.78444 5.41654 5.98141ZM10.0124 5.98141C10.0124 6.17837 9.70053 6.22761 8.12481 6.22761C6.54909 6.22761 6.23723 6.17837 6.23723 5.98141C6.23723 5.78444 6.54909 5.7352 8.12481 5.7352C9.70053 5.7352 10.0124 5.78444 10.0124 5.98141ZM14.9365 5.98141C14.7724 6.17837 14.3128 6.22761 12.7863 6.22761C11.1614 6.22761 10.8331 6.17837 10.8331 5.98141C10.8331 5.76803 11.1778 5.7352 12.9833 5.7352C14.8873 5.7352 15.1171 5.76803 14.9365 5.98141ZM16.2168 12.8259L16.5943 19.2437L16.0691 19.8018L15.5274 20.3434H8.15764H0.771447L0.869929 18.9811C0.935584 18.2425 1.09972 15.5342 1.23103 12.9573C1.37876 10.3803 1.52648 7.96747 1.57572 7.57354L1.65779 6.88416H3.54537H5.41654V7.96747C5.41654 8.98513 5.43295 9.03437 5.79406 8.98513C6.12233 8.93589 6.15516 8.8374 6.2044 7.90182L6.25364 6.88416H8.12481H10.0124V7.95106C10.0124 8.88664 10.0452 9.01795 10.3243 9.01795C10.7182 9.01795 10.8331 8.70609 10.8331 7.68844V6.88416H12.7207H14.6082V7.40941C14.6082 8.96871 15.314 19.6212 15.4289 19.7526C15.6916 20.0152 16.0855 19.7033 16.0691 19.2437C16.0691 18.9975 15.9049 16.0923 15.6916 12.7931C15.3469 7.1632 15.3469 6.39175 15.7408 6.39175C15.8065 6.39175 16.0198 9.28057 16.2168 12.8259Z" fill="#EE3764"/>
<path id="Vector_2" d="M5.25229 11.348C4.44802 11.8897 4.00485 12.9894 4.25105 13.8758C4.34954 14.2369 4.53009 14.6636 4.6614 14.8442C4.85836 15.1068 4.92402 15.1232 5.15381 14.9426C5.3836 14.7457 5.3836 14.6636 5.15381 14.1384C4.49726 12.5462 6.07298 11.2167 7.56663 12.0867C8.02622 12.3657 8.07546 12.3657 8.55146 12.0867C9.71684 11.4301 11.1612 12.1031 11.1612 13.3177C11.1612 14.0235 10.915 14.3846 9.38856 15.9439L8.14111 17.2077L7.00857 16.1244C5.95808 15.1068 5.87602 15.0575 5.6134 15.3202C5.36719 15.5664 5.43284 15.6813 6.64746 16.8959C7.36967 17.6181 8.02622 18.209 8.10829 18.209C8.42015 18.209 11.3746 15.1396 11.6701 14.5159C12.261 13.252 11.9163 12.0046 10.8001 11.2988C10.357 11.0362 10.0779 10.9869 9.35573 11.069C8.22318 11.1839 7.84567 11.1839 6.72953 11.0526C5.95808 10.9705 5.74471 11.0198 5.25229 11.348Z" fill="#EE3764"/>
</g>
</svg>
