<svg width="105" height="105" viewBox="0 0 105 105" fill="none" xmlns="http://www.w3.org/2000/svg">
<g id="Group 1000003566">
<circle id="Ellipse 1319" cx="52.5" cy="52.5" r="52.5" fill="#F05E90" fill-opacity="0.5"/>
<g id="Black">
<path id="Vector" d="M33.5906 26.9455C33.2734 27.2636 33.228 29.9445 33.228 53.164C33.228 76.3836 33.2734 79.0645 33.5906 79.3826C33.9079 79.7007 35.9476 79.7461 52.718 79.7461C69.4884 79.7461 71.5281 79.7007 71.8453 79.3826C72.1626 79.0645 72.2079 76.3836 72.2079 53.164C72.2079 29.9445 72.1626 27.2636 71.8453 26.9455C71.5281 26.6274 69.4884 26.582 52.718 26.582C35.9476 26.582 33.9079 26.6274 33.5906 26.9455ZM70.055 53.164V77.5877H52.718H35.381L35.313 53.3912C35.2903 40.0775 35.313 29.0584 35.381 28.8994C35.449 28.6722 39.0524 28.6268 52.7633 28.6722L70.055 28.7404V53.164Z" fill="white"/>
<path id="Vector_2" d="M38.2139 33.0812C37.9873 33.3311 37.9646 33.6037 38.1233 34.0354C38.3272 34.6261 38.4179 34.6488 39.9816 34.717L41.6133 34.7851V39.2609C41.6133 43.9866 41.6813 44.3047 42.6332 44.3047C43.585 44.3047 43.653 43.9866 43.653 39.2609V34.7624H45.1941C46.8258 34.7624 47.279 34.5352 47.279 33.74C47.279 32.7858 46.9391 32.7176 42.6105 32.7176C39.1658 32.7176 38.4406 32.7858 38.2139 33.0812Z" fill="#EE3764"/>
<path id="Vector_3" d="M49.8626 33.1465C48.5708 33.9416 48.3442 35.6683 49.3187 37.0542C49.7493 37.645 49.7493 37.6677 49.3187 38.0539C48.2082 39.0536 47.9589 41.1665 48.7748 42.7342C49.6813 44.5063 52.3555 44.8244 53.9872 43.3703C54.4405 42.9387 54.4631 42.9387 55.0977 43.6202C56.5481 45.1425 58.0438 43.8247 56.6841 42.2116C56.0042 41.3937 55.9815 41.3028 56.5708 40.7803C57.296 40.1214 57.1373 39.099 56.2535 38.7582C55.9362 38.6446 55.6416 38.7809 55.211 39.1899L54.5991 39.7806L52.7407 37.6904C51.7436 36.5544 50.9051 35.4639 50.9051 35.3048C50.9051 34.7823 51.3583 34.7141 51.9476 35.1912C52.7181 35.8047 53.4886 35.532 53.5793 34.6005C53.6246 34.0552 53.4886 33.7826 52.9447 33.3055C52.0835 32.5785 50.8824 32.533 49.8626 33.1465ZM52.1289 40.2123C52.5821 40.7121 52.9447 41.212 52.9447 41.3256C52.9447 41.5755 51.9249 42.2571 51.5623 42.2571C50.6784 42.2571 50.1572 40.7576 50.6784 39.7352C51.0184 39.1217 51.1997 39.1899 52.1289 40.2123Z" fill="#EE3764"/>
<path id="Vector_4" d="M61.8967 33.1013C60.7635 33.692 59.5397 35.0098 59.1318 36.1003C58.6559 37.3272 58.6106 39.5083 59.0412 40.7579C59.4264 41.8711 60.6955 43.3025 61.806 43.8705C63.7097 44.8247 66.8145 44.0295 66.9504 42.53C66.9958 42.0075 66.9051 41.7803 66.5199 41.5758C66.1119 41.3486 65.8853 41.394 65.1374 41.803C63.0298 42.9844 60.8768 41.3259 60.8768 38.5086C60.8768 35.6914 63.0298 34.0328 65.1374 35.2143C65.8853 35.6232 66.1119 35.6687 66.5199 35.4415C66.9051 35.237 66.9958 35.0098 66.9504 34.4872C66.8145 33.0332 63.6417 32.1698 61.8967 33.1013Z" fill="#EE3764"/>
<path id="Vector_5" d="M38.9388 51.39C38.3042 52.0261 38.7801 53.1621 39.6867 53.1621C39.9586 53.1621 40.2759 53.0485 40.4345 52.8895C40.5932 52.7304 40.7065 52.4124 40.7065 52.1397C40.7065 51.8671 40.5932 51.549 40.4345 51.39C40.2759 51.2309 39.9586 51.1173 39.6867 51.1173C39.4147 51.1173 39.0974 51.2309 38.9388 51.39Z" fill="white"/>
<path id="Vector_6" d="M44.6959 51.6194C44.4012 52.0511 44.3786 52.1874 44.6505 52.5964C44.9451 53.0508 45.1264 53.0508 56.0272 53.0508H67.1093L67.3133 52.4373C67.7892 51.0969 68.0385 51.1196 55.9819 51.1196H45.0358L44.6959 51.6194Z" fill="white"/>
<path id="Vector_7" d="M38.9388 58.2064C38.3042 58.8425 38.7801 59.9785 39.6867 59.9785C39.9586 59.9785 40.2759 59.8649 40.4345 59.7059C40.5932 59.5468 40.7065 59.2288 40.7065 58.9561C40.7065 58.6835 40.5932 58.3654 40.4345 58.2064C40.2759 58.0473 39.9586 57.9337 39.6867 57.9337C39.4147 57.9337 39.0974 58.0473 38.9388 58.2064Z" fill="white"/>
<path id="Vector_8" d="M44.6959 58.4336C44.4012 58.8652 44.3786 59.0016 44.6505 59.4105C44.9451 59.8649 45.1491 59.8649 55.9592 59.9331L66.9733 59.9785L67.2453 59.5014C67.4266 59.1379 67.4266 58.8652 67.2453 58.479L66.996 57.9337H56.0272H45.0358L44.6959 58.4336Z" fill="white"/>
<path id="Vector_9" d="M38.9388 65.0247C38.3042 65.6609 38.7801 66.7969 39.6867 66.7969C39.9586 66.7969 40.2759 66.6833 40.4345 66.5242C40.5932 66.3652 40.7065 66.0471 40.7065 65.7745C40.7065 65.5019 40.5932 65.1838 40.4345 65.0247C40.2759 64.8657 39.9586 64.7521 39.6867 64.7521C39.4147 64.7521 39.0974 64.8657 38.9388 65.0247Z" fill="white"/>
<path id="Vector_10" d="M44.6959 65.2519C44.4012 65.6836 44.3786 65.8199 44.6505 66.2289C44.9451 66.6833 45.1491 66.6833 55.9592 66.7514L66.9733 66.7969L67.2453 66.3198C67.4266 65.9562 67.4266 65.6836 67.2453 65.2974L66.996 64.7521H56.0272H45.0358L44.6959 65.2519Z" fill="white"/>
<path id="Vector_11" d="M38.9388 71.8411C38.3042 72.4773 38.7801 73.6133 39.6867 73.6133C39.9586 73.6133 40.2759 73.4997 40.4345 73.3406C40.5932 73.1816 40.7065 72.8635 40.7065 72.5909C40.7065 72.3183 40.5932 72.0002 40.4345 71.8411C40.2759 71.6821 39.9586 71.5685 39.6867 71.5685C39.4147 71.5685 39.0974 71.6821 38.9388 71.8411Z" fill="white"/>
<path id="Vector_12" d="M44.831 71.8411C44.6724 72.0002 44.5591 72.3183 44.5591 72.5909C44.5591 73.6133 44.5364 73.6133 56.0491 73.6133C66.9725 73.6133 66.9725 73.6133 67.2445 73.1362C67.4258 72.7727 67.4258 72.5 67.2445 72.1138L66.9952 71.5685H56.0491C47.8452 71.5685 45.035 71.6367 44.831 71.8411Z" fill="white"/>
</g>
</g>
</svg>
