<svg width="11" height="16" viewBox="0 0 11 16" fill="none" xmlns="http://www.w3.org/2000/svg">
<g id="Black">
<path id="Vector" d="M0.102326 0.103753C0.0127907 0.193513 0 0.950061 0 7.50254C0 14.055 0.0127907 14.8116 0.102326 14.9013C0.19186 14.9911 0.767442 15.0039 5.5 15.0039C10.2326 15.0039 10.8081 14.9911 10.8977 14.9013C10.9872 14.8116 11 14.055 11 7.50254C11 0.950061 10.9872 0.193513 10.8977 0.103753C10.8081 0.0139933 10.2326 0.00117016 5.5 0.00117016C0.767442 0.00117016 0.19186 0.0139933 0.102326 0.103753ZM10.3924 7.50254V14.3948H5.5H0.607558L0.588372 7.56665C0.581977 3.80956 0.588372 0.700015 0.607558 0.655135C0.626744 0.591022 1.6436 0.578198 5.51279 0.591022L10.3924 0.610255V7.50254Z" fill="black"/>
<path id="Vector_2" d="M1.4065 1.83471C1.34254 1.90523 1.33615 1.98217 1.38091 2.10399C1.43847 2.27069 1.46405 2.2771 1.90533 2.29633L2.3658 2.31557V3.57862C2.3658 4.91219 2.38498 5.00195 2.65359 5.00195C2.92219 5.00195 2.94138 4.91219 2.94138 3.57862V2.30915H3.37626C3.83673 2.30915 3.96464 2.24504 3.96464 2.02064C3.96464 1.75136 3.86871 1.73213 2.64719 1.73213C1.6751 1.73213 1.47045 1.75136 1.4065 1.83471Z" fill="#373434"/>
<path id="Vector_3" d="M4.6951 1.85254C4.33057 2.07694 4.26662 2.56421 4.54162 2.9553C4.66313 3.122 4.66313 3.12841 4.54162 3.23741C4.22824 3.51951 4.1579 4.11577 4.38813 4.55816C4.64394 5.05825 5.39859 5.14801 5.85906 4.73768C5.98697 4.61586 5.99336 4.61586 6.17243 4.80821C6.58173 5.23777 7.00383 4.86591 6.6201 4.4107C6.42824 4.17989 6.42185 4.15424 6.58813 4.00678C6.79278 3.82085 6.74801 3.53233 6.49859 3.43616C6.40906 3.4041 6.32592 3.44257 6.20441 3.55798L6.03173 3.72468L5.50731 3.13482C5.22592 2.81425 4.98929 2.5065 4.98929 2.46162C4.98929 2.31416 5.1172 2.29493 5.28348 2.42957C5.50092 2.60268 5.71836 2.52574 5.74394 2.26287C5.75673 2.109 5.71836 2.03206 5.56487 1.89742C5.32185 1.69225 4.9829 1.67943 4.6951 1.85254ZM5.33464 3.84649C5.46255 3.98754 5.56487 4.1286 5.56487 4.16065C5.56487 4.23118 5.27708 4.42352 5.17476 4.42352C4.92534 4.42352 4.77824 4.00037 4.92534 3.71185C5.02127 3.53874 5.07243 3.55798 5.33464 3.84649Z" fill="#373434"/>
<path id="Vector_4" d="M8.08969 1.84201C7.76992 2.00871 7.42457 2.38057 7.30946 2.68832C7.17515 3.03454 7.16236 3.65003 7.28387 4.00266C7.39259 4.31682 7.75073 4.72074 8.06411 4.88103C8.60132 5.15031 9.47748 4.92591 9.51585 4.50275C9.52864 4.35529 9.50306 4.29117 9.39434 4.23347C9.27922 4.16936 9.21527 4.18218 9.00422 4.29759C8.40946 4.63098 7.8019 4.16295 7.8019 3.36793C7.8019 2.57291 8.40946 2.10488 9.00422 2.43827C9.21527 2.55368 9.27922 2.5665 9.39434 2.50239C9.50306 2.44468 9.52864 2.38057 9.51585 2.23311C9.47748 1.82278 8.58213 1.57914 8.08969 1.84201Z" fill="#373434"/>
<path id="Vector_5" d="M1.61123 7.00186C1.43216 7.18138 1.56647 7.50195 1.82228 7.50195C1.89902 7.50195 1.98856 7.4699 2.03333 7.42502C2.07809 7.38014 2.11007 7.29038 2.11007 7.21344C2.11007 7.1365 2.07809 7.04674 2.03333 7.00186C1.98856 6.95698 1.89902 6.92492 1.82228 6.92492C1.74554 6.92492 1.656 6.95698 1.61123 7.00186Z" fill="black"/>
<path id="Vector_6" d="M3.236 7.06678C3.15286 7.1886 3.14647 7.22707 3.22321 7.34247C3.30635 7.4707 3.35751 7.4707 6.43368 7.4707H9.561L9.61856 7.29759C9.75286 6.91932 9.82321 6.92573 6.42089 6.92573H3.33193L3.236 7.06678Z" fill="black"/>
<path id="Vector_7" d="M1.61123 8.92569C1.43216 9.10521 1.56647 9.42578 1.82228 9.42578C1.89902 9.42578 1.98856 9.39372 2.03333 9.34884C2.07809 9.30396 2.11007 9.2142 2.11007 9.13727C2.11007 9.06033 2.07809 8.97057 2.03333 8.92569C1.98856 8.88081 1.89902 8.84875 1.82228 8.84875C1.74554 8.84875 1.656 8.88081 1.61123 8.92569Z" fill="black"/>
<path id="Vector_8" d="M3.236 8.9898C3.15286 9.11162 3.14647 9.15009 3.22321 9.2655C3.30635 9.39372 3.36391 9.39372 6.41449 9.41296L9.52263 9.42578L9.59937 9.29114C9.65054 9.18856 9.65054 9.11162 9.59937 9.00263L9.52903 8.84875H6.43368H3.33193L3.236 8.9898Z" fill="black"/>
<path id="Vector_9" d="M1.61123 10.8495C1.43216 11.029 1.56647 11.3496 1.82228 11.3496C1.89902 11.3496 1.98856 11.3176 2.03333 11.2727C2.07809 11.2278 2.11007 11.138 2.11007 11.0611C2.11007 10.9842 2.07809 10.8944 2.03333 10.8495C1.98856 10.8046 1.89902 10.7726 1.82228 10.7726C1.74554 10.7726 1.656 10.8046 1.61123 10.8495Z" fill="black"/>
<path id="Vector_10" d="M3.236 10.9136C3.15286 11.0354 3.14647 11.0739 3.22321 11.1893C3.30635 11.3176 3.36391 11.3176 6.41449 11.3368L9.52263 11.3496L9.59937 11.215C9.65054 11.1124 9.65054 11.0354 9.59937 10.9265L9.52903 10.7726H6.43368H3.33193L3.236 10.9136Z" fill="black"/>
<path id="Vector_11" d="M1.61123 12.7733C1.43216 12.9529 1.56647 13.2734 1.82228 13.2734C1.89902 13.2734 1.98856 13.2414 2.03333 13.1965C2.07809 13.1516 2.11007 13.0619 2.11007 12.9849C2.11007 12.908 2.07809 12.8182 2.03333 12.7733C1.98856 12.7285 1.89902 12.6964 1.82228 12.6964C1.74554 12.6964 1.656 12.7285 1.61123 12.7733Z" fill="black"/>
<path id="Vector_12" d="M3.27499 12.7733C3.23022 12.8182 3.19824 12.908 3.19824 12.9849C3.19824 13.2734 3.19185 13.2734 6.44068 13.2734C9.52324 13.2734 9.52324 13.2734 9.59999 13.1388C9.65115 13.0362 9.65115 12.9593 9.59999 12.8503L9.52964 12.6964H6.44068C4.12557 12.6964 3.33254 12.7156 3.27499 12.7733Z" fill="black"/>
</g>
</svg>
