<svg width="19" height="21" viewBox="0 0 19 21" fill="none" xmlns="http://www.w3.org/2000/svg">
<g id="Black">
<path id="Vector" d="M17.242 1.581C17.3636 2.0231 17.6841 2.91836 17.9604 3.59257C18.2368 4.25572 18.491 4.99624 18.5352 5.25045L17.242 1.581ZM17.242 1.581C16.9989 0.641527 16.8773 0.398371 16.5568 0.177319L17.242 1.581ZM2.22114 0.660903L2.22115 0.660918L2.21766 0.663771C2.10403 0.756745 2.00408 0.888391 1.87882 1.41032L1.87893 1.41034L1.87616 1.42088C1.75789 1.87031 1.3957 2.90835 1.06178 3.74334C0.865646 4.24467 0.722109 4.64987 0.628287 4.96391C0.530323 5.29182 0.5 5.47783 0.5 5.55993C0.5 5.80029 0.585064 6.1122 0.744458 6.41328C0.90441 6.71541 1.11008 6.95177 1.29952 7.07434L1.29952 7.07433L1.30248 7.07627C1.47593 7.19026 1.55939 7.22839 1.65948 7.25172C1.78055 7.27994 1.95391 7.29255 2.32104 7.29255C2.68784 7.29255 2.86268 7.28003 2.98391 7.25248C3.0831 7.22994 3.1638 7.19374 3.32872 7.0872L3.75684 6.80179L4.03419 6.61689L4.31154 6.80179L4.74118 7.08821C4.91067 7.1995 4.98827 7.23357 5.08964 7.25503C5.21948 7.28252 5.40776 7.29255 5.81366 7.29255C6.21476 7.29255 6.40342 7.28252 6.52435 7.2574C6.6077 7.24009 6.65766 7.2174 6.76668 7.13261L6.77415 7.1268L6.78183 7.12128L7.13552 6.86707L7.38078 6.69078L7.65094 6.82586L8.22568 7.11323L8.22572 7.11313L8.23494 7.11798C8.57375 7.2963 8.80136 7.34781 9.2289 7.34781C9.48735 7.34781 9.80803 7.29025 10.081 7.20208C10.2162 7.15841 10.3256 7.1117 10.4014 7.0698C10.4384 7.04937 10.4585 7.035 10.4673 7.02831C10.578 6.86716 10.7444 6.80239 10.8747 6.78716C10.9995 6.77258 11.1096 6.79812 11.1814 6.82041C11.33 6.86652 11.4821 6.95283 11.6208 7.04731C11.896 7.2332 12.3099 7.34862 12.7477 7.35336C13.1889 7.35815 13.5743 7.25006 13.8082 7.07926L13.8082 7.07919L13.8156 7.07398L14.2246 6.78661L14.5063 6.58861L14.7918 6.78128L15.2307 7.07754C15.4475 7.21856 15.7651 7.31779 16.1086 7.34215C16.4541 7.36667 16.7683 7.3115 16.9805 7.20403C17.7214 6.81936 18.1274 6.04805 18.0407 5.32623C18.0236 5.23778 17.963 5.02964 17.8623 4.73819C17.762 4.44793 17.633 4.10669 17.4989 3.78488L17.4978 3.78218C17.218 3.09948 16.8891 2.18333 16.7599 1.71357L16.7599 1.71359L16.758 1.70628C16.6356 1.23342 16.5551 0.984169 16.4794 0.829734C16.4247 0.718068 16.3777 0.664827 16.298 0.606696C16.2785 0.602027 16.2306 0.59172 16.138 0.581235C15.9512 0.560085 15.646 0.543127 15.1368 0.530724C14.1233 0.506039 12.3648 0.500478 9.27312 0.500478H2.41365L2.22114 0.660903Z" stroke="#EE3764"/>
<path id="Vector_2" d="M16.8526 9.27138C16.6715 9.30343 16.4696 9.32812 16.3052 9.33776V12.7106V16.579V17.079H15.8052H9.2842H2.76318H2.26318V16.579V12.7216V9.32094L2.13406 9.30605C2.00816 9.29298 1.87658 9.27661 1.75449 9.25854C1.75098 9.32562 1.74762 9.40376 1.74455 9.49458C1.71866 10.2602 1.71582 11.7382 1.71582 14.5563V20.3042L1.80716 20.3876L1.80726 20.3875L1.81564 20.3955L1.92487 20.5H9.29526H16.6568L16.7402 20.4087L16.7401 20.4086L16.7481 20.4002L16.8526 20.291V14.5674V9.27138ZM1.78903 8.89444C1.78865 8.89594 1.78826 8.89755 1.78786 8.89927C1.79306 8.88457 1.79249 8.88079 1.78903 8.89444Z" stroke="#EE3764"/>
<path id="Vector_3" d="M8.5659 8.88557C8.38906 8.96293 8.09064 9.19504 7.9138 9.38293C7.4938 9.82504 7.38327 10.7977 7.68169 11.4277C8.10169 12.3119 9.32853 12.6324 10.2238 12.1019C11.329 11.4608 11.3511 9.83609 10.2569 9.02925C9.88116 8.75293 9.008 8.67557 8.5659 8.88557Z" fill="#EE3764"/>
<path id="Vector_4" d="M7.21712 13.0537C6.64239 13.4185 6.37713 13.949 6.32186 14.8774L6.2666 15.6953H9.28396H12.3013L12.246 14.8774C12.1797 13.938 11.9145 13.4074 11.3176 13.0316L10.9308 12.7995L10.3892 13.0316C9.70395 13.3301 8.8308 13.3301 8.18975 13.0427C7.60396 12.7774 7.64817 12.7774 7.21712 13.0537Z" fill="#EE3764"/>
</g>
</svg>
