<svg width="24" height="20" viewBox="0 0 24 20" fill="none" xmlns="http://www.w3.org/2000/svg">
<g id="Group 1000003795">
<path id="Vector" d="M15.3149 9.75132C15.1157 9.56094 14.8793 9.40992 14.619 9.30689C14.3587 9.20385 14.0798 9.15082 13.798 9.15082C13.5163 9.15082 13.2374 9.20385 12.9771 9.30689C12.7168 9.40992 12.4803 9.56094 12.2812 9.75132L11.8678 10.1462L11.4545 9.75132C11.0522 9.36695 10.5066 9.15102 9.93765 9.15102C9.36872 9.15102 8.82308 9.36695 8.42079 9.75132C8.01849 10.1357 7.79248 10.657 7.79248 11.2006C7.79248 11.7442 8.01849 12.2655 8.42079 12.6498L8.83412 13.0448L11.8678 15.9433L14.9016 13.0448L15.3149 12.6498C15.5142 12.4596 15.6722 12.2336 15.7801 11.985C15.8879 11.7363 15.9434 11.4697 15.9434 11.2006C15.9434 10.9314 15.8879 10.6649 15.7801 10.4162C15.6722 10.1675 15.5142 9.94161 15.3149 9.75132Z" fill="#EF2B7B"/>
<line id="Line 141" x1="15.2642" y1="11.6179" x2="20.0189" y2="11.6179" stroke="#EF2B7B" stroke-width="0.5"/>
<line id="Line 142" x1="13.2263" y1="13.6557" x2="20.0188" y2="13.6557" stroke="#EF2B7B" stroke-width="0.5"/>
<path id="Vector 44" d="M1.03134 2.65679C1.15811 1.95943 1.64545 1.34687 2.05013 1H8.16334H23.4464V15.2642H20.3898M1.03134 2.65679C0.909868 3.32501 1.11947 4.07109 2.05013 4.73585H20.3898V15.2642M1.03134 2.65679C1.14455 6.2932 1.30304 14.1094 1.03134 16.283C0.759644 18.4566 2.72946 19 3.74832 19H20.3898V15.2642" stroke="black"/>
</g>
</svg>
