<svg width="22" height="22" viewBox="0 0 22 22" fill="none" xmlns="http://www.w3.org/2000/svg">
<g id="Group 1000003695">
<rect id="Rectangle 17615" x="1.31494" y="1.31445" width="19.3704" height="19.3704" rx="1.5" stroke="#EE3764"/>
<path id="Rectangle 17616" d="M21.1851 3.25977H21.4999C21.776 3.25977 21.9999 3.48362 21.9999 3.75977V6.01903C21.9999 6.29517 21.776 6.51902 21.4999 6.51902H21.1851V3.25977Z" fill="#EE3764"/>
<path id="Rectangle 17617" d="M21.1851 7.33398H21.4999C21.776 7.33398 21.9999 7.55784 21.9999 7.83398V10.0932C21.9999 10.3694 21.776 10.5932 21.4999 10.5932H21.1851V7.33398Z" fill="#EE3764"/>
<rect id="Rectangle 17618" x="16.2964" y="0.814453" width="0.814815" height="20.3704" fill="#EE3764"/>
<path id="Rectangle 17619" d="M4.88867 0.2C4.88867 0.0895431 4.97821 0 5.08867 0H5.50349C5.61394 0 5.70349 0.0895431 5.70349 0.2V11.3602C5.70349 11.3912 5.69626 11.4219 5.68237 11.4496L5.47496 11.8645C5.40126 12.0119 5.1909 12.0119 5.11719 11.8645L4.90979 11.4496C4.8959 11.4219 4.88867 11.3912 4.88867 11.3602V0.2Z" fill="#EE3764"/>
<rect id="Rectangle 17620" y="3.25977" width="2.44444" height="0.814815" rx="0.4" fill="#EE3764"/>
<rect id="Rectangle 17621" y="5.70312" width="2.44444" height="0.814815" rx="0.4" fill="#EE3764"/>
<rect id="Rectangle 17622" y="8.14844" width="2.44444" height="0.814815" rx="0.4" fill="#EE3764"/>
<rect id="Rectangle 17623" y="10.5918" width="2.44444" height="0.814815" rx="0.4" fill="#EE3764"/>
<rect id="Rectangle 17624" y="13.0371" width="2.44444" height="0.814815" rx="0.4" fill="#EE3764"/>
<rect id="Rectangle 17625" y="15.4805" width="2.44444" height="0.814815" rx="0.4" fill="#EE3764"/>
<rect id="Rectangle 17626" y="17.9258" width="2.44444" height="0.814815" rx="0.4" fill="#EE3764"/>
<path id="Vector" d="M11.9327 8.96289C13.0807 8.96289 13.852 10.0252 13.852 11.0162C13.852 13.0232 10.6507 14.6666 10.5928 14.6666C10.5348 14.6666 7.3335 13.0232 7.3335 11.0162C7.3335 10.0252 8.10485 8.96289 9.25284 8.96289C9.91193 8.96289 10.3429 9.28729 10.5928 9.57247C10.8426 9.28729 11.2736 8.96289 11.9327 8.96289Z" fill="#EE3764"/>
</g>
</svg>
