<svg width="30" height="42" viewBox="0 0 30 42" fill="none" xmlns="http://www.w3.org/2000/svg">
<g id="Group 1000003664">
<rect id="Rectangle 17610" y="3.33203" width="30" height="26.3636" rx="6" fill="#FFCDDE"/>
<path id="Rectangle 17611" d="M0 9.33203C0 6.01832 2.68629 3.33203 6 3.33203H24C27.3137 3.33203 30 6.01832 30 9.33203V12.4229H0V9.33203Z" fill="#F05E90"/>
<path id="Ellipse 1340" d="M8.33348 6.68069C8.33348 6.8403 8.46311 6.97094 8.62217 6.95772C9.20963 6.90889 9.77681 6.71164 10.2696 6.38239C10.8426 5.99947 11.2893 5.45522 11.5531 4.81844C11.8168 4.18167 11.8858 3.48098 11.7514 2.80499C11.6169 2.12899 11.285 1.50805 10.7976 1.02069C10.3103 0.533324 9.68934 0.201424 9.01334 0.0669605C8.33735 -0.0675033 7.63666 0.00150828 6.99989 0.265268C6.36312 0.529028 5.81886 0.97569 5.43594 1.54877C5.10669 2.04152 4.90944 2.6087 4.86061 3.19616C4.84739 3.35522 4.97803 3.48485 5.13764 3.48485C5.29726 3.48485 5.42517 3.35513 5.44101 3.1963C5.48819 2.72333 5.65084 2.26756 5.91654 1.8699C6.23595 1.39188 6.68993 1.0193 7.22109 0.799291C7.75224 0.57928 8.33671 0.521715 8.90058 0.633876C9.46444 0.746037 9.98239 1.02288 10.3889 1.42941C10.7954 1.83594 11.0723 2.35389 11.1845 2.91776C11.2966 3.48162 11.239 4.06609 11.019 4.59724C10.799 5.1284 10.4265 5.58238 9.94843 5.90179C9.55077 6.16749 9.095 6.33014 8.62203 6.37732C8.4632 6.39316 8.33348 6.52107 8.33348 6.68069Z" fill="#152845"/>
<path id="Ellipse 1341" d="M21.6665 6.68069C21.6665 6.8403 21.7961 6.97094 21.9552 6.95772C22.5426 6.90889 23.1098 6.71164 23.6026 6.38239C24.1756 5.99947 24.6223 5.45522 24.8861 4.81844C25.1498 4.18167 25.2188 3.48098 25.0844 2.80499C24.9499 2.12899 24.618 1.50805 24.1306 1.02069C23.6433 0.533324 23.0223 0.201424 22.3463 0.0669605C21.6704 -0.0675033 20.9697 0.00150828 20.3329 0.265268C19.6961 0.529028 19.1519 0.97569 18.7689 1.54877C18.4397 2.04152 18.2424 2.6087 18.1936 3.19616C18.1804 3.35522 18.311 3.48485 18.4707 3.48485C18.6303 3.48485 18.7582 3.35513 18.774 3.1963C18.8212 2.72333 18.9838 2.26756 19.2496 1.8699C19.569 1.39188 20.0229 1.0193 20.5541 0.799291C21.0852 0.57928 21.6697 0.521715 22.2336 0.633876C22.7975 0.746037 23.3154 1.02288 23.7219 1.42941C24.1285 1.83594 24.4053 2.35389 24.5175 2.91776C24.6296 3.48162 24.5721 4.06609 24.352 4.59724C24.132 5.1284 23.7595 5.58238 23.2814 5.90179C22.8838 6.16749 22.428 6.33014 21.955 6.37732C21.7962 6.39316 21.6665 6.52107 21.6665 6.68069Z" fill="#152845"/>
<g id="Vector" filter="url(#filter0_d_472_2510)">
<path d="M23.6092 17.8903C23.1205 17.4062 22.5403 17.0222 21.9016 16.7602C21.263 16.4981 20.5785 16.3633 19.8872 16.3633C19.196 16.3633 18.5115 16.4981 17.8729 16.7602C17.2342 17.0222 16.654 17.4062 16.1653 17.8903L15.1511 18.8946L14.1369 17.8903C13.1498 16.9129 11.811 16.3638 10.415 16.3638C9.01898 16.3638 7.68016 16.9129 6.69304 17.8903C5.70592 18.8677 5.15137 20.1934 5.15137 21.5757C5.15137 22.958 5.70592 24.2836 6.69304 25.261L7.70725 26.2653L15.1511 33.636L22.595 26.2653L23.6092 25.261C24.0981 24.7772 24.4859 24.2026 24.7506 23.5703C25.0152 22.9379 25.1514 22.2602 25.1514 21.5757C25.1514 20.8912 25.0152 20.2134 24.7506 19.5811C24.4859 18.9487 24.0981 18.3742 23.6092 17.8903Z" fill="#EE3764"/>
</g>
</g>
<defs>
<filter id="filter0_d_472_2510" x="1.15137" y="16.3633" width="28" height="25.2734" filterUnits="userSpaceOnUse" color-interpolation-filters="sRGB">
<feFlood flood-opacity="0" result="BackgroundImageFix"/>
<feColorMatrix in="SourceAlpha" type="matrix" values="0 0 0 0 0 0 0 0 0 0 0 0 0 0 0 0 0 0 127 0" result="hardAlpha"/>
<feOffset dy="4"/>
<feGaussianBlur stdDeviation="2"/>
<feComposite in2="hardAlpha" operator="out"/>
<feColorMatrix type="matrix" values="0 0 0 0 0 0 0 0 0 0 0 0 0 0 0 0 0 0 0.25 0"/>
<feBlend mode="normal" in2="BackgroundImageFix" result="effect1_dropShadow_472_2510"/>
<feBlend mode="normal" in="SourceGraphic" in2="effect1_dropShadow_472_2510" result="shape"/>
</filter>
</defs>
</svg>
