<svg width="56" height="50" viewBox="0 0 56 50" fill="none" xmlns="http://www.w3.org/2000/svg">
<g id="Asset 8 1 (traced)" clip-path="url(#clip0_935_11796)">
<g id="Gray">
<path id="Vector" d="M37.9286 41.7611V42.7159H39.6072C40.5286 42.7159 41.2858 42.73 41.2858 42.7512C41.2858 42.7724 40.4001 44.3283 39.3144 46.2024C38.2286 48.0765 37.3215 49.6324 37.3072 49.6607C37.2929 49.6961 38.9358 49.7173 40.9572 49.7173H44.6429V48.7625V47.8078L42.7644 47.7937L40.8786 47.7724L42.8715 44.3142C43.9644 42.4188 44.8572 40.8488 44.8572 40.8347C44.8572 40.8205 43.3001 40.8064 41.3929 40.8064H37.9286V41.7611Z" fill="#404040"/>
<path id="Vector_2" d="M45.7144 40.8418C45.7144 40.863 46.2501 41.8601 46.9001 43.0553C47.5501 44.2505 48.1644 45.3679 48.2572 45.5447L48.4358 45.863L47.3929 47.7724C46.8215 48.8191 46.3572 49.689 46.3572 49.6961C46.3572 49.7102 46.9358 49.7173 47.6358 49.7173H48.9144L49.8001 47.928C50.2929 46.9521 51.2715 45.078 51.9786 43.7767C52.6858 42.4754 53.3358 41.2732 53.4215 41.1034L53.5715 40.8064H52.4358H51.3001L50.5001 42.2562C50.0644 43.0553 49.6786 43.7201 49.6501 43.7343C49.6215 43.7555 49.2286 43.1119 48.7786 42.3057L47.9644 40.8418L46.8358 40.8205C46.2215 40.8135 45.7144 40.8205 45.7144 40.8418Z" fill="#404040"/>
</g>
<path id="Vector_3" d="M0 0.176805C0 0.445547 0.335714 2.843 0.535714 4.01698C1.26429 8.21075 2.42857 12.454 3.96429 16.5134C4.22857 17.2136 4.49286 17.8713 4.55 17.9774L4.65 18.1754H5.77143H6.89286L7.06429 17.8218C7.27143 17.3975 7.67143 17.0226 8.17143 16.7893C8.61429 16.5842 9.3 16.5629 9.80714 16.7327C10.2429 16.8812 10.8143 17.3904 11.0571 17.8501C11.2214 18.1612 11.25 18.2956 11.25 18.8119C11.25 19.3282 11.2214 19.4625 11.0571 19.7737C10.8143 20.2334 10.2429 20.7426 9.80714 20.8911C9.3 21.0608 8.61429 21.0396 8.17143 20.8345C7.67143 20.6011 7.27143 20.2263 7.06429 19.802L6.89286 19.4484H6.05714C5.57143 19.4484 5.21429 19.4767 5.21429 19.5191C5.21429 19.6181 6.25 21.867 6.73571 22.8076C9.00714 27.2277 13.3 30.2546 18.5714 31.1598C19.8429 31.3791 21.7714 31.4781 21.6714 31.3225C21.6357 31.2659 21.2143 30.6436 20.7286 29.9293C18.1214 26.0962 15.8429 21.7963 14.1143 17.4823C12.9929 14.6747 12.1714 12.1429 11.3929 9.05941C10.8929 7.05092 10.7286 6.56294 10.2357 5.65064C9.54286 4.34229 8.15 2.83593 6.85 1.9802C4.97857 0.756721 2.53571 0.00707436 0.414286 3.8147e-06C0.0214286 3.8147e-06 0 0.00707436 0 0.176805Z" fill="#EC406B"/>
<path id="Vector_4" d="M23.1431 3.16125C23.1431 3.2744 23.2216 3.91797 23.3216 4.59689C24.2359 10.8628 26.0145 16.5629 28.8931 22.4682C29.5574 23.826 30.0288 24.6323 30.6431 25.4526C31.0788 26.0325 32.3645 27.3975 32.5859 27.5177C32.7074 27.5813 32.7145 27.4823 32.7145 25.0566V22.5248L32.3216 22.3197C31.2788 21.7822 30.8288 20.5304 31.3074 19.4979C32.1074 17.7723 34.5288 17.7369 35.3716 19.4342C35.6074 19.9151 35.6288 20.6294 35.4288 21.1669C35.2502 21.6478 34.7502 22.1782 34.3002 22.3762L34.0002 22.5106V25.5587V28.6068L34.5931 28.9745C37.0216 30.4738 40.5645 31.4852 43.0216 31.3861L43.5859 31.3649L43.1859 30.8204C37.8931 23.5219 34.3145 15.0778 32.9002 6.57709C32.7359 5.59406 32.4288 3.29562 32.4288 3.06224C32.4288 2.98444 31.5645 2.9703 27.7859 2.9703H23.1431V3.16125Z" fill="#EC406B"/>
<path id="Vector_5" d="M8.62882 17.2842C7.89311 17.4823 7.47168 18.0339 7.47168 18.8118C7.47168 19.8868 8.34311 20.594 9.41454 20.3677C10.1217 20.2121 10.636 19.5615 10.6431 18.826C10.6431 17.751 9.67882 17.0084 8.62882 17.2842Z" fill="#EC406B"/>
<path id="Vector_6" d="M33 18.8261C31.9571 19.0029 31.4 20.2829 31.9714 21.1952C32.1 21.3933 32.3214 21.6125 32.5214 21.7398C33.2214 22.1641 34.1786 21.9661 34.6714 21.3013C34.8786 21.0114 34.8929 20.9548 34.8929 20.3819C34.8929 19.8303 34.8714 19.7384 34.7 19.4838C34.3214 18.9392 33.7071 18.7059 33 18.8261Z" fill="#EC406B"/>
<path id="Vector_7" d="M33.2858 39.5049V41.6761L33.0572 41.4851C32.2787 40.8628 31.5072 40.5941 30.5072 40.5941C29.2715 40.5941 28.4429 40.9264 27.6072 41.761C26.5644 42.8006 26.0858 44.2999 26.2858 45.9123C26.4287 47.0933 26.8644 48.0057 27.6572 48.7765C29.1501 50.2263 31.5001 50.3748 32.9858 49.116L33.2858 48.8543V49.2857V49.7171H34.4287H35.5715V43.529V37.3409H34.4287H33.2858V39.5049ZM31.9858 42.9208C32.8358 43.3522 33.2858 44.0594 33.3429 45.0566C33.3929 45.9264 33.2001 46.5205 32.7072 47.058C32.1858 47.6238 31.7001 47.843 30.9644 47.843C30.4858 47.843 30.3287 47.8076 29.9929 47.645C29.5001 47.4116 29.0501 46.9448 28.8001 46.4074C28.6287 46.0537 28.6072 45.9194 28.6072 45.2617C28.6072 44.611 28.6287 44.4696 28.7929 44.1301C29.1001 43.4724 29.5572 43.0481 30.2072 42.8076C30.6072 42.6591 31.6001 42.7228 31.9858 42.9208Z" fill="#EC406B"/>
<path id="Vector_8" d="M19.2855 40.7001C17.807 41.0608 16.5855 42.1923 16.0927 43.6633C15.9213 44.1796 15.8998 44.3422 15.8998 45.297C15.8927 46.2871 15.907 46.4002 16.0927 46.9236C16.6141 48.3875 17.8141 49.4695 19.3213 49.8302C19.6641 49.9151 20.107 49.9504 20.7141 49.9504C22.2713 49.9434 23.1998 49.5898 24.1641 48.6492C24.4641 48.3521 24.7141 48.0693 24.7141 48.0268C24.7141 47.949 22.9927 47.1004 22.8427 47.1004C22.807 47.1004 22.5998 47.2277 22.3784 47.3833C21.807 47.7864 21.3713 47.9137 20.607 47.9066C19.507 47.8995 18.7213 47.4469 18.3213 46.5841C17.9998 45.9052 17.657 45.9688 21.757 45.9688H25.3784L25.3284 45.2263C25.2284 43.727 24.8284 42.751 23.9284 41.867C23.3284 41.2659 22.6498 40.891 21.857 40.7072C21.2784 40.5728 19.8355 40.5657 19.2855 40.7001ZM21.6855 42.7439C22.1713 42.9632 22.6141 43.3663 22.8284 43.7906L22.9998 44.1301H20.607H18.207L18.3641 43.8472C18.7498 43.1683 19.1998 42.8147 19.9284 42.6096C20.4498 42.4681 21.1998 42.5247 21.6855 42.7439Z" fill="#EC406B"/>
<path id="Vector_9" d="M2.45692 40.9617C2.47835 41.0537 3.19978 43.048 4.05692 45.403L5.62121 49.6817L6.37121 49.7029L7.12835 49.7241L7.48549 48.8189C7.67835 48.3238 8.10692 47.2206 8.43549 46.379C8.76406 45.5374 9.04978 44.8585 9.07121 44.8797C9.09263 44.9009 9.51406 45.99 10.0141 47.2984L10.9141 49.6817H11.6855H12.4569L14.0498 45.3677C14.9283 42.9914 15.6569 40.9971 15.6855 40.9264C15.7212 40.8132 15.6498 40.8062 14.5641 40.8203L13.3998 40.8415L12.5426 43.2248C12.0641 44.5402 11.6641 45.6152 11.6426 45.6152C11.6212 45.6152 11.1998 44.5402 10.6998 43.2248L9.79978 40.8415H9.07121H8.33549L7.40692 43.2673C6.89263 44.5968 6.45692 45.6647 6.42835 45.6364C6.39978 45.6081 5.99978 44.5049 5.53549 43.1895L4.69263 40.8062H3.54978H2.41406L2.45692 40.9617Z" fill="#EC406B"/>
<g id="Silver">
<path id="Vector_10" d="M54.964 0.615198C51.7354 0.806147 48.7854 1.66895 46.2426 3.16117C44.0783 4.43415 42.3354 6.05367 41.0497 7.99144C40.214 9.25735 38.5926 12.6025 37.4783 15.3889C36.664 17.4186 36.6926 17.1286 37.214 18.3238C38.2426 20.6859 39.8711 23.7977 41.3426 26.2022C42.0354 27.3337 43.6783 29.809 43.7711 29.8726C43.8068 29.8938 43.9068 29.4059 43.9926 28.7977C44.8426 23.0551 46.8068 16.8245 49.4997 11.3295L50.2783 9.75947H48.9568H47.6426L47.4711 10.106C47.2426 10.5445 46.664 11.0607 46.2354 11.2022C45.1711 11.5629 43.9854 11.0749 43.5068 10.0919C43.2211 9.50487 43.1783 9.15834 43.314 8.635C43.5068 7.87828 43.8997 7.41859 44.6354 7.0862C45.6711 6.61237 46.9783 7.10742 47.4997 8.17531L47.6568 8.48649H49.3068H50.964L51.2426 7.97022C52.1354 6.33656 54.1568 3.17531 55.4497 1.40021C55.7497 0.98295 55.9997 0.629343 55.9997 0.608126C55.9997 0.565693 55.6854 0.565693 54.964 0.615198Z" fill="#EC6B96"/>
<path id="Vector_11" d="M21.8499 4.34936C19.8999 7.29844 17.6499 11.7468 15.8856 16.1386L15.207 17.8147L15.8285 19.2503C16.6356 21.1457 18.3642 24.5969 19.3427 26.2801C20.1499 27.6733 21.357 29.5615 21.4427 29.5615C21.4642 29.5615 21.5213 29.3281 21.5713 29.0453C22.307 24.4342 23.207 21.0325 24.5856 17.6096L25.2285 16.0184L24.7927 14.6747C23.8427 11.7044 23.257 9.25742 22.7142 5.97595C22.557 5 22.3999 4.08062 22.3713 3.92503L22.3142 3.64215L21.8499 4.34936Z" fill="#EC6B96"/>
<path id="Vector_12" d="M45.1069 7.56014C44.3426 7.74401 43.8997 8.31686 43.8926 9.12308C43.8926 9.50497 43.9283 9.63934 44.0926 9.92223C44.3926 10.4244 44.764 10.6365 45.3926 10.6648C45.7997 10.686 45.964 10.6648 46.1854 10.5517C47.4711 9.89394 47.3354 8.00568 45.9711 7.60257C45.5926 7.48942 45.4426 7.48234 45.1069 7.56014Z" fill="#EC6B96"/>
</g>
</g>
<defs>
<clipPath id="clip0_935_11796">
<rect width="56" height="50" fill="white"/>
</clipPath>
</defs>
</svg>
