<svg width="112" height="20" viewBox="0 0 112 20" fill="none" xmlns="http://www.w3.org/2000/svg">
<g id="Group 1000003651">
<g id="Group 1000003649">
<path id="Vector" d="M0 3.09249C0 3.23305 0.173852 4.487 0.277423 5.10103C0.654718 7.29452 1.25765 9.51391 2.05293 11.6371C2.18979 12.0033 2.32665 12.3473 2.35625 12.4028L2.40803 12.5064H2.98877H3.56951L3.65829 12.3214C3.76556 12.0995 3.9727 11.9034 4.23163 11.7814C4.46096 11.6741 4.81606 11.663 5.07869 11.7518C5.30433 11.8295 5.60025 12.0958 5.72601 12.3362C5.81109 12.499 5.82588 12.5693 5.82588 12.8393C5.82588 13.1093 5.81109 13.1796 5.72601 13.3423C5.60025 13.5828 5.30433 13.8491 5.07869 13.9268C4.81606 14.0156 4.46096 14.0045 4.23163 13.8972C3.9727 13.7751 3.76556 13.5791 3.65829 13.3571L3.56951 13.1722H3.13673C2.8852 13.1722 2.70025 13.187 2.70025 13.2092C2.70025 13.261 3.2366 14.4372 3.48813 14.9292C4.66441 17.2411 6.88749 18.8242 9.61733 19.2977C10.2757 19.4124 11.2745 19.4641 11.2227 19.3828C11.2042 19.3532 10.986 19.0277 10.7344 18.6541C9.3843 16.6492 8.20432 14.4003 7.30917 12.1439C6.72843 10.6754 6.30305 9.35115 5.89986 7.7384C5.64094 6.68789 5.55586 6.43266 5.30063 5.95549C4.94183 5.27118 4.22053 4.4833 3.54732 4.03573C2.57818 3.3958 1.31314 3.00371 0.21454 3.00001C0.0110969 3.00001 0 3.00371 0 3.09249Z" fill="#EC406B"/>
<path id="Vector_2" d="M11.9846 4.65346C11.9846 4.71264 12.0253 5.04925 12.0771 5.40435C12.5506 8.68164 13.4716 11.663 14.9623 14.7517C15.3063 15.4619 15.5504 15.8835 15.8685 16.3126C16.0942 16.6159 16.76 17.3298 16.8747 17.3927C16.9375 17.426 16.9412 17.3742 16.9412 16.1055V14.7812L16.7378 14.674C16.1978 14.3929 15.9647 13.7381 16.2125 13.1981C16.6268 12.2955 17.8808 12.277 18.3173 13.1648C18.4393 13.4163 18.4504 13.7899 18.3469 14.071C18.2544 14.3226 17.9955 14.6 17.7624 14.7036L17.6071 14.7739V16.3681V17.9624L17.9141 18.1547C19.1717 18.9389 21.0064 19.4678 22.2789 19.4161L22.5711 19.405L22.3639 19.1201C19.623 15.3028 17.7698 10.8862 17.0374 6.44006C16.9523 5.9259 16.7933 4.72374 16.7933 4.60167C16.7933 4.56098 16.3457 4.55359 14.389 4.55359H11.9846V4.65346Z" fill="#EC406B"/>
<path id="Vector_3" d="M4.4685 12.0403C4.0875 12.1438 3.86926 12.4324 3.86926 12.8393C3.86926 13.4015 4.32054 13.7714 4.87538 13.653C5.24158 13.5717 5.50791 13.2313 5.51161 12.8467C5.51161 12.2844 5.01225 11.896 4.4685 12.0403Z" fill="#EC406B"/>
<path id="Vector_4" d="M17.0892 12.8465C16.5492 12.939 16.2607 13.6085 16.5566 14.0857C16.6232 14.1892 16.7378 14.3039 16.8414 14.3705C17.2039 14.5924 17.6996 14.4889 17.9548 14.1411C18.0621 13.9895 18.0695 13.9599 18.0695 13.6603C18.0695 13.3718 18.0584 13.3237 17.9696 13.1905C17.7735 12.9057 17.4554 12.7836 17.0892 12.8465Z" fill="#EC406B"/>
<g id="Silver">
<path id="Vector_5" d="M28.4637 3.32175C26.7917 3.42162 25.2641 3.8729 23.9472 4.65338C22.8264 5.3192 21.9239 6.16626 21.2581 7.17978C20.8253 7.8419 19.9856 9.59151 19.4086 11.0489C18.9869 12.1105 19.0017 11.9589 19.2717 12.584C19.8044 13.8194 20.6477 15.447 21.4097 16.7046C21.7685 17.2965 22.6193 18.5911 22.6674 18.6244C22.6859 18.6355 22.7377 18.3803 22.7821 18.0622C23.2222 15.0586 24.2395 11.7998 25.634 8.9257L26.0372 8.10452H25.3528H24.6722L24.5835 8.28577C24.4651 8.51511 24.1655 8.78514 23.9435 8.85912C23.3924 9.04776 22.7784 8.79253 22.5305 8.27838C22.3826 7.97136 22.3604 7.79011 22.4307 7.51639C22.5305 7.1206 22.734 6.88016 23.115 6.70631C23.6513 6.45848 24.3282 6.71741 24.5983 7.27595L24.6796 7.43871H25.5341H26.3923L26.5365 7.16868C26.9989 6.31422 28.0457 4.66078 28.7152 3.73234C28.8706 3.5141 29 3.32915 29 3.31805C29 3.29586 28.8373 3.29586 28.4637 3.32175Z" fill="#EC6B96"/>
<path id="Vector_6" d="M11.3153 5.27477C10.3055 6.81724 9.14029 9.14389 8.22665 11.441L7.87524 12.3176L8.19705 13.0685C8.61504 14.0598 9.51019 15.8649 10.017 16.7453C10.4349 17.474 11.0601 18.4616 11.1044 18.4616C11.1155 18.4616 11.1451 18.3395 11.171 18.1916C11.552 15.7799 12.0181 14.0006 12.732 12.2103L13.0649 11.3781L12.8393 10.6753C12.3473 9.1217 12.044 7.84186 11.7629 6.12553C11.6815 5.61507 11.6001 5.13421 11.5853 5.05283L11.5557 4.90487L11.3153 5.27477Z" fill="#EC6B96"/>
<path id="Vector_7" d="M23.3591 6.95423C22.9633 7.05041 22.7339 7.35002 22.7302 7.77171C22.7302 7.97145 22.7487 8.04173 22.8338 8.18969C22.9892 8.45232 23.1815 8.56329 23.507 8.57808C23.7179 8.58918 23.8029 8.57808 23.9176 8.5189C24.5834 8.1749 24.5131 7.18727 23.8066 6.97643C23.6106 6.91724 23.5329 6.91355 23.3591 6.95423Z" fill="#EC6B96"/>
</g>
</g>
<g id="Group 1000003650">
<g id="Gray">
<path id="Vector_8" d="M87.9811 6.78584V8.25154H90.5325C91.933 8.25154 93.0839 8.27325 93.0839 8.30582C93.0839 8.33839 91.7376 10.7269 90.0873 13.6041C88.4371 16.4812 87.0582 18.8697 87.0365 18.9131C87.0148 18.9674 89.5119 19 92.5845 19H98.1867V17.5343V16.0686L95.3313 16.0469L92.465 16.0143L95.4941 10.7052C97.1553 7.79554 98.5124 5.38528 98.5124 5.36357C98.5124 5.34185 96.1456 5.32014 93.2467 5.32014H87.9811V6.78584Z" fill="#404040"/>
<path id="Vector_9" d="M99.8152 5.37442C99.8152 5.40699 100.629 6.93784 101.617 8.77267C102.605 10.6075 103.539 12.3229 103.68 12.5944L103.952 13.0829L102.367 16.0143C101.498 17.6212 100.792 18.9566 100.792 18.9674C100.792 18.9891 101.672 19 102.736 19H104.679L106.025 16.2532C106.775 14.7549 108.262 11.8778 109.337 9.88009C110.412 7.8824 111.4 6.0367 111.53 5.77613L111.758 5.32014H110.032H108.305L107.089 7.54583C106.427 8.77267 105.841 9.79324 105.797 9.81495C105.754 9.84752 105.157 8.85953 104.473 7.62183L103.235 5.37442L101.52 5.34185C100.586 5.33099 99.8152 5.34185 99.8152 5.37442Z" fill="#404040"/>
</g>
<path id="Vector_10" d="M81.5703 3.2557V6.52205L81.2273 6.23478C80.0591 5.2985 78.9016 4.89419 77.4011 4.89419C75.5469 4.89419 74.3037 5.39425 73.0497 6.64972C71.4849 8.21374 70.7668 10.4693 71.0669 12.8951C71.2813 14.6719 71.935 16.0444 73.1247 17.2042C75.3647 19.3853 78.8909 19.6087 81.1202 17.7149L81.5703 17.3212V17.9702V18.6192H83.2852H85V9.30961V0H83.2852H81.5703V3.2557ZM79.6197 8.39461C80.8951 9.04362 81.5703 10.1076 81.6561 11.6078C81.7311 12.9164 81.4417 13.8101 80.7022 14.6187C79.9198 15.4699 79.191 15.7997 78.087 15.7997C77.3689 15.7997 77.1332 15.7465 76.6294 15.5018C75.8899 15.1507 75.2147 14.4485 74.8396 13.6399C74.5823 13.1079 74.5502 12.9058 74.5502 11.9163C74.5502 10.9375 74.5823 10.7247 74.8288 10.214C75.2897 9.22449 75.9756 8.58612 76.951 8.22438C77.5511 8.00095 79.0409 8.0967 79.6197 8.39461Z" fill="#EC406B"/>
<path id="Vector_11" d="M59.3594 5.14574C57.0198 5.68593 55.0872 7.38064 54.3073 9.58377C54.0361 10.357 54.0022 10.6006 54.0022 12.0305C53.9909 13.5134 54.0135 13.6828 54.3073 14.4667C55.1324 16.6592 57.0311 18.2797 59.4159 18.8199C59.9584 18.947 60.6591 19 61.6198 19C64.0836 18.9894 65.5529 18.4598 67.0787 17.0511C67.5533 16.6062 67.9489 16.1825 67.9489 16.119C67.9489 16.0025 65.2251 14.7314 64.9878 14.7314C64.9313 14.7314 64.6035 14.9221 64.2531 15.1551C63.349 15.7589 62.6596 15.9495 61.4502 15.9389C59.7097 15.9283 58.4665 15.2505 57.8336 13.9582C57.325 12.9414 56.7825 13.0367 63.2699 13.0367H69L68.9209 11.9246C68.7627 9.67909 68.1297 8.21741 66.7057 6.89341C65.7563 5.9931 64.6826 5.43173 63.4281 5.15634C62.5126 4.95509 60.2296 4.9445 59.3594 5.14574ZM63.1568 8.20681C63.9254 8.53516 64.6261 9.1389 64.9652 9.77442L65.2364 10.2828H61.4502H57.6528L57.9014 9.85916C58.5117 8.84233 59.2237 8.31273 60.3765 8.00557C61.2016 7.79373 62.3883 7.87846 63.1568 8.20681Z" fill="#EC406B"/>
<path id="Vector_12" d="M34.0646 6.2268C34.0968 6.36083 35.1835 9.26804 36.4745 12.701L38.8307 18.9381L39.9604 18.9691L41.1008 19L41.6388 17.6804C41.9293 16.9588 42.5748 15.3505 43.0697 14.1237C43.5646 12.8969 43.995 11.9072 44.0272 11.9381C44.0595 11.9691 44.6943 13.5567 45.4474 15.4639L46.803 18.9381H47.965H49.1269L51.5261 12.6495C52.8495 9.18557 53.9469 6.27835 53.9899 6.17526C54.0437 6.01031 53.9361 6 52.3008 6.02062L50.5471 6.05155L49.256 9.52577C48.5352 11.4433 47.9327 13.0103 47.9004 13.0103C47.8681 13.0103 47.2334 11.4433 46.4802 9.52577L45.1246 6.05155H44.0272H42.9191L41.5204 9.58763C40.7458 11.5258 40.0895 13.0825 40.0465 13.0412C40.0034 13 39.4009 11.3918 38.7016 9.47423L37.4321 6H35.7107H34L34.0646 6.2268Z" fill="#EC406B"/>
</g>
</g>
</svg>
